M48
;DRILL file {KiCad (5.0.2)-1} date 3/21/2019 10:25:33 PM
;FORMAT={-:-/ absolute / inch / decimal}
FMAT,2
INCH,TZ
T1C0.0079
T2C0.0098
T3C0.0118
T4C0.0157
T5C0.0358
T6C0.0394
T7C0.0402
T8C0.0425
T9C0.0433
T10C0.0634
T11C0.1200
T12C0.1283
%
G90
G05
T1
X3.857Y-2.1656
X3.8917Y-2.5307
X3.9343Y-2.3224
X3.9343Y-2.5512
X3.9343Y-2.6138
X3.9343Y-2.7024
X3.9343Y-2.7882
X3.9343Y-2.876
X3.9343Y-3.1425
X3.9343Y-3.2858
X3.9343Y-3.3744
X3.9343Y-3.4646
X3.9343Y-3.5346
X3.9748Y-2.552
X3.987Y-2.1306
X3.9972Y-3.5976
X4.Y-2.22
X4.027Y-1.8506
X4.032Y-2.0106
X4.097Y-3.1056
X4.098Y-3.6984
X4.1Y-2.39
X4.1Y-2.66
X4.1Y-2.73
X4.1Y-2.98
X4.107Y-2.3306
X4.112Y-2.5556
X4.122Y-2.6206
X4.127Y-3.0306
X4.2421Y-3.8425
X4.347Y-2.6156
X4.3492Y-3.8425
X4.352Y-3.0256
X4.437Y-2.2206
X4.442Y-2.5256
X4.457Y-2.1206
X4.457Y-2.2806
X4.457Y-2.3956
X4.457Y-2.6306
X4.462Y-1.9956
X4.4894Y-3.8425
X4.507Y-3.0056
X4.6079Y-3.8425
X4.7642Y-3.8425
X4.8433Y-3.8425
X4.867Y-1.9356
X4.882Y-2.9606
X4.887Y-1.8556
X4.9Y-2.8
X4.9055Y-2.5873
X4.91Y-2.66
X4.952Y-1.9406
X5.0118Y-3.8425
X5.037Y-1.8606
X5.057Y-1.9456
X5.062Y-2.9606
X5.092Y-2.9106
X5.132Y-1.9406
X5.1469Y-3.8425
X5.207Y-1.8356
X5.207Y-2.9056
X5.2189Y-3.3713
X5.29Y-2.349
X5.2921Y-3.8425
X5.3Y-2.31
X5.302Y-2.9056
X5.342Y-1.8256
X5.3547Y-2.2594
X5.3976Y-2.5421
X5.3984Y-2.828
X5.4Y-2.69
X5.448Y-2.4913
X5.448Y-2.435
X5.49Y-1.98
X5.4972Y-2.6
X5.4992Y-3.8425
X5.4996Y-2.6583
X5.5Y-2.32
X5.5Y-2.7
X5.5Y-2.29
X5.5303Y-2.4531
X5.5303Y-2.485
X5.5429Y-2.8783
X5.587Y-1.8406
X5.59Y-2.22
X5.5906Y-2.1492
X5.622Y-3.1555
X5.626Y-3.8425
X5.6354Y-2.7031
X5.6427Y-2.4272
X5.6508Y-2.1106
X5.687Y-1.8406
X5.6996Y-2.7799
X5.7047Y-2.2953
X5.7256Y-2.0772
X5.7298Y-2.3003
X5.737Y-2.3906
X5.737Y-2.4406
X5.737Y-2.4906
X5.737Y-2.5406
X5.737Y-2.5906
X5.737Y-2.6406
X5.737Y-2.6906
X5.7457Y-2.9744
X5.7657Y-2.3154
X5.787Y-1.8406
X5.7878Y-2.922
X5.7894Y-2.3071
X5.7961Y-2.1488
X5.7976Y-3.8425
X5.837Y-2.3906
X5.837Y-2.4406
X5.837Y-2.4906
X5.837Y-2.5406
X5.837Y-2.5906
X5.837Y-2.6406
X5.837Y-2.6906
X5.8457Y-2.7799
X5.8618Y-2.1106
X5.887Y-1.8406
X5.8937Y-2.1839
X5.9004Y-3.0563
X5.9283Y-2.7795
X5.9295Y-2.1102
X5.9307Y-3.8425
X5.937Y-2.3906
X5.937Y-2.4406
X5.937Y-2.4906
X5.937Y-2.5406
X5.937Y-2.5906
X5.937Y-2.6406
X5.937Y-2.6906
X5.9417Y-2.1843
X5.9669Y-2.9756
X5.9693Y-3.289
X5.9728Y-2.1843
X5.986Y-2.922
X5.987Y-1.8406
X5.9929Y-2.1496
X6.037Y-2.3906
X6.037Y-2.4406
X6.037Y-2.4906
X6.037Y-2.5406
X6.037Y-2.5906
X6.037Y-2.6406
X6.037Y-2.6906
X6.0512Y-2.1496
X6.0677Y-3.8425
X6.0718Y-2.1793
X6.074Y-2.7831
X6.087Y-1.8406
X6.087Y-3.0406
X6.1126Y-2.1087
X6.1339Y-2.6579
X6.1339Y-2.7358
X6.1469Y-2.1484
X6.187Y-1.8406
X6.237Y-2.1087
X6.2374Y-2.9358
X6.2461Y-3.0555
X6.2646Y-2.4154
X6.2756Y-2.9193
X6.287Y-1.8406
X6.2886Y-3.8425
X6.31Y-2.4705
X6.31Y-2.5
X6.3398Y-2.6815
X6.3398Y-2.9307
X6.3492Y-2.3398
X6.3673Y-2.1539
X6.376Y-3.1594
X6.3862Y-3.3079
X6.3937Y-3.8425
X6.437Y-1.8406
X6.47Y-2.6
X6.4925Y-2.4925
X6.4945Y-2.8016
X6.4965Y-2.6689
X6.4996Y-2.8858
X6.5Y-2.55
X6.5008Y-2.8366
X6.537Y-1.8406
X6.5496Y-2.1992
X6.552Y-2.8811
X6.5528Y-2.8311
X6.574Y-2.6657
X6.5949Y-2.4925
X6.6004Y-2.3335
X6.637Y-1.8406
X6.637Y-3.8425
X6.6409Y-2.595
X6.6685Y-2.6835
X6.7012Y-2.2354
X6.7122Y-2.3335
X6.7236Y-2.5398
X6.7315Y-2.4008
X6.737Y-1.8406
X6.7689Y-2.5039
X6.8039Y-2.2295
X6.8268Y-2.6594
X6.8311Y-3.8425
X6.837Y-1.8406
X6.837Y-2.9913
X6.839Y-3.0425
X6.84Y-2.42
X6.8639Y-2.3544
X6.8732Y-2.5417
X6.8811Y-2.2575
X6.887Y-2.9906
X6.887Y-3.0406
X6.9299Y-2.576
X6.937Y-1.8406
X7.0072Y-1.8828
X7.0091Y-2.17
X7.0193Y-2.6614
X7.0236Y-3.0547
X7.0366Y-2.2
X7.037Y-1.8406
X7.0563Y-2.3209
X7.0567Y-2.5173
X7.06Y-2.23
X7.0831Y-2.25
X7.0992Y-2.8854
X7.1051Y-2.9776
X7.1343Y-2.5587
X7.1551Y-2.5059
X7.16Y-2.73
X7.17Y-2.24
X7.1795Y-2.6547
X7.182Y-1.8828
X7.187Y-1.8406
X7.2091Y-2.9957
X7.22Y-2.3
X7.2232Y-2.574
X7.2303Y-3.8425
X7.2697Y-2.4732
X7.287Y-1.8406
X7.2941Y-2.5433
X7.3142Y-3.0677
X7.3386Y-2.6823
X7.3512Y-3.8425
X7.387Y-1.8406
X7.437Y-1.9406
X7.46Y-2.97
X7.4803Y-3.0571
X7.53Y-2.51
X7.537Y-1.8406
X7.537Y-1.9406
X7.537Y-1.9906
X7.537Y-2.9406
X7.5453Y-3.3268
X7.6Y-2.38
X7.6Y-2.13
X7.637Y-1.9406
X7.637Y-1.9906
X7.637Y-2.9406
X7.64Y-2.38
X7.6472Y-3.8425
X7.687Y-1.8406
X7.737Y-1.9406
X7.737Y-2.9406
X7.79Y-2.14
X7.8012Y-2.8898
X7.83Y-1.95
X7.83Y-2.35
X7.8307Y-3.0669
X7.837Y-1.8406
X7.8646Y-2.2555
X7.8721Y-3.8465
X7.88Y-2.42
X7.9016Y-2.7083
X7.9602Y-2.7008
X7.987Y-1.8406
X7.987Y-2.0406
X8.03Y-3.01
X8.06Y-2.82
X8.087Y-2.0406
X8.0937Y-3.8465
X8.111Y-2.2343
X8.137Y-1.8406
X8.17Y-2.95
X8.24Y-2.31
X8.2582Y-2.6532
X8.2598Y-3.0256
X8.2608Y-2.7402
X8.2835Y-2.6703
X8.2851Y-3.0214
X8.2867Y-2.7574
X8.337Y-1.8406
X8.3539Y-2.4
X8.3547Y-2.3681
X8.374Y-3.8465
X8.3874Y-3.035
X8.4358Y-2.5
X8.487Y-1.8406
X8.587Y-1.8406
X8.61Y-2.63
X8.6803Y-3.7752
X8.737Y-1.8406
X8.79Y-2.56
X8.82Y-2.63
X8.9004Y-2.4476
T2
X7.48Y-2.28
X7.5878Y-2.2579
X7.7638Y-2.2638
T3
X4.4419Y-1.9498
X4.4429Y-2.3474
X4.4429Y-2.753
X4.7825Y-2.6831
X4.7864Y-2.3258
X4.7904Y-1.9419
X4.8327Y-3.3337
X5.24Y-2.22
X5.24Y-2.28
X5.25Y-2.125
X5.3827Y-2.1106
X6.2646Y-2.5953
X6.9Y-2.84
X7.4Y-2.8
X8.05Y-2.775
T4
X4.34Y-3.34
X4.79Y-3.33
X4.9307Y-2.8614
X5.09Y-3.33
X5.4142Y-2.1508
X5.56Y-3.32
X6.32Y-3.33
X6.5344Y-3.0669
X6.68Y-3.31
X7.11Y-3.31
X7.35Y-2.96
X7.69Y-3.35
X7.76Y-3.42
X7.89Y-2.96
X8.11Y-3.36
X8.19Y-3.41
X8.25Y-3.36
X8.6409Y-2.9894
X8.737Y-3.3299
T5
X5.0216Y-3.7378
X5.0716Y-3.6378
X5.1216Y-3.7378
X5.1716Y-3.6378
X5.2216Y-3.7378
X5.2716Y-3.6378
X5.3216Y-3.7378
X5.3716Y-3.6378
X6.5652Y-3.7378
X6.6152Y-3.6378
X6.6652Y-3.7378
X6.7152Y-3.6378
X6.7652Y-3.7378
X6.8152Y-3.6378
X6.8652Y-3.7378
X6.9152Y-3.6378
X5.7934Y-3.7378
X5.8434Y-3.6378
X5.8934Y-3.7378
X5.9434Y-3.6378
X5.9934Y-3.7378
X6.0434Y-3.6378
X6.0934Y-3.7378
X6.1434Y-3.6378
X4.2498Y-3.7378
X4.2998Y-3.6378
X4.3498Y-3.7378
X4.3998Y-3.6378
X4.4498Y-3.7378
X4.4998Y-3.6378
X4.5498Y-3.7378
X4.5998Y-3.6378
T6
X5.2943Y-1.9311
X5.3943Y-1.9311
X6.53Y-2.05
X6.63Y-2.05
X6.73Y-2.05
X6.83Y-2.05
X4.5876Y-2.8012
X4.6876Y-2.8012
X6.537Y-2.9906
X6.637Y-2.9906
X4.5876Y-2.4478
X4.6876Y-2.4478
X8.56Y-2.14
X8.56Y-2.24
X8.56Y-2.34
X8.56Y-2.44
X8.66Y-2.14
X8.66Y-2.24
X8.66Y-2.34
X8.66Y-2.44
X4.5876Y-2.0689
X4.6876Y-2.0689
X8.237Y-2.0406
X8.337Y-2.0406
T7
X8.4209Y-3.6035
X8.4209Y-3.7217
X8.5391Y-3.6035
X8.5391Y-3.7217
X7.8709Y-3.6035
X7.8709Y-3.7217
X7.9891Y-3.6035
X7.9891Y-3.7217
X7.3209Y-3.6035
X7.3209Y-3.7217
X7.4391Y-3.6035
X7.4391Y-3.7217
T8
X7.5572Y-3.5665
X8.3028Y-3.5665
X8.6572Y-3.5665
X7.7528Y-3.5665
X8.1072Y-3.5665
X7.2028Y-3.5665
T9
X4.948Y-3.226
X5.0464Y-3.226
X5.3468Y-3.226
X5.4452Y-3.226
X6.4915Y-3.226
X6.59Y-3.226
X6.8904Y-3.226
X6.9888Y-3.226
X5.7198Y-3.226
X5.8182Y-3.226
X6.1186Y-3.226
X6.217Y-3.226
X4.1762Y-3.226
X4.2746Y-3.226
X4.575Y-3.226
X4.6734Y-3.226
T10
X4.8865Y-3.5409
X5.5066Y-3.5409
X6.4301Y-3.5409
X7.0502Y-3.5409
X5.6583Y-3.5409
X6.2784Y-3.5409
X4.1148Y-3.5409
X4.7348Y-3.5409
T11
X3.91Y-1.94
X3.8936Y-3.7815
X8.9283Y-3.7673
X8.9283Y-1.97
T12
X4.9716Y-3.3878
X5.4216Y-3.3878
X6.5152Y-3.3878
X6.9652Y-3.3878
X5.7434Y-3.3878
X6.1934Y-3.3878
X4.1998Y-3.3878
X4.6498Y-3.3878
T0
M30
