G04 #@! TF.GenerationSoftware,KiCad,Pcbnew,(5.0.2)-1*
G04 #@! TF.CreationDate,2019-06-08T23:38:06+03:00*
G04 #@! TF.ProjectId,AVB switch with Can gateway,41564220-7377-4697-9463-682077697468,v01*
G04 #@! TF.SameCoordinates,Original*
G04 #@! TF.FileFunction,Paste,Bot*
G04 #@! TF.FilePolarity,Positive*
%FSLAX46Y46*%
G04 Gerber Fmt 4.6, Leading zero omitted, Abs format (unit mm)*
G04 Created by KiCad (PCBNEW (5.0.2)-1) date 6/8/2019 11:38:06 PM*
%MOMM*%
%LPD*%
G01*
G04 APERTURE LIST*
%ADD10R,0.900000X1.200000*%
%ADD11R,0.750000X1.200000*%
%ADD12R,1.200000X0.750000*%
%ADD13R,1.200000X0.900000*%
%ADD14R,2.000000X3.800000*%
%ADD15R,2.000000X1.500000*%
G04 APERTURE END LIST*
D10*
G04 #@! TO.C,R29*
X142672000Y-79940000D03*
X142672000Y-82140000D03*
G04 #@! TD*
G04 #@! TO.C,R22*
X151816000Y-83918000D03*
X151816000Y-81718000D03*
G04 #@! TD*
G04 #@! TO.C,R23*
X153340000Y-81634000D03*
X153340000Y-83834000D03*
G04 #@! TD*
G04 #@! TO.C,R24*
X162738000Y-83918000D03*
X162738000Y-81718000D03*
G04 #@! TD*
G04 #@! TO.C,R28*
X132766000Y-79940000D03*
X132766000Y-82140000D03*
G04 #@! TD*
G04 #@! TO.C,R30*
X123368000Y-82394000D03*
X123368000Y-80194000D03*
G04 #@! TD*
G04 #@! TO.C,R31*
X113462000Y-80194000D03*
X113462000Y-82394000D03*
G04 #@! TD*
G04 #@! TO.C,R25*
X171882000Y-83918000D03*
X171882000Y-81718000D03*
G04 #@! TD*
D11*
G04 #@! TO.C,C73*
X179090000Y-71470000D03*
X179090000Y-69570000D03*
G04 #@! TD*
G04 #@! TO.C,C68*
X180650000Y-71950000D03*
X180650000Y-73850000D03*
G04 #@! TD*
D10*
G04 #@! TO.C,R14*
X121280000Y-82330000D03*
X121280000Y-80130000D03*
G04 #@! TD*
G04 #@! TO.C,R21*
X169780000Y-80060000D03*
X169780000Y-82260000D03*
G04 #@! TD*
G04 #@! TO.C,R19*
X150038000Y-83918000D03*
X150038000Y-81718000D03*
G04 #@! TD*
G04 #@! TO.C,R20*
X180500000Y-80040000D03*
X180500000Y-82240000D03*
G04 #@! TD*
G04 #@! TO.C,R15*
X111230000Y-80140000D03*
X111230000Y-82340000D03*
G04 #@! TD*
G04 #@! TO.C,R16*
X140680000Y-82210000D03*
X140680000Y-80010000D03*
G04 #@! TD*
G04 #@! TO.C,R17*
X131000000Y-80010000D03*
X131000000Y-82210000D03*
G04 #@! TD*
G04 #@! TO.C,R18*
X160430000Y-82260000D03*
X160430000Y-80060000D03*
G04 #@! TD*
D12*
G04 #@! TO.C,C4*
X136022000Y-56388000D03*
X137922000Y-56388000D03*
G04 #@! TD*
G04 #@! TO.C,C74*
X136276000Y-60198000D03*
X138176000Y-60198000D03*
G04 #@! TD*
D11*
G04 #@! TO.C,C9*
X124970000Y-96310000D03*
X124970000Y-98210000D03*
G04 #@! TD*
G04 #@! TO.C,C14*
X177520000Y-96310000D03*
X177520000Y-98210000D03*
G04 #@! TD*
G04 #@! TO.C,C13*
X171100000Y-89360000D03*
X171100000Y-87460000D03*
G04 #@! TD*
G04 #@! TO.C,C1*
X112230000Y-89360000D03*
X112230000Y-87460000D03*
G04 #@! TD*
G04 #@! TO.C,C2*
X118790000Y-96310000D03*
X118790000Y-98210000D03*
G04 #@! TD*
G04 #@! TO.C,C3*
X105480000Y-96034999D03*
X105480000Y-97934999D03*
G04 #@! TD*
G04 #@! TO.C,C7*
X131853333Y-89360000D03*
X131853333Y-87460000D03*
G04 #@! TD*
D12*
G04 #@! TO.C,C8*
X137592000Y-95010000D03*
X139492000Y-95010000D03*
G04 #@! TD*
D11*
G04 #@! TO.C,C10*
X151476666Y-89360000D03*
X151476666Y-87460000D03*
G04 #@! TD*
G04 #@! TO.C,C11*
X157460000Y-96310000D03*
X157460000Y-98210000D03*
G04 #@! TD*
G04 #@! TO.C,C12*
X144730000Y-96310000D03*
X144730000Y-98210000D03*
G04 #@! TD*
G04 #@! TO.C,C15*
X164730000Y-96310000D03*
X164730000Y-98210000D03*
G04 #@! TD*
G04 #@! TO.C,C23*
X197220000Y-60830000D03*
X197220000Y-58930000D03*
G04 #@! TD*
G04 #@! TO.C,C24*
X192024000Y-60960000D03*
X192024000Y-59060000D03*
G04 #@! TD*
G04 #@! TO.C,C29*
X142000000Y-51250000D03*
X142000000Y-49350000D03*
G04 #@! TD*
G04 #@! TO.C,C30*
X152206000Y-51150000D03*
X152206000Y-49250000D03*
G04 #@! TD*
G04 #@! TO.C,C31*
X147196000Y-51160000D03*
X147196000Y-49260000D03*
G04 #@! TD*
G04 #@! TO.C,C33*
X147370000Y-77150000D03*
X147370000Y-79050000D03*
G04 #@! TD*
G04 #@! TO.C,C34*
X153070000Y-76990000D03*
X153070000Y-78890000D03*
G04 #@! TD*
D12*
G04 #@! TO.C,C35*
X160950000Y-65800000D03*
X162850000Y-65800000D03*
G04 #@! TD*
G04 #@! TO.C,C36*
X161090000Y-61260000D03*
X162990000Y-61260000D03*
G04 #@! TD*
D11*
G04 #@! TO.C,C37*
X156676000Y-51170000D03*
X156676000Y-49270000D03*
G04 #@! TD*
G04 #@! TO.C,C38*
X153716000Y-51140000D03*
X153716000Y-49240000D03*
G04 #@! TD*
G04 #@! TO.C,C39*
X145446000Y-51160000D03*
X145446000Y-49260000D03*
G04 #@! TD*
D12*
G04 #@! TO.C,C40*
X134620000Y-61720000D03*
X132720000Y-61720000D03*
G04 #@! TD*
G04 #@! TO.C,C41*
X134620000Y-63170000D03*
X132720000Y-63170000D03*
G04 #@! TD*
D11*
G04 #@! TO.C,C43*
X144420000Y-72140000D03*
X144420000Y-74040000D03*
G04 #@! TD*
G04 #@! TO.C,C44*
X148500000Y-72130000D03*
X148500000Y-74030000D03*
G04 #@! TD*
G04 #@! TO.C,C45*
X150520000Y-72100000D03*
X150520000Y-74000000D03*
G04 #@! TD*
G04 #@! TO.C,C46*
X154130000Y-72190000D03*
X154130000Y-74090000D03*
G04 #@! TD*
D12*
G04 #@! TO.C,C47*
X160950000Y-71725000D03*
X162850000Y-71725000D03*
G04 #@! TD*
G04 #@! TO.C,C48*
X160950000Y-70000000D03*
X162850000Y-70000000D03*
G04 #@! TD*
G04 #@! TO.C,C49*
X134620000Y-66040000D03*
X132720000Y-66040000D03*
G04 #@! TD*
G04 #@! TO.C,C50*
X134610000Y-67460000D03*
X132710000Y-67460000D03*
G04 #@! TD*
G04 #@! TO.C,C51*
X134600000Y-70420000D03*
X132700000Y-70420000D03*
G04 #@! TD*
D11*
G04 #@! TO.C,C53*
X145320000Y-77150000D03*
X145320000Y-79050000D03*
G04 #@! TD*
G04 #@! TO.C,C54*
X151560000Y-76930000D03*
X151560000Y-78830000D03*
G04 #@! TD*
D12*
G04 #@! TO.C,C57*
X134620000Y-64570000D03*
X132720000Y-64570000D03*
G04 #@! TD*
G04 #@! TO.C,C58*
X134620000Y-68920000D03*
X132720000Y-68920000D03*
G04 #@! TD*
G04 #@! TO.C,C59*
X134560000Y-71820000D03*
X132660000Y-71820000D03*
G04 #@! TD*
D11*
G04 #@! TO.C,C60*
X143526000Y-51150000D03*
X143526000Y-49250000D03*
G04 #@! TD*
G04 #@! TO.C,C61*
X150596000Y-51160000D03*
X150596000Y-49260000D03*
G04 #@! TD*
G04 #@! TO.C,C62*
X148896000Y-51160000D03*
X148896000Y-49260000D03*
G04 #@! TD*
G04 #@! TO.C,C63*
X158496000Y-51176000D03*
X158496000Y-49276000D03*
G04 #@! TD*
G04 #@! TO.C,C64*
X155206000Y-51150000D03*
X155206000Y-49250000D03*
G04 #@! TD*
D12*
G04 #@! TO.C,C65*
X162690000Y-59560000D03*
X164590000Y-59560000D03*
G04 #@! TD*
D13*
G04 #@! TO.C,R2*
X136150000Y-58700000D03*
X138350000Y-58700000D03*
G04 #@! TD*
D14*
G04 #@! TO.C,U3*
X170560000Y-71650000D03*
D15*
X176860000Y-71650000D03*
X176860000Y-73950000D03*
X176860000Y-69350000D03*
G04 #@! TD*
M02*
