G04 #@! TF.GenerationSoftware,KiCad,Pcbnew,(5.0.2)-1*
G04 #@! TF.CreationDate,2019-06-08T23:38:06+03:00*
G04 #@! TF.ProjectId,AVB switch with Can gateway,41564220-7377-4697-9463-682077697468,v01*
G04 #@! TF.SameCoordinates,Original*
G04 #@! TF.FileFunction,Legend,Bot*
G04 #@! TF.FilePolarity,Positive*
%FSLAX46Y46*%
G04 Gerber Fmt 4.6, Leading zero omitted, Abs format (unit mm)*
G04 Created by KiCad (PCBNEW (5.0.2)-1) date 6/8/2019 11:38:06 PM*
%MOMM*%
%LPD*%
G01*
G04 APERTURE LIST*
%ADD10C,0.120000*%
%ADD11C,0.150000*%
G04 APERTURE END LIST*
D10*
G04 #@! TO.C,R29*
X143352000Y-81540000D02*
X143352000Y-80540000D01*
X141992000Y-80540000D02*
X141992000Y-81540000D01*
G04 #@! TO.C,R22*
X151136000Y-82318000D02*
X151136000Y-83318000D01*
X152496000Y-83318000D02*
X152496000Y-82318000D01*
G04 #@! TO.C,R23*
X154020000Y-83234000D02*
X154020000Y-82234000D01*
X152660000Y-82234000D02*
X152660000Y-83234000D01*
G04 #@! TO.C,R24*
X162058000Y-82318000D02*
X162058000Y-83318000D01*
X163418000Y-83318000D02*
X163418000Y-82318000D01*
G04 #@! TO.C,R28*
X133446000Y-81540000D02*
X133446000Y-80540000D01*
X132086000Y-80540000D02*
X132086000Y-81540000D01*
G04 #@! TO.C,R30*
X122688000Y-80794000D02*
X122688000Y-81794000D01*
X124048000Y-81794000D02*
X124048000Y-80794000D01*
G04 #@! TO.C,R31*
X114142000Y-81794000D02*
X114142000Y-80794000D01*
X112782000Y-80794000D02*
X112782000Y-81794000D01*
G04 #@! TO.C,R25*
X171202000Y-82318000D02*
X171202000Y-83318000D01*
X172562000Y-83318000D02*
X172562000Y-82318000D01*
G04 #@! TO.C,C73*
X179690000Y-70870000D02*
X179690000Y-70170000D01*
X178490000Y-70170000D02*
X178490000Y-70870000D01*
G04 #@! TO.C,C68*
X180050000Y-72550000D02*
X180050000Y-73250000D01*
X181250000Y-73250000D02*
X181250000Y-72550000D01*
G04 #@! TO.C,R14*
X120600000Y-80730000D02*
X120600000Y-81730000D01*
X121960000Y-81730000D02*
X121960000Y-80730000D01*
G04 #@! TO.C,R21*
X170460000Y-81660000D02*
X170460000Y-80660000D01*
X169100000Y-80660000D02*
X169100000Y-81660000D01*
G04 #@! TO.C,R19*
X149358000Y-82318000D02*
X149358000Y-83318000D01*
X150718000Y-83318000D02*
X150718000Y-82318000D01*
G04 #@! TO.C,R20*
X181180000Y-81640000D02*
X181180000Y-80640000D01*
X179820000Y-80640000D02*
X179820000Y-81640000D01*
G04 #@! TO.C,R15*
X111910000Y-81740000D02*
X111910000Y-80740000D01*
X110550000Y-80740000D02*
X110550000Y-81740000D01*
G04 #@! TO.C,R16*
X140000000Y-80610000D02*
X140000000Y-81610000D01*
X141360000Y-81610000D02*
X141360000Y-80610000D01*
G04 #@! TO.C,R17*
X131680000Y-81610000D02*
X131680000Y-80610000D01*
X130320000Y-80610000D02*
X130320000Y-81610000D01*
G04 #@! TO.C,R18*
X159750000Y-80660000D02*
X159750000Y-81660000D01*
X161110000Y-81660000D02*
X161110000Y-80660000D01*
G04 #@! TO.C,C4*
X136622000Y-56988000D02*
X137322000Y-56988000D01*
X137322000Y-55788000D02*
X136622000Y-55788000D01*
G04 #@! TO.C,C74*
X136876000Y-60798000D02*
X137576000Y-60798000D01*
X137576000Y-59598000D02*
X136876000Y-59598000D01*
G04 #@! TO.C,C9*
X124370000Y-96910000D02*
X124370000Y-97610000D01*
X125570000Y-97610000D02*
X125570000Y-96910000D01*
G04 #@! TO.C,C14*
X176920000Y-96910000D02*
X176920000Y-97610000D01*
X178120000Y-97610000D02*
X178120000Y-96910000D01*
G04 #@! TO.C,C13*
X171700000Y-88760000D02*
X171700000Y-88060000D01*
X170500000Y-88060000D02*
X170500000Y-88760000D01*
G04 #@! TO.C,C1*
X112830000Y-88760000D02*
X112830000Y-88060000D01*
X111630000Y-88060000D02*
X111630000Y-88760000D01*
G04 #@! TO.C,C2*
X118190000Y-96910000D02*
X118190000Y-97610000D01*
X119390000Y-97610000D02*
X119390000Y-96910000D01*
G04 #@! TO.C,C3*
X104880000Y-96634999D02*
X104880000Y-97334999D01*
X106080000Y-97334999D02*
X106080000Y-96634999D01*
G04 #@! TO.C,C7*
X132453333Y-88760000D02*
X132453333Y-88060000D01*
X131253333Y-88060000D02*
X131253333Y-88760000D01*
G04 #@! TO.C,C8*
X138192000Y-95610000D02*
X138892000Y-95610000D01*
X138892000Y-94410000D02*
X138192000Y-94410000D01*
G04 #@! TO.C,C10*
X152076666Y-88760000D02*
X152076666Y-88060000D01*
X150876666Y-88060000D02*
X150876666Y-88760000D01*
G04 #@! TO.C,C11*
X156860000Y-96910000D02*
X156860000Y-97610000D01*
X158060000Y-97610000D02*
X158060000Y-96910000D01*
G04 #@! TO.C,C12*
X144130000Y-96910000D02*
X144130000Y-97610000D01*
X145330000Y-97610000D02*
X145330000Y-96910000D01*
G04 #@! TO.C,C15*
X164130000Y-96910000D02*
X164130000Y-97610000D01*
X165330000Y-97610000D02*
X165330000Y-96910000D01*
G04 #@! TO.C,C23*
X197820000Y-60230000D02*
X197820000Y-59530000D01*
X196620000Y-59530000D02*
X196620000Y-60230000D01*
G04 #@! TO.C,C24*
X192624000Y-60360000D02*
X192624000Y-59660000D01*
X191424000Y-59660000D02*
X191424000Y-60360000D01*
G04 #@! TO.C,C29*
X142600000Y-50650000D02*
X142600000Y-49950000D01*
X141400000Y-49950000D02*
X141400000Y-50650000D01*
G04 #@! TO.C,C30*
X152806000Y-50550000D02*
X152806000Y-49850000D01*
X151606000Y-49850000D02*
X151606000Y-50550000D01*
G04 #@! TO.C,C31*
X147796000Y-50560000D02*
X147796000Y-49860000D01*
X146596000Y-49860000D02*
X146596000Y-50560000D01*
G04 #@! TO.C,C33*
X146770000Y-77750000D02*
X146770000Y-78450000D01*
X147970000Y-78450000D02*
X147970000Y-77750000D01*
G04 #@! TO.C,C34*
X152470000Y-77590000D02*
X152470000Y-78290000D01*
X153670000Y-78290000D02*
X153670000Y-77590000D01*
G04 #@! TO.C,C35*
X161550000Y-66400000D02*
X162250000Y-66400000D01*
X162250000Y-65200000D02*
X161550000Y-65200000D01*
G04 #@! TO.C,C36*
X161690000Y-61860000D02*
X162390000Y-61860000D01*
X162390000Y-60660000D02*
X161690000Y-60660000D01*
G04 #@! TO.C,C37*
X157276000Y-50570000D02*
X157276000Y-49870000D01*
X156076000Y-49870000D02*
X156076000Y-50570000D01*
G04 #@! TO.C,C38*
X154316000Y-50540000D02*
X154316000Y-49840000D01*
X153116000Y-49840000D02*
X153116000Y-50540000D01*
G04 #@! TO.C,C39*
X146046000Y-50560000D02*
X146046000Y-49860000D01*
X144846000Y-49860000D02*
X144846000Y-50560000D01*
G04 #@! TO.C,C40*
X134020000Y-61120000D02*
X133320000Y-61120000D01*
X133320000Y-62320000D02*
X134020000Y-62320000D01*
G04 #@! TO.C,C41*
X134020000Y-62570000D02*
X133320000Y-62570000D01*
X133320000Y-63770000D02*
X134020000Y-63770000D01*
G04 #@! TO.C,C43*
X143820000Y-72740000D02*
X143820000Y-73440000D01*
X145020000Y-73440000D02*
X145020000Y-72740000D01*
G04 #@! TO.C,C44*
X147900000Y-72730000D02*
X147900000Y-73430000D01*
X149100000Y-73430000D02*
X149100000Y-72730000D01*
G04 #@! TO.C,C45*
X149920000Y-72700000D02*
X149920000Y-73400000D01*
X151120000Y-73400000D02*
X151120000Y-72700000D01*
G04 #@! TO.C,C46*
X153530000Y-72790000D02*
X153530000Y-73490000D01*
X154730000Y-73490000D02*
X154730000Y-72790000D01*
G04 #@! TO.C,C47*
X161550000Y-72325000D02*
X162250000Y-72325000D01*
X162250000Y-71125000D02*
X161550000Y-71125000D01*
G04 #@! TO.C,C48*
X161550000Y-70600000D02*
X162250000Y-70600000D01*
X162250000Y-69400000D02*
X161550000Y-69400000D01*
G04 #@! TO.C,C49*
X134020000Y-65440000D02*
X133320000Y-65440000D01*
X133320000Y-66640000D02*
X134020000Y-66640000D01*
G04 #@! TO.C,C50*
X134010000Y-66860000D02*
X133310000Y-66860000D01*
X133310000Y-68060000D02*
X134010000Y-68060000D01*
G04 #@! TO.C,C51*
X134000000Y-69820000D02*
X133300000Y-69820000D01*
X133300000Y-71020000D02*
X134000000Y-71020000D01*
G04 #@! TO.C,C53*
X144720000Y-77750000D02*
X144720000Y-78450000D01*
X145920000Y-78450000D02*
X145920000Y-77750000D01*
G04 #@! TO.C,C54*
X150960000Y-77530000D02*
X150960000Y-78230000D01*
X152160000Y-78230000D02*
X152160000Y-77530000D01*
G04 #@! TO.C,C57*
X134020000Y-63970000D02*
X133320000Y-63970000D01*
X133320000Y-65170000D02*
X134020000Y-65170000D01*
G04 #@! TO.C,C58*
X134020000Y-68320000D02*
X133320000Y-68320000D01*
X133320000Y-69520000D02*
X134020000Y-69520000D01*
G04 #@! TO.C,C59*
X133960000Y-71220000D02*
X133260000Y-71220000D01*
X133260000Y-72420000D02*
X133960000Y-72420000D01*
G04 #@! TO.C,C60*
X144126000Y-50550000D02*
X144126000Y-49850000D01*
X142926000Y-49850000D02*
X142926000Y-50550000D01*
G04 #@! TO.C,C61*
X151196000Y-50560000D02*
X151196000Y-49860000D01*
X149996000Y-49860000D02*
X149996000Y-50560000D01*
G04 #@! TO.C,C62*
X149496000Y-50560000D02*
X149496000Y-49860000D01*
X148296000Y-49860000D02*
X148296000Y-50560000D01*
G04 #@! TO.C,C63*
X159096000Y-50576000D02*
X159096000Y-49876000D01*
X157896000Y-49876000D02*
X157896000Y-50576000D01*
G04 #@! TO.C,C64*
X155806000Y-50550000D02*
X155806000Y-49850000D01*
X154606000Y-49850000D02*
X154606000Y-50550000D01*
G04 #@! TO.C,C65*
X163290000Y-60160000D02*
X163990000Y-60160000D01*
X163990000Y-58960000D02*
X163290000Y-58960000D01*
G04 #@! TO.C,R2*
X137750000Y-58020000D02*
X136750000Y-58020000D01*
X136750000Y-59380000D02*
X137750000Y-59380000D01*
G04 #@! TO.C,U3*
X171800000Y-75060000D02*
X171800000Y-73800000D01*
X171800000Y-68240000D02*
X171800000Y-69500000D01*
X175560000Y-75060000D02*
X171800000Y-75060000D01*
X177810000Y-68240000D02*
X171800000Y-68240000D01*
G04 #@! TO.C,R29*
D11*
X139732380Y-78597142D02*
X139256190Y-78263809D01*
X139732380Y-78025714D02*
X138732380Y-78025714D01*
X138732380Y-78406666D01*
X138780000Y-78501904D01*
X138827619Y-78549523D01*
X138922857Y-78597142D01*
X139065714Y-78597142D01*
X139160952Y-78549523D01*
X139208571Y-78501904D01*
X139256190Y-78406666D01*
X139256190Y-78025714D01*
X138827619Y-78978095D02*
X138780000Y-79025714D01*
X138732380Y-79120952D01*
X138732380Y-79359047D01*
X138780000Y-79454285D01*
X138827619Y-79501904D01*
X138922857Y-79549523D01*
X139018095Y-79549523D01*
X139160952Y-79501904D01*
X139732380Y-78930476D01*
X139732380Y-79549523D01*
X139732380Y-80025714D02*
X139732380Y-80216190D01*
X139684761Y-80311428D01*
X139637142Y-80359047D01*
X139494285Y-80454285D01*
X139303809Y-80501904D01*
X138922857Y-80501904D01*
X138827619Y-80454285D01*
X138780000Y-80406666D01*
X138732380Y-80311428D01*
X138732380Y-80120952D01*
X138780000Y-80025714D01*
X138827619Y-79978095D01*
X138922857Y-79930476D01*
X139160952Y-79930476D01*
X139256190Y-79978095D01*
X139303809Y-80025714D01*
X139351428Y-80120952D01*
X139351428Y-80311428D01*
X139303809Y-80406666D01*
X139256190Y-80454285D01*
X139160952Y-80501904D01*
G04 #@! TO.C,R22*
X152492857Y-85962380D02*
X152826190Y-85486190D01*
X153064285Y-85962380D02*
X153064285Y-84962380D01*
X152683333Y-84962380D01*
X152588095Y-85010000D01*
X152540476Y-85057619D01*
X152492857Y-85152857D01*
X152492857Y-85295714D01*
X152540476Y-85390952D01*
X152588095Y-85438571D01*
X152683333Y-85486190D01*
X153064285Y-85486190D01*
X152111904Y-85057619D02*
X152064285Y-85010000D01*
X151969047Y-84962380D01*
X151730952Y-84962380D01*
X151635714Y-85010000D01*
X151588095Y-85057619D01*
X151540476Y-85152857D01*
X151540476Y-85248095D01*
X151588095Y-85390952D01*
X152159523Y-85962380D01*
X151540476Y-85962380D01*
X151159523Y-85057619D02*
X151111904Y-85010000D01*
X151016666Y-84962380D01*
X150778571Y-84962380D01*
X150683333Y-85010000D01*
X150635714Y-85057619D01*
X150588095Y-85152857D01*
X150588095Y-85248095D01*
X150635714Y-85390952D01*
X151207142Y-85962380D01*
X150588095Y-85962380D01*
G04 #@! TO.C,R23*
X155422380Y-83957142D02*
X154946190Y-83623809D01*
X155422380Y-83385714D02*
X154422380Y-83385714D01*
X154422380Y-83766666D01*
X154470000Y-83861904D01*
X154517619Y-83909523D01*
X154612857Y-83957142D01*
X154755714Y-83957142D01*
X154850952Y-83909523D01*
X154898571Y-83861904D01*
X154946190Y-83766666D01*
X154946190Y-83385714D01*
X154517619Y-84338095D02*
X154470000Y-84385714D01*
X154422380Y-84480952D01*
X154422380Y-84719047D01*
X154470000Y-84814285D01*
X154517619Y-84861904D01*
X154612857Y-84909523D01*
X154708095Y-84909523D01*
X154850952Y-84861904D01*
X155422380Y-84290476D01*
X155422380Y-84909523D01*
X154422380Y-85242857D02*
X154422380Y-85861904D01*
X154803333Y-85528571D01*
X154803333Y-85671428D01*
X154850952Y-85766666D01*
X154898571Y-85814285D01*
X154993809Y-85861904D01*
X155231904Y-85861904D01*
X155327142Y-85814285D01*
X155374761Y-85766666D01*
X155422380Y-85671428D01*
X155422380Y-85385714D01*
X155374761Y-85290476D01*
X155327142Y-85242857D01*
G04 #@! TO.C,R24*
X163152380Y-85737142D02*
X162676190Y-85403809D01*
X163152380Y-85165714D02*
X162152380Y-85165714D01*
X162152380Y-85546666D01*
X162200000Y-85641904D01*
X162247619Y-85689523D01*
X162342857Y-85737142D01*
X162485714Y-85737142D01*
X162580952Y-85689523D01*
X162628571Y-85641904D01*
X162676190Y-85546666D01*
X162676190Y-85165714D01*
X162247619Y-86118095D02*
X162200000Y-86165714D01*
X162152380Y-86260952D01*
X162152380Y-86499047D01*
X162200000Y-86594285D01*
X162247619Y-86641904D01*
X162342857Y-86689523D01*
X162438095Y-86689523D01*
X162580952Y-86641904D01*
X163152380Y-86070476D01*
X163152380Y-86689523D01*
X162485714Y-87546666D02*
X163152380Y-87546666D01*
X162104761Y-87308571D02*
X162819047Y-87070476D01*
X162819047Y-87689523D01*
G04 #@! TO.C,R28*
X133242380Y-76867142D02*
X132766190Y-76533809D01*
X133242380Y-76295714D02*
X132242380Y-76295714D01*
X132242380Y-76676666D01*
X132290000Y-76771904D01*
X132337619Y-76819523D01*
X132432857Y-76867142D01*
X132575714Y-76867142D01*
X132670952Y-76819523D01*
X132718571Y-76771904D01*
X132766190Y-76676666D01*
X132766190Y-76295714D01*
X132337619Y-77248095D02*
X132290000Y-77295714D01*
X132242380Y-77390952D01*
X132242380Y-77629047D01*
X132290000Y-77724285D01*
X132337619Y-77771904D01*
X132432857Y-77819523D01*
X132528095Y-77819523D01*
X132670952Y-77771904D01*
X133242380Y-77200476D01*
X133242380Y-77819523D01*
X132670952Y-78390952D02*
X132623333Y-78295714D01*
X132575714Y-78248095D01*
X132480476Y-78200476D01*
X132432857Y-78200476D01*
X132337619Y-78248095D01*
X132290000Y-78295714D01*
X132242380Y-78390952D01*
X132242380Y-78581428D01*
X132290000Y-78676666D01*
X132337619Y-78724285D01*
X132432857Y-78771904D01*
X132480476Y-78771904D01*
X132575714Y-78724285D01*
X132623333Y-78676666D01*
X132670952Y-78581428D01*
X132670952Y-78390952D01*
X132718571Y-78295714D01*
X132766190Y-78248095D01*
X132861428Y-78200476D01*
X133051904Y-78200476D01*
X133147142Y-78248095D01*
X133194761Y-78295714D01*
X133242380Y-78390952D01*
X133242380Y-78581428D01*
X133194761Y-78676666D01*
X133147142Y-78724285D01*
X133051904Y-78771904D01*
X132861428Y-78771904D01*
X132766190Y-78724285D01*
X132718571Y-78676666D01*
X132670952Y-78581428D01*
G04 #@! TO.C,R30*
X123852380Y-77087142D02*
X123376190Y-76753809D01*
X123852380Y-76515714D02*
X122852380Y-76515714D01*
X122852380Y-76896666D01*
X122900000Y-76991904D01*
X122947619Y-77039523D01*
X123042857Y-77087142D01*
X123185714Y-77087142D01*
X123280952Y-77039523D01*
X123328571Y-76991904D01*
X123376190Y-76896666D01*
X123376190Y-76515714D01*
X122852380Y-77420476D02*
X122852380Y-78039523D01*
X123233333Y-77706190D01*
X123233333Y-77849047D01*
X123280952Y-77944285D01*
X123328571Y-77991904D01*
X123423809Y-78039523D01*
X123661904Y-78039523D01*
X123757142Y-77991904D01*
X123804761Y-77944285D01*
X123852380Y-77849047D01*
X123852380Y-77563333D01*
X123804761Y-77468095D01*
X123757142Y-77420476D01*
X122852380Y-78658571D02*
X122852380Y-78753809D01*
X122900000Y-78849047D01*
X122947619Y-78896666D01*
X123042857Y-78944285D01*
X123233333Y-78991904D01*
X123471428Y-78991904D01*
X123661904Y-78944285D01*
X123757142Y-78896666D01*
X123804761Y-78849047D01*
X123852380Y-78753809D01*
X123852380Y-78658571D01*
X123804761Y-78563333D01*
X123757142Y-78515714D01*
X123661904Y-78468095D01*
X123471428Y-78420476D01*
X123233333Y-78420476D01*
X123042857Y-78468095D01*
X122947619Y-78515714D01*
X122900000Y-78563333D01*
X122852380Y-78658571D01*
G04 #@! TO.C,R31*
X115592380Y-78867142D02*
X115116190Y-78533809D01*
X115592380Y-78295714D02*
X114592380Y-78295714D01*
X114592380Y-78676666D01*
X114640000Y-78771904D01*
X114687619Y-78819523D01*
X114782857Y-78867142D01*
X114925714Y-78867142D01*
X115020952Y-78819523D01*
X115068571Y-78771904D01*
X115116190Y-78676666D01*
X115116190Y-78295714D01*
X114592380Y-79200476D02*
X114592380Y-79819523D01*
X114973333Y-79486190D01*
X114973333Y-79629047D01*
X115020952Y-79724285D01*
X115068571Y-79771904D01*
X115163809Y-79819523D01*
X115401904Y-79819523D01*
X115497142Y-79771904D01*
X115544761Y-79724285D01*
X115592380Y-79629047D01*
X115592380Y-79343333D01*
X115544761Y-79248095D01*
X115497142Y-79200476D01*
X115592380Y-80771904D02*
X115592380Y-80200476D01*
X115592380Y-80486190D02*
X114592380Y-80486190D01*
X114735238Y-80390952D01*
X114830476Y-80295714D01*
X114878095Y-80200476D01*
G04 #@! TO.C,R25*
X173972380Y-83637142D02*
X173496190Y-83303809D01*
X173972380Y-83065714D02*
X172972380Y-83065714D01*
X172972380Y-83446666D01*
X173020000Y-83541904D01*
X173067619Y-83589523D01*
X173162857Y-83637142D01*
X173305714Y-83637142D01*
X173400952Y-83589523D01*
X173448571Y-83541904D01*
X173496190Y-83446666D01*
X173496190Y-83065714D01*
X173067619Y-84018095D02*
X173020000Y-84065714D01*
X172972380Y-84160952D01*
X172972380Y-84399047D01*
X173020000Y-84494285D01*
X173067619Y-84541904D01*
X173162857Y-84589523D01*
X173258095Y-84589523D01*
X173400952Y-84541904D01*
X173972380Y-83970476D01*
X173972380Y-84589523D01*
X172972380Y-85494285D02*
X172972380Y-85018095D01*
X173448571Y-84970476D01*
X173400952Y-85018095D01*
X173353333Y-85113333D01*
X173353333Y-85351428D01*
X173400952Y-85446666D01*
X173448571Y-85494285D01*
X173543809Y-85541904D01*
X173781904Y-85541904D01*
X173877142Y-85494285D01*
X173924761Y-85446666D01*
X173972380Y-85351428D01*
X173972380Y-85113333D01*
X173924761Y-85018095D01*
X173877142Y-84970476D01*
G04 #@! TO.C,C73*
X180697142Y-69877142D02*
X180744761Y-69829523D01*
X180792380Y-69686666D01*
X180792380Y-69591428D01*
X180744761Y-69448571D01*
X180649523Y-69353333D01*
X180554285Y-69305714D01*
X180363809Y-69258095D01*
X180220952Y-69258095D01*
X180030476Y-69305714D01*
X179935238Y-69353333D01*
X179840000Y-69448571D01*
X179792380Y-69591428D01*
X179792380Y-69686666D01*
X179840000Y-69829523D01*
X179887619Y-69877142D01*
X179792380Y-70210476D02*
X179792380Y-70877142D01*
X180792380Y-70448571D01*
X179792380Y-71162857D02*
X179792380Y-71781904D01*
X180173333Y-71448571D01*
X180173333Y-71591428D01*
X180220952Y-71686666D01*
X180268571Y-71734285D01*
X180363809Y-71781904D01*
X180601904Y-71781904D01*
X180697142Y-71734285D01*
X180744761Y-71686666D01*
X180792380Y-71591428D01*
X180792380Y-71305714D01*
X180744761Y-71210476D01*
X180697142Y-71162857D01*
G04 #@! TO.C,C68*
X182257142Y-72257142D02*
X182304761Y-72209523D01*
X182352380Y-72066666D01*
X182352380Y-71971428D01*
X182304761Y-71828571D01*
X182209523Y-71733333D01*
X182114285Y-71685714D01*
X181923809Y-71638095D01*
X181780952Y-71638095D01*
X181590476Y-71685714D01*
X181495238Y-71733333D01*
X181400000Y-71828571D01*
X181352380Y-71971428D01*
X181352380Y-72066666D01*
X181400000Y-72209523D01*
X181447619Y-72257142D01*
X181352380Y-73114285D02*
X181352380Y-72923809D01*
X181400000Y-72828571D01*
X181447619Y-72780952D01*
X181590476Y-72685714D01*
X181780952Y-72638095D01*
X182161904Y-72638095D01*
X182257142Y-72685714D01*
X182304761Y-72733333D01*
X182352380Y-72828571D01*
X182352380Y-73019047D01*
X182304761Y-73114285D01*
X182257142Y-73161904D01*
X182161904Y-73209523D01*
X181923809Y-73209523D01*
X181828571Y-73161904D01*
X181780952Y-73114285D01*
X181733333Y-73019047D01*
X181733333Y-72828571D01*
X181780952Y-72733333D01*
X181828571Y-72685714D01*
X181923809Y-72638095D01*
X181780952Y-73780952D02*
X181733333Y-73685714D01*
X181685714Y-73638095D01*
X181590476Y-73590476D01*
X181542857Y-73590476D01*
X181447619Y-73638095D01*
X181400000Y-73685714D01*
X181352380Y-73780952D01*
X181352380Y-73971428D01*
X181400000Y-74066666D01*
X181447619Y-74114285D01*
X181542857Y-74161904D01*
X181590476Y-74161904D01*
X181685714Y-74114285D01*
X181733333Y-74066666D01*
X181780952Y-73971428D01*
X181780952Y-73780952D01*
X181828571Y-73685714D01*
X181876190Y-73638095D01*
X181971428Y-73590476D01*
X182161904Y-73590476D01*
X182257142Y-73638095D01*
X182304761Y-73685714D01*
X182352380Y-73780952D01*
X182352380Y-73971428D01*
X182304761Y-74066666D01*
X182257142Y-74114285D01*
X182161904Y-74161904D01*
X181971428Y-74161904D01*
X181876190Y-74114285D01*
X181828571Y-74066666D01*
X181780952Y-73971428D01*
G04 #@! TO.C,R14*
X121782380Y-76837142D02*
X121306190Y-76503809D01*
X121782380Y-76265714D02*
X120782380Y-76265714D01*
X120782380Y-76646666D01*
X120830000Y-76741904D01*
X120877619Y-76789523D01*
X120972857Y-76837142D01*
X121115714Y-76837142D01*
X121210952Y-76789523D01*
X121258571Y-76741904D01*
X121306190Y-76646666D01*
X121306190Y-76265714D01*
X121782380Y-77789523D02*
X121782380Y-77218095D01*
X121782380Y-77503809D02*
X120782380Y-77503809D01*
X120925238Y-77408571D01*
X121020476Y-77313333D01*
X121068095Y-77218095D01*
X121115714Y-78646666D02*
X121782380Y-78646666D01*
X120734761Y-78408571D02*
X121449047Y-78170476D01*
X121449047Y-78789523D01*
G04 #@! TO.C,R21*
X170382380Y-84077142D02*
X169906190Y-83743809D01*
X170382380Y-83505714D02*
X169382380Y-83505714D01*
X169382380Y-83886666D01*
X169430000Y-83981904D01*
X169477619Y-84029523D01*
X169572857Y-84077142D01*
X169715714Y-84077142D01*
X169810952Y-84029523D01*
X169858571Y-83981904D01*
X169906190Y-83886666D01*
X169906190Y-83505714D01*
X169477619Y-84458095D02*
X169430000Y-84505714D01*
X169382380Y-84600952D01*
X169382380Y-84839047D01*
X169430000Y-84934285D01*
X169477619Y-84981904D01*
X169572857Y-85029523D01*
X169668095Y-85029523D01*
X169810952Y-84981904D01*
X170382380Y-84410476D01*
X170382380Y-85029523D01*
X170382380Y-85981904D02*
X170382380Y-85410476D01*
X170382380Y-85696190D02*
X169382380Y-85696190D01*
X169525238Y-85600952D01*
X169620476Y-85505714D01*
X169668095Y-85410476D01*
G04 #@! TO.C,R19*
X149002380Y-83907142D02*
X148526190Y-83573809D01*
X149002380Y-83335714D02*
X148002380Y-83335714D01*
X148002380Y-83716666D01*
X148050000Y-83811904D01*
X148097619Y-83859523D01*
X148192857Y-83907142D01*
X148335714Y-83907142D01*
X148430952Y-83859523D01*
X148478571Y-83811904D01*
X148526190Y-83716666D01*
X148526190Y-83335714D01*
X149002380Y-84859523D02*
X149002380Y-84288095D01*
X149002380Y-84573809D02*
X148002380Y-84573809D01*
X148145238Y-84478571D01*
X148240476Y-84383333D01*
X148288095Y-84288095D01*
X149002380Y-85335714D02*
X149002380Y-85526190D01*
X148954761Y-85621428D01*
X148907142Y-85669047D01*
X148764285Y-85764285D01*
X148573809Y-85811904D01*
X148192857Y-85811904D01*
X148097619Y-85764285D01*
X148050000Y-85716666D01*
X148002380Y-85621428D01*
X148002380Y-85430952D01*
X148050000Y-85335714D01*
X148097619Y-85288095D01*
X148192857Y-85240476D01*
X148430952Y-85240476D01*
X148526190Y-85288095D01*
X148573809Y-85335714D01*
X148621428Y-85430952D01*
X148621428Y-85621428D01*
X148573809Y-85716666D01*
X148526190Y-85764285D01*
X148430952Y-85811904D01*
G04 #@! TO.C,R20*
X180972380Y-76907142D02*
X180496190Y-76573809D01*
X180972380Y-76335714D02*
X179972380Y-76335714D01*
X179972380Y-76716666D01*
X180020000Y-76811904D01*
X180067619Y-76859523D01*
X180162857Y-76907142D01*
X180305714Y-76907142D01*
X180400952Y-76859523D01*
X180448571Y-76811904D01*
X180496190Y-76716666D01*
X180496190Y-76335714D01*
X180067619Y-77288095D02*
X180020000Y-77335714D01*
X179972380Y-77430952D01*
X179972380Y-77669047D01*
X180020000Y-77764285D01*
X180067619Y-77811904D01*
X180162857Y-77859523D01*
X180258095Y-77859523D01*
X180400952Y-77811904D01*
X180972380Y-77240476D01*
X180972380Y-77859523D01*
X179972380Y-78478571D02*
X179972380Y-78573809D01*
X180020000Y-78669047D01*
X180067619Y-78716666D01*
X180162857Y-78764285D01*
X180353333Y-78811904D01*
X180591428Y-78811904D01*
X180781904Y-78764285D01*
X180877142Y-78716666D01*
X180924761Y-78669047D01*
X180972380Y-78573809D01*
X180972380Y-78478571D01*
X180924761Y-78383333D01*
X180877142Y-78335714D01*
X180781904Y-78288095D01*
X180591428Y-78240476D01*
X180353333Y-78240476D01*
X180162857Y-78288095D01*
X180067619Y-78335714D01*
X180020000Y-78383333D01*
X179972380Y-78478571D01*
G04 #@! TO.C,R15*
X109962380Y-78797142D02*
X109486190Y-78463809D01*
X109962380Y-78225714D02*
X108962380Y-78225714D01*
X108962380Y-78606666D01*
X109010000Y-78701904D01*
X109057619Y-78749523D01*
X109152857Y-78797142D01*
X109295714Y-78797142D01*
X109390952Y-78749523D01*
X109438571Y-78701904D01*
X109486190Y-78606666D01*
X109486190Y-78225714D01*
X109962380Y-79749523D02*
X109962380Y-79178095D01*
X109962380Y-79463809D02*
X108962380Y-79463809D01*
X109105238Y-79368571D01*
X109200476Y-79273333D01*
X109248095Y-79178095D01*
X108962380Y-80654285D02*
X108962380Y-80178095D01*
X109438571Y-80130476D01*
X109390952Y-80178095D01*
X109343333Y-80273333D01*
X109343333Y-80511428D01*
X109390952Y-80606666D01*
X109438571Y-80654285D01*
X109533809Y-80701904D01*
X109771904Y-80701904D01*
X109867142Y-80654285D01*
X109914761Y-80606666D01*
X109962380Y-80511428D01*
X109962380Y-80273333D01*
X109914761Y-80178095D01*
X109867142Y-80130476D01*
G04 #@! TO.C,R16*
X143062380Y-83867142D02*
X142586190Y-83533809D01*
X143062380Y-83295714D02*
X142062380Y-83295714D01*
X142062380Y-83676666D01*
X142110000Y-83771904D01*
X142157619Y-83819523D01*
X142252857Y-83867142D01*
X142395714Y-83867142D01*
X142490952Y-83819523D01*
X142538571Y-83771904D01*
X142586190Y-83676666D01*
X142586190Y-83295714D01*
X143062380Y-84819523D02*
X143062380Y-84248095D01*
X143062380Y-84533809D02*
X142062380Y-84533809D01*
X142205238Y-84438571D01*
X142300476Y-84343333D01*
X142348095Y-84248095D01*
X142062380Y-85676666D02*
X142062380Y-85486190D01*
X142110000Y-85390952D01*
X142157619Y-85343333D01*
X142300476Y-85248095D01*
X142490952Y-85200476D01*
X142871904Y-85200476D01*
X142967142Y-85248095D01*
X143014761Y-85295714D01*
X143062380Y-85390952D01*
X143062380Y-85581428D01*
X143014761Y-85676666D01*
X142967142Y-85724285D01*
X142871904Y-85771904D01*
X142633809Y-85771904D01*
X142538571Y-85724285D01*
X142490952Y-85676666D01*
X142443333Y-85581428D01*
X142443333Y-85390952D01*
X142490952Y-85295714D01*
X142538571Y-85248095D01*
X142633809Y-85200476D01*
G04 #@! TO.C,R17*
X131532380Y-76967142D02*
X131056190Y-76633809D01*
X131532380Y-76395714D02*
X130532380Y-76395714D01*
X130532380Y-76776666D01*
X130580000Y-76871904D01*
X130627619Y-76919523D01*
X130722857Y-76967142D01*
X130865714Y-76967142D01*
X130960952Y-76919523D01*
X131008571Y-76871904D01*
X131056190Y-76776666D01*
X131056190Y-76395714D01*
X131532380Y-77919523D02*
X131532380Y-77348095D01*
X131532380Y-77633809D02*
X130532380Y-77633809D01*
X130675238Y-77538571D01*
X130770476Y-77443333D01*
X130818095Y-77348095D01*
X130532380Y-78252857D02*
X130532380Y-78919523D01*
X131532380Y-78490952D01*
G04 #@! TO.C,R18*
X160992380Y-83907142D02*
X160516190Y-83573809D01*
X160992380Y-83335714D02*
X159992380Y-83335714D01*
X159992380Y-83716666D01*
X160040000Y-83811904D01*
X160087619Y-83859523D01*
X160182857Y-83907142D01*
X160325714Y-83907142D01*
X160420952Y-83859523D01*
X160468571Y-83811904D01*
X160516190Y-83716666D01*
X160516190Y-83335714D01*
X160992380Y-84859523D02*
X160992380Y-84288095D01*
X160992380Y-84573809D02*
X159992380Y-84573809D01*
X160135238Y-84478571D01*
X160230476Y-84383333D01*
X160278095Y-84288095D01*
X160420952Y-85430952D02*
X160373333Y-85335714D01*
X160325714Y-85288095D01*
X160230476Y-85240476D01*
X160182857Y-85240476D01*
X160087619Y-85288095D01*
X160040000Y-85335714D01*
X159992380Y-85430952D01*
X159992380Y-85621428D01*
X160040000Y-85716666D01*
X160087619Y-85764285D01*
X160182857Y-85811904D01*
X160230476Y-85811904D01*
X160325714Y-85764285D01*
X160373333Y-85716666D01*
X160420952Y-85621428D01*
X160420952Y-85430952D01*
X160468571Y-85335714D01*
X160516190Y-85288095D01*
X160611428Y-85240476D01*
X160801904Y-85240476D01*
X160897142Y-85288095D01*
X160944761Y-85335714D01*
X160992380Y-85430952D01*
X160992380Y-85621428D01*
X160944761Y-85716666D01*
X160897142Y-85764285D01*
X160801904Y-85811904D01*
X160611428Y-85811904D01*
X160516190Y-85764285D01*
X160468571Y-85716666D01*
X160420952Y-85621428D01*
G04 #@! TO.C,C4*
X137138666Y-55495142D02*
X137186285Y-55542761D01*
X137329142Y-55590380D01*
X137424380Y-55590380D01*
X137567238Y-55542761D01*
X137662476Y-55447523D01*
X137710095Y-55352285D01*
X137757714Y-55161809D01*
X137757714Y-55018952D01*
X137710095Y-54828476D01*
X137662476Y-54733238D01*
X137567238Y-54638000D01*
X137424380Y-54590380D01*
X137329142Y-54590380D01*
X137186285Y-54638000D01*
X137138666Y-54685619D01*
X136281523Y-54923714D02*
X136281523Y-55590380D01*
X136519619Y-54542761D02*
X136757714Y-55257047D01*
X136138666Y-55257047D01*
G04 #@! TO.C,J8*
X175386260Y-91041312D02*
X175957689Y-91041312D01*
X175671975Y-91041312D02*
X175671975Y-90041312D01*
X175767213Y-90184170D01*
X175862451Y-90279408D01*
X175957689Y-90327027D01*
X175095714Y-96827619D02*
X175048095Y-96780000D01*
X174952857Y-96732380D01*
X174714761Y-96732380D01*
X174619523Y-96780000D01*
X174571904Y-96827619D01*
X174524285Y-96922857D01*
X174524285Y-97018095D01*
X174571904Y-97160952D01*
X175143333Y-97732380D01*
X174524285Y-97732380D01*
X173475308Y-90021312D02*
X172856260Y-90021312D01*
X173189594Y-90402265D01*
X173046736Y-90402265D01*
X172951498Y-90449884D01*
X172903879Y-90497503D01*
X172856260Y-90592741D01*
X172856260Y-90830836D01*
X172903879Y-90926074D01*
X172951498Y-90973693D01*
X173046736Y-91021312D01*
X173332451Y-91021312D01*
X173427689Y-90973693D01*
X173475308Y-90926074D01*
X171916190Y-97065714D02*
X171916190Y-97732380D01*
X172154286Y-96684761D02*
X172392381Y-97399047D01*
X171773333Y-97399047D01*
X170283879Y-89991312D02*
X170760070Y-89991312D01*
X170807689Y-90467503D01*
X170760070Y-90419884D01*
X170664832Y-90372265D01*
X170426736Y-90372265D01*
X170331498Y-90419884D01*
X170283879Y-90467503D01*
X170236260Y-90562741D01*
X170236260Y-90800836D01*
X170283879Y-90896074D01*
X170331498Y-90943693D01*
X170426736Y-90991312D01*
X170664832Y-90991312D01*
X170760070Y-90943693D01*
X170807689Y-90896074D01*
X169212857Y-96732380D02*
X169403334Y-96732380D01*
X169498572Y-96780000D01*
X169546191Y-96827619D01*
X169641429Y-96970476D01*
X169689048Y-97160952D01*
X169689048Y-97541904D01*
X169641429Y-97637142D01*
X169593810Y-97684761D01*
X169498572Y-97732380D01*
X169308095Y-97732380D01*
X169212857Y-97684761D01*
X169165238Y-97637142D01*
X169117619Y-97541904D01*
X169117619Y-97303809D01*
X169165238Y-97208571D01*
X169212857Y-97160952D01*
X169308095Y-97113333D01*
X169498572Y-97113333D01*
X169593810Y-97160952D01*
X169641429Y-97208571D01*
X169689048Y-97303809D01*
X168495308Y-89991312D02*
X167828641Y-89991312D01*
X168257213Y-90991312D01*
X166795238Y-97160952D02*
X166890476Y-97113333D01*
X166938095Y-97065714D01*
X166985714Y-96970476D01*
X166985714Y-96922857D01*
X166938095Y-96827619D01*
X166890476Y-96780000D01*
X166795238Y-96732380D01*
X166604761Y-96732380D01*
X166509523Y-96780000D01*
X166461904Y-96827619D01*
X166414285Y-96922857D01*
X166414285Y-96970476D01*
X166461904Y-97065714D01*
X166509523Y-97113333D01*
X166604761Y-97160952D01*
X166795238Y-97160952D01*
X166890476Y-97208571D01*
X166938095Y-97256190D01*
X166985714Y-97351428D01*
X166985714Y-97541904D01*
X166938095Y-97637142D01*
X166890476Y-97684761D01*
X166795238Y-97732380D01*
X166604761Y-97732380D01*
X166509523Y-97684761D01*
X166461904Y-97637142D01*
X166414285Y-97541904D01*
X166414285Y-97351428D01*
X166461904Y-97256190D01*
X166509523Y-97208571D01*
X166604761Y-97160952D01*
G04 #@! TO.C,C74*
X141064417Y-60607242D02*
X141112036Y-60654861D01*
X141254893Y-60702480D01*
X141350131Y-60702480D01*
X141492988Y-60654861D01*
X141588226Y-60559623D01*
X141635845Y-60464385D01*
X141683464Y-60273909D01*
X141683464Y-60131052D01*
X141635845Y-59940576D01*
X141588226Y-59845338D01*
X141492988Y-59750100D01*
X141350131Y-59702480D01*
X141254893Y-59702480D01*
X141112036Y-59750100D01*
X141064417Y-59797719D01*
X140731083Y-59702480D02*
X140064417Y-59702480D01*
X140492988Y-60702480D01*
X139254893Y-60035814D02*
X139254893Y-60702480D01*
X139492988Y-59654861D02*
X139731083Y-60369147D01*
X139112036Y-60369147D01*
G04 #@! TO.C,J7*
X155782926Y-91041312D02*
X156354355Y-91041312D01*
X156068641Y-91041312D02*
X156068641Y-90041312D01*
X156163879Y-90184170D01*
X156259117Y-90279408D01*
X156354355Y-90327027D01*
X155492380Y-96827619D02*
X155444761Y-96780000D01*
X155349523Y-96732380D01*
X155111427Y-96732380D01*
X155016189Y-96780000D01*
X154968570Y-96827619D01*
X154920951Y-96922857D01*
X154920951Y-97018095D01*
X154968570Y-97160952D01*
X155539999Y-97732380D01*
X154920951Y-97732380D01*
X153871974Y-90021312D02*
X153252926Y-90021312D01*
X153586260Y-90402265D01*
X153443402Y-90402265D01*
X153348164Y-90449884D01*
X153300545Y-90497503D01*
X153252926Y-90592741D01*
X153252926Y-90830836D01*
X153300545Y-90926074D01*
X153348164Y-90973693D01*
X153443402Y-91021312D01*
X153729117Y-91021312D01*
X153824355Y-90973693D01*
X153871974Y-90926074D01*
X152312856Y-97065714D02*
X152312856Y-97732380D01*
X152550952Y-96684761D02*
X152789047Y-97399047D01*
X152169999Y-97399047D01*
X150680545Y-89991312D02*
X151156736Y-89991312D01*
X151204355Y-90467503D01*
X151156736Y-90419884D01*
X151061498Y-90372265D01*
X150823402Y-90372265D01*
X150728164Y-90419884D01*
X150680545Y-90467503D01*
X150632926Y-90562741D01*
X150632926Y-90800836D01*
X150680545Y-90896074D01*
X150728164Y-90943693D01*
X150823402Y-90991312D01*
X151061498Y-90991312D01*
X151156736Y-90943693D01*
X151204355Y-90896074D01*
X149609523Y-96732380D02*
X149800000Y-96732380D01*
X149895238Y-96780000D01*
X149942857Y-96827619D01*
X150038095Y-96970476D01*
X150085714Y-97160952D01*
X150085714Y-97541904D01*
X150038095Y-97637142D01*
X149990476Y-97684761D01*
X149895238Y-97732380D01*
X149704761Y-97732380D01*
X149609523Y-97684761D01*
X149561904Y-97637142D01*
X149514285Y-97541904D01*
X149514285Y-97303809D01*
X149561904Y-97208571D01*
X149609523Y-97160952D01*
X149704761Y-97113333D01*
X149895238Y-97113333D01*
X149990476Y-97160952D01*
X150038095Y-97208571D01*
X150085714Y-97303809D01*
X148891974Y-89991312D02*
X148225307Y-89991312D01*
X148653879Y-90991312D01*
X147191904Y-97160952D02*
X147287142Y-97113333D01*
X147334761Y-97065714D01*
X147382380Y-96970476D01*
X147382380Y-96922857D01*
X147334761Y-96827619D01*
X147287142Y-96780000D01*
X147191904Y-96732380D01*
X147001427Y-96732380D01*
X146906189Y-96780000D01*
X146858570Y-96827619D01*
X146810951Y-96922857D01*
X146810951Y-96970476D01*
X146858570Y-97065714D01*
X146906189Y-97113333D01*
X147001427Y-97160952D01*
X147191904Y-97160952D01*
X147287142Y-97208571D01*
X147334761Y-97256190D01*
X147382380Y-97351428D01*
X147382380Y-97541904D01*
X147334761Y-97637142D01*
X147287142Y-97684761D01*
X147191904Y-97732380D01*
X147001427Y-97732380D01*
X146906189Y-97684761D01*
X146858570Y-97637142D01*
X146810951Y-97541904D01*
X146810951Y-97351428D01*
X146858570Y-97256190D01*
X146906189Y-97208571D01*
X147001427Y-97160952D01*
G04 #@! TO.C,C9*
X124077142Y-97093333D02*
X124124761Y-97045714D01*
X124172380Y-96902857D01*
X124172380Y-96807619D01*
X124124761Y-96664761D01*
X124029523Y-96569523D01*
X123934285Y-96521904D01*
X123743809Y-96474285D01*
X123600952Y-96474285D01*
X123410476Y-96521904D01*
X123315238Y-96569523D01*
X123220000Y-96664761D01*
X123172380Y-96807619D01*
X123172380Y-96902857D01*
X123220000Y-97045714D01*
X123267619Y-97093333D01*
X124172380Y-97569523D02*
X124172380Y-97760000D01*
X124124761Y-97855238D01*
X124077142Y-97902857D01*
X123934285Y-97998095D01*
X123743809Y-98045714D01*
X123362857Y-98045714D01*
X123267619Y-97998095D01*
X123220000Y-97950476D01*
X123172380Y-97855238D01*
X123172380Y-97664761D01*
X123220000Y-97569523D01*
X123267619Y-97521904D01*
X123362857Y-97474285D01*
X123600952Y-97474285D01*
X123696190Y-97521904D01*
X123743809Y-97569523D01*
X123791428Y-97664761D01*
X123791428Y-97855238D01*
X123743809Y-97950476D01*
X123696190Y-97998095D01*
X123600952Y-98045714D01*
G04 #@! TO.C,C14*
X176627142Y-96617142D02*
X176674761Y-96569523D01*
X176722380Y-96426666D01*
X176722380Y-96331428D01*
X176674761Y-96188571D01*
X176579523Y-96093333D01*
X176484285Y-96045714D01*
X176293809Y-95998095D01*
X176150952Y-95998095D01*
X175960476Y-96045714D01*
X175865238Y-96093333D01*
X175770000Y-96188571D01*
X175722380Y-96331428D01*
X175722380Y-96426666D01*
X175770000Y-96569523D01*
X175817619Y-96617142D01*
X176722380Y-97569523D02*
X176722380Y-96998095D01*
X176722380Y-97283809D02*
X175722380Y-97283809D01*
X175865238Y-97188571D01*
X175960476Y-97093333D01*
X176008095Y-96998095D01*
X176055714Y-98426666D02*
X176722380Y-98426666D01*
X175674761Y-98188571D02*
X176389047Y-97950476D01*
X176389047Y-98569523D01*
G04 #@! TO.C,C13*
X173127142Y-87787142D02*
X173174761Y-87739523D01*
X173222380Y-87596666D01*
X173222380Y-87501428D01*
X173174761Y-87358571D01*
X173079523Y-87263333D01*
X172984285Y-87215714D01*
X172793809Y-87168095D01*
X172650952Y-87168095D01*
X172460476Y-87215714D01*
X172365238Y-87263333D01*
X172270000Y-87358571D01*
X172222380Y-87501428D01*
X172222380Y-87596666D01*
X172270000Y-87739523D01*
X172317619Y-87787142D01*
X173222380Y-88739523D02*
X173222380Y-88168095D01*
X173222380Y-88453809D02*
X172222380Y-88453809D01*
X172365238Y-88358571D01*
X172460476Y-88263333D01*
X172508095Y-88168095D01*
X172222380Y-89072857D02*
X172222380Y-89691904D01*
X172603333Y-89358571D01*
X172603333Y-89501428D01*
X172650952Y-89596666D01*
X172698571Y-89644285D01*
X172793809Y-89691904D01*
X173031904Y-89691904D01*
X173127142Y-89644285D01*
X173174761Y-89596666D01*
X173222380Y-89501428D01*
X173222380Y-89215714D01*
X173174761Y-89120476D01*
X173127142Y-89072857D01*
G04 #@! TO.C,J6*
X136179593Y-91041312D02*
X136751022Y-91041312D01*
X136465308Y-91041312D02*
X136465308Y-90041312D01*
X136560546Y-90184170D01*
X136655784Y-90279408D01*
X136751022Y-90327027D01*
X135889047Y-96827619D02*
X135841428Y-96780000D01*
X135746190Y-96732380D01*
X135508094Y-96732380D01*
X135412856Y-96780000D01*
X135365237Y-96827619D01*
X135317618Y-96922857D01*
X135317618Y-97018095D01*
X135365237Y-97160952D01*
X135936666Y-97732380D01*
X135317618Y-97732380D01*
X134268641Y-90021312D02*
X133649593Y-90021312D01*
X133982927Y-90402265D01*
X133840069Y-90402265D01*
X133744831Y-90449884D01*
X133697212Y-90497503D01*
X133649593Y-90592741D01*
X133649593Y-90830836D01*
X133697212Y-90926074D01*
X133744831Y-90973693D01*
X133840069Y-91021312D01*
X134125784Y-91021312D01*
X134221022Y-90973693D01*
X134268641Y-90926074D01*
X132709523Y-97065714D02*
X132709523Y-97732380D01*
X132947619Y-96684761D02*
X133185714Y-97399047D01*
X132566666Y-97399047D01*
X131077212Y-89991312D02*
X131553403Y-89991312D01*
X131601022Y-90467503D01*
X131553403Y-90419884D01*
X131458165Y-90372265D01*
X131220069Y-90372265D01*
X131124831Y-90419884D01*
X131077212Y-90467503D01*
X131029593Y-90562741D01*
X131029593Y-90800836D01*
X131077212Y-90896074D01*
X131124831Y-90943693D01*
X131220069Y-90991312D01*
X131458165Y-90991312D01*
X131553403Y-90943693D01*
X131601022Y-90896074D01*
X130006190Y-96732380D02*
X130196667Y-96732380D01*
X130291905Y-96780000D01*
X130339524Y-96827619D01*
X130434762Y-96970476D01*
X130482381Y-97160952D01*
X130482381Y-97541904D01*
X130434762Y-97637142D01*
X130387143Y-97684761D01*
X130291905Y-97732380D01*
X130101428Y-97732380D01*
X130006190Y-97684761D01*
X129958571Y-97637142D01*
X129910952Y-97541904D01*
X129910952Y-97303809D01*
X129958571Y-97208571D01*
X130006190Y-97160952D01*
X130101428Y-97113333D01*
X130291905Y-97113333D01*
X130387143Y-97160952D01*
X130434762Y-97208571D01*
X130482381Y-97303809D01*
X129288641Y-89991312D02*
X128621974Y-89991312D01*
X129050546Y-90991312D01*
X127588571Y-97160952D02*
X127683809Y-97113333D01*
X127731428Y-97065714D01*
X127779047Y-96970476D01*
X127779047Y-96922857D01*
X127731428Y-96827619D01*
X127683809Y-96780000D01*
X127588571Y-96732380D01*
X127398094Y-96732380D01*
X127302856Y-96780000D01*
X127255237Y-96827619D01*
X127207618Y-96922857D01*
X127207618Y-96970476D01*
X127255237Y-97065714D01*
X127302856Y-97113333D01*
X127398094Y-97160952D01*
X127588571Y-97160952D01*
X127683809Y-97208571D01*
X127731428Y-97256190D01*
X127779047Y-97351428D01*
X127779047Y-97541904D01*
X127731428Y-97637142D01*
X127683809Y-97684761D01*
X127588571Y-97732380D01*
X127398094Y-97732380D01*
X127302856Y-97684761D01*
X127255237Y-97637142D01*
X127207618Y-97541904D01*
X127207618Y-97351428D01*
X127255237Y-97256190D01*
X127302856Y-97208571D01*
X127398094Y-97160952D01*
G04 #@! TO.C,J4*
X116576260Y-91041312D02*
X117147689Y-91041312D01*
X116861975Y-91041312D02*
X116861975Y-90041312D01*
X116957213Y-90184170D01*
X117052451Y-90279408D01*
X117147689Y-90327027D01*
X116285714Y-96827619D02*
X116238095Y-96780000D01*
X116142857Y-96732380D01*
X115904761Y-96732380D01*
X115809523Y-96780000D01*
X115761904Y-96827619D01*
X115714285Y-96922857D01*
X115714285Y-97018095D01*
X115761904Y-97160952D01*
X116333333Y-97732380D01*
X115714285Y-97732380D01*
X114665308Y-90021312D02*
X114046260Y-90021312D01*
X114379594Y-90402265D01*
X114236736Y-90402265D01*
X114141498Y-90449884D01*
X114093879Y-90497503D01*
X114046260Y-90592741D01*
X114046260Y-90830836D01*
X114093879Y-90926074D01*
X114141498Y-90973693D01*
X114236736Y-91021312D01*
X114522451Y-91021312D01*
X114617689Y-90973693D01*
X114665308Y-90926074D01*
X113106190Y-97065714D02*
X113106190Y-97732380D01*
X113344286Y-96684761D02*
X113582381Y-97399047D01*
X112963333Y-97399047D01*
X111473879Y-89991312D02*
X111950070Y-89991312D01*
X111997689Y-90467503D01*
X111950070Y-90419884D01*
X111854832Y-90372265D01*
X111616736Y-90372265D01*
X111521498Y-90419884D01*
X111473879Y-90467503D01*
X111426260Y-90562741D01*
X111426260Y-90800836D01*
X111473879Y-90896074D01*
X111521498Y-90943693D01*
X111616736Y-90991312D01*
X111854832Y-90991312D01*
X111950070Y-90943693D01*
X111997689Y-90896074D01*
X110402857Y-96732380D02*
X110593334Y-96732380D01*
X110688572Y-96780000D01*
X110736191Y-96827619D01*
X110831429Y-96970476D01*
X110879048Y-97160952D01*
X110879048Y-97541904D01*
X110831429Y-97637142D01*
X110783810Y-97684761D01*
X110688572Y-97732380D01*
X110498095Y-97732380D01*
X110402857Y-97684761D01*
X110355238Y-97637142D01*
X110307619Y-97541904D01*
X110307619Y-97303809D01*
X110355238Y-97208571D01*
X110402857Y-97160952D01*
X110498095Y-97113333D01*
X110688572Y-97113333D01*
X110783810Y-97160952D01*
X110831429Y-97208571D01*
X110879048Y-97303809D01*
X109685308Y-89991312D02*
X109018641Y-89991312D01*
X109447213Y-90991312D01*
X107985238Y-97160952D02*
X108080476Y-97113333D01*
X108128095Y-97065714D01*
X108175714Y-96970476D01*
X108175714Y-96922857D01*
X108128095Y-96827619D01*
X108080476Y-96780000D01*
X107985238Y-96732380D01*
X107794761Y-96732380D01*
X107699523Y-96780000D01*
X107651904Y-96827619D01*
X107604285Y-96922857D01*
X107604285Y-96970476D01*
X107651904Y-97065714D01*
X107699523Y-97113333D01*
X107794761Y-97160952D01*
X107985238Y-97160952D01*
X108080476Y-97208571D01*
X108128095Y-97256190D01*
X108175714Y-97351428D01*
X108175714Y-97541904D01*
X108128095Y-97637142D01*
X108080476Y-97684761D01*
X107985238Y-97732380D01*
X107794761Y-97732380D01*
X107699523Y-97684761D01*
X107651904Y-97637142D01*
X107604285Y-97541904D01*
X107604285Y-97351428D01*
X107651904Y-97256190D01*
X107699523Y-97208571D01*
X107794761Y-97160952D01*
G04 #@! TO.C,C1*
X113837142Y-88243333D02*
X113884761Y-88195714D01*
X113932380Y-88052857D01*
X113932380Y-87957619D01*
X113884761Y-87814761D01*
X113789523Y-87719523D01*
X113694285Y-87671904D01*
X113503809Y-87624285D01*
X113360952Y-87624285D01*
X113170476Y-87671904D01*
X113075238Y-87719523D01*
X112980000Y-87814761D01*
X112932380Y-87957619D01*
X112932380Y-88052857D01*
X112980000Y-88195714D01*
X113027619Y-88243333D01*
X113932380Y-89195714D02*
X113932380Y-88624285D01*
X113932380Y-88910000D02*
X112932380Y-88910000D01*
X113075238Y-88814761D01*
X113170476Y-88719523D01*
X113218095Y-88624285D01*
G04 #@! TO.C,C2*
X117897142Y-97093333D02*
X117944761Y-97045714D01*
X117992380Y-96902857D01*
X117992380Y-96807619D01*
X117944761Y-96664761D01*
X117849523Y-96569523D01*
X117754285Y-96521904D01*
X117563809Y-96474285D01*
X117420952Y-96474285D01*
X117230476Y-96521904D01*
X117135238Y-96569523D01*
X117040000Y-96664761D01*
X116992380Y-96807619D01*
X116992380Y-96902857D01*
X117040000Y-97045714D01*
X117087619Y-97093333D01*
X117087619Y-97474285D02*
X117040000Y-97521904D01*
X116992380Y-97617142D01*
X116992380Y-97855238D01*
X117040000Y-97950476D01*
X117087619Y-97998095D01*
X117182857Y-98045714D01*
X117278095Y-98045714D01*
X117420952Y-97998095D01*
X117992380Y-97426666D01*
X117992380Y-98045714D01*
G04 #@! TO.C,C3*
X104587142Y-96818332D02*
X104634761Y-96770713D01*
X104682380Y-96627856D01*
X104682380Y-96532618D01*
X104634761Y-96389760D01*
X104539523Y-96294522D01*
X104444285Y-96246903D01*
X104253809Y-96199284D01*
X104110952Y-96199284D01*
X103920476Y-96246903D01*
X103825238Y-96294522D01*
X103730000Y-96389760D01*
X103682380Y-96532618D01*
X103682380Y-96627856D01*
X103730000Y-96770713D01*
X103777619Y-96818332D01*
X103682380Y-97151665D02*
X103682380Y-97770713D01*
X104063333Y-97437379D01*
X104063333Y-97580237D01*
X104110952Y-97675475D01*
X104158571Y-97723094D01*
X104253809Y-97770713D01*
X104491904Y-97770713D01*
X104587142Y-97723094D01*
X104634761Y-97675475D01*
X104682380Y-97580237D01*
X104682380Y-97294522D01*
X104634761Y-97199284D01*
X104587142Y-97151665D01*
G04 #@! TO.C,C7*
X133460475Y-88243333D02*
X133508094Y-88195714D01*
X133555713Y-88052857D01*
X133555713Y-87957619D01*
X133508094Y-87814761D01*
X133412856Y-87719523D01*
X133317618Y-87671904D01*
X133127142Y-87624285D01*
X132984285Y-87624285D01*
X132793809Y-87671904D01*
X132698571Y-87719523D01*
X132603333Y-87814761D01*
X132555713Y-87957619D01*
X132555713Y-88052857D01*
X132603333Y-88195714D01*
X132650952Y-88243333D01*
X132555713Y-88576666D02*
X132555713Y-89243333D01*
X133555713Y-88814761D01*
G04 #@! TO.C,C8*
X138708666Y-96617142D02*
X138756285Y-96664761D01*
X138899142Y-96712380D01*
X138994380Y-96712380D01*
X139137238Y-96664761D01*
X139232476Y-96569523D01*
X139280095Y-96474285D01*
X139327714Y-96283809D01*
X139327714Y-96140952D01*
X139280095Y-95950476D01*
X139232476Y-95855238D01*
X139137238Y-95760000D01*
X138994380Y-95712380D01*
X138899142Y-95712380D01*
X138756285Y-95760000D01*
X138708666Y-95807619D01*
X138137238Y-96140952D02*
X138232476Y-96093333D01*
X138280095Y-96045714D01*
X138327714Y-95950476D01*
X138327714Y-95902857D01*
X138280095Y-95807619D01*
X138232476Y-95760000D01*
X138137238Y-95712380D01*
X137946761Y-95712380D01*
X137851523Y-95760000D01*
X137803904Y-95807619D01*
X137756285Y-95902857D01*
X137756285Y-95950476D01*
X137803904Y-96045714D01*
X137851523Y-96093333D01*
X137946761Y-96140952D01*
X138137238Y-96140952D01*
X138232476Y-96188571D01*
X138280095Y-96236190D01*
X138327714Y-96331428D01*
X138327714Y-96521904D01*
X138280095Y-96617142D01*
X138232476Y-96664761D01*
X138137238Y-96712380D01*
X137946761Y-96712380D01*
X137851523Y-96664761D01*
X137803904Y-96617142D01*
X137756285Y-96521904D01*
X137756285Y-96331428D01*
X137803904Y-96236190D01*
X137851523Y-96188571D01*
X137946761Y-96140952D01*
G04 #@! TO.C,C10*
X153083808Y-87767142D02*
X153131427Y-87719523D01*
X153179046Y-87576666D01*
X153179046Y-87481428D01*
X153131427Y-87338571D01*
X153036189Y-87243333D01*
X152940951Y-87195714D01*
X152750475Y-87148095D01*
X152607618Y-87148095D01*
X152417142Y-87195714D01*
X152321904Y-87243333D01*
X152226666Y-87338571D01*
X152179046Y-87481428D01*
X152179046Y-87576666D01*
X152226666Y-87719523D01*
X152274285Y-87767142D01*
X153179046Y-88719523D02*
X153179046Y-88148095D01*
X153179046Y-88433809D02*
X152179046Y-88433809D01*
X152321904Y-88338571D01*
X152417142Y-88243333D01*
X152464761Y-88148095D01*
X152179046Y-89338571D02*
X152179046Y-89433809D01*
X152226666Y-89529047D01*
X152274285Y-89576666D01*
X152369523Y-89624285D01*
X152559999Y-89671904D01*
X152798094Y-89671904D01*
X152988570Y-89624285D01*
X153083808Y-89576666D01*
X153131427Y-89529047D01*
X153179046Y-89433809D01*
X153179046Y-89338571D01*
X153131427Y-89243333D01*
X153083808Y-89195714D01*
X152988570Y-89148095D01*
X152798094Y-89100476D01*
X152559999Y-89100476D01*
X152369523Y-89148095D01*
X152274285Y-89195714D01*
X152226666Y-89243333D01*
X152179046Y-89338571D01*
G04 #@! TO.C,C11*
X156567142Y-96617142D02*
X156614761Y-96569523D01*
X156662380Y-96426666D01*
X156662380Y-96331428D01*
X156614761Y-96188571D01*
X156519523Y-96093333D01*
X156424285Y-96045714D01*
X156233809Y-95998095D01*
X156090952Y-95998095D01*
X155900476Y-96045714D01*
X155805238Y-96093333D01*
X155710000Y-96188571D01*
X155662380Y-96331428D01*
X155662380Y-96426666D01*
X155710000Y-96569523D01*
X155757619Y-96617142D01*
X156662380Y-97569523D02*
X156662380Y-96998095D01*
X156662380Y-97283809D02*
X155662380Y-97283809D01*
X155805238Y-97188571D01*
X155900476Y-97093333D01*
X155948095Y-96998095D01*
X156662380Y-98521904D02*
X156662380Y-97950476D01*
X156662380Y-98236190D02*
X155662380Y-98236190D01*
X155805238Y-98140952D01*
X155900476Y-98045714D01*
X155948095Y-97950476D01*
G04 #@! TO.C,C12*
X143837142Y-96617142D02*
X143884761Y-96569523D01*
X143932380Y-96426666D01*
X143932380Y-96331428D01*
X143884761Y-96188571D01*
X143789523Y-96093333D01*
X143694285Y-96045714D01*
X143503809Y-95998095D01*
X143360952Y-95998095D01*
X143170476Y-96045714D01*
X143075238Y-96093333D01*
X142980000Y-96188571D01*
X142932380Y-96331428D01*
X142932380Y-96426666D01*
X142980000Y-96569523D01*
X143027619Y-96617142D01*
X143932380Y-97569523D02*
X143932380Y-96998095D01*
X143932380Y-97283809D02*
X142932380Y-97283809D01*
X143075238Y-97188571D01*
X143170476Y-97093333D01*
X143218095Y-96998095D01*
X143027619Y-97950476D02*
X142980000Y-97998095D01*
X142932380Y-98093333D01*
X142932380Y-98331428D01*
X142980000Y-98426666D01*
X143027619Y-98474285D01*
X143122857Y-98521904D01*
X143218095Y-98521904D01*
X143360952Y-98474285D01*
X143932380Y-97902857D01*
X143932380Y-98521904D01*
G04 #@! TO.C,C15*
X163837142Y-96617142D02*
X163884761Y-96569523D01*
X163932380Y-96426666D01*
X163932380Y-96331428D01*
X163884761Y-96188571D01*
X163789523Y-96093333D01*
X163694285Y-96045714D01*
X163503809Y-95998095D01*
X163360952Y-95998095D01*
X163170476Y-96045714D01*
X163075238Y-96093333D01*
X162980000Y-96188571D01*
X162932380Y-96331428D01*
X162932380Y-96426666D01*
X162980000Y-96569523D01*
X163027619Y-96617142D01*
X163932380Y-97569523D02*
X163932380Y-96998095D01*
X163932380Y-97283809D02*
X162932380Y-97283809D01*
X163075238Y-97188571D01*
X163170476Y-97093333D01*
X163218095Y-96998095D01*
X162932380Y-98474285D02*
X162932380Y-97998095D01*
X163408571Y-97950476D01*
X163360952Y-97998095D01*
X163313333Y-98093333D01*
X163313333Y-98331428D01*
X163360952Y-98426666D01*
X163408571Y-98474285D01*
X163503809Y-98521904D01*
X163741904Y-98521904D01*
X163837142Y-98474285D01*
X163884761Y-98426666D01*
X163932380Y-98331428D01*
X163932380Y-98093333D01*
X163884761Y-97998095D01*
X163837142Y-97950476D01*
G04 #@! TO.C,C23*
X198827142Y-59237142D02*
X198874761Y-59189523D01*
X198922380Y-59046666D01*
X198922380Y-58951428D01*
X198874761Y-58808571D01*
X198779523Y-58713333D01*
X198684285Y-58665714D01*
X198493809Y-58618095D01*
X198350952Y-58618095D01*
X198160476Y-58665714D01*
X198065238Y-58713333D01*
X197970000Y-58808571D01*
X197922380Y-58951428D01*
X197922380Y-59046666D01*
X197970000Y-59189523D01*
X198017619Y-59237142D01*
X198017619Y-59618095D02*
X197970000Y-59665714D01*
X197922380Y-59760952D01*
X197922380Y-59999047D01*
X197970000Y-60094285D01*
X198017619Y-60141904D01*
X198112857Y-60189523D01*
X198208095Y-60189523D01*
X198350952Y-60141904D01*
X198922380Y-59570476D01*
X198922380Y-60189523D01*
X197922380Y-60522857D02*
X197922380Y-61141904D01*
X198303333Y-60808571D01*
X198303333Y-60951428D01*
X198350952Y-61046666D01*
X198398571Y-61094285D01*
X198493809Y-61141904D01*
X198731904Y-61141904D01*
X198827142Y-61094285D01*
X198874761Y-61046666D01*
X198922380Y-60951428D01*
X198922380Y-60665714D01*
X198874761Y-60570476D01*
X198827142Y-60522857D01*
G04 #@! TO.C,C24*
X193631142Y-59367142D02*
X193678761Y-59319523D01*
X193726380Y-59176666D01*
X193726380Y-59081428D01*
X193678761Y-58938571D01*
X193583523Y-58843333D01*
X193488285Y-58795714D01*
X193297809Y-58748095D01*
X193154952Y-58748095D01*
X192964476Y-58795714D01*
X192869238Y-58843333D01*
X192774000Y-58938571D01*
X192726380Y-59081428D01*
X192726380Y-59176666D01*
X192774000Y-59319523D01*
X192821619Y-59367142D01*
X192821619Y-59748095D02*
X192774000Y-59795714D01*
X192726380Y-59890952D01*
X192726380Y-60129047D01*
X192774000Y-60224285D01*
X192821619Y-60271904D01*
X192916857Y-60319523D01*
X193012095Y-60319523D01*
X193154952Y-60271904D01*
X193726380Y-59700476D01*
X193726380Y-60319523D01*
X193059714Y-61176666D02*
X193726380Y-61176666D01*
X192678761Y-60938571D02*
X193393047Y-60700476D01*
X193393047Y-61319523D01*
G04 #@! TO.C,C29*
X142651917Y-53165042D02*
X142699536Y-53212661D01*
X142842393Y-53260280D01*
X142937631Y-53260280D01*
X143080488Y-53212661D01*
X143175726Y-53117423D01*
X143223345Y-53022185D01*
X143270964Y-52831709D01*
X143270964Y-52688852D01*
X143223345Y-52498376D01*
X143175726Y-52403138D01*
X143080488Y-52307900D01*
X142937631Y-52260280D01*
X142842393Y-52260280D01*
X142699536Y-52307900D01*
X142651917Y-52355519D01*
X142270964Y-52355519D02*
X142223345Y-52307900D01*
X142128107Y-52260280D01*
X141890012Y-52260280D01*
X141794774Y-52307900D01*
X141747155Y-52355519D01*
X141699536Y-52450757D01*
X141699536Y-52545995D01*
X141747155Y-52688852D01*
X142318583Y-53260280D01*
X141699536Y-53260280D01*
X141223345Y-53260280D02*
X141032869Y-53260280D01*
X140937631Y-53212661D01*
X140890012Y-53165042D01*
X140794774Y-53022185D01*
X140747155Y-52831709D01*
X140747155Y-52450757D01*
X140794774Y-52355519D01*
X140842393Y-52307900D01*
X140937631Y-52260280D01*
X141128107Y-52260280D01*
X141223345Y-52307900D01*
X141270964Y-52355519D01*
X141318583Y-52450757D01*
X141318583Y-52688852D01*
X141270964Y-52784090D01*
X141223345Y-52831709D01*
X141128107Y-52879328D01*
X140937631Y-52879328D01*
X140842393Y-52831709D01*
X140794774Y-52784090D01*
X140747155Y-52688852D01*
G04 #@! TO.C,C30*
X152893197Y-53251402D02*
X152940816Y-53299021D01*
X153083673Y-53346640D01*
X153178911Y-53346640D01*
X153321768Y-53299021D01*
X153417006Y-53203783D01*
X153464625Y-53108545D01*
X153512244Y-52918069D01*
X153512244Y-52775212D01*
X153464625Y-52584736D01*
X153417006Y-52489498D01*
X153321768Y-52394260D01*
X153178911Y-52346640D01*
X153083673Y-52346640D01*
X152940816Y-52394260D01*
X152893197Y-52441879D01*
X152559863Y-52346640D02*
X151940816Y-52346640D01*
X152274149Y-52727593D01*
X152131292Y-52727593D01*
X152036054Y-52775212D01*
X151988435Y-52822831D01*
X151940816Y-52918069D01*
X151940816Y-53156164D01*
X151988435Y-53251402D01*
X152036054Y-53299021D01*
X152131292Y-53346640D01*
X152417006Y-53346640D01*
X152512244Y-53299021D01*
X152559863Y-53251402D01*
X151321768Y-52346640D02*
X151226530Y-52346640D01*
X151131292Y-52394260D01*
X151083673Y-52441879D01*
X151036054Y-52537117D01*
X150988435Y-52727593D01*
X150988435Y-52965688D01*
X151036054Y-53156164D01*
X151083673Y-53251402D01*
X151131292Y-53299021D01*
X151226530Y-53346640D01*
X151321768Y-53346640D01*
X151417006Y-53299021D01*
X151464625Y-53251402D01*
X151512244Y-53156164D01*
X151559863Y-52965688D01*
X151559863Y-52727593D01*
X151512244Y-52537117D01*
X151464625Y-52441879D01*
X151417006Y-52394260D01*
X151321768Y-52346640D01*
G04 #@! TO.C,C31*
X147853837Y-48209502D02*
X147901456Y-48257121D01*
X148044313Y-48304740D01*
X148139551Y-48304740D01*
X148282408Y-48257121D01*
X148377646Y-48161883D01*
X148425265Y-48066645D01*
X148472884Y-47876169D01*
X148472884Y-47733312D01*
X148425265Y-47542836D01*
X148377646Y-47447598D01*
X148282408Y-47352360D01*
X148139551Y-47304740D01*
X148044313Y-47304740D01*
X147901456Y-47352360D01*
X147853837Y-47399979D01*
X147520503Y-47304740D02*
X146901456Y-47304740D01*
X147234789Y-47685693D01*
X147091932Y-47685693D01*
X146996694Y-47733312D01*
X146949075Y-47780931D01*
X146901456Y-47876169D01*
X146901456Y-48114264D01*
X146949075Y-48209502D01*
X146996694Y-48257121D01*
X147091932Y-48304740D01*
X147377646Y-48304740D01*
X147472884Y-48257121D01*
X147520503Y-48209502D01*
X145949075Y-48304740D02*
X146520503Y-48304740D01*
X146234789Y-48304740D02*
X146234789Y-47304740D01*
X146330027Y-47447598D01*
X146425265Y-47542836D01*
X146520503Y-47590455D01*
G04 #@! TO.C,C33*
X149147142Y-77257142D02*
X149194761Y-77209523D01*
X149242380Y-77066666D01*
X149242380Y-76971428D01*
X149194761Y-76828571D01*
X149099523Y-76733333D01*
X149004285Y-76685714D01*
X148813809Y-76638095D01*
X148670952Y-76638095D01*
X148480476Y-76685714D01*
X148385238Y-76733333D01*
X148290000Y-76828571D01*
X148242380Y-76971428D01*
X148242380Y-77066666D01*
X148290000Y-77209523D01*
X148337619Y-77257142D01*
X148242380Y-77590476D02*
X148242380Y-78209523D01*
X148623333Y-77876190D01*
X148623333Y-78019047D01*
X148670952Y-78114285D01*
X148718571Y-78161904D01*
X148813809Y-78209523D01*
X149051904Y-78209523D01*
X149147142Y-78161904D01*
X149194761Y-78114285D01*
X149242380Y-78019047D01*
X149242380Y-77733333D01*
X149194761Y-77638095D01*
X149147142Y-77590476D01*
X148242380Y-78542857D02*
X148242380Y-79161904D01*
X148623333Y-78828571D01*
X148623333Y-78971428D01*
X148670952Y-79066666D01*
X148718571Y-79114285D01*
X148813809Y-79161904D01*
X149051904Y-79161904D01*
X149147142Y-79114285D01*
X149194761Y-79066666D01*
X149242380Y-78971428D01*
X149242380Y-78685714D01*
X149194761Y-78590476D01*
X149147142Y-78542857D01*
G04 #@! TO.C,C34*
X155122082Y-77275482D02*
X155169701Y-77227863D01*
X155217320Y-77085006D01*
X155217320Y-76989768D01*
X155169701Y-76846911D01*
X155074463Y-76751673D01*
X154979225Y-76704054D01*
X154788749Y-76656435D01*
X154645892Y-76656435D01*
X154455416Y-76704054D01*
X154360178Y-76751673D01*
X154264940Y-76846911D01*
X154217320Y-76989768D01*
X154217320Y-77085006D01*
X154264940Y-77227863D01*
X154312559Y-77275482D01*
X154217320Y-77608816D02*
X154217320Y-78227863D01*
X154598273Y-77894530D01*
X154598273Y-78037387D01*
X154645892Y-78132625D01*
X154693511Y-78180244D01*
X154788749Y-78227863D01*
X155026844Y-78227863D01*
X155122082Y-78180244D01*
X155169701Y-78132625D01*
X155217320Y-78037387D01*
X155217320Y-77751673D01*
X155169701Y-77656435D01*
X155122082Y-77608816D01*
X154550654Y-79085006D02*
X155217320Y-79085006D01*
X154169701Y-78846911D02*
X154883987Y-78608816D01*
X154883987Y-79227863D01*
G04 #@! TO.C,C35*
X165844657Y-66248582D02*
X165892276Y-66296201D01*
X166035133Y-66343820D01*
X166130371Y-66343820D01*
X166273228Y-66296201D01*
X166368466Y-66200963D01*
X166416085Y-66105725D01*
X166463704Y-65915249D01*
X166463704Y-65772392D01*
X166416085Y-65581916D01*
X166368466Y-65486678D01*
X166273228Y-65391440D01*
X166130371Y-65343820D01*
X166035133Y-65343820D01*
X165892276Y-65391440D01*
X165844657Y-65439059D01*
X165511323Y-65343820D02*
X164892276Y-65343820D01*
X165225609Y-65724773D01*
X165082752Y-65724773D01*
X164987514Y-65772392D01*
X164939895Y-65820011D01*
X164892276Y-65915249D01*
X164892276Y-66153344D01*
X164939895Y-66248582D01*
X164987514Y-66296201D01*
X165082752Y-66343820D01*
X165368466Y-66343820D01*
X165463704Y-66296201D01*
X165511323Y-66248582D01*
X163987514Y-65343820D02*
X164463704Y-65343820D01*
X164511323Y-65820011D01*
X164463704Y-65772392D01*
X164368466Y-65724773D01*
X164130371Y-65724773D01*
X164035133Y-65772392D01*
X163987514Y-65820011D01*
X163939895Y-65915249D01*
X163939895Y-66153344D01*
X163987514Y-66248582D01*
X164035133Y-66296201D01*
X164130371Y-66343820D01*
X164368466Y-66343820D01*
X164463704Y-66296201D01*
X164511323Y-66248582D01*
G04 #@! TO.C,C36*
X162710297Y-63177722D02*
X162757916Y-63225341D01*
X162900773Y-63272960D01*
X162996011Y-63272960D01*
X163138868Y-63225341D01*
X163234106Y-63130103D01*
X163281725Y-63034865D01*
X163329344Y-62844389D01*
X163329344Y-62701532D01*
X163281725Y-62511056D01*
X163234106Y-62415818D01*
X163138868Y-62320580D01*
X162996011Y-62272960D01*
X162900773Y-62272960D01*
X162757916Y-62320580D01*
X162710297Y-62368199D01*
X162376963Y-62272960D02*
X161757916Y-62272960D01*
X162091249Y-62653913D01*
X161948392Y-62653913D01*
X161853154Y-62701532D01*
X161805535Y-62749151D01*
X161757916Y-62844389D01*
X161757916Y-63082484D01*
X161805535Y-63177722D01*
X161853154Y-63225341D01*
X161948392Y-63272960D01*
X162234106Y-63272960D01*
X162329344Y-63225341D01*
X162376963Y-63177722D01*
X160900773Y-62272960D02*
X161091249Y-62272960D01*
X161186487Y-62320580D01*
X161234106Y-62368199D01*
X161329344Y-62511056D01*
X161376963Y-62701532D01*
X161376963Y-63082484D01*
X161329344Y-63177722D01*
X161281725Y-63225341D01*
X161186487Y-63272960D01*
X160996011Y-63272960D01*
X160900773Y-63225341D01*
X160853154Y-63177722D01*
X160805535Y-63082484D01*
X160805535Y-62844389D01*
X160853154Y-62749151D01*
X160900773Y-62701532D01*
X160996011Y-62653913D01*
X161186487Y-62653913D01*
X161281725Y-62701532D01*
X161329344Y-62749151D01*
X161376963Y-62844389D01*
G04 #@! TO.C,C37*
X157343277Y-48245062D02*
X157390896Y-48292681D01*
X157533753Y-48340300D01*
X157628991Y-48340300D01*
X157771848Y-48292681D01*
X157867086Y-48197443D01*
X157914705Y-48102205D01*
X157962324Y-47911729D01*
X157962324Y-47768872D01*
X157914705Y-47578396D01*
X157867086Y-47483158D01*
X157771848Y-47387920D01*
X157628991Y-47340300D01*
X157533753Y-47340300D01*
X157390896Y-47387920D01*
X157343277Y-47435539D01*
X157009943Y-47340300D02*
X156390896Y-47340300D01*
X156724229Y-47721253D01*
X156581372Y-47721253D01*
X156486134Y-47768872D01*
X156438515Y-47816491D01*
X156390896Y-47911729D01*
X156390896Y-48149824D01*
X156438515Y-48245062D01*
X156486134Y-48292681D01*
X156581372Y-48340300D01*
X156867086Y-48340300D01*
X156962324Y-48292681D01*
X157009943Y-48245062D01*
X156057562Y-47340300D02*
X155390896Y-47340300D01*
X155819467Y-48340300D01*
G04 #@! TO.C,C38*
X154361317Y-48146002D02*
X154408936Y-48193621D01*
X154551793Y-48241240D01*
X154647031Y-48241240D01*
X154789888Y-48193621D01*
X154885126Y-48098383D01*
X154932745Y-48003145D01*
X154980364Y-47812669D01*
X154980364Y-47669812D01*
X154932745Y-47479336D01*
X154885126Y-47384098D01*
X154789888Y-47288860D01*
X154647031Y-47241240D01*
X154551793Y-47241240D01*
X154408936Y-47288860D01*
X154361317Y-47336479D01*
X154027983Y-47241240D02*
X153408936Y-47241240D01*
X153742269Y-47622193D01*
X153599412Y-47622193D01*
X153504174Y-47669812D01*
X153456555Y-47717431D01*
X153408936Y-47812669D01*
X153408936Y-48050764D01*
X153456555Y-48146002D01*
X153504174Y-48193621D01*
X153599412Y-48241240D01*
X153885126Y-48241240D01*
X153980364Y-48193621D01*
X154027983Y-48146002D01*
X152837507Y-47669812D02*
X152932745Y-47622193D01*
X152980364Y-47574574D01*
X153027983Y-47479336D01*
X153027983Y-47431717D01*
X152980364Y-47336479D01*
X152932745Y-47288860D01*
X152837507Y-47241240D01*
X152647031Y-47241240D01*
X152551793Y-47288860D01*
X152504174Y-47336479D01*
X152456555Y-47431717D01*
X152456555Y-47479336D01*
X152504174Y-47574574D01*
X152551793Y-47622193D01*
X152647031Y-47669812D01*
X152837507Y-47669812D01*
X152932745Y-47717431D01*
X152980364Y-47765050D01*
X153027983Y-47860288D01*
X153027983Y-48050764D01*
X152980364Y-48146002D01*
X152932745Y-48193621D01*
X152837507Y-48241240D01*
X152647031Y-48241240D01*
X152551793Y-48193621D01*
X152504174Y-48146002D01*
X152456555Y-48050764D01*
X152456555Y-47860288D01*
X152504174Y-47765050D01*
X152551793Y-47717431D01*
X152647031Y-47669812D01*
G04 #@! TO.C,C39*
X146083457Y-53124402D02*
X146131076Y-53172021D01*
X146273933Y-53219640D01*
X146369171Y-53219640D01*
X146512028Y-53172021D01*
X146607266Y-53076783D01*
X146654885Y-52981545D01*
X146702504Y-52791069D01*
X146702504Y-52648212D01*
X146654885Y-52457736D01*
X146607266Y-52362498D01*
X146512028Y-52267260D01*
X146369171Y-52219640D01*
X146273933Y-52219640D01*
X146131076Y-52267260D01*
X146083457Y-52314879D01*
X145750123Y-52219640D02*
X145131076Y-52219640D01*
X145464409Y-52600593D01*
X145321552Y-52600593D01*
X145226314Y-52648212D01*
X145178695Y-52695831D01*
X145131076Y-52791069D01*
X145131076Y-53029164D01*
X145178695Y-53124402D01*
X145226314Y-53172021D01*
X145321552Y-53219640D01*
X145607266Y-53219640D01*
X145702504Y-53172021D01*
X145750123Y-53124402D01*
X144654885Y-53219640D02*
X144464409Y-53219640D01*
X144369171Y-53172021D01*
X144321552Y-53124402D01*
X144226314Y-52981545D01*
X144178695Y-52791069D01*
X144178695Y-52410117D01*
X144226314Y-52314879D01*
X144273933Y-52267260D01*
X144369171Y-52219640D01*
X144559647Y-52219640D01*
X144654885Y-52267260D01*
X144702504Y-52314879D01*
X144750123Y-52410117D01*
X144750123Y-52648212D01*
X144702504Y-52743450D01*
X144654885Y-52791069D01*
X144559647Y-52838688D01*
X144369171Y-52838688D01*
X144273933Y-52791069D01*
X144226314Y-52743450D01*
X144178695Y-52648212D01*
G04 #@! TO.C,C40*
X130899337Y-62105842D02*
X130946956Y-62153461D01*
X131089813Y-62201080D01*
X131185051Y-62201080D01*
X131327908Y-62153461D01*
X131423146Y-62058223D01*
X131470765Y-61962985D01*
X131518384Y-61772509D01*
X131518384Y-61629652D01*
X131470765Y-61439176D01*
X131423146Y-61343938D01*
X131327908Y-61248700D01*
X131185051Y-61201080D01*
X131089813Y-61201080D01*
X130946956Y-61248700D01*
X130899337Y-61296319D01*
X130042194Y-61534414D02*
X130042194Y-62201080D01*
X130280289Y-61153461D02*
X130518384Y-61867747D01*
X129899337Y-61867747D01*
X129327908Y-61201080D02*
X129232670Y-61201080D01*
X129137432Y-61248700D01*
X129089813Y-61296319D01*
X129042194Y-61391557D01*
X128994575Y-61582033D01*
X128994575Y-61820128D01*
X129042194Y-62010604D01*
X129089813Y-62105842D01*
X129137432Y-62153461D01*
X129232670Y-62201080D01*
X129327908Y-62201080D01*
X129423146Y-62153461D01*
X129470765Y-62105842D01*
X129518384Y-62010604D01*
X129566003Y-61820128D01*
X129566003Y-61582033D01*
X129518384Y-61391557D01*
X129470765Y-61296319D01*
X129423146Y-61248700D01*
X129327908Y-61201080D01*
G04 #@! TO.C,C41*
X137993557Y-63599362D02*
X138041176Y-63646981D01*
X138184033Y-63694600D01*
X138279271Y-63694600D01*
X138422128Y-63646981D01*
X138517366Y-63551743D01*
X138564985Y-63456505D01*
X138612604Y-63266029D01*
X138612604Y-63123172D01*
X138564985Y-62932696D01*
X138517366Y-62837458D01*
X138422128Y-62742220D01*
X138279271Y-62694600D01*
X138184033Y-62694600D01*
X138041176Y-62742220D01*
X137993557Y-62789839D01*
X137136414Y-63027934D02*
X137136414Y-63694600D01*
X137374509Y-62646981D02*
X137612604Y-63361267D01*
X136993557Y-63361267D01*
X136088795Y-63694600D02*
X136660223Y-63694600D01*
X136374509Y-63694600D02*
X136374509Y-62694600D01*
X136469747Y-62837458D01*
X136564985Y-62932696D01*
X136660223Y-62980315D01*
G04 #@! TO.C,C43*
X143527142Y-72447142D02*
X143574761Y-72399523D01*
X143622380Y-72256666D01*
X143622380Y-72161428D01*
X143574761Y-72018571D01*
X143479523Y-71923333D01*
X143384285Y-71875714D01*
X143193809Y-71828095D01*
X143050952Y-71828095D01*
X142860476Y-71875714D01*
X142765238Y-71923333D01*
X142670000Y-72018571D01*
X142622380Y-72161428D01*
X142622380Y-72256666D01*
X142670000Y-72399523D01*
X142717619Y-72447142D01*
X142955714Y-73304285D02*
X143622380Y-73304285D01*
X142574761Y-73066190D02*
X143289047Y-72828095D01*
X143289047Y-73447142D01*
X142622380Y-73732857D02*
X142622380Y-74351904D01*
X143003333Y-74018571D01*
X143003333Y-74161428D01*
X143050952Y-74256666D01*
X143098571Y-74304285D01*
X143193809Y-74351904D01*
X143431904Y-74351904D01*
X143527142Y-74304285D01*
X143574761Y-74256666D01*
X143622380Y-74161428D01*
X143622380Y-73875714D01*
X143574761Y-73780476D01*
X143527142Y-73732857D01*
G04 #@! TO.C,C44*
X147607142Y-72437142D02*
X147654761Y-72389523D01*
X147702380Y-72246666D01*
X147702380Y-72151428D01*
X147654761Y-72008571D01*
X147559523Y-71913333D01*
X147464285Y-71865714D01*
X147273809Y-71818095D01*
X147130952Y-71818095D01*
X146940476Y-71865714D01*
X146845238Y-71913333D01*
X146750000Y-72008571D01*
X146702380Y-72151428D01*
X146702380Y-72246666D01*
X146750000Y-72389523D01*
X146797619Y-72437142D01*
X147035714Y-73294285D02*
X147702380Y-73294285D01*
X146654761Y-73056190D02*
X147369047Y-72818095D01*
X147369047Y-73437142D01*
X147035714Y-74246666D02*
X147702380Y-74246666D01*
X146654761Y-74008571D02*
X147369047Y-73770476D01*
X147369047Y-74389523D01*
G04 #@! TO.C,C45*
X149627142Y-72407142D02*
X149674761Y-72359523D01*
X149722380Y-72216666D01*
X149722380Y-72121428D01*
X149674761Y-71978571D01*
X149579523Y-71883333D01*
X149484285Y-71835714D01*
X149293809Y-71788095D01*
X149150952Y-71788095D01*
X148960476Y-71835714D01*
X148865238Y-71883333D01*
X148770000Y-71978571D01*
X148722380Y-72121428D01*
X148722380Y-72216666D01*
X148770000Y-72359523D01*
X148817619Y-72407142D01*
X149055714Y-73264285D02*
X149722380Y-73264285D01*
X148674761Y-73026190D02*
X149389047Y-72788095D01*
X149389047Y-73407142D01*
X148722380Y-74264285D02*
X148722380Y-73788095D01*
X149198571Y-73740476D01*
X149150952Y-73788095D01*
X149103333Y-73883333D01*
X149103333Y-74121428D01*
X149150952Y-74216666D01*
X149198571Y-74264285D01*
X149293809Y-74311904D01*
X149531904Y-74311904D01*
X149627142Y-74264285D01*
X149674761Y-74216666D01*
X149722380Y-74121428D01*
X149722380Y-73883333D01*
X149674761Y-73788095D01*
X149627142Y-73740476D01*
G04 #@! TO.C,C46*
X153237142Y-72497142D02*
X153284761Y-72449523D01*
X153332380Y-72306666D01*
X153332380Y-72211428D01*
X153284761Y-72068571D01*
X153189523Y-71973333D01*
X153094285Y-71925714D01*
X152903809Y-71878095D01*
X152760952Y-71878095D01*
X152570476Y-71925714D01*
X152475238Y-71973333D01*
X152380000Y-72068571D01*
X152332380Y-72211428D01*
X152332380Y-72306666D01*
X152380000Y-72449523D01*
X152427619Y-72497142D01*
X152665714Y-73354285D02*
X153332380Y-73354285D01*
X152284761Y-73116190D02*
X152999047Y-72878095D01*
X152999047Y-73497142D01*
X152332380Y-74306666D02*
X152332380Y-74116190D01*
X152380000Y-74020952D01*
X152427619Y-73973333D01*
X152570476Y-73878095D01*
X152760952Y-73830476D01*
X153141904Y-73830476D01*
X153237142Y-73878095D01*
X153284761Y-73925714D01*
X153332380Y-74020952D01*
X153332380Y-74211428D01*
X153284761Y-74306666D01*
X153237142Y-74354285D01*
X153141904Y-74401904D01*
X152903809Y-74401904D01*
X152808571Y-74354285D01*
X152760952Y-74306666D01*
X152713333Y-74211428D01*
X152713333Y-74020952D01*
X152760952Y-73925714D01*
X152808571Y-73878095D01*
X152903809Y-73830476D01*
G04 #@! TO.C,C47*
X165814177Y-72209962D02*
X165861796Y-72257581D01*
X166004653Y-72305200D01*
X166099891Y-72305200D01*
X166242748Y-72257581D01*
X166337986Y-72162343D01*
X166385605Y-72067105D01*
X166433224Y-71876629D01*
X166433224Y-71733772D01*
X166385605Y-71543296D01*
X166337986Y-71448058D01*
X166242748Y-71352820D01*
X166099891Y-71305200D01*
X166004653Y-71305200D01*
X165861796Y-71352820D01*
X165814177Y-71400439D01*
X164957034Y-71638534D02*
X164957034Y-72305200D01*
X165195129Y-71257581D02*
X165433224Y-71971867D01*
X164814177Y-71971867D01*
X164528462Y-71305200D02*
X163861796Y-71305200D01*
X164290367Y-72305200D01*
G04 #@! TO.C,C48*
X165788777Y-70449742D02*
X165836396Y-70497361D01*
X165979253Y-70544980D01*
X166074491Y-70544980D01*
X166217348Y-70497361D01*
X166312586Y-70402123D01*
X166360205Y-70306885D01*
X166407824Y-70116409D01*
X166407824Y-69973552D01*
X166360205Y-69783076D01*
X166312586Y-69687838D01*
X166217348Y-69592600D01*
X166074491Y-69544980D01*
X165979253Y-69544980D01*
X165836396Y-69592600D01*
X165788777Y-69640219D01*
X164931634Y-69878314D02*
X164931634Y-70544980D01*
X165169729Y-69497361D02*
X165407824Y-70211647D01*
X164788777Y-70211647D01*
X164264967Y-69973552D02*
X164360205Y-69925933D01*
X164407824Y-69878314D01*
X164455443Y-69783076D01*
X164455443Y-69735457D01*
X164407824Y-69640219D01*
X164360205Y-69592600D01*
X164264967Y-69544980D01*
X164074491Y-69544980D01*
X163979253Y-69592600D01*
X163931634Y-69640219D01*
X163884015Y-69735457D01*
X163884015Y-69783076D01*
X163931634Y-69878314D01*
X163979253Y-69925933D01*
X164074491Y-69973552D01*
X164264967Y-69973552D01*
X164360205Y-70021171D01*
X164407824Y-70068790D01*
X164455443Y-70164028D01*
X164455443Y-70354504D01*
X164407824Y-70449742D01*
X164360205Y-70497361D01*
X164264967Y-70544980D01*
X164074491Y-70544980D01*
X163979253Y-70497361D01*
X163931634Y-70449742D01*
X163884015Y-70354504D01*
X163884015Y-70164028D01*
X163931634Y-70068790D01*
X163979253Y-70021171D01*
X164074491Y-69973552D01*
G04 #@! TO.C,C49*
X138046897Y-66469562D02*
X138094516Y-66517181D01*
X138237373Y-66564800D01*
X138332611Y-66564800D01*
X138475468Y-66517181D01*
X138570706Y-66421943D01*
X138618325Y-66326705D01*
X138665944Y-66136229D01*
X138665944Y-65993372D01*
X138618325Y-65802896D01*
X138570706Y-65707658D01*
X138475468Y-65612420D01*
X138332611Y-65564800D01*
X138237373Y-65564800D01*
X138094516Y-65612420D01*
X138046897Y-65660039D01*
X137189754Y-65898134D02*
X137189754Y-66564800D01*
X137427849Y-65517181D02*
X137665944Y-66231467D01*
X137046897Y-66231467D01*
X136618325Y-66564800D02*
X136427849Y-66564800D01*
X136332611Y-66517181D01*
X136284992Y-66469562D01*
X136189754Y-66326705D01*
X136142135Y-66136229D01*
X136142135Y-65755277D01*
X136189754Y-65660039D01*
X136237373Y-65612420D01*
X136332611Y-65564800D01*
X136523087Y-65564800D01*
X136618325Y-65612420D01*
X136665944Y-65660039D01*
X136713563Y-65755277D01*
X136713563Y-65993372D01*
X136665944Y-66088610D01*
X136618325Y-66136229D01*
X136523087Y-66183848D01*
X136332611Y-66183848D01*
X136237373Y-66136229D01*
X136189754Y-66088610D01*
X136142135Y-65993372D01*
G04 #@! TO.C,C50*
X130597077Y-67767502D02*
X130644696Y-67815121D01*
X130787553Y-67862740D01*
X130882791Y-67862740D01*
X131025648Y-67815121D01*
X131120886Y-67719883D01*
X131168505Y-67624645D01*
X131216124Y-67434169D01*
X131216124Y-67291312D01*
X131168505Y-67100836D01*
X131120886Y-67005598D01*
X131025648Y-66910360D01*
X130882791Y-66862740D01*
X130787553Y-66862740D01*
X130644696Y-66910360D01*
X130597077Y-66957979D01*
X129692315Y-66862740D02*
X130168505Y-66862740D01*
X130216124Y-67338931D01*
X130168505Y-67291312D01*
X130073267Y-67243693D01*
X129835172Y-67243693D01*
X129739934Y-67291312D01*
X129692315Y-67338931D01*
X129644696Y-67434169D01*
X129644696Y-67672264D01*
X129692315Y-67767502D01*
X129739934Y-67815121D01*
X129835172Y-67862740D01*
X130073267Y-67862740D01*
X130168505Y-67815121D01*
X130216124Y-67767502D01*
X129025648Y-66862740D02*
X128930410Y-66862740D01*
X128835172Y-66910360D01*
X128787553Y-66957979D01*
X128739934Y-67053217D01*
X128692315Y-67243693D01*
X128692315Y-67481788D01*
X128739934Y-67672264D01*
X128787553Y-67767502D01*
X128835172Y-67815121D01*
X128930410Y-67862740D01*
X129025648Y-67862740D01*
X129120886Y-67815121D01*
X129168505Y-67767502D01*
X129216124Y-67672264D01*
X129263743Y-67481788D01*
X129263743Y-67243693D01*
X129216124Y-67053217D01*
X129168505Y-66957979D01*
X129120886Y-66910360D01*
X129025648Y-66862740D01*
G04 #@! TO.C,C51*
X130835837Y-70729142D02*
X130883456Y-70776761D01*
X131026313Y-70824380D01*
X131121551Y-70824380D01*
X131264408Y-70776761D01*
X131359646Y-70681523D01*
X131407265Y-70586285D01*
X131454884Y-70395809D01*
X131454884Y-70252952D01*
X131407265Y-70062476D01*
X131359646Y-69967238D01*
X131264408Y-69872000D01*
X131121551Y-69824380D01*
X131026313Y-69824380D01*
X130883456Y-69872000D01*
X130835837Y-69919619D01*
X129931075Y-69824380D02*
X130407265Y-69824380D01*
X130454884Y-70300571D01*
X130407265Y-70252952D01*
X130312027Y-70205333D01*
X130073932Y-70205333D01*
X129978694Y-70252952D01*
X129931075Y-70300571D01*
X129883456Y-70395809D01*
X129883456Y-70633904D01*
X129931075Y-70729142D01*
X129978694Y-70776761D01*
X130073932Y-70824380D01*
X130312027Y-70824380D01*
X130407265Y-70776761D01*
X130454884Y-70729142D01*
X128931075Y-70824380D02*
X129502503Y-70824380D01*
X129216789Y-70824380D02*
X129216789Y-69824380D01*
X129312027Y-69967238D01*
X129407265Y-70062476D01*
X129502503Y-70110095D01*
G04 #@! TO.C,C53*
X144007142Y-76987142D02*
X144054761Y-76939523D01*
X144102380Y-76796666D01*
X144102380Y-76701428D01*
X144054761Y-76558571D01*
X143959523Y-76463333D01*
X143864285Y-76415714D01*
X143673809Y-76368095D01*
X143530952Y-76368095D01*
X143340476Y-76415714D01*
X143245238Y-76463333D01*
X143150000Y-76558571D01*
X143102380Y-76701428D01*
X143102380Y-76796666D01*
X143150000Y-76939523D01*
X143197619Y-76987142D01*
X143102380Y-77891904D02*
X143102380Y-77415714D01*
X143578571Y-77368095D01*
X143530952Y-77415714D01*
X143483333Y-77510952D01*
X143483333Y-77749047D01*
X143530952Y-77844285D01*
X143578571Y-77891904D01*
X143673809Y-77939523D01*
X143911904Y-77939523D01*
X144007142Y-77891904D01*
X144054761Y-77844285D01*
X144102380Y-77749047D01*
X144102380Y-77510952D01*
X144054761Y-77415714D01*
X144007142Y-77368095D01*
X143102380Y-78272857D02*
X143102380Y-78891904D01*
X143483333Y-78558571D01*
X143483333Y-78701428D01*
X143530952Y-78796666D01*
X143578571Y-78844285D01*
X143673809Y-78891904D01*
X143911904Y-78891904D01*
X144007142Y-78844285D01*
X144054761Y-78796666D01*
X144102380Y-78701428D01*
X144102380Y-78415714D01*
X144054761Y-78320476D01*
X144007142Y-78272857D01*
G04 #@! TO.C,C54*
X150667142Y-77237142D02*
X150714761Y-77189523D01*
X150762380Y-77046666D01*
X150762380Y-76951428D01*
X150714761Y-76808571D01*
X150619523Y-76713333D01*
X150524285Y-76665714D01*
X150333809Y-76618095D01*
X150190952Y-76618095D01*
X150000476Y-76665714D01*
X149905238Y-76713333D01*
X149810000Y-76808571D01*
X149762380Y-76951428D01*
X149762380Y-77046666D01*
X149810000Y-77189523D01*
X149857619Y-77237142D01*
X149762380Y-78141904D02*
X149762380Y-77665714D01*
X150238571Y-77618095D01*
X150190952Y-77665714D01*
X150143333Y-77760952D01*
X150143333Y-77999047D01*
X150190952Y-78094285D01*
X150238571Y-78141904D01*
X150333809Y-78189523D01*
X150571904Y-78189523D01*
X150667142Y-78141904D01*
X150714761Y-78094285D01*
X150762380Y-77999047D01*
X150762380Y-77760952D01*
X150714761Y-77665714D01*
X150667142Y-77618095D01*
X150095714Y-79046666D02*
X150762380Y-79046666D01*
X149714761Y-78808571D02*
X150429047Y-78570476D01*
X150429047Y-79189523D01*
G04 #@! TO.C,C57*
X130899337Y-64945562D02*
X130946956Y-64993181D01*
X131089813Y-65040800D01*
X131185051Y-65040800D01*
X131327908Y-64993181D01*
X131423146Y-64897943D01*
X131470765Y-64802705D01*
X131518384Y-64612229D01*
X131518384Y-64469372D01*
X131470765Y-64278896D01*
X131423146Y-64183658D01*
X131327908Y-64088420D01*
X131185051Y-64040800D01*
X131089813Y-64040800D01*
X130946956Y-64088420D01*
X130899337Y-64136039D01*
X129994575Y-64040800D02*
X130470765Y-64040800D01*
X130518384Y-64516991D01*
X130470765Y-64469372D01*
X130375527Y-64421753D01*
X130137432Y-64421753D01*
X130042194Y-64469372D01*
X129994575Y-64516991D01*
X129946956Y-64612229D01*
X129946956Y-64850324D01*
X129994575Y-64945562D01*
X130042194Y-64993181D01*
X130137432Y-65040800D01*
X130375527Y-65040800D01*
X130470765Y-64993181D01*
X130518384Y-64945562D01*
X129613622Y-64040800D02*
X128946956Y-64040800D01*
X129375527Y-65040800D01*
G04 #@! TO.C,C58*
X138425357Y-69316902D02*
X138472976Y-69364521D01*
X138615833Y-69412140D01*
X138711071Y-69412140D01*
X138853928Y-69364521D01*
X138949166Y-69269283D01*
X138996785Y-69174045D01*
X139044404Y-68983569D01*
X139044404Y-68840712D01*
X138996785Y-68650236D01*
X138949166Y-68554998D01*
X138853928Y-68459760D01*
X138711071Y-68412140D01*
X138615833Y-68412140D01*
X138472976Y-68459760D01*
X138425357Y-68507379D01*
X137520595Y-68412140D02*
X137996785Y-68412140D01*
X138044404Y-68888331D01*
X137996785Y-68840712D01*
X137901547Y-68793093D01*
X137663452Y-68793093D01*
X137568214Y-68840712D01*
X137520595Y-68888331D01*
X137472976Y-68983569D01*
X137472976Y-69221664D01*
X137520595Y-69316902D01*
X137568214Y-69364521D01*
X137663452Y-69412140D01*
X137901547Y-69412140D01*
X137996785Y-69364521D01*
X138044404Y-69316902D01*
X136901547Y-68840712D02*
X136996785Y-68793093D01*
X137044404Y-68745474D01*
X137092023Y-68650236D01*
X137092023Y-68602617D01*
X137044404Y-68507379D01*
X136996785Y-68459760D01*
X136901547Y-68412140D01*
X136711071Y-68412140D01*
X136615833Y-68459760D01*
X136568214Y-68507379D01*
X136520595Y-68602617D01*
X136520595Y-68650236D01*
X136568214Y-68745474D01*
X136615833Y-68793093D01*
X136711071Y-68840712D01*
X136901547Y-68840712D01*
X136996785Y-68888331D01*
X137044404Y-68935950D01*
X137092023Y-69031188D01*
X137092023Y-69221664D01*
X137044404Y-69316902D01*
X136996785Y-69364521D01*
X136901547Y-69412140D01*
X136711071Y-69412140D01*
X136615833Y-69364521D01*
X136568214Y-69316902D01*
X136520595Y-69221664D01*
X136520595Y-69031188D01*
X136568214Y-68935950D01*
X136615833Y-68888331D01*
X136711071Y-68840712D01*
G04 #@! TO.C,C59*
X138361857Y-72189642D02*
X138409476Y-72237261D01*
X138552333Y-72284880D01*
X138647571Y-72284880D01*
X138790428Y-72237261D01*
X138885666Y-72142023D01*
X138933285Y-72046785D01*
X138980904Y-71856309D01*
X138980904Y-71713452D01*
X138933285Y-71522976D01*
X138885666Y-71427738D01*
X138790428Y-71332500D01*
X138647571Y-71284880D01*
X138552333Y-71284880D01*
X138409476Y-71332500D01*
X138361857Y-71380119D01*
X137457095Y-71284880D02*
X137933285Y-71284880D01*
X137980904Y-71761071D01*
X137933285Y-71713452D01*
X137838047Y-71665833D01*
X137599952Y-71665833D01*
X137504714Y-71713452D01*
X137457095Y-71761071D01*
X137409476Y-71856309D01*
X137409476Y-72094404D01*
X137457095Y-72189642D01*
X137504714Y-72237261D01*
X137599952Y-72284880D01*
X137838047Y-72284880D01*
X137933285Y-72237261D01*
X137980904Y-72189642D01*
X136933285Y-72284880D02*
X136742809Y-72284880D01*
X136647571Y-72237261D01*
X136599952Y-72189642D01*
X136504714Y-72046785D01*
X136457095Y-71856309D01*
X136457095Y-71475357D01*
X136504714Y-71380119D01*
X136552333Y-71332500D01*
X136647571Y-71284880D01*
X136838047Y-71284880D01*
X136933285Y-71332500D01*
X136980904Y-71380119D01*
X137028523Y-71475357D01*
X137028523Y-71713452D01*
X136980904Y-71808690D01*
X136933285Y-71856309D01*
X136838047Y-71903928D01*
X136647571Y-71903928D01*
X136552333Y-71856309D01*
X136504714Y-71808690D01*
X136457095Y-71713452D01*
G04 #@! TO.C,C60*
X144170837Y-48128222D02*
X144218456Y-48175841D01*
X144361313Y-48223460D01*
X144456551Y-48223460D01*
X144599408Y-48175841D01*
X144694646Y-48080603D01*
X144742265Y-47985365D01*
X144789884Y-47794889D01*
X144789884Y-47652032D01*
X144742265Y-47461556D01*
X144694646Y-47366318D01*
X144599408Y-47271080D01*
X144456551Y-47223460D01*
X144361313Y-47223460D01*
X144218456Y-47271080D01*
X144170837Y-47318699D01*
X143313694Y-47223460D02*
X143504170Y-47223460D01*
X143599408Y-47271080D01*
X143647027Y-47318699D01*
X143742265Y-47461556D01*
X143789884Y-47652032D01*
X143789884Y-48032984D01*
X143742265Y-48128222D01*
X143694646Y-48175841D01*
X143599408Y-48223460D01*
X143408932Y-48223460D01*
X143313694Y-48175841D01*
X143266075Y-48128222D01*
X143218456Y-48032984D01*
X143218456Y-47794889D01*
X143266075Y-47699651D01*
X143313694Y-47652032D01*
X143408932Y-47604413D01*
X143599408Y-47604413D01*
X143694646Y-47652032D01*
X143742265Y-47699651D01*
X143789884Y-47794889D01*
X142599408Y-47223460D02*
X142504170Y-47223460D01*
X142408932Y-47271080D01*
X142361313Y-47318699D01*
X142313694Y-47413937D01*
X142266075Y-47604413D01*
X142266075Y-47842508D01*
X142313694Y-48032984D01*
X142361313Y-48128222D01*
X142408932Y-48175841D01*
X142504170Y-48223460D01*
X142599408Y-48223460D01*
X142694646Y-48175841D01*
X142742265Y-48128222D01*
X142789884Y-48032984D01*
X142837503Y-47842508D01*
X142837503Y-47604413D01*
X142789884Y-47413937D01*
X142742265Y-47318699D01*
X142694646Y-47271080D01*
X142599408Y-47223460D01*
G04 #@! TO.C,C61*
X151270137Y-48189182D02*
X151317756Y-48236801D01*
X151460613Y-48284420D01*
X151555851Y-48284420D01*
X151698708Y-48236801D01*
X151793946Y-48141563D01*
X151841565Y-48046325D01*
X151889184Y-47855849D01*
X151889184Y-47712992D01*
X151841565Y-47522516D01*
X151793946Y-47427278D01*
X151698708Y-47332040D01*
X151555851Y-47284420D01*
X151460613Y-47284420D01*
X151317756Y-47332040D01*
X151270137Y-47379659D01*
X150412994Y-47284420D02*
X150603470Y-47284420D01*
X150698708Y-47332040D01*
X150746327Y-47379659D01*
X150841565Y-47522516D01*
X150889184Y-47712992D01*
X150889184Y-48093944D01*
X150841565Y-48189182D01*
X150793946Y-48236801D01*
X150698708Y-48284420D01*
X150508232Y-48284420D01*
X150412994Y-48236801D01*
X150365375Y-48189182D01*
X150317756Y-48093944D01*
X150317756Y-47855849D01*
X150365375Y-47760611D01*
X150412994Y-47712992D01*
X150508232Y-47665373D01*
X150698708Y-47665373D01*
X150793946Y-47712992D01*
X150841565Y-47760611D01*
X150889184Y-47855849D01*
X149365375Y-48284420D02*
X149936803Y-48284420D01*
X149651089Y-48284420D02*
X149651089Y-47284420D01*
X149746327Y-47427278D01*
X149841565Y-47522516D01*
X149936803Y-47570135D01*
G04 #@! TO.C,C62*
X149540397Y-53119322D02*
X149588016Y-53166941D01*
X149730873Y-53214560D01*
X149826111Y-53214560D01*
X149968968Y-53166941D01*
X150064206Y-53071703D01*
X150111825Y-52976465D01*
X150159444Y-52785989D01*
X150159444Y-52643132D01*
X150111825Y-52452656D01*
X150064206Y-52357418D01*
X149968968Y-52262180D01*
X149826111Y-52214560D01*
X149730873Y-52214560D01*
X149588016Y-52262180D01*
X149540397Y-52309799D01*
X148683254Y-52214560D02*
X148873730Y-52214560D01*
X148968968Y-52262180D01*
X149016587Y-52309799D01*
X149111825Y-52452656D01*
X149159444Y-52643132D01*
X149159444Y-53024084D01*
X149111825Y-53119322D01*
X149064206Y-53166941D01*
X148968968Y-53214560D01*
X148778492Y-53214560D01*
X148683254Y-53166941D01*
X148635635Y-53119322D01*
X148588016Y-53024084D01*
X148588016Y-52785989D01*
X148635635Y-52690751D01*
X148683254Y-52643132D01*
X148778492Y-52595513D01*
X148968968Y-52595513D01*
X149064206Y-52643132D01*
X149111825Y-52690751D01*
X149159444Y-52785989D01*
X148207063Y-52309799D02*
X148159444Y-52262180D01*
X148064206Y-52214560D01*
X147826111Y-52214560D01*
X147730873Y-52262180D01*
X147683254Y-52309799D01*
X147635635Y-52405037D01*
X147635635Y-52500275D01*
X147683254Y-52643132D01*
X148254682Y-53214560D01*
X147635635Y-53214560D01*
G04 #@! TO.C,C63*
X159179697Y-53170122D02*
X159227316Y-53217741D01*
X159370173Y-53265360D01*
X159465411Y-53265360D01*
X159608268Y-53217741D01*
X159703506Y-53122503D01*
X159751125Y-53027265D01*
X159798744Y-52836789D01*
X159798744Y-52693932D01*
X159751125Y-52503456D01*
X159703506Y-52408218D01*
X159608268Y-52312980D01*
X159465411Y-52265360D01*
X159370173Y-52265360D01*
X159227316Y-52312980D01*
X159179697Y-52360599D01*
X158322554Y-52265360D02*
X158513030Y-52265360D01*
X158608268Y-52312980D01*
X158655887Y-52360599D01*
X158751125Y-52503456D01*
X158798744Y-52693932D01*
X158798744Y-53074884D01*
X158751125Y-53170122D01*
X158703506Y-53217741D01*
X158608268Y-53265360D01*
X158417792Y-53265360D01*
X158322554Y-53217741D01*
X158274935Y-53170122D01*
X158227316Y-53074884D01*
X158227316Y-52836789D01*
X158274935Y-52741551D01*
X158322554Y-52693932D01*
X158417792Y-52646313D01*
X158608268Y-52646313D01*
X158703506Y-52693932D01*
X158751125Y-52741551D01*
X158798744Y-52836789D01*
X157893982Y-52265360D02*
X157274935Y-52265360D01*
X157608268Y-52646313D01*
X157465411Y-52646313D01*
X157370173Y-52693932D01*
X157322554Y-52741551D01*
X157274935Y-52836789D01*
X157274935Y-53074884D01*
X157322554Y-53170122D01*
X157370173Y-53217741D01*
X157465411Y-53265360D01*
X157751125Y-53265360D01*
X157846363Y-53217741D01*
X157893982Y-53170122D01*
G04 #@! TO.C,C64*
X155903097Y-53213302D02*
X155950716Y-53260921D01*
X156093573Y-53308540D01*
X156188811Y-53308540D01*
X156331668Y-53260921D01*
X156426906Y-53165683D01*
X156474525Y-53070445D01*
X156522144Y-52879969D01*
X156522144Y-52737112D01*
X156474525Y-52546636D01*
X156426906Y-52451398D01*
X156331668Y-52356160D01*
X156188811Y-52308540D01*
X156093573Y-52308540D01*
X155950716Y-52356160D01*
X155903097Y-52403779D01*
X155045954Y-52308540D02*
X155236430Y-52308540D01*
X155331668Y-52356160D01*
X155379287Y-52403779D01*
X155474525Y-52546636D01*
X155522144Y-52737112D01*
X155522144Y-53118064D01*
X155474525Y-53213302D01*
X155426906Y-53260921D01*
X155331668Y-53308540D01*
X155141192Y-53308540D01*
X155045954Y-53260921D01*
X154998335Y-53213302D01*
X154950716Y-53118064D01*
X154950716Y-52879969D01*
X154998335Y-52784731D01*
X155045954Y-52737112D01*
X155141192Y-52689493D01*
X155331668Y-52689493D01*
X155426906Y-52737112D01*
X155474525Y-52784731D01*
X155522144Y-52879969D01*
X154093573Y-52641874D02*
X154093573Y-53308540D01*
X154331668Y-52260921D02*
X154569763Y-52975207D01*
X153950716Y-52975207D01*
G04 #@! TO.C,C65*
X167642977Y-59992562D02*
X167690596Y-60040181D01*
X167833453Y-60087800D01*
X167928691Y-60087800D01*
X168071548Y-60040181D01*
X168166786Y-59944943D01*
X168214405Y-59849705D01*
X168262024Y-59659229D01*
X168262024Y-59516372D01*
X168214405Y-59325896D01*
X168166786Y-59230658D01*
X168071548Y-59135420D01*
X167928691Y-59087800D01*
X167833453Y-59087800D01*
X167690596Y-59135420D01*
X167642977Y-59183039D01*
X166785834Y-59087800D02*
X166976310Y-59087800D01*
X167071548Y-59135420D01*
X167119167Y-59183039D01*
X167214405Y-59325896D01*
X167262024Y-59516372D01*
X167262024Y-59897324D01*
X167214405Y-59992562D01*
X167166786Y-60040181D01*
X167071548Y-60087800D01*
X166881072Y-60087800D01*
X166785834Y-60040181D01*
X166738215Y-59992562D01*
X166690596Y-59897324D01*
X166690596Y-59659229D01*
X166738215Y-59563991D01*
X166785834Y-59516372D01*
X166881072Y-59468753D01*
X167071548Y-59468753D01*
X167166786Y-59516372D01*
X167214405Y-59563991D01*
X167262024Y-59659229D01*
X165785834Y-59087800D02*
X166262024Y-59087800D01*
X166309643Y-59563991D01*
X166262024Y-59516372D01*
X166166786Y-59468753D01*
X165928691Y-59468753D01*
X165833453Y-59516372D01*
X165785834Y-59563991D01*
X165738215Y-59659229D01*
X165738215Y-59897324D01*
X165785834Y-59992562D01*
X165833453Y-60040181D01*
X165928691Y-60087800D01*
X166166786Y-60087800D01*
X166262024Y-60040181D01*
X166309643Y-59992562D01*
G04 #@! TO.C,J1*
X213771523Y-89385714D02*
X213771523Y-90052380D01*
X214009619Y-89004761D02*
X214247714Y-89719047D01*
X213628666Y-89719047D01*
X217245333Y-89052380D02*
X216626285Y-89052380D01*
X216959619Y-89433333D01*
X216816761Y-89433333D01*
X216721523Y-89480952D01*
X216673904Y-89528571D01*
X216626285Y-89623809D01*
X216626285Y-89861904D01*
X216673904Y-89957142D01*
X216721523Y-90004761D01*
X216816761Y-90052380D01*
X217102476Y-90052380D01*
X217197714Y-90004761D01*
X217245333Y-89957142D01*
X214127714Y-95937619D02*
X214080095Y-95890000D01*
X213984857Y-95842380D01*
X213746761Y-95842380D01*
X213651523Y-95890000D01*
X213603904Y-95937619D01*
X213556285Y-96032857D01*
X213556285Y-96128095D01*
X213603904Y-96270952D01*
X214175333Y-96842380D01*
X213556285Y-96842380D01*
X216696285Y-96842380D02*
X217267714Y-96842380D01*
X216982000Y-96842380D02*
X216982000Y-95842380D01*
X217077238Y-95985238D01*
X217172476Y-96080476D01*
X217267714Y-96128095D01*
G04 #@! TO.C,J2*
X185831523Y-89385714D02*
X185831523Y-90052380D01*
X186069619Y-89004761D02*
X186307714Y-89719047D01*
X185688666Y-89719047D01*
X189305333Y-89052380D02*
X188686285Y-89052380D01*
X189019619Y-89433333D01*
X188876761Y-89433333D01*
X188781523Y-89480952D01*
X188733904Y-89528571D01*
X188686285Y-89623809D01*
X188686285Y-89861904D01*
X188733904Y-89957142D01*
X188781523Y-90004761D01*
X188876761Y-90052380D01*
X189162476Y-90052380D01*
X189257714Y-90004761D01*
X189305333Y-89957142D01*
X186187714Y-95937619D02*
X186140095Y-95890000D01*
X186044857Y-95842380D01*
X185806761Y-95842380D01*
X185711523Y-95890000D01*
X185663904Y-95937619D01*
X185616285Y-96032857D01*
X185616285Y-96128095D01*
X185663904Y-96270952D01*
X186235333Y-96842380D01*
X185616285Y-96842380D01*
X188756285Y-96842380D02*
X189327714Y-96842380D01*
X189042000Y-96842380D02*
X189042000Y-95842380D01*
X189137238Y-95985238D01*
X189232476Y-96080476D01*
X189327714Y-96128095D01*
G04 #@! TO.C,J3*
X199801523Y-89385714D02*
X199801523Y-90052380D01*
X200039619Y-89004761D02*
X200277714Y-89719047D01*
X199658666Y-89719047D01*
X203275333Y-89052380D02*
X202656285Y-89052380D01*
X202989619Y-89433333D01*
X202846761Y-89433333D01*
X202751523Y-89480952D01*
X202703904Y-89528571D01*
X202656285Y-89623809D01*
X202656285Y-89861904D01*
X202703904Y-89957142D01*
X202751523Y-90004761D01*
X202846761Y-90052380D01*
X203132476Y-90052380D01*
X203227714Y-90004761D01*
X203275333Y-89957142D01*
X200157714Y-95937619D02*
X200110095Y-95890000D01*
X200014857Y-95842380D01*
X199776761Y-95842380D01*
X199681523Y-95890000D01*
X199633904Y-95937619D01*
X199586285Y-96032857D01*
X199586285Y-96128095D01*
X199633904Y-96270952D01*
X200205333Y-96842380D01*
X199586285Y-96842380D01*
X202726285Y-96842380D02*
X203297714Y-96842380D01*
X203012000Y-96842380D02*
X203012000Y-95842380D01*
X203107238Y-95985238D01*
X203202476Y-96080476D01*
X203297714Y-96128095D01*
G04 #@! TO.C,R2*
X140100546Y-59142920D02*
X140433880Y-58666730D01*
X140671975Y-59142920D02*
X140671975Y-58142920D01*
X140291022Y-58142920D01*
X140195784Y-58190540D01*
X140148165Y-58238159D01*
X140100546Y-58333397D01*
X140100546Y-58476254D01*
X140148165Y-58571492D01*
X140195784Y-58619111D01*
X140291022Y-58666730D01*
X140671975Y-58666730D01*
X139719594Y-58238159D02*
X139671975Y-58190540D01*
X139576737Y-58142920D01*
X139338641Y-58142920D01*
X139243403Y-58190540D01*
X139195784Y-58238159D01*
X139148165Y-58333397D01*
X139148165Y-58428635D01*
X139195784Y-58571492D01*
X139767213Y-59142920D01*
X139148165Y-59142920D01*
G04 #@! TO.C,U3*
X174471904Y-66602380D02*
X174471904Y-67411904D01*
X174424285Y-67507142D01*
X174376666Y-67554761D01*
X174281428Y-67602380D01*
X174090952Y-67602380D01*
X173995714Y-67554761D01*
X173948095Y-67507142D01*
X173900476Y-67411904D01*
X173900476Y-66602380D01*
X173519523Y-66602380D02*
X172900476Y-66602380D01*
X173233809Y-66983333D01*
X173090952Y-66983333D01*
X172995714Y-67030952D01*
X172948095Y-67078571D01*
X172900476Y-67173809D01*
X172900476Y-67411904D01*
X172948095Y-67507142D01*
X172995714Y-67554761D01*
X173090952Y-67602380D01*
X173376666Y-67602380D01*
X173471904Y-67554761D01*
X173519523Y-67507142D01*
G04 #@! TD*
M02*
