G04 #@! TF.GenerationSoftware,KiCad,Pcbnew,(5.0.2)-1*
G04 #@! TF.CreationDate,2019-06-08T23:38:06+03:00*
G04 #@! TF.ProjectId,AVB switch with Can gateway,41564220-7377-4697-9463-682077697468,v01*
G04 #@! TF.SameCoordinates,Original*
G04 #@! TF.FileFunction,Paste,Top*
G04 #@! TF.FilePolarity,Positive*
%FSLAX46Y46*%
G04 Gerber Fmt 4.6, Leading zero omitted, Abs format (unit mm)*
G04 Created by KiCad (PCBNEW (5.0.2)-1) date 6/8/2019 11:38:06 PM*
%MOMM*%
%LPD*%
G01*
G04 APERTURE LIST*
%ADD10C,0.100000*%
%ADD11R,1.000000X1.000000*%
%ADD12R,0.750000X1.200000*%
%ADD13R,1.200000X0.750000*%
%ADD14R,1.400000X1.200000*%
%ADD15R,1.200000X0.900000*%
%ADD16R,2.000000X1.500000*%
%ADD17R,2.000000X3.800000*%
%ADD18R,0.280000X1.500000*%
%ADD19R,1.500000X0.280000*%
%ADD20R,0.900000X1.200000*%
%ADD21R,10.000000X10.000000*%
%ADD22R,0.240000X1.560000*%
%ADD23R,1.560000X0.240000*%
%ADD24R,0.600000X1.550000*%
G04 APERTURE END LIST*
D10*
G04 #@! TO.C,IC1*
G36*
X146337750Y-67662650D02*
X146337750Y-61337750D01*
X152662650Y-61337750D01*
X152662650Y-67662650D01*
X146337750Y-67662650D01*
G37*
G04 #@! TD*
D11*
G04 #@! TO.C,D4*
X182042000Y-50540000D03*
X182042000Y-48040000D03*
G04 #@! TD*
G04 #@! TO.C,D5*
X184094000Y-50474000D03*
X186594000Y-50474000D03*
G04 #@! TD*
D12*
G04 #@! TO.C,FB6*
X161330000Y-79470000D03*
X161330000Y-77570000D03*
G04 #@! TD*
D13*
G04 #@! TO.C,FB5*
X124704000Y-50560000D03*
X126604000Y-50560000D03*
G04 #@! TD*
G04 #@! TO.C,FB3*
X120710000Y-65590000D03*
X118810000Y-65590000D03*
G04 #@! TD*
D12*
G04 #@! TO.C,FB2*
X214300000Y-66242000D03*
X214300000Y-64342000D03*
G04 #@! TD*
G04 #@! TO.C,R1*
X211506000Y-64342000D03*
X211506000Y-66242000D03*
G04 #@! TD*
G04 #@! TO.C,C79*
X200820000Y-51780000D03*
X200820000Y-49880000D03*
G04 #@! TD*
G04 #@! TO.C,C80*
X194600000Y-51740000D03*
X194600000Y-49840000D03*
G04 #@! TD*
D13*
G04 #@! TO.C,FB4*
X120960000Y-73990000D03*
X119060000Y-73990000D03*
G04 #@! TD*
D14*
G04 #@! TO.C,Y2*
X196610000Y-49940000D03*
X198810000Y-49940000D03*
X198810000Y-51640000D03*
X196610000Y-51640000D03*
G04 #@! TD*
D15*
G04 #@! TO.C,R26*
X129040000Y-62498000D03*
X126840000Y-62498000D03*
G04 #@! TD*
G04 #@! TO.C,R27*
X126840000Y-60974000D03*
X129040000Y-60974000D03*
G04 #@! TD*
D12*
G04 #@! TO.C,C6*
X105060000Y-50290000D03*
X105060000Y-52190000D03*
G04 #@! TD*
G04 #@! TO.C,C78*
X122352000Y-55828000D03*
X122352000Y-53928000D03*
G04 #@! TD*
G04 #@! TO.C,C77*
X120574000Y-56468000D03*
X120574000Y-58368000D03*
G04 #@! TD*
G04 #@! TO.C,C76*
X103700000Y-61850000D03*
X103700000Y-59950000D03*
G04 #@! TD*
G04 #@! TO.C,C75*
X102050000Y-62670000D03*
X102050000Y-64570000D03*
G04 #@! TD*
G04 #@! TO.C,C5*
X102300000Y-74120000D03*
X102300000Y-72220000D03*
G04 #@! TD*
G04 #@! TO.C,C72*
X228350000Y-70640000D03*
X228350000Y-68740000D03*
G04 #@! TD*
G04 #@! TO.C,C71*
X103910000Y-71440000D03*
X103910000Y-69540000D03*
G04 #@! TD*
G04 #@! TO.C,C70*
X103600000Y-52780000D03*
X103600000Y-54680000D03*
G04 #@! TD*
G04 #@! TO.C,C69*
X226460000Y-71100000D03*
X226460000Y-73000000D03*
G04 #@! TD*
D16*
G04 #@! TO.C,U12*
X124790000Y-53848000D03*
X124790000Y-58448000D03*
X124790000Y-56148000D03*
D17*
X131090000Y-56148000D03*
G04 #@! TD*
G04 #@! TO.C,U10*
X113440000Y-52390000D03*
D16*
X107140000Y-52390000D03*
X107140000Y-54690000D03*
X107140000Y-50090000D03*
G04 #@! TD*
G04 #@! TO.C,U11*
X105850000Y-59820000D03*
X105850000Y-64420000D03*
X105850000Y-62120000D03*
D17*
X112150000Y-62120000D03*
G04 #@! TD*
D18*
G04 #@! TO.C,U4*
X202188000Y-55730000D03*
X201688000Y-55730000D03*
X201188000Y-55730000D03*
X200688000Y-55730000D03*
X200188000Y-55730000D03*
X199688000Y-55730000D03*
X199188000Y-55730000D03*
X198688000Y-55730000D03*
X198188000Y-55730000D03*
X197688000Y-55730000D03*
X197188000Y-55730000D03*
X196688000Y-55730000D03*
X196188000Y-55730000D03*
X195688000Y-55730000D03*
X195188000Y-55730000D03*
X194688000Y-55730000D03*
X194188000Y-55730000D03*
X193688000Y-55730000D03*
X193188000Y-55730000D03*
X192688000Y-55730000D03*
X192188000Y-55730000D03*
X191688000Y-55730000D03*
X191188000Y-55730000D03*
X190688000Y-55730000D03*
X190188000Y-55730000D03*
D19*
X188288000Y-57630000D03*
X188288000Y-58130000D03*
X188288000Y-58630000D03*
X188288000Y-59130000D03*
X188288000Y-59630000D03*
X188288000Y-60130000D03*
X188288000Y-60630000D03*
X188288000Y-61130000D03*
X188288000Y-61630000D03*
X188288000Y-62130000D03*
X188288000Y-62630000D03*
X188288000Y-63130000D03*
X188288000Y-63630000D03*
X188288000Y-64130000D03*
X188288000Y-64630000D03*
X188288000Y-65130000D03*
X188288000Y-65630000D03*
X188288000Y-66130000D03*
X188288000Y-66630000D03*
X188288000Y-67130000D03*
X188288000Y-67630000D03*
X188288000Y-68130000D03*
X188288000Y-68630000D03*
X188288000Y-69130000D03*
X188288000Y-69630000D03*
D18*
X190188000Y-71530000D03*
X190688000Y-71530000D03*
X191188000Y-71530000D03*
X191688000Y-71530000D03*
X192188000Y-71530000D03*
X192688000Y-71530000D03*
X193188000Y-71530000D03*
X193688000Y-71530000D03*
X194188000Y-71530000D03*
X194688000Y-71530000D03*
X195188000Y-71530000D03*
X195688000Y-71530000D03*
X196188000Y-71530000D03*
X196688000Y-71530000D03*
X197188000Y-71530000D03*
X197688000Y-71530000D03*
X198188000Y-71530000D03*
X198688000Y-71530000D03*
X199188000Y-71530000D03*
X199688000Y-71530000D03*
X200188000Y-71530000D03*
X200688000Y-71530000D03*
X201188000Y-71530000D03*
X201688000Y-71530000D03*
X202188000Y-71530000D03*
D19*
X204088000Y-69630000D03*
X204088000Y-69130000D03*
X204088000Y-68630000D03*
X204088000Y-68130000D03*
X204088000Y-67630000D03*
X204088000Y-67130000D03*
X204088000Y-66630000D03*
X204088000Y-66130000D03*
X204088000Y-65630000D03*
X204088000Y-65130000D03*
X204088000Y-64630000D03*
X204088000Y-64130000D03*
X204088000Y-63630000D03*
X204088000Y-63130000D03*
X204088000Y-62630000D03*
X204088000Y-62130000D03*
X204088000Y-61630000D03*
X204088000Y-61130000D03*
X204088000Y-60630000D03*
X204088000Y-60130000D03*
X204088000Y-59630000D03*
X204088000Y-59130000D03*
X204088000Y-58630000D03*
X204088000Y-58130000D03*
X204088000Y-57630000D03*
G04 #@! TD*
D14*
G04 #@! TO.C,Y1*
X129264000Y-67864000D03*
X131464000Y-67864000D03*
X131464000Y-69564000D03*
X129264000Y-69564000D03*
G04 #@! TD*
D20*
G04 #@! TO.C,R13*
X179704000Y-50454000D03*
X179704000Y-48254000D03*
G04 #@! TD*
D21*
G04 #@! TO.C,IC1*
X149500000Y-64500000D03*
D22*
X143300000Y-56820000D03*
X143700000Y-56820000D03*
X144100000Y-56820000D03*
X144500000Y-56820000D03*
X144900000Y-56820000D03*
X145300000Y-56820000D03*
X145700000Y-56820000D03*
X146100000Y-56820000D03*
X146500000Y-56820000D03*
X146900000Y-56820000D03*
X147300000Y-56820000D03*
X147700000Y-56820000D03*
X148100000Y-56820000D03*
X148500000Y-56820000D03*
X148900000Y-56820000D03*
X149300000Y-56820000D03*
X149700000Y-56820000D03*
X150100000Y-56820000D03*
X150500000Y-56820000D03*
X150900000Y-56820000D03*
X151300000Y-56820000D03*
X151700000Y-56820000D03*
X152100000Y-56820000D03*
X152500000Y-56820000D03*
X152900000Y-56820000D03*
X153300000Y-56820000D03*
X153700000Y-56820000D03*
X154100000Y-56820000D03*
X154500000Y-56820000D03*
X154900000Y-56820000D03*
X155300000Y-56820000D03*
X155700000Y-56820000D03*
X155700000Y-72180000D03*
X155300000Y-72180000D03*
X154900000Y-72180000D03*
X154500000Y-72180000D03*
X154100000Y-72180000D03*
X153700000Y-72180000D03*
X153300000Y-72180000D03*
X152900000Y-72180000D03*
X152500000Y-72180000D03*
X152100000Y-72180000D03*
X151700000Y-72180000D03*
X151300000Y-72180000D03*
X150900000Y-72180000D03*
X150500000Y-72180000D03*
X150100000Y-72180000D03*
X149700000Y-72180000D03*
X149300000Y-72180000D03*
X148900000Y-72180000D03*
X148500000Y-72180000D03*
X148100000Y-72180000D03*
X147700000Y-72180000D03*
X147300000Y-72180000D03*
X146900000Y-72180000D03*
X146500000Y-72180000D03*
X146100000Y-72180000D03*
X145700000Y-72180000D03*
X145300000Y-72180000D03*
X144900000Y-72180000D03*
X144500000Y-72180000D03*
X144100000Y-72180000D03*
X143700000Y-72180000D03*
X143300000Y-72180000D03*
D23*
X141820000Y-70700000D03*
X141820000Y-70300000D03*
X141820000Y-69900000D03*
X141820000Y-69500000D03*
X141820000Y-69100000D03*
X141820000Y-68700000D03*
X141820000Y-68300000D03*
X141820000Y-67900000D03*
X141820000Y-67500000D03*
X141820000Y-67100000D03*
X141820000Y-66700000D03*
X141820000Y-66300000D03*
X141820000Y-65900000D03*
X141820000Y-65500000D03*
X141820000Y-65100000D03*
X141820000Y-64700000D03*
X141820000Y-64300000D03*
X141820000Y-63900000D03*
X141820000Y-63500000D03*
X141820000Y-63100000D03*
X141820000Y-62700000D03*
X141820000Y-62300000D03*
X141820000Y-61900000D03*
X141820000Y-61500000D03*
X141820000Y-61100000D03*
X141820000Y-60700000D03*
X141820000Y-60300000D03*
X141820000Y-59900000D03*
X141820000Y-59500000D03*
X141820000Y-59100000D03*
X141820000Y-58700000D03*
X141820000Y-58300000D03*
X157180000Y-58300000D03*
X157180000Y-58700000D03*
X157180000Y-59100000D03*
X157180000Y-59500000D03*
X157180000Y-59900000D03*
X157180000Y-60300000D03*
X157180000Y-60700000D03*
X157180000Y-61100000D03*
X157180000Y-61500000D03*
X157180000Y-61900000D03*
X157180000Y-62300000D03*
X157180000Y-62700000D03*
X157180000Y-63100000D03*
X157180000Y-63500000D03*
X157180000Y-63900000D03*
X157180000Y-64300000D03*
X157180000Y-64700000D03*
X157180000Y-65100000D03*
X157180000Y-65500000D03*
X157180000Y-65900000D03*
X157180000Y-66300000D03*
X157180000Y-66700000D03*
X157180000Y-67100000D03*
X157180000Y-67500000D03*
X157180000Y-67900000D03*
X157180000Y-68300000D03*
X157180000Y-68700000D03*
X157180000Y-69100000D03*
X157180000Y-69500000D03*
X157180000Y-69900000D03*
X157180000Y-70300000D03*
X157180000Y-70700000D03*
G04 #@! TD*
D13*
G04 #@! TO.C,C16*
X183380000Y-69500000D03*
X185280000Y-69500000D03*
G04 #@! TD*
G04 #@! TO.C,C17*
X192136000Y-51068000D03*
X190236000Y-51068000D03*
G04 #@! TD*
G04 #@! TO.C,C18*
X201534000Y-74182000D03*
X199634000Y-74182000D03*
G04 #@! TD*
D12*
G04 #@! TO.C,C19*
X211500000Y-58700000D03*
X211500000Y-56800000D03*
G04 #@! TD*
D13*
G04 #@! TO.C,C20*
X183290000Y-71850000D03*
X185190000Y-71850000D03*
G04 #@! TD*
G04 #@! TO.C,C21*
X183770000Y-57130000D03*
X185670000Y-57130000D03*
G04 #@! TD*
G04 #@! TO.C,C22*
X205598000Y-73928000D03*
X203698000Y-73928000D03*
G04 #@! TD*
D12*
G04 #@! TO.C,C25*
X207900000Y-58700000D03*
X207900000Y-56800000D03*
G04 #@! TD*
D13*
G04 #@! TO.C,C26*
X200350000Y-76600000D03*
X202250000Y-76600000D03*
G04 #@! TD*
G04 #@! TO.C,C27*
X214200000Y-77100000D03*
X216100000Y-77100000D03*
G04 #@! TD*
G04 #@! TO.C,C28*
X186750000Y-76800000D03*
X188650000Y-76800000D03*
G04 #@! TD*
D12*
G04 #@! TO.C,C32*
X123070000Y-73740000D03*
X123070000Y-71840000D03*
G04 #@! TD*
G04 #@! TO.C,C42*
X123010000Y-65740000D03*
X123010000Y-67640000D03*
G04 #@! TD*
D13*
G04 #@! TO.C,C52*
X161300000Y-75660000D03*
X163200000Y-75660000D03*
G04 #@! TD*
G04 #@! TO.C,C55*
X160950000Y-73275000D03*
X162850000Y-73275000D03*
G04 #@! TD*
G04 #@! TO.C,C56*
X160950000Y-67200000D03*
X162850000Y-67200000D03*
G04 #@! TD*
G04 #@! TO.C,C66*
X131078000Y-66262000D03*
X129178000Y-66262000D03*
G04 #@! TD*
G04 #@! TO.C,C67*
X129310000Y-71342000D03*
X131210000Y-71342000D03*
G04 #@! TD*
D15*
G04 #@! TO.C,R3*
X136110000Y-70770000D03*
X138310000Y-70770000D03*
G04 #@! TD*
D20*
G04 #@! TO.C,R4*
X205800000Y-83100000D03*
X205800000Y-80900000D03*
G04 #@! TD*
D15*
G04 #@! TO.C,R5*
X219296000Y-85104000D03*
X221496000Y-85104000D03*
G04 #@! TD*
D20*
G04 #@! TO.C,R6*
X192200000Y-82900000D03*
X192200000Y-80700000D03*
G04 #@! TD*
G04 #@! TO.C,R7*
X196600000Y-82800000D03*
X196600000Y-80600000D03*
G04 #@! TD*
G04 #@! TO.C,R8*
X210600000Y-82900000D03*
X210600000Y-80700000D03*
G04 #@! TD*
G04 #@! TO.C,R9*
X183300000Y-82900000D03*
X183300000Y-80700000D03*
G04 #@! TD*
D24*
G04 #@! TO.C,U5*
X203073000Y-79258000D03*
X201803000Y-79258000D03*
X200533000Y-79258000D03*
X199263000Y-79258000D03*
X199263000Y-84658000D03*
X200533000Y-84658000D03*
X201803000Y-84658000D03*
X203073000Y-84658000D03*
G04 #@! TD*
G04 #@! TO.C,U6*
X217043000Y-79512000D03*
X215773000Y-79512000D03*
X214503000Y-79512000D03*
X213233000Y-79512000D03*
X213233000Y-84912000D03*
X214503000Y-84912000D03*
X215773000Y-84912000D03*
X217043000Y-84912000D03*
G04 #@! TD*
G04 #@! TO.C,U7*
X189611000Y-79258000D03*
X188341000Y-79258000D03*
X187071000Y-79258000D03*
X185801000Y-79258000D03*
X185801000Y-84658000D03*
X187071000Y-84658000D03*
X188341000Y-84658000D03*
X189611000Y-84658000D03*
G04 #@! TD*
D17*
G04 #@! TO.C,U1*
X217630000Y-70840000D03*
D16*
X223930000Y-70840000D03*
X223930000Y-68540000D03*
X223930000Y-73140000D03*
G04 #@! TD*
D17*
G04 #@! TO.C,U2*
X112490000Y-71590000D03*
D16*
X106190000Y-71590000D03*
X106190000Y-73890000D03*
X106190000Y-69290000D03*
G04 #@! TD*
D15*
G04 #@! TO.C,R10*
X200000000Y-87600000D03*
X202200000Y-87600000D03*
G04 #@! TD*
G04 #@! TO.C,R11*
X214100000Y-87700000D03*
X216300000Y-87700000D03*
G04 #@! TD*
G04 #@! TO.C,R12*
X186500000Y-87600000D03*
X188700000Y-87600000D03*
G04 #@! TD*
M02*
