G04 #@! TF.GenerationSoftware,KiCad,Pcbnew,(5.0.2)-1*
G04 #@! TF.CreationDate,2019-06-08T23:38:06+03:00*
G04 #@! TF.ProjectId,AVB switch with Can gateway,41564220-7377-4697-9463-682077697468,v01*
G04 #@! TF.SameCoordinates,Original*
G04 #@! TF.FileFunction,Soldermask,Top*
G04 #@! TF.FilePolarity,Negative*
%FSLAX46Y46*%
G04 Gerber Fmt 4.6, Leading zero omitted, Abs format (unit mm)*
G04 Created by KiCad (PCBNEW (5.0.2)-1) date 6/8/2019 11:38:06 PM*
%MOMM*%
%LPD*%
G01*
G04 APERTURE LIST*
%ADD10C,0.100000*%
G04 APERTURE END LIST*
D10*
G36*
X99504527Y-94047240D02*
X99504530Y-94047241D01*
X99504529Y-94047241D01*
X99883575Y-94204246D01*
X99883576Y-94204247D01*
X100224710Y-94432185D01*
X100514814Y-94722289D01*
X100514816Y-94722292D01*
X100742753Y-95063424D01*
X100800465Y-95202754D01*
X100899759Y-95442472D01*
X100979799Y-95844861D01*
X100979799Y-96255139D01*
X100899759Y-96657528D01*
X100899758Y-96657530D01*
X100742753Y-97036576D01*
X100742752Y-97036577D01*
X100514814Y-97377711D01*
X100224710Y-97667815D01*
X100224707Y-97667817D01*
X99883575Y-97895754D01*
X99590399Y-98017191D01*
X99504527Y-98052760D01*
X99102138Y-98132800D01*
X98691860Y-98132800D01*
X98289471Y-98052760D01*
X98203599Y-98017191D01*
X97910423Y-97895754D01*
X97569291Y-97667817D01*
X97569288Y-97667815D01*
X97279184Y-97377711D01*
X97051246Y-97036577D01*
X97051245Y-97036576D01*
X96894240Y-96657530D01*
X96894239Y-96657528D01*
X96814199Y-96255139D01*
X96814199Y-95844861D01*
X96894239Y-95442472D01*
X96993533Y-95202754D01*
X97051245Y-95063424D01*
X97279182Y-94722292D01*
X97279184Y-94722289D01*
X97569288Y-94432185D01*
X97910422Y-94204247D01*
X97910423Y-94204246D01*
X98289469Y-94047241D01*
X98289468Y-94047241D01*
X98289471Y-94047240D01*
X98691860Y-93967200D01*
X99102138Y-93967200D01*
X99504527Y-94047240D01*
X99504527Y-94047240D01*
G37*
G36*
X227387528Y-93687240D02*
X227387531Y-93687241D01*
X227387530Y-93687241D01*
X227766576Y-93844246D01*
X227790384Y-93860154D01*
X228107711Y-94072185D01*
X228397815Y-94362289D01*
X228397817Y-94362292D01*
X228625754Y-94703424D01*
X228686997Y-94851279D01*
X228782760Y-95082472D01*
X228862800Y-95484861D01*
X228862800Y-95895139D01*
X228782760Y-96297528D01*
X228782759Y-96297530D01*
X228625754Y-96676576D01*
X228625753Y-96676577D01*
X228397815Y-97017711D01*
X228107711Y-97307815D01*
X228107708Y-97307817D01*
X227766576Y-97535754D01*
X227473400Y-97657191D01*
X227387528Y-97692760D01*
X226985139Y-97772800D01*
X226574861Y-97772800D01*
X226172472Y-97692760D01*
X226086600Y-97657191D01*
X225793424Y-97535754D01*
X225452292Y-97307817D01*
X225452289Y-97307815D01*
X225162185Y-97017711D01*
X224934247Y-96676577D01*
X224934246Y-96676576D01*
X224777241Y-96297530D01*
X224777240Y-96297528D01*
X224697200Y-95895139D01*
X224697200Y-95484861D01*
X224777240Y-95082472D01*
X224873003Y-94851279D01*
X224934246Y-94703424D01*
X225162183Y-94362292D01*
X225162185Y-94362289D01*
X225452289Y-94072185D01*
X225769616Y-93860154D01*
X225793424Y-93844246D01*
X226172470Y-93687241D01*
X226172469Y-93687241D01*
X226172472Y-93687240D01*
X226574861Y-93607200D01*
X226985139Y-93607200D01*
X227387528Y-93687240D01*
X227387528Y-93687240D01*
G37*
G36*
X166884141Y-94047240D02*
X167017754Y-94073817D01*
X167181689Y-94141721D01*
X167329227Y-94240303D01*
X167454697Y-94365773D01*
X167553279Y-94513311D01*
X167621183Y-94677246D01*
X167655800Y-94851279D01*
X167655800Y-95028721D01*
X167621183Y-95202754D01*
X167553279Y-95366689D01*
X167454697Y-95514227D01*
X167329227Y-95639697D01*
X167181689Y-95738279D01*
X167017754Y-95806183D01*
X166887229Y-95832146D01*
X166843722Y-95840800D01*
X166666278Y-95840800D01*
X166622771Y-95832146D01*
X166492246Y-95806183D01*
X166328311Y-95738279D01*
X166180773Y-95639697D01*
X166055303Y-95514227D01*
X165956721Y-95366689D01*
X165888817Y-95202754D01*
X165854200Y-95028721D01*
X165854200Y-94851279D01*
X165888817Y-94677246D01*
X165956721Y-94513311D01*
X166055303Y-94365773D01*
X166180773Y-94240303D01*
X166328311Y-94141721D01*
X166492246Y-94073817D01*
X166625859Y-94047240D01*
X166666278Y-94039200D01*
X166843722Y-94039200D01*
X166884141Y-94047240D01*
X166884141Y-94047240D01*
G37*
G36*
X113154141Y-94047240D02*
X113287754Y-94073817D01*
X113451689Y-94141721D01*
X113599227Y-94240303D01*
X113724697Y-94365773D01*
X113823279Y-94513311D01*
X113891183Y-94677246D01*
X113925800Y-94851279D01*
X113925800Y-95028721D01*
X113891183Y-95202754D01*
X113823279Y-95366689D01*
X113724697Y-95514227D01*
X113599227Y-95639697D01*
X113451689Y-95738279D01*
X113287754Y-95806183D01*
X113157229Y-95832146D01*
X113113722Y-95840800D01*
X112936278Y-95840800D01*
X112892771Y-95832146D01*
X112762246Y-95806183D01*
X112598311Y-95738279D01*
X112450773Y-95639697D01*
X112325303Y-95514227D01*
X112226721Y-95366689D01*
X112158817Y-95202754D01*
X112124200Y-95028721D01*
X112124200Y-94851279D01*
X112158817Y-94677246D01*
X112226721Y-94513311D01*
X112325303Y-94365773D01*
X112450773Y-94240303D01*
X112598311Y-94141721D01*
X112762246Y-94073817D01*
X112895859Y-94047240D01*
X112936278Y-94039200D01*
X113113722Y-94039200D01*
X113154141Y-94047240D01*
X113154141Y-94047240D01*
G37*
G36*
X154900807Y-94047240D02*
X155034420Y-94073817D01*
X155198355Y-94141721D01*
X155345893Y-94240303D01*
X155471363Y-94365773D01*
X155569945Y-94513311D01*
X155637849Y-94677246D01*
X155672466Y-94851279D01*
X155672466Y-95028721D01*
X155637849Y-95202754D01*
X155569945Y-95366689D01*
X155471363Y-95514227D01*
X155345893Y-95639697D01*
X155198355Y-95738279D01*
X155034420Y-95806183D01*
X154903895Y-95832146D01*
X154860388Y-95840800D01*
X154682944Y-95840800D01*
X154639437Y-95832146D01*
X154508912Y-95806183D01*
X154344977Y-95738279D01*
X154197439Y-95639697D01*
X154071969Y-95514227D01*
X153973387Y-95366689D01*
X153905483Y-95202754D01*
X153870866Y-95028721D01*
X153870866Y-94851279D01*
X153905483Y-94677246D01*
X153973387Y-94513311D01*
X154071969Y-94365773D01*
X154197439Y-94240303D01*
X154344977Y-94141721D01*
X154508912Y-94073817D01*
X154642525Y-94047240D01*
X154682944Y-94039200D01*
X154860388Y-94039200D01*
X154900807Y-94047240D01*
X154900807Y-94047240D01*
G37*
G36*
X152360807Y-94047240D02*
X152494420Y-94073817D01*
X152658355Y-94141721D01*
X152805893Y-94240303D01*
X152931363Y-94365773D01*
X153029945Y-94513311D01*
X153097849Y-94677246D01*
X153132466Y-94851279D01*
X153132466Y-95028721D01*
X153097849Y-95202754D01*
X153029945Y-95366689D01*
X152931363Y-95514227D01*
X152805893Y-95639697D01*
X152658355Y-95738279D01*
X152494420Y-95806183D01*
X152363895Y-95832146D01*
X152320388Y-95840800D01*
X152142944Y-95840800D01*
X152099437Y-95832146D01*
X151968912Y-95806183D01*
X151804977Y-95738279D01*
X151657439Y-95639697D01*
X151531969Y-95514227D01*
X151433387Y-95366689D01*
X151365483Y-95202754D01*
X151330866Y-95028721D01*
X151330866Y-94851279D01*
X151365483Y-94677246D01*
X151433387Y-94513311D01*
X151531969Y-94365773D01*
X151657439Y-94240303D01*
X151804977Y-94141721D01*
X151968912Y-94073817D01*
X152102525Y-94047240D01*
X152142944Y-94039200D01*
X152320388Y-94039200D01*
X152360807Y-94047240D01*
X152360807Y-94047240D01*
G37*
G36*
X149820807Y-94047240D02*
X149954420Y-94073817D01*
X150118355Y-94141721D01*
X150265893Y-94240303D01*
X150391363Y-94365773D01*
X150489945Y-94513311D01*
X150557849Y-94677246D01*
X150592466Y-94851279D01*
X150592466Y-95028721D01*
X150557849Y-95202754D01*
X150489945Y-95366689D01*
X150391363Y-95514227D01*
X150265893Y-95639697D01*
X150118355Y-95738279D01*
X149954420Y-95806183D01*
X149823895Y-95832146D01*
X149780388Y-95840800D01*
X149602944Y-95840800D01*
X149559437Y-95832146D01*
X149428912Y-95806183D01*
X149264977Y-95738279D01*
X149117439Y-95639697D01*
X148991969Y-95514227D01*
X148893387Y-95366689D01*
X148825483Y-95202754D01*
X148790866Y-95028721D01*
X148790866Y-94851279D01*
X148825483Y-94677246D01*
X148893387Y-94513311D01*
X148991969Y-94365773D01*
X149117439Y-94240303D01*
X149264977Y-94141721D01*
X149428912Y-94073817D01*
X149562525Y-94047240D01*
X149602944Y-94039200D01*
X149780388Y-94039200D01*
X149820807Y-94047240D01*
X149820807Y-94047240D01*
G37*
G36*
X127677474Y-94047240D02*
X127811087Y-94073817D01*
X127975022Y-94141721D01*
X128122560Y-94240303D01*
X128248030Y-94365773D01*
X128346612Y-94513311D01*
X128414516Y-94677246D01*
X128449133Y-94851279D01*
X128449133Y-95028721D01*
X128414516Y-95202754D01*
X128346612Y-95366689D01*
X128248030Y-95514227D01*
X128122560Y-95639697D01*
X127975022Y-95738279D01*
X127811087Y-95806183D01*
X127680562Y-95832146D01*
X127637055Y-95840800D01*
X127459611Y-95840800D01*
X127416104Y-95832146D01*
X127285579Y-95806183D01*
X127121644Y-95738279D01*
X126974106Y-95639697D01*
X126848636Y-95514227D01*
X126750054Y-95366689D01*
X126682150Y-95202754D01*
X126647533Y-95028721D01*
X126647533Y-94851279D01*
X126682150Y-94677246D01*
X126750054Y-94513311D01*
X126848636Y-94365773D01*
X126974106Y-94240303D01*
X127121644Y-94141721D01*
X127285579Y-94073817D01*
X127419192Y-94047240D01*
X127459611Y-94039200D01*
X127637055Y-94039200D01*
X127677474Y-94047240D01*
X127677474Y-94047240D01*
G37*
G36*
X130217474Y-94047240D02*
X130351087Y-94073817D01*
X130515022Y-94141721D01*
X130662560Y-94240303D01*
X130788030Y-94365773D01*
X130886612Y-94513311D01*
X130954516Y-94677246D01*
X130989133Y-94851279D01*
X130989133Y-95028721D01*
X130954516Y-95202754D01*
X130886612Y-95366689D01*
X130788030Y-95514227D01*
X130662560Y-95639697D01*
X130515022Y-95738279D01*
X130351087Y-95806183D01*
X130220562Y-95832146D01*
X130177055Y-95840800D01*
X129999611Y-95840800D01*
X129956104Y-95832146D01*
X129825579Y-95806183D01*
X129661644Y-95738279D01*
X129514106Y-95639697D01*
X129388636Y-95514227D01*
X129290054Y-95366689D01*
X129222150Y-95202754D01*
X129187533Y-95028721D01*
X129187533Y-94851279D01*
X129222150Y-94677246D01*
X129290054Y-94513311D01*
X129388636Y-94365773D01*
X129514106Y-94240303D01*
X129661644Y-94141721D01*
X129825579Y-94073817D01*
X129959192Y-94047240D01*
X129999611Y-94039200D01*
X130177055Y-94039200D01*
X130217474Y-94047240D01*
X130217474Y-94047240D01*
G37*
G36*
X132757474Y-94047240D02*
X132891087Y-94073817D01*
X133055022Y-94141721D01*
X133202560Y-94240303D01*
X133328030Y-94365773D01*
X133426612Y-94513311D01*
X133494516Y-94677246D01*
X133529133Y-94851279D01*
X133529133Y-95028721D01*
X133494516Y-95202754D01*
X133426612Y-95366689D01*
X133328030Y-95514227D01*
X133202560Y-95639697D01*
X133055022Y-95738279D01*
X132891087Y-95806183D01*
X132760562Y-95832146D01*
X132717055Y-95840800D01*
X132539611Y-95840800D01*
X132496104Y-95832146D01*
X132365579Y-95806183D01*
X132201644Y-95738279D01*
X132054106Y-95639697D01*
X131928636Y-95514227D01*
X131830054Y-95366689D01*
X131762150Y-95202754D01*
X131727533Y-95028721D01*
X131727533Y-94851279D01*
X131762150Y-94677246D01*
X131830054Y-94513311D01*
X131928636Y-94365773D01*
X132054106Y-94240303D01*
X132201644Y-94141721D01*
X132365579Y-94073817D01*
X132499192Y-94047240D01*
X132539611Y-94039200D01*
X132717055Y-94039200D01*
X132757474Y-94047240D01*
X132757474Y-94047240D01*
G37*
G36*
X135297474Y-94047240D02*
X135431087Y-94073817D01*
X135595022Y-94141721D01*
X135742560Y-94240303D01*
X135868030Y-94365773D01*
X135966612Y-94513311D01*
X136034516Y-94677246D01*
X136069133Y-94851279D01*
X136069133Y-95028721D01*
X136034516Y-95202754D01*
X135966612Y-95366689D01*
X135868030Y-95514227D01*
X135742560Y-95639697D01*
X135595022Y-95738279D01*
X135431087Y-95806183D01*
X135300562Y-95832146D01*
X135257055Y-95840800D01*
X135079611Y-95840800D01*
X135036104Y-95832146D01*
X134905579Y-95806183D01*
X134741644Y-95738279D01*
X134594106Y-95639697D01*
X134468636Y-95514227D01*
X134370054Y-95366689D01*
X134302150Y-95202754D01*
X134267533Y-95028721D01*
X134267533Y-94851279D01*
X134302150Y-94677246D01*
X134370054Y-94513311D01*
X134468636Y-94365773D01*
X134594106Y-94240303D01*
X134741644Y-94141721D01*
X134905579Y-94073817D01*
X135039192Y-94047240D01*
X135079611Y-94039200D01*
X135257055Y-94039200D01*
X135297474Y-94047240D01*
X135297474Y-94047240D01*
G37*
G36*
X110614141Y-94047240D02*
X110747754Y-94073817D01*
X110911689Y-94141721D01*
X111059227Y-94240303D01*
X111184697Y-94365773D01*
X111283279Y-94513311D01*
X111351183Y-94677246D01*
X111385800Y-94851279D01*
X111385800Y-95028721D01*
X111351183Y-95202754D01*
X111283279Y-95366689D01*
X111184697Y-95514227D01*
X111059227Y-95639697D01*
X110911689Y-95738279D01*
X110747754Y-95806183D01*
X110617229Y-95832146D01*
X110573722Y-95840800D01*
X110396278Y-95840800D01*
X110352771Y-95832146D01*
X110222246Y-95806183D01*
X110058311Y-95738279D01*
X109910773Y-95639697D01*
X109785303Y-95514227D01*
X109686721Y-95366689D01*
X109618817Y-95202754D01*
X109584200Y-95028721D01*
X109584200Y-94851279D01*
X109618817Y-94677246D01*
X109686721Y-94513311D01*
X109785303Y-94365773D01*
X109910773Y-94240303D01*
X110058311Y-94141721D01*
X110222246Y-94073817D01*
X110355859Y-94047240D01*
X110396278Y-94039200D01*
X110573722Y-94039200D01*
X110614141Y-94047240D01*
X110614141Y-94047240D01*
G37*
G36*
X115694141Y-94047240D02*
X115827754Y-94073817D01*
X115991689Y-94141721D01*
X116139227Y-94240303D01*
X116264697Y-94365773D01*
X116363279Y-94513311D01*
X116431183Y-94677246D01*
X116465800Y-94851279D01*
X116465800Y-95028721D01*
X116431183Y-95202754D01*
X116363279Y-95366689D01*
X116264697Y-95514227D01*
X116139227Y-95639697D01*
X115991689Y-95738279D01*
X115827754Y-95806183D01*
X115697229Y-95832146D01*
X115653722Y-95840800D01*
X115476278Y-95840800D01*
X115432771Y-95832146D01*
X115302246Y-95806183D01*
X115138311Y-95738279D01*
X114990773Y-95639697D01*
X114865303Y-95514227D01*
X114766721Y-95366689D01*
X114698817Y-95202754D01*
X114664200Y-95028721D01*
X114664200Y-94851279D01*
X114698817Y-94677246D01*
X114766721Y-94513311D01*
X114865303Y-94365773D01*
X114990773Y-94240303D01*
X115138311Y-94141721D01*
X115302246Y-94073817D01*
X115435859Y-94047240D01*
X115476278Y-94039200D01*
X115653722Y-94039200D01*
X115694141Y-94047240D01*
X115694141Y-94047240D01*
G37*
G36*
X147280807Y-94047240D02*
X147414420Y-94073817D01*
X147578355Y-94141721D01*
X147725893Y-94240303D01*
X147851363Y-94365773D01*
X147949945Y-94513311D01*
X148017849Y-94677246D01*
X148052466Y-94851279D01*
X148052466Y-95028721D01*
X148017849Y-95202754D01*
X147949945Y-95366689D01*
X147851363Y-95514227D01*
X147725893Y-95639697D01*
X147578355Y-95738279D01*
X147414420Y-95806183D01*
X147283895Y-95832146D01*
X147240388Y-95840800D01*
X147062944Y-95840800D01*
X147019437Y-95832146D01*
X146888912Y-95806183D01*
X146724977Y-95738279D01*
X146577439Y-95639697D01*
X146451969Y-95514227D01*
X146353387Y-95366689D01*
X146285483Y-95202754D01*
X146250866Y-95028721D01*
X146250866Y-94851279D01*
X146285483Y-94677246D01*
X146353387Y-94513311D01*
X146451969Y-94365773D01*
X146577439Y-94240303D01*
X146724977Y-94141721D01*
X146888912Y-94073817D01*
X147022525Y-94047240D01*
X147062944Y-94039200D01*
X147240388Y-94039200D01*
X147280807Y-94047240D01*
X147280807Y-94047240D01*
G37*
G36*
X174504141Y-94047240D02*
X174637754Y-94073817D01*
X174801689Y-94141721D01*
X174949227Y-94240303D01*
X175074697Y-94365773D01*
X175173279Y-94513311D01*
X175241183Y-94677246D01*
X175275800Y-94851279D01*
X175275800Y-95028721D01*
X175241183Y-95202754D01*
X175173279Y-95366689D01*
X175074697Y-95514227D01*
X174949227Y-95639697D01*
X174801689Y-95738279D01*
X174637754Y-95806183D01*
X174507229Y-95832146D01*
X174463722Y-95840800D01*
X174286278Y-95840800D01*
X174242771Y-95832146D01*
X174112246Y-95806183D01*
X173948311Y-95738279D01*
X173800773Y-95639697D01*
X173675303Y-95514227D01*
X173576721Y-95366689D01*
X173508817Y-95202754D01*
X173474200Y-95028721D01*
X173474200Y-94851279D01*
X173508817Y-94677246D01*
X173576721Y-94513311D01*
X173675303Y-94365773D01*
X173800773Y-94240303D01*
X173948311Y-94141721D01*
X174112246Y-94073817D01*
X174245859Y-94047240D01*
X174286278Y-94039200D01*
X174463722Y-94039200D01*
X174504141Y-94047240D01*
X174504141Y-94047240D01*
G37*
G36*
X171964141Y-94047240D02*
X172097754Y-94073817D01*
X172261689Y-94141721D01*
X172409227Y-94240303D01*
X172534697Y-94365773D01*
X172633279Y-94513311D01*
X172701183Y-94677246D01*
X172735800Y-94851279D01*
X172735800Y-95028721D01*
X172701183Y-95202754D01*
X172633279Y-95366689D01*
X172534697Y-95514227D01*
X172409227Y-95639697D01*
X172261689Y-95738279D01*
X172097754Y-95806183D01*
X171967229Y-95832146D01*
X171923722Y-95840800D01*
X171746278Y-95840800D01*
X171702771Y-95832146D01*
X171572246Y-95806183D01*
X171408311Y-95738279D01*
X171260773Y-95639697D01*
X171135303Y-95514227D01*
X171036721Y-95366689D01*
X170968817Y-95202754D01*
X170934200Y-95028721D01*
X170934200Y-94851279D01*
X170968817Y-94677246D01*
X171036721Y-94513311D01*
X171135303Y-94365773D01*
X171260773Y-94240303D01*
X171408311Y-94141721D01*
X171572246Y-94073817D01*
X171705859Y-94047240D01*
X171746278Y-94039200D01*
X171923722Y-94039200D01*
X171964141Y-94047240D01*
X171964141Y-94047240D01*
G37*
G36*
X169424141Y-94047240D02*
X169557754Y-94073817D01*
X169721689Y-94141721D01*
X169869227Y-94240303D01*
X169994697Y-94365773D01*
X170093279Y-94513311D01*
X170161183Y-94677246D01*
X170195800Y-94851279D01*
X170195800Y-95028721D01*
X170161183Y-95202754D01*
X170093279Y-95366689D01*
X169994697Y-95514227D01*
X169869227Y-95639697D01*
X169721689Y-95738279D01*
X169557754Y-95806183D01*
X169427229Y-95832146D01*
X169383722Y-95840800D01*
X169206278Y-95840800D01*
X169162771Y-95832146D01*
X169032246Y-95806183D01*
X168868311Y-95738279D01*
X168720773Y-95639697D01*
X168595303Y-95514227D01*
X168496721Y-95366689D01*
X168428817Y-95202754D01*
X168394200Y-95028721D01*
X168394200Y-94851279D01*
X168428817Y-94677246D01*
X168496721Y-94513311D01*
X168595303Y-94365773D01*
X168720773Y-94240303D01*
X168868311Y-94141721D01*
X169032246Y-94073817D01*
X169165859Y-94047240D01*
X169206278Y-94039200D01*
X169383722Y-94039200D01*
X169424141Y-94047240D01*
X169424141Y-94047240D01*
G37*
G36*
X108074141Y-94047240D02*
X108207754Y-94073817D01*
X108371689Y-94141721D01*
X108519227Y-94240303D01*
X108644697Y-94365773D01*
X108743279Y-94513311D01*
X108811183Y-94677246D01*
X108845800Y-94851279D01*
X108845800Y-95028721D01*
X108811183Y-95202754D01*
X108743279Y-95366689D01*
X108644697Y-95514227D01*
X108519227Y-95639697D01*
X108371689Y-95738279D01*
X108207754Y-95806183D01*
X108077229Y-95832146D01*
X108033722Y-95840800D01*
X107856278Y-95840800D01*
X107812771Y-95832146D01*
X107682246Y-95806183D01*
X107518311Y-95738279D01*
X107370773Y-95639697D01*
X107245303Y-95514227D01*
X107146721Y-95366689D01*
X107078817Y-95202754D01*
X107044200Y-95028721D01*
X107044200Y-94851279D01*
X107078817Y-94677246D01*
X107146721Y-94513311D01*
X107245303Y-94365773D01*
X107370773Y-94240303D01*
X107518311Y-94141721D01*
X107682246Y-94073817D01*
X107815859Y-94047240D01*
X107856278Y-94039200D01*
X108033722Y-94039200D01*
X108074141Y-94047240D01*
X108074141Y-94047240D01*
G37*
G36*
X200228507Y-93519582D02*
X200419740Y-93598793D01*
X200552110Y-93687240D01*
X200591849Y-93713793D01*
X200738207Y-93860151D01*
X200738209Y-93860154D01*
X200853207Y-94032260D01*
X200932418Y-94223493D01*
X200972800Y-94426505D01*
X200972800Y-94633495D01*
X200932418Y-94836507D01*
X200853207Y-95027740D01*
X200816637Y-95082470D01*
X200738207Y-95199849D01*
X200591849Y-95346207D01*
X200591846Y-95346209D01*
X200419740Y-95461207D01*
X200228507Y-95540418D01*
X200025495Y-95580800D01*
X199818505Y-95580800D01*
X199615493Y-95540418D01*
X199424260Y-95461207D01*
X199252154Y-95346209D01*
X199252151Y-95346207D01*
X199105793Y-95199849D01*
X199027363Y-95082470D01*
X198990793Y-95027740D01*
X198911582Y-94836507D01*
X198871200Y-94633495D01*
X198871200Y-94426505D01*
X198911582Y-94223493D01*
X198990793Y-94032260D01*
X199105791Y-93860154D01*
X199105793Y-93860151D01*
X199252151Y-93713793D01*
X199291890Y-93687240D01*
X199424260Y-93598793D01*
X199615493Y-93519582D01*
X199818505Y-93479200D01*
X200025495Y-93479200D01*
X200228507Y-93519582D01*
X200228507Y-93519582D01*
G37*
G36*
X189258507Y-93519582D02*
X189449740Y-93598793D01*
X189582110Y-93687240D01*
X189621849Y-93713793D01*
X189768207Y-93860151D01*
X189768209Y-93860154D01*
X189883207Y-94032260D01*
X189962418Y-94223493D01*
X190002800Y-94426505D01*
X190002800Y-94633495D01*
X189962418Y-94836507D01*
X189883207Y-95027740D01*
X189846637Y-95082470D01*
X189768207Y-95199849D01*
X189621849Y-95346207D01*
X189621846Y-95346209D01*
X189449740Y-95461207D01*
X189258507Y-95540418D01*
X189055495Y-95580800D01*
X188848505Y-95580800D01*
X188645493Y-95540418D01*
X188454260Y-95461207D01*
X188282154Y-95346209D01*
X188282151Y-95346207D01*
X188135793Y-95199849D01*
X188057363Y-95082470D01*
X188020793Y-95027740D01*
X187941582Y-94836507D01*
X187901200Y-94633495D01*
X187901200Y-94426505D01*
X187941582Y-94223493D01*
X188020793Y-94032260D01*
X188135791Y-93860154D01*
X188135793Y-93860151D01*
X188282151Y-93713793D01*
X188321890Y-93687240D01*
X188454260Y-93598793D01*
X188645493Y-93519582D01*
X188848505Y-93479200D01*
X189055495Y-93479200D01*
X189258507Y-93519582D01*
X189258507Y-93519582D01*
G37*
G36*
X203228507Y-93519582D02*
X203419740Y-93598793D01*
X203552110Y-93687240D01*
X203591849Y-93713793D01*
X203738207Y-93860151D01*
X203738209Y-93860154D01*
X203853207Y-94032260D01*
X203932418Y-94223493D01*
X203972800Y-94426505D01*
X203972800Y-94633495D01*
X203932418Y-94836507D01*
X203853207Y-95027740D01*
X203816637Y-95082470D01*
X203738207Y-95199849D01*
X203591849Y-95346207D01*
X203591846Y-95346209D01*
X203419740Y-95461207D01*
X203228507Y-95540418D01*
X203025495Y-95580800D01*
X202818505Y-95580800D01*
X202615493Y-95540418D01*
X202424260Y-95461207D01*
X202252154Y-95346209D01*
X202252151Y-95346207D01*
X202105793Y-95199849D01*
X202027363Y-95082470D01*
X201990793Y-95027740D01*
X201911582Y-94836507D01*
X201871200Y-94633495D01*
X201871200Y-94426505D01*
X201911582Y-94223493D01*
X201990793Y-94032260D01*
X202105791Y-93860154D01*
X202105793Y-93860151D01*
X202252151Y-93713793D01*
X202291890Y-93687240D01*
X202424260Y-93598793D01*
X202615493Y-93519582D01*
X202818505Y-93479200D01*
X203025495Y-93479200D01*
X203228507Y-93519582D01*
X203228507Y-93519582D01*
G37*
G36*
X214198507Y-93519582D02*
X214389740Y-93598793D01*
X214522110Y-93687240D01*
X214561849Y-93713793D01*
X214708207Y-93860151D01*
X214708209Y-93860154D01*
X214823207Y-94032260D01*
X214902418Y-94223493D01*
X214942800Y-94426505D01*
X214942800Y-94633495D01*
X214902418Y-94836507D01*
X214823207Y-95027740D01*
X214786637Y-95082470D01*
X214708207Y-95199849D01*
X214561849Y-95346207D01*
X214561846Y-95346209D01*
X214389740Y-95461207D01*
X214198507Y-95540418D01*
X213995495Y-95580800D01*
X213788505Y-95580800D01*
X213585493Y-95540418D01*
X213394260Y-95461207D01*
X213222154Y-95346209D01*
X213222151Y-95346207D01*
X213075793Y-95199849D01*
X212997363Y-95082470D01*
X212960793Y-95027740D01*
X212881582Y-94836507D01*
X212841200Y-94633495D01*
X212841200Y-94426505D01*
X212881582Y-94223493D01*
X212960793Y-94032260D01*
X213075791Y-93860154D01*
X213075793Y-93860151D01*
X213222151Y-93713793D01*
X213261890Y-93687240D01*
X213394260Y-93598793D01*
X213585493Y-93519582D01*
X213788505Y-93479200D01*
X213995495Y-93479200D01*
X214198507Y-93519582D01*
X214198507Y-93519582D01*
G37*
G36*
X217198507Y-93519582D02*
X217389740Y-93598793D01*
X217522110Y-93687240D01*
X217561849Y-93713793D01*
X217708207Y-93860151D01*
X217708209Y-93860154D01*
X217823207Y-94032260D01*
X217902418Y-94223493D01*
X217942800Y-94426505D01*
X217942800Y-94633495D01*
X217902418Y-94836507D01*
X217823207Y-95027740D01*
X217786637Y-95082470D01*
X217708207Y-95199849D01*
X217561849Y-95346207D01*
X217561846Y-95346209D01*
X217389740Y-95461207D01*
X217198507Y-95540418D01*
X216995495Y-95580800D01*
X216788505Y-95580800D01*
X216585493Y-95540418D01*
X216394260Y-95461207D01*
X216222154Y-95346209D01*
X216222151Y-95346207D01*
X216075793Y-95199849D01*
X215997363Y-95082470D01*
X215960793Y-95027740D01*
X215881582Y-94836507D01*
X215841200Y-94633495D01*
X215841200Y-94426505D01*
X215881582Y-94223493D01*
X215960793Y-94032260D01*
X216075791Y-93860154D01*
X216075793Y-93860151D01*
X216222151Y-93713793D01*
X216261890Y-93687240D01*
X216394260Y-93598793D01*
X216585493Y-93519582D01*
X216788505Y-93479200D01*
X216995495Y-93479200D01*
X217198507Y-93519582D01*
X217198507Y-93519582D01*
G37*
G36*
X186258507Y-93519582D02*
X186449740Y-93598793D01*
X186582110Y-93687240D01*
X186621849Y-93713793D01*
X186768207Y-93860151D01*
X186768209Y-93860154D01*
X186883207Y-94032260D01*
X186962418Y-94223493D01*
X187002800Y-94426505D01*
X187002800Y-94633495D01*
X186962418Y-94836507D01*
X186883207Y-95027740D01*
X186846637Y-95082470D01*
X186768207Y-95199849D01*
X186621849Y-95346207D01*
X186621846Y-95346209D01*
X186449740Y-95461207D01*
X186258507Y-95540418D01*
X186055495Y-95580800D01*
X185848505Y-95580800D01*
X185645493Y-95540418D01*
X185454260Y-95461207D01*
X185282154Y-95346209D01*
X185282151Y-95346207D01*
X185135793Y-95199849D01*
X185057363Y-95082470D01*
X185020793Y-95027740D01*
X184941582Y-94836507D01*
X184901200Y-94633495D01*
X184901200Y-94426505D01*
X184941582Y-94223493D01*
X185020793Y-94032260D01*
X185135791Y-93860154D01*
X185135793Y-93860151D01*
X185282151Y-93713793D01*
X185321890Y-93687240D01*
X185454260Y-93598793D01*
X185645493Y-93519582D01*
X185848505Y-93479200D01*
X186055495Y-93479200D01*
X186258507Y-93519582D01*
X186258507Y-93519582D01*
G37*
G36*
X176595800Y-93350800D02*
X174694200Y-93350800D01*
X174694200Y-91449200D01*
X176595800Y-91449200D01*
X176595800Y-93350800D01*
X176595800Y-93350800D01*
G37*
G36*
X137389133Y-93350800D02*
X135487533Y-93350800D01*
X135487533Y-91449200D01*
X137389133Y-91449200D01*
X137389133Y-93350800D01*
X137389133Y-93350800D01*
G37*
G36*
X117785800Y-93350800D02*
X115884200Y-93350800D01*
X115884200Y-91449200D01*
X117785800Y-91449200D01*
X117785800Y-93350800D01*
X117785800Y-93350800D01*
G37*
G36*
X156992466Y-93350800D02*
X155090866Y-93350800D01*
X155090866Y-91449200D01*
X156992466Y-91449200D01*
X156992466Y-93350800D01*
X156992466Y-93350800D01*
G37*
G36*
X153633895Y-91507854D02*
X153764420Y-91533817D01*
X153928355Y-91601721D01*
X154075893Y-91700303D01*
X154201363Y-91825773D01*
X154299945Y-91973311D01*
X154367849Y-92137246D01*
X154402466Y-92311279D01*
X154402466Y-92488721D01*
X154367849Y-92662754D01*
X154299945Y-92826689D01*
X154201363Y-92974227D01*
X154075893Y-93099697D01*
X153928355Y-93198279D01*
X153764420Y-93266183D01*
X153633895Y-93292146D01*
X153590388Y-93300800D01*
X153412944Y-93300800D01*
X153369437Y-93292146D01*
X153238912Y-93266183D01*
X153074977Y-93198279D01*
X152927439Y-93099697D01*
X152801969Y-92974227D01*
X152703387Y-92826689D01*
X152635483Y-92662754D01*
X152600866Y-92488721D01*
X152600866Y-92311279D01*
X152635483Y-92137246D01*
X152703387Y-91973311D01*
X152801969Y-91825773D01*
X152927439Y-91700303D01*
X153074977Y-91601721D01*
X153238912Y-91533817D01*
X153369437Y-91507854D01*
X153412944Y-91499200D01*
X153590388Y-91499200D01*
X153633895Y-91507854D01*
X153633895Y-91507854D01*
G37*
G36*
X111887229Y-91507854D02*
X112017754Y-91533817D01*
X112181689Y-91601721D01*
X112329227Y-91700303D01*
X112454697Y-91825773D01*
X112553279Y-91973311D01*
X112621183Y-92137246D01*
X112655800Y-92311279D01*
X112655800Y-92488721D01*
X112621183Y-92662754D01*
X112553279Y-92826689D01*
X112454697Y-92974227D01*
X112329227Y-93099697D01*
X112181689Y-93198279D01*
X112017754Y-93266183D01*
X111887229Y-93292146D01*
X111843722Y-93300800D01*
X111666278Y-93300800D01*
X111622771Y-93292146D01*
X111492246Y-93266183D01*
X111328311Y-93198279D01*
X111180773Y-93099697D01*
X111055303Y-92974227D01*
X110956721Y-92826689D01*
X110888817Y-92662754D01*
X110854200Y-92488721D01*
X110854200Y-92311279D01*
X110888817Y-92137246D01*
X110956721Y-91973311D01*
X111055303Y-91825773D01*
X111180773Y-91700303D01*
X111328311Y-91601721D01*
X111492246Y-91533817D01*
X111622771Y-91507854D01*
X111666278Y-91499200D01*
X111843722Y-91499200D01*
X111887229Y-91507854D01*
X111887229Y-91507854D01*
G37*
G36*
X114427229Y-91507854D02*
X114557754Y-91533817D01*
X114721689Y-91601721D01*
X114869227Y-91700303D01*
X114994697Y-91825773D01*
X115093279Y-91973311D01*
X115161183Y-92137246D01*
X115195800Y-92311279D01*
X115195800Y-92488721D01*
X115161183Y-92662754D01*
X115093279Y-92826689D01*
X114994697Y-92974227D01*
X114869227Y-93099697D01*
X114721689Y-93198279D01*
X114557754Y-93266183D01*
X114427229Y-93292146D01*
X114383722Y-93300800D01*
X114206278Y-93300800D01*
X114162771Y-93292146D01*
X114032246Y-93266183D01*
X113868311Y-93198279D01*
X113720773Y-93099697D01*
X113595303Y-92974227D01*
X113496721Y-92826689D01*
X113428817Y-92662754D01*
X113394200Y-92488721D01*
X113394200Y-92311279D01*
X113428817Y-92137246D01*
X113496721Y-91973311D01*
X113595303Y-91825773D01*
X113720773Y-91700303D01*
X113868311Y-91601721D01*
X114032246Y-91533817D01*
X114162771Y-91507854D01*
X114206278Y-91499200D01*
X114383722Y-91499200D01*
X114427229Y-91507854D01*
X114427229Y-91507854D01*
G37*
G36*
X128950562Y-91507854D02*
X129081087Y-91533817D01*
X129245022Y-91601721D01*
X129392560Y-91700303D01*
X129518030Y-91825773D01*
X129616612Y-91973311D01*
X129684516Y-92137246D01*
X129719133Y-92311279D01*
X129719133Y-92488721D01*
X129684516Y-92662754D01*
X129616612Y-92826689D01*
X129518030Y-92974227D01*
X129392560Y-93099697D01*
X129245022Y-93198279D01*
X129081087Y-93266183D01*
X128950562Y-93292146D01*
X128907055Y-93300800D01*
X128729611Y-93300800D01*
X128686104Y-93292146D01*
X128555579Y-93266183D01*
X128391644Y-93198279D01*
X128244106Y-93099697D01*
X128118636Y-92974227D01*
X128020054Y-92826689D01*
X127952150Y-92662754D01*
X127917533Y-92488721D01*
X127917533Y-92311279D01*
X127952150Y-92137246D01*
X128020054Y-91973311D01*
X128118636Y-91825773D01*
X128244106Y-91700303D01*
X128391644Y-91601721D01*
X128555579Y-91533817D01*
X128686104Y-91507854D01*
X128729611Y-91499200D01*
X128907055Y-91499200D01*
X128950562Y-91507854D01*
X128950562Y-91507854D01*
G37*
G36*
X109347229Y-91507854D02*
X109477754Y-91533817D01*
X109641689Y-91601721D01*
X109789227Y-91700303D01*
X109914697Y-91825773D01*
X110013279Y-91973311D01*
X110081183Y-92137246D01*
X110115800Y-92311279D01*
X110115800Y-92488721D01*
X110081183Y-92662754D01*
X110013279Y-92826689D01*
X109914697Y-92974227D01*
X109789227Y-93099697D01*
X109641689Y-93198279D01*
X109477754Y-93266183D01*
X109347229Y-93292146D01*
X109303722Y-93300800D01*
X109126278Y-93300800D01*
X109082771Y-93292146D01*
X108952246Y-93266183D01*
X108788311Y-93198279D01*
X108640773Y-93099697D01*
X108515303Y-92974227D01*
X108416721Y-92826689D01*
X108348817Y-92662754D01*
X108314200Y-92488721D01*
X108314200Y-92311279D01*
X108348817Y-92137246D01*
X108416721Y-91973311D01*
X108515303Y-91825773D01*
X108640773Y-91700303D01*
X108788311Y-91601721D01*
X108952246Y-91533817D01*
X109082771Y-91507854D01*
X109126278Y-91499200D01*
X109303722Y-91499200D01*
X109347229Y-91507854D01*
X109347229Y-91507854D01*
G37*
G36*
X131490562Y-91507854D02*
X131621087Y-91533817D01*
X131785022Y-91601721D01*
X131932560Y-91700303D01*
X132058030Y-91825773D01*
X132156612Y-91973311D01*
X132224516Y-92137246D01*
X132259133Y-92311279D01*
X132259133Y-92488721D01*
X132224516Y-92662754D01*
X132156612Y-92826689D01*
X132058030Y-92974227D01*
X131932560Y-93099697D01*
X131785022Y-93198279D01*
X131621087Y-93266183D01*
X131490562Y-93292146D01*
X131447055Y-93300800D01*
X131269611Y-93300800D01*
X131226104Y-93292146D01*
X131095579Y-93266183D01*
X130931644Y-93198279D01*
X130784106Y-93099697D01*
X130658636Y-92974227D01*
X130560054Y-92826689D01*
X130492150Y-92662754D01*
X130457533Y-92488721D01*
X130457533Y-92311279D01*
X130492150Y-92137246D01*
X130560054Y-91973311D01*
X130658636Y-91825773D01*
X130784106Y-91700303D01*
X130931644Y-91601721D01*
X131095579Y-91533817D01*
X131226104Y-91507854D01*
X131269611Y-91499200D01*
X131447055Y-91499200D01*
X131490562Y-91507854D01*
X131490562Y-91507854D01*
G37*
G36*
X134030562Y-91507854D02*
X134161087Y-91533817D01*
X134325022Y-91601721D01*
X134472560Y-91700303D01*
X134598030Y-91825773D01*
X134696612Y-91973311D01*
X134764516Y-92137246D01*
X134799133Y-92311279D01*
X134799133Y-92488721D01*
X134764516Y-92662754D01*
X134696612Y-92826689D01*
X134598030Y-92974227D01*
X134472560Y-93099697D01*
X134325022Y-93198279D01*
X134161087Y-93266183D01*
X134030562Y-93292146D01*
X133987055Y-93300800D01*
X133809611Y-93300800D01*
X133766104Y-93292146D01*
X133635579Y-93266183D01*
X133471644Y-93198279D01*
X133324106Y-93099697D01*
X133198636Y-92974227D01*
X133100054Y-92826689D01*
X133032150Y-92662754D01*
X132997533Y-92488721D01*
X132997533Y-92311279D01*
X133032150Y-92137246D01*
X133100054Y-91973311D01*
X133198636Y-91825773D01*
X133324106Y-91700303D01*
X133471644Y-91601721D01*
X133635579Y-91533817D01*
X133766104Y-91507854D01*
X133809611Y-91499200D01*
X133987055Y-91499200D01*
X134030562Y-91507854D01*
X134030562Y-91507854D01*
G37*
G36*
X148553895Y-91507854D02*
X148684420Y-91533817D01*
X148848355Y-91601721D01*
X148995893Y-91700303D01*
X149121363Y-91825773D01*
X149219945Y-91973311D01*
X149287849Y-92137246D01*
X149322466Y-92311279D01*
X149322466Y-92488721D01*
X149287849Y-92662754D01*
X149219945Y-92826689D01*
X149121363Y-92974227D01*
X148995893Y-93099697D01*
X148848355Y-93198279D01*
X148684420Y-93266183D01*
X148553895Y-93292146D01*
X148510388Y-93300800D01*
X148332944Y-93300800D01*
X148289437Y-93292146D01*
X148158912Y-93266183D01*
X147994977Y-93198279D01*
X147847439Y-93099697D01*
X147721969Y-92974227D01*
X147623387Y-92826689D01*
X147555483Y-92662754D01*
X147520866Y-92488721D01*
X147520866Y-92311279D01*
X147555483Y-92137246D01*
X147623387Y-91973311D01*
X147721969Y-91825773D01*
X147847439Y-91700303D01*
X147994977Y-91601721D01*
X148158912Y-91533817D01*
X148289437Y-91507854D01*
X148332944Y-91499200D01*
X148510388Y-91499200D01*
X148553895Y-91507854D01*
X148553895Y-91507854D01*
G37*
G36*
X151093895Y-91507854D02*
X151224420Y-91533817D01*
X151388355Y-91601721D01*
X151535893Y-91700303D01*
X151661363Y-91825773D01*
X151759945Y-91973311D01*
X151827849Y-92137246D01*
X151862466Y-92311279D01*
X151862466Y-92488721D01*
X151827849Y-92662754D01*
X151759945Y-92826689D01*
X151661363Y-92974227D01*
X151535893Y-93099697D01*
X151388355Y-93198279D01*
X151224420Y-93266183D01*
X151093895Y-93292146D01*
X151050388Y-93300800D01*
X150872944Y-93300800D01*
X150829437Y-93292146D01*
X150698912Y-93266183D01*
X150534977Y-93198279D01*
X150387439Y-93099697D01*
X150261969Y-92974227D01*
X150163387Y-92826689D01*
X150095483Y-92662754D01*
X150060866Y-92488721D01*
X150060866Y-92311279D01*
X150095483Y-92137246D01*
X150163387Y-91973311D01*
X150261969Y-91825773D01*
X150387439Y-91700303D01*
X150534977Y-91601721D01*
X150698912Y-91533817D01*
X150829437Y-91507854D01*
X150872944Y-91499200D01*
X151050388Y-91499200D01*
X151093895Y-91507854D01*
X151093895Y-91507854D01*
G37*
G36*
X168157229Y-91507854D02*
X168287754Y-91533817D01*
X168451689Y-91601721D01*
X168599227Y-91700303D01*
X168724697Y-91825773D01*
X168823279Y-91973311D01*
X168891183Y-92137246D01*
X168925800Y-92311279D01*
X168925800Y-92488721D01*
X168891183Y-92662754D01*
X168823279Y-92826689D01*
X168724697Y-92974227D01*
X168599227Y-93099697D01*
X168451689Y-93198279D01*
X168287754Y-93266183D01*
X168157229Y-93292146D01*
X168113722Y-93300800D01*
X167936278Y-93300800D01*
X167892771Y-93292146D01*
X167762246Y-93266183D01*
X167598311Y-93198279D01*
X167450773Y-93099697D01*
X167325303Y-92974227D01*
X167226721Y-92826689D01*
X167158817Y-92662754D01*
X167124200Y-92488721D01*
X167124200Y-92311279D01*
X167158817Y-92137246D01*
X167226721Y-91973311D01*
X167325303Y-91825773D01*
X167450773Y-91700303D01*
X167598311Y-91601721D01*
X167762246Y-91533817D01*
X167892771Y-91507854D01*
X167936278Y-91499200D01*
X168113722Y-91499200D01*
X168157229Y-91507854D01*
X168157229Y-91507854D01*
G37*
G36*
X170697229Y-91507854D02*
X170827754Y-91533817D01*
X170991689Y-91601721D01*
X171139227Y-91700303D01*
X171264697Y-91825773D01*
X171363279Y-91973311D01*
X171431183Y-92137246D01*
X171465800Y-92311279D01*
X171465800Y-92488721D01*
X171431183Y-92662754D01*
X171363279Y-92826689D01*
X171264697Y-92974227D01*
X171139227Y-93099697D01*
X170991689Y-93198279D01*
X170827754Y-93266183D01*
X170697229Y-93292146D01*
X170653722Y-93300800D01*
X170476278Y-93300800D01*
X170432771Y-93292146D01*
X170302246Y-93266183D01*
X170138311Y-93198279D01*
X169990773Y-93099697D01*
X169865303Y-92974227D01*
X169766721Y-92826689D01*
X169698817Y-92662754D01*
X169664200Y-92488721D01*
X169664200Y-92311279D01*
X169698817Y-92137246D01*
X169766721Y-91973311D01*
X169865303Y-91825773D01*
X169990773Y-91700303D01*
X170138311Y-91601721D01*
X170302246Y-91533817D01*
X170432771Y-91507854D01*
X170476278Y-91499200D01*
X170653722Y-91499200D01*
X170697229Y-91507854D01*
X170697229Y-91507854D01*
G37*
G36*
X173237229Y-91507854D02*
X173367754Y-91533817D01*
X173531689Y-91601721D01*
X173679227Y-91700303D01*
X173804697Y-91825773D01*
X173903279Y-91973311D01*
X173971183Y-92137246D01*
X174005800Y-92311279D01*
X174005800Y-92488721D01*
X173971183Y-92662754D01*
X173903279Y-92826689D01*
X173804697Y-92974227D01*
X173679227Y-93099697D01*
X173531689Y-93198279D01*
X173367754Y-93266183D01*
X173237229Y-93292146D01*
X173193722Y-93300800D01*
X173016278Y-93300800D01*
X172972771Y-93292146D01*
X172842246Y-93266183D01*
X172678311Y-93198279D01*
X172530773Y-93099697D01*
X172405303Y-92974227D01*
X172306721Y-92826689D01*
X172238817Y-92662754D01*
X172204200Y-92488721D01*
X172204200Y-92311279D01*
X172238817Y-92137246D01*
X172306721Y-91973311D01*
X172405303Y-91825773D01*
X172530773Y-91700303D01*
X172678311Y-91601721D01*
X172842246Y-91533817D01*
X172972771Y-91507854D01*
X173016278Y-91499200D01*
X173193722Y-91499200D01*
X173237229Y-91507854D01*
X173237229Y-91507854D01*
G37*
G36*
X203228507Y-90519582D02*
X203419740Y-90598793D01*
X203561471Y-90693495D01*
X203591849Y-90713793D01*
X203738207Y-90860151D01*
X203738209Y-90860154D01*
X203853207Y-91032260D01*
X203932418Y-91223493D01*
X203972800Y-91426505D01*
X203972800Y-91633495D01*
X203932418Y-91836507D01*
X203853207Y-92027740D01*
X203780037Y-92137246D01*
X203738207Y-92199849D01*
X203591849Y-92346207D01*
X203591846Y-92346209D01*
X203419740Y-92461207D01*
X203228507Y-92540418D01*
X203025495Y-92580800D01*
X202818505Y-92580800D01*
X202615493Y-92540418D01*
X202424260Y-92461207D01*
X202252154Y-92346209D01*
X202252151Y-92346207D01*
X202105793Y-92199849D01*
X202063963Y-92137246D01*
X201990793Y-92027740D01*
X201911582Y-91836507D01*
X201871200Y-91633495D01*
X201871200Y-91426505D01*
X201911582Y-91223493D01*
X201990793Y-91032260D01*
X202105791Y-90860154D01*
X202105793Y-90860151D01*
X202252151Y-90713793D01*
X202282529Y-90693495D01*
X202424260Y-90598793D01*
X202615493Y-90519582D01*
X202818505Y-90479200D01*
X203025495Y-90479200D01*
X203228507Y-90519582D01*
X203228507Y-90519582D01*
G37*
G36*
X217198507Y-90519582D02*
X217389740Y-90598793D01*
X217531471Y-90693495D01*
X217561849Y-90713793D01*
X217708207Y-90860151D01*
X217708209Y-90860154D01*
X217823207Y-91032260D01*
X217902418Y-91223493D01*
X217942800Y-91426505D01*
X217942800Y-91633495D01*
X217902418Y-91836507D01*
X217823207Y-92027740D01*
X217750037Y-92137246D01*
X217708207Y-92199849D01*
X217561849Y-92346207D01*
X217561846Y-92346209D01*
X217389740Y-92461207D01*
X217198507Y-92540418D01*
X216995495Y-92580800D01*
X216788505Y-92580800D01*
X216585493Y-92540418D01*
X216394260Y-92461207D01*
X216222154Y-92346209D01*
X216222151Y-92346207D01*
X216075793Y-92199849D01*
X216033963Y-92137246D01*
X215960793Y-92027740D01*
X215881582Y-91836507D01*
X215841200Y-91633495D01*
X215841200Y-91426505D01*
X215881582Y-91223493D01*
X215960793Y-91032260D01*
X216075791Y-90860154D01*
X216075793Y-90860151D01*
X216222151Y-90713793D01*
X216252529Y-90693495D01*
X216394260Y-90598793D01*
X216585493Y-90519582D01*
X216788505Y-90479200D01*
X216995495Y-90479200D01*
X217198507Y-90519582D01*
X217198507Y-90519582D01*
G37*
G36*
X214198507Y-90519582D02*
X214389740Y-90598793D01*
X214531471Y-90693495D01*
X214561849Y-90713793D01*
X214708207Y-90860151D01*
X214708209Y-90860154D01*
X214823207Y-91032260D01*
X214902418Y-91223493D01*
X214942800Y-91426505D01*
X214942800Y-91633495D01*
X214902418Y-91836507D01*
X214823207Y-92027740D01*
X214750037Y-92137246D01*
X214708207Y-92199849D01*
X214561849Y-92346207D01*
X214561846Y-92346209D01*
X214389740Y-92461207D01*
X214198507Y-92540418D01*
X213995495Y-92580800D01*
X213788505Y-92580800D01*
X213585493Y-92540418D01*
X213394260Y-92461207D01*
X213222154Y-92346209D01*
X213222151Y-92346207D01*
X213075793Y-92199849D01*
X213033963Y-92137246D01*
X212960793Y-92027740D01*
X212881582Y-91836507D01*
X212841200Y-91633495D01*
X212841200Y-91426505D01*
X212881582Y-91223493D01*
X212960793Y-91032260D01*
X213075791Y-90860154D01*
X213075793Y-90860151D01*
X213222151Y-90713793D01*
X213252529Y-90693495D01*
X213394260Y-90598793D01*
X213585493Y-90519582D01*
X213788505Y-90479200D01*
X213995495Y-90479200D01*
X214198507Y-90519582D01*
X214198507Y-90519582D01*
G37*
G36*
X189258507Y-90519582D02*
X189449740Y-90598793D01*
X189591471Y-90693495D01*
X189621849Y-90713793D01*
X189768207Y-90860151D01*
X189768209Y-90860154D01*
X189883207Y-91032260D01*
X189962418Y-91223493D01*
X190002800Y-91426505D01*
X190002800Y-91633495D01*
X189962418Y-91836507D01*
X189883207Y-92027740D01*
X189810037Y-92137246D01*
X189768207Y-92199849D01*
X189621849Y-92346207D01*
X189621846Y-92346209D01*
X189449740Y-92461207D01*
X189258507Y-92540418D01*
X189055495Y-92580800D01*
X188848505Y-92580800D01*
X188645493Y-92540418D01*
X188454260Y-92461207D01*
X188282154Y-92346209D01*
X188282151Y-92346207D01*
X188135793Y-92199849D01*
X188093963Y-92137246D01*
X188020793Y-92027740D01*
X187941582Y-91836507D01*
X187901200Y-91633495D01*
X187901200Y-91426505D01*
X187941582Y-91223493D01*
X188020793Y-91032260D01*
X188135791Y-90860154D01*
X188135793Y-90860151D01*
X188282151Y-90713793D01*
X188312529Y-90693495D01*
X188454260Y-90598793D01*
X188645493Y-90519582D01*
X188848505Y-90479200D01*
X189055495Y-90479200D01*
X189258507Y-90519582D01*
X189258507Y-90519582D01*
G37*
G36*
X186258507Y-90519582D02*
X186449740Y-90598793D01*
X186591471Y-90693495D01*
X186621849Y-90713793D01*
X186768207Y-90860151D01*
X186768209Y-90860154D01*
X186883207Y-91032260D01*
X186962418Y-91223493D01*
X187002800Y-91426505D01*
X187002800Y-91633495D01*
X186962418Y-91836507D01*
X186883207Y-92027740D01*
X186810037Y-92137246D01*
X186768207Y-92199849D01*
X186621849Y-92346207D01*
X186621846Y-92346209D01*
X186449740Y-92461207D01*
X186258507Y-92540418D01*
X186055495Y-92580800D01*
X185848505Y-92580800D01*
X185645493Y-92540418D01*
X185454260Y-92461207D01*
X185282154Y-92346209D01*
X185282151Y-92346207D01*
X185135793Y-92199849D01*
X185093963Y-92137246D01*
X185020793Y-92027740D01*
X184941582Y-91836507D01*
X184901200Y-91633495D01*
X184901200Y-91426505D01*
X184941582Y-91223493D01*
X185020793Y-91032260D01*
X185135791Y-90860154D01*
X185135793Y-90860151D01*
X185282151Y-90713793D01*
X185312529Y-90693495D01*
X185454260Y-90598793D01*
X185645493Y-90519582D01*
X185848505Y-90479200D01*
X186055495Y-90479200D01*
X186258507Y-90519582D01*
X186258507Y-90519582D01*
G37*
G36*
X200228507Y-90519582D02*
X200419740Y-90598793D01*
X200561471Y-90693495D01*
X200591849Y-90713793D01*
X200738207Y-90860151D01*
X200738209Y-90860154D01*
X200853207Y-91032260D01*
X200932418Y-91223493D01*
X200972800Y-91426505D01*
X200972800Y-91633495D01*
X200932418Y-91836507D01*
X200853207Y-92027740D01*
X200780037Y-92137246D01*
X200738207Y-92199849D01*
X200591849Y-92346207D01*
X200591846Y-92346209D01*
X200419740Y-92461207D01*
X200228507Y-92540418D01*
X200025495Y-92580800D01*
X199818505Y-92580800D01*
X199615493Y-92540418D01*
X199424260Y-92461207D01*
X199252154Y-92346209D01*
X199252151Y-92346207D01*
X199105793Y-92199849D01*
X199063963Y-92137246D01*
X198990793Y-92027740D01*
X198911582Y-91836507D01*
X198871200Y-91633495D01*
X198871200Y-91426505D01*
X198911582Y-91223493D01*
X198990793Y-91032260D01*
X199105791Y-90860154D01*
X199105793Y-90860151D01*
X199252151Y-90713793D01*
X199282529Y-90693495D01*
X199424260Y-90598793D01*
X199615493Y-90519582D01*
X199818505Y-90479200D01*
X200025495Y-90479200D01*
X200228507Y-90519582D01*
X200228507Y-90519582D01*
G37*
G36*
X183258507Y-89579582D02*
X183449740Y-89658793D01*
X183620687Y-89773016D01*
X183621849Y-89773793D01*
X183768207Y-89920151D01*
X183768209Y-89920154D01*
X183883207Y-90092260D01*
X183962418Y-90283493D01*
X184002800Y-90486505D01*
X184002800Y-90693495D01*
X183962418Y-90896507D01*
X183883207Y-91087740D01*
X183845226Y-91144582D01*
X183768207Y-91259849D01*
X183621849Y-91406207D01*
X183621846Y-91406209D01*
X183449740Y-91521207D01*
X183258507Y-91600418D01*
X183055495Y-91640800D01*
X182848505Y-91640800D01*
X182645493Y-91600418D01*
X182454260Y-91521207D01*
X182282154Y-91406209D01*
X182282151Y-91406207D01*
X182135793Y-91259849D01*
X182058774Y-91144582D01*
X182020793Y-91087740D01*
X181941582Y-90896507D01*
X181901200Y-90693495D01*
X181901200Y-90486505D01*
X181941582Y-90283493D01*
X182020793Y-90092260D01*
X182135791Y-89920154D01*
X182135793Y-89920151D01*
X182282151Y-89773793D01*
X182283313Y-89773016D01*
X182454260Y-89658793D01*
X182645493Y-89579582D01*
X182848505Y-89539200D01*
X183055495Y-89539200D01*
X183258507Y-89579582D01*
X183258507Y-89579582D01*
G37*
G36*
X220198507Y-89579582D02*
X220389740Y-89658793D01*
X220560687Y-89773016D01*
X220561849Y-89773793D01*
X220708207Y-89920151D01*
X220708209Y-89920154D01*
X220823207Y-90092260D01*
X220902418Y-90283493D01*
X220942800Y-90486505D01*
X220942800Y-90693495D01*
X220902418Y-90896507D01*
X220823207Y-91087740D01*
X220785226Y-91144582D01*
X220708207Y-91259849D01*
X220561849Y-91406207D01*
X220561846Y-91406209D01*
X220389740Y-91521207D01*
X220198507Y-91600418D01*
X219995495Y-91640800D01*
X219788505Y-91640800D01*
X219585493Y-91600418D01*
X219394260Y-91521207D01*
X219222154Y-91406209D01*
X219222151Y-91406207D01*
X219075793Y-91259849D01*
X218998774Y-91144582D01*
X218960793Y-91087740D01*
X218881582Y-90896507D01*
X218841200Y-90693495D01*
X218841200Y-90486505D01*
X218881582Y-90283493D01*
X218960793Y-90092260D01*
X219075791Y-89920154D01*
X219075793Y-89920151D01*
X219222151Y-89773793D01*
X219223313Y-89773016D01*
X219394260Y-89658793D01*
X219585493Y-89579582D01*
X219788505Y-89539200D01*
X219995495Y-89539200D01*
X220198507Y-89579582D01*
X220198507Y-89579582D01*
G37*
G36*
X211198507Y-89579582D02*
X211389740Y-89658793D01*
X211560687Y-89773016D01*
X211561849Y-89773793D01*
X211708207Y-89920151D01*
X211708209Y-89920154D01*
X211823207Y-90092260D01*
X211902418Y-90283493D01*
X211942800Y-90486505D01*
X211942800Y-90693495D01*
X211902418Y-90896507D01*
X211823207Y-91087740D01*
X211785226Y-91144582D01*
X211708207Y-91259849D01*
X211561849Y-91406207D01*
X211561846Y-91406209D01*
X211389740Y-91521207D01*
X211198507Y-91600418D01*
X210995495Y-91640800D01*
X210788505Y-91640800D01*
X210585493Y-91600418D01*
X210394260Y-91521207D01*
X210222154Y-91406209D01*
X210222151Y-91406207D01*
X210075793Y-91259849D01*
X209998774Y-91144582D01*
X209960793Y-91087740D01*
X209881582Y-90896507D01*
X209841200Y-90693495D01*
X209841200Y-90486505D01*
X209881582Y-90283493D01*
X209960793Y-90092260D01*
X210075791Y-89920154D01*
X210075793Y-89920151D01*
X210222151Y-89773793D01*
X210223313Y-89773016D01*
X210394260Y-89658793D01*
X210585493Y-89579582D01*
X210788505Y-89539200D01*
X210995495Y-89539200D01*
X211198507Y-89579582D01*
X211198507Y-89579582D01*
G37*
G36*
X206228507Y-89579582D02*
X206419740Y-89658793D01*
X206590687Y-89773016D01*
X206591849Y-89773793D01*
X206738207Y-89920151D01*
X206738209Y-89920154D01*
X206853207Y-90092260D01*
X206932418Y-90283493D01*
X206972800Y-90486505D01*
X206972800Y-90693495D01*
X206932418Y-90896507D01*
X206853207Y-91087740D01*
X206815226Y-91144582D01*
X206738207Y-91259849D01*
X206591849Y-91406207D01*
X206591846Y-91406209D01*
X206419740Y-91521207D01*
X206228507Y-91600418D01*
X206025495Y-91640800D01*
X205818505Y-91640800D01*
X205615493Y-91600418D01*
X205424260Y-91521207D01*
X205252154Y-91406209D01*
X205252151Y-91406207D01*
X205105793Y-91259849D01*
X205028774Y-91144582D01*
X204990793Y-91087740D01*
X204911582Y-90896507D01*
X204871200Y-90693495D01*
X204871200Y-90486505D01*
X204911582Y-90283493D01*
X204990793Y-90092260D01*
X205105791Y-89920154D01*
X205105793Y-89920151D01*
X205252151Y-89773793D01*
X205253313Y-89773016D01*
X205424260Y-89658793D01*
X205615493Y-89579582D01*
X205818505Y-89539200D01*
X206025495Y-89539200D01*
X206228507Y-89579582D01*
X206228507Y-89579582D01*
G37*
G36*
X197228507Y-89579582D02*
X197419740Y-89658793D01*
X197590687Y-89773016D01*
X197591849Y-89773793D01*
X197738207Y-89920151D01*
X197738209Y-89920154D01*
X197853207Y-90092260D01*
X197932418Y-90283493D01*
X197972800Y-90486505D01*
X197972800Y-90693495D01*
X197932418Y-90896507D01*
X197853207Y-91087740D01*
X197815226Y-91144582D01*
X197738207Y-91259849D01*
X197591849Y-91406207D01*
X197591846Y-91406209D01*
X197419740Y-91521207D01*
X197228507Y-91600418D01*
X197025495Y-91640800D01*
X196818505Y-91640800D01*
X196615493Y-91600418D01*
X196424260Y-91521207D01*
X196252154Y-91406209D01*
X196252151Y-91406207D01*
X196105793Y-91259849D01*
X196028774Y-91144582D01*
X195990793Y-91087740D01*
X195911582Y-90896507D01*
X195871200Y-90693495D01*
X195871200Y-90486505D01*
X195911582Y-90283493D01*
X195990793Y-90092260D01*
X196105791Y-89920154D01*
X196105793Y-89920151D01*
X196252151Y-89773793D01*
X196253313Y-89773016D01*
X196424260Y-89658793D01*
X196615493Y-89579582D01*
X196818505Y-89539200D01*
X197025495Y-89539200D01*
X197228507Y-89579582D01*
X197228507Y-89579582D01*
G37*
G36*
X192258507Y-89579582D02*
X192449740Y-89658793D01*
X192620687Y-89773016D01*
X192621849Y-89773793D01*
X192768207Y-89920151D01*
X192768209Y-89920154D01*
X192883207Y-90092260D01*
X192962418Y-90283493D01*
X193002800Y-90486505D01*
X193002800Y-90693495D01*
X192962418Y-90896507D01*
X192883207Y-91087740D01*
X192845226Y-91144582D01*
X192768207Y-91259849D01*
X192621849Y-91406207D01*
X192621846Y-91406209D01*
X192449740Y-91521207D01*
X192258507Y-91600418D01*
X192055495Y-91640800D01*
X191848505Y-91640800D01*
X191645493Y-91600418D01*
X191454260Y-91521207D01*
X191282154Y-91406209D01*
X191282151Y-91406207D01*
X191135793Y-91259849D01*
X191058774Y-91144582D01*
X191020793Y-91087740D01*
X190941582Y-90896507D01*
X190901200Y-90693495D01*
X190901200Y-90486505D01*
X190941582Y-90283493D01*
X191020793Y-90092260D01*
X191135791Y-89920154D01*
X191135793Y-89920151D01*
X191282151Y-89773793D01*
X191283313Y-89773016D01*
X191454260Y-89658793D01*
X191645493Y-89579582D01*
X191848505Y-89539200D01*
X192055495Y-89539200D01*
X192258507Y-89579582D01*
X192258507Y-89579582D01*
G37*
G36*
X163777352Y-88448796D02*
X164059579Y-88565699D01*
X164313578Y-88735415D01*
X164529585Y-88951422D01*
X164699301Y-89205421D01*
X164816204Y-89487648D01*
X164875800Y-89787259D01*
X164875800Y-90092741D01*
X164816204Y-90392352D01*
X164699301Y-90674579D01*
X164529585Y-90928578D01*
X164313578Y-91144585D01*
X164059579Y-91314301D01*
X163777352Y-91431204D01*
X163477741Y-91490800D01*
X163172259Y-91490800D01*
X162872648Y-91431204D01*
X162590421Y-91314301D01*
X162336422Y-91144585D01*
X162120415Y-90928578D01*
X161950699Y-90674579D01*
X161833796Y-90392352D01*
X161774200Y-90092741D01*
X161774200Y-89787259D01*
X161833796Y-89487648D01*
X161950699Y-89205421D01*
X162120415Y-88951422D01*
X162336422Y-88735415D01*
X162590421Y-88565699D01*
X162872648Y-88448796D01*
X163172259Y-88389200D01*
X163477741Y-88389200D01*
X163777352Y-88448796D01*
X163777352Y-88448796D01*
G37*
G36*
X104967352Y-88448796D02*
X105249579Y-88565699D01*
X105503578Y-88735415D01*
X105719585Y-88951422D01*
X105889301Y-89205421D01*
X106006204Y-89487648D01*
X106065800Y-89787259D01*
X106065800Y-90092741D01*
X106006204Y-90392352D01*
X105889301Y-90674579D01*
X105719585Y-90928578D01*
X105503578Y-91144585D01*
X105249579Y-91314301D01*
X104967352Y-91431204D01*
X104667741Y-91490800D01*
X104362259Y-91490800D01*
X104062648Y-91431204D01*
X103780421Y-91314301D01*
X103526422Y-91144585D01*
X103310415Y-90928578D01*
X103140699Y-90674579D01*
X103023796Y-90392352D01*
X102964200Y-90092741D01*
X102964200Y-89787259D01*
X103023796Y-89487648D01*
X103140699Y-89205421D01*
X103310415Y-88951422D01*
X103526422Y-88735415D01*
X103780421Y-88565699D01*
X104062648Y-88448796D01*
X104362259Y-88389200D01*
X104667741Y-88389200D01*
X104967352Y-88448796D01*
X104967352Y-88448796D01*
G37*
G36*
X120717352Y-88448796D02*
X120999579Y-88565699D01*
X121253578Y-88735415D01*
X121469585Y-88951422D01*
X121639301Y-89205421D01*
X121756204Y-89487648D01*
X121815800Y-89787259D01*
X121815800Y-90092741D01*
X121756204Y-90392352D01*
X121639301Y-90674579D01*
X121469585Y-90928578D01*
X121253578Y-91144585D01*
X120999579Y-91314301D01*
X120717352Y-91431204D01*
X120417741Y-91490800D01*
X120112259Y-91490800D01*
X119812648Y-91431204D01*
X119530421Y-91314301D01*
X119276422Y-91144585D01*
X119060415Y-90928578D01*
X118890699Y-90674579D01*
X118773796Y-90392352D01*
X118714200Y-90092741D01*
X118714200Y-89787259D01*
X118773796Y-89487648D01*
X118890699Y-89205421D01*
X119060415Y-88951422D01*
X119276422Y-88735415D01*
X119530421Y-88565699D01*
X119812648Y-88448796D01*
X120112259Y-88389200D01*
X120417741Y-88389200D01*
X120717352Y-88448796D01*
X120717352Y-88448796D01*
G37*
G36*
X124570685Y-88448796D02*
X124852912Y-88565699D01*
X125106911Y-88735415D01*
X125322918Y-88951422D01*
X125492634Y-89205421D01*
X125609537Y-89487648D01*
X125669133Y-89787259D01*
X125669133Y-90092741D01*
X125609537Y-90392352D01*
X125492634Y-90674579D01*
X125322918Y-90928578D01*
X125106911Y-91144585D01*
X124852912Y-91314301D01*
X124570685Y-91431204D01*
X124271074Y-91490800D01*
X123965592Y-91490800D01*
X123665981Y-91431204D01*
X123383754Y-91314301D01*
X123129755Y-91144585D01*
X122913748Y-90928578D01*
X122744032Y-90674579D01*
X122627129Y-90392352D01*
X122567533Y-90092741D01*
X122567533Y-89787259D01*
X122627129Y-89487648D01*
X122744032Y-89205421D01*
X122913748Y-88951422D01*
X123129755Y-88735415D01*
X123383754Y-88565699D01*
X123665981Y-88448796D01*
X123965592Y-88389200D01*
X124271074Y-88389200D01*
X124570685Y-88448796D01*
X124570685Y-88448796D01*
G37*
G36*
X140320685Y-88448796D02*
X140602912Y-88565699D01*
X140856911Y-88735415D01*
X141072918Y-88951422D01*
X141242634Y-89205421D01*
X141359537Y-89487648D01*
X141419133Y-89787259D01*
X141419133Y-90092741D01*
X141359537Y-90392352D01*
X141242634Y-90674579D01*
X141072918Y-90928578D01*
X140856911Y-91144585D01*
X140602912Y-91314301D01*
X140320685Y-91431204D01*
X140021074Y-91490800D01*
X139715592Y-91490800D01*
X139415981Y-91431204D01*
X139133754Y-91314301D01*
X138879755Y-91144585D01*
X138663748Y-90928578D01*
X138494032Y-90674579D01*
X138377129Y-90392352D01*
X138317533Y-90092741D01*
X138317533Y-89787259D01*
X138377129Y-89487648D01*
X138494032Y-89205421D01*
X138663748Y-88951422D01*
X138879755Y-88735415D01*
X139133754Y-88565699D01*
X139415981Y-88448796D01*
X139715592Y-88389200D01*
X140021074Y-88389200D01*
X140320685Y-88448796D01*
X140320685Y-88448796D01*
G37*
G36*
X179527352Y-88448796D02*
X179809579Y-88565699D01*
X180063578Y-88735415D01*
X180279585Y-88951422D01*
X180449301Y-89205421D01*
X180566204Y-89487648D01*
X180625800Y-89787259D01*
X180625800Y-90092741D01*
X180566204Y-90392352D01*
X180449301Y-90674579D01*
X180279585Y-90928578D01*
X180063578Y-91144585D01*
X179809579Y-91314301D01*
X179527352Y-91431204D01*
X179227741Y-91490800D01*
X178922259Y-91490800D01*
X178622648Y-91431204D01*
X178340421Y-91314301D01*
X178086422Y-91144585D01*
X177870415Y-90928578D01*
X177700699Y-90674579D01*
X177583796Y-90392352D01*
X177524200Y-90092741D01*
X177524200Y-89787259D01*
X177583796Y-89487648D01*
X177700699Y-89205421D01*
X177870415Y-88951422D01*
X178086422Y-88735415D01*
X178340421Y-88565699D01*
X178622648Y-88448796D01*
X178922259Y-88389200D01*
X179227741Y-88389200D01*
X179527352Y-88448796D01*
X179527352Y-88448796D01*
G37*
G36*
X144174018Y-88448796D02*
X144456245Y-88565699D01*
X144710244Y-88735415D01*
X144926251Y-88951422D01*
X145095967Y-89205421D01*
X145212870Y-89487648D01*
X145272466Y-89787259D01*
X145272466Y-90092741D01*
X145212870Y-90392352D01*
X145095967Y-90674579D01*
X144926251Y-90928578D01*
X144710244Y-91144585D01*
X144456245Y-91314301D01*
X144174018Y-91431204D01*
X143874407Y-91490800D01*
X143568925Y-91490800D01*
X143269314Y-91431204D01*
X142987087Y-91314301D01*
X142733088Y-91144585D01*
X142517081Y-90928578D01*
X142347365Y-90674579D01*
X142230462Y-90392352D01*
X142170866Y-90092741D01*
X142170866Y-89787259D01*
X142230462Y-89487648D01*
X142347365Y-89205421D01*
X142517081Y-88951422D01*
X142733088Y-88735415D01*
X142987087Y-88565699D01*
X143269314Y-88448796D01*
X143568925Y-88389200D01*
X143874407Y-88389200D01*
X144174018Y-88448796D01*
X144174018Y-88448796D01*
G37*
G36*
X159924018Y-88448796D02*
X160206245Y-88565699D01*
X160460244Y-88735415D01*
X160676251Y-88951422D01*
X160845967Y-89205421D01*
X160962870Y-89487648D01*
X161022466Y-89787259D01*
X161022466Y-90092741D01*
X160962870Y-90392352D01*
X160845967Y-90674579D01*
X160676251Y-90928578D01*
X160460244Y-91144585D01*
X160206245Y-91314301D01*
X159924018Y-91431204D01*
X159624407Y-91490800D01*
X159318925Y-91490800D01*
X159019314Y-91431204D01*
X158737087Y-91314301D01*
X158483088Y-91144585D01*
X158267081Y-90928578D01*
X158097365Y-90674579D01*
X157980462Y-90392352D01*
X157920866Y-90092741D01*
X157920866Y-89787259D01*
X157980462Y-89487648D01*
X158097365Y-89205421D01*
X158267081Y-88951422D01*
X158483088Y-88735415D01*
X158737087Y-88565699D01*
X159019314Y-88448796D01*
X159318925Y-88389200D01*
X159624407Y-88389200D01*
X159924018Y-88448796D01*
X159924018Y-88448796D01*
G37*
G36*
X216950800Y-88200800D02*
X215649200Y-88200800D01*
X215649200Y-87199200D01*
X216950800Y-87199200D01*
X216950800Y-88200800D01*
X216950800Y-88200800D01*
G37*
G36*
X214750800Y-88200800D02*
X213449200Y-88200800D01*
X213449200Y-87199200D01*
X214750800Y-87199200D01*
X214750800Y-88200800D01*
X214750800Y-88200800D01*
G37*
G36*
X189350800Y-88100800D02*
X188049200Y-88100800D01*
X188049200Y-87099200D01*
X189350800Y-87099200D01*
X189350800Y-88100800D01*
X189350800Y-88100800D01*
G37*
G36*
X200650800Y-88100800D02*
X199349200Y-88100800D01*
X199349200Y-87099200D01*
X200650800Y-87099200D01*
X200650800Y-88100800D01*
X200650800Y-88100800D01*
G37*
G36*
X202850800Y-88100800D02*
X201549200Y-88100800D01*
X201549200Y-87099200D01*
X202850800Y-87099200D01*
X202850800Y-88100800D01*
X202850800Y-88100800D01*
G37*
G36*
X187150800Y-88100800D02*
X185849200Y-88100800D01*
X185849200Y-87099200D01*
X187150800Y-87099200D01*
X187150800Y-88100800D01*
X187150800Y-88100800D01*
G37*
G36*
X165981105Y-84414561D02*
X166290631Y-84542771D01*
X166569197Y-84728903D01*
X166806097Y-84965803D01*
X166992229Y-85244369D01*
X167120439Y-85553895D01*
X167185800Y-85882486D01*
X167185800Y-86217514D01*
X167120439Y-86546105D01*
X166992229Y-86855631D01*
X166806097Y-87134197D01*
X166569197Y-87371097D01*
X166290631Y-87557229D01*
X166290630Y-87557230D01*
X166290629Y-87557230D01*
X165981105Y-87685439D01*
X165652515Y-87750800D01*
X165317485Y-87750800D01*
X164988895Y-87685439D01*
X164679371Y-87557230D01*
X164679370Y-87557230D01*
X164679369Y-87557229D01*
X164400803Y-87371097D01*
X164163903Y-87134197D01*
X163977771Y-86855631D01*
X163849561Y-86546105D01*
X163784200Y-86217514D01*
X163784200Y-85882486D01*
X163849561Y-85553895D01*
X163977771Y-85244369D01*
X164163903Y-84965803D01*
X164400803Y-84728903D01*
X164679369Y-84542771D01*
X164988895Y-84414561D01*
X165317485Y-84349200D01*
X165652515Y-84349200D01*
X165981105Y-84414561D01*
X165981105Y-84414561D01*
G37*
G36*
X177411105Y-84414561D02*
X177720631Y-84542771D01*
X177999197Y-84728903D01*
X178236097Y-84965803D01*
X178422229Y-85244369D01*
X178550439Y-85553895D01*
X178615800Y-85882486D01*
X178615800Y-86217514D01*
X178550439Y-86546105D01*
X178422229Y-86855631D01*
X178236097Y-87134197D01*
X177999197Y-87371097D01*
X177720631Y-87557229D01*
X177720630Y-87557230D01*
X177720629Y-87557230D01*
X177411105Y-87685439D01*
X177082515Y-87750800D01*
X176747485Y-87750800D01*
X176418895Y-87685439D01*
X176109371Y-87557230D01*
X176109370Y-87557230D01*
X176109369Y-87557229D01*
X175830803Y-87371097D01*
X175593903Y-87134197D01*
X175407771Y-86855631D01*
X175279561Y-86546105D01*
X175214200Y-86217514D01*
X175214200Y-85882486D01*
X175279561Y-85553895D01*
X175407771Y-85244369D01*
X175593903Y-84965803D01*
X175830803Y-84728903D01*
X176109369Y-84542771D01*
X176418895Y-84414561D01*
X176747485Y-84349200D01*
X177082515Y-84349200D01*
X177411105Y-84414561D01*
X177411105Y-84414561D01*
G37*
G36*
X157807771Y-84414561D02*
X158117297Y-84542771D01*
X158395863Y-84728903D01*
X158632763Y-84965803D01*
X158818895Y-85244369D01*
X158947105Y-85553895D01*
X159012466Y-85882486D01*
X159012466Y-86217514D01*
X158947105Y-86546105D01*
X158818895Y-86855631D01*
X158632763Y-87134197D01*
X158395863Y-87371097D01*
X158117297Y-87557229D01*
X158117296Y-87557230D01*
X158117295Y-87557230D01*
X157807771Y-87685439D01*
X157479181Y-87750800D01*
X157144151Y-87750800D01*
X156815561Y-87685439D01*
X156506037Y-87557230D01*
X156506036Y-87557230D01*
X156506035Y-87557229D01*
X156227469Y-87371097D01*
X155990569Y-87134197D01*
X155804437Y-86855631D01*
X155676227Y-86546105D01*
X155610866Y-86217514D01*
X155610866Y-85882486D01*
X155676227Y-85553895D01*
X155804437Y-85244369D01*
X155990569Y-84965803D01*
X156227469Y-84728903D01*
X156506035Y-84542771D01*
X156815561Y-84414561D01*
X157144151Y-84349200D01*
X157479181Y-84349200D01*
X157807771Y-84414561D01*
X157807771Y-84414561D01*
G37*
G36*
X138204438Y-84414561D02*
X138513964Y-84542771D01*
X138792530Y-84728903D01*
X139029430Y-84965803D01*
X139215562Y-85244369D01*
X139343772Y-85553895D01*
X139409133Y-85882486D01*
X139409133Y-86217514D01*
X139343772Y-86546105D01*
X139215562Y-86855631D01*
X139029430Y-87134197D01*
X138792530Y-87371097D01*
X138513964Y-87557229D01*
X138513963Y-87557230D01*
X138513962Y-87557230D01*
X138204438Y-87685439D01*
X137875848Y-87750800D01*
X137540818Y-87750800D01*
X137212228Y-87685439D01*
X136902704Y-87557230D01*
X136902703Y-87557230D01*
X136902702Y-87557229D01*
X136624136Y-87371097D01*
X136387236Y-87134197D01*
X136201104Y-86855631D01*
X136072894Y-86546105D01*
X136007533Y-86217514D01*
X136007533Y-85882486D01*
X136072894Y-85553895D01*
X136201104Y-85244369D01*
X136387236Y-84965803D01*
X136624136Y-84728903D01*
X136902702Y-84542771D01*
X137212228Y-84414561D01*
X137540818Y-84349200D01*
X137875848Y-84349200D01*
X138204438Y-84414561D01*
X138204438Y-84414561D01*
G37*
G36*
X126774438Y-84414561D02*
X127083964Y-84542771D01*
X127362530Y-84728903D01*
X127599430Y-84965803D01*
X127785562Y-85244369D01*
X127913772Y-85553895D01*
X127979133Y-85882486D01*
X127979133Y-86217514D01*
X127913772Y-86546105D01*
X127785562Y-86855631D01*
X127599430Y-87134197D01*
X127362530Y-87371097D01*
X127083964Y-87557229D01*
X127083963Y-87557230D01*
X127083962Y-87557230D01*
X126774438Y-87685439D01*
X126445848Y-87750800D01*
X126110818Y-87750800D01*
X125782228Y-87685439D01*
X125472704Y-87557230D01*
X125472703Y-87557230D01*
X125472702Y-87557229D01*
X125194136Y-87371097D01*
X124957236Y-87134197D01*
X124771104Y-86855631D01*
X124642894Y-86546105D01*
X124577533Y-86217514D01*
X124577533Y-85882486D01*
X124642894Y-85553895D01*
X124771104Y-85244369D01*
X124957236Y-84965803D01*
X125194136Y-84728903D01*
X125472702Y-84542771D01*
X125782228Y-84414561D01*
X126110818Y-84349200D01*
X126445848Y-84349200D01*
X126774438Y-84414561D01*
X126774438Y-84414561D01*
G37*
G36*
X118601105Y-84414561D02*
X118910631Y-84542771D01*
X119189197Y-84728903D01*
X119426097Y-84965803D01*
X119612229Y-85244369D01*
X119740439Y-85553895D01*
X119805800Y-85882486D01*
X119805800Y-86217514D01*
X119740439Y-86546105D01*
X119612229Y-86855631D01*
X119426097Y-87134197D01*
X119189197Y-87371097D01*
X118910631Y-87557229D01*
X118910630Y-87557230D01*
X118910629Y-87557230D01*
X118601105Y-87685439D01*
X118272515Y-87750800D01*
X117937485Y-87750800D01*
X117608895Y-87685439D01*
X117299371Y-87557230D01*
X117299370Y-87557230D01*
X117299369Y-87557229D01*
X117020803Y-87371097D01*
X116783903Y-87134197D01*
X116597771Y-86855631D01*
X116469561Y-86546105D01*
X116404200Y-86217514D01*
X116404200Y-85882486D01*
X116469561Y-85553895D01*
X116597771Y-85244369D01*
X116783903Y-84965803D01*
X117020803Y-84728903D01*
X117299369Y-84542771D01*
X117608895Y-84414561D01*
X117937485Y-84349200D01*
X118272515Y-84349200D01*
X118601105Y-84414561D01*
X118601105Y-84414561D01*
G37*
G36*
X107171105Y-84414561D02*
X107480631Y-84542771D01*
X107759197Y-84728903D01*
X107996097Y-84965803D01*
X108182229Y-85244369D01*
X108310439Y-85553895D01*
X108375800Y-85882486D01*
X108375800Y-86217514D01*
X108310439Y-86546105D01*
X108182229Y-86855631D01*
X107996097Y-87134197D01*
X107759197Y-87371097D01*
X107480631Y-87557229D01*
X107480630Y-87557230D01*
X107480629Y-87557230D01*
X107171105Y-87685439D01*
X106842515Y-87750800D01*
X106507485Y-87750800D01*
X106178895Y-87685439D01*
X105869371Y-87557230D01*
X105869370Y-87557230D01*
X105869369Y-87557229D01*
X105590803Y-87371097D01*
X105353903Y-87134197D01*
X105167771Y-86855631D01*
X105039561Y-86546105D01*
X104974200Y-86217514D01*
X104974200Y-85882486D01*
X105039561Y-85553895D01*
X105167771Y-85244369D01*
X105353903Y-84965803D01*
X105590803Y-84728903D01*
X105869369Y-84542771D01*
X106178895Y-84414561D01*
X106507485Y-84349200D01*
X106842515Y-84349200D01*
X107171105Y-84414561D01*
X107171105Y-84414561D01*
G37*
G36*
X146377771Y-84414561D02*
X146687297Y-84542771D01*
X146965863Y-84728903D01*
X147202763Y-84965803D01*
X147388895Y-85244369D01*
X147517105Y-85553895D01*
X147582466Y-85882486D01*
X147582466Y-86217514D01*
X147517105Y-86546105D01*
X147388895Y-86855631D01*
X147202763Y-87134197D01*
X146965863Y-87371097D01*
X146687297Y-87557229D01*
X146687296Y-87557230D01*
X146687295Y-87557230D01*
X146377771Y-87685439D01*
X146049181Y-87750800D01*
X145714151Y-87750800D01*
X145385561Y-87685439D01*
X145076037Y-87557230D01*
X145076036Y-87557230D01*
X145076035Y-87557229D01*
X144797469Y-87371097D01*
X144560569Y-87134197D01*
X144374437Y-86855631D01*
X144246227Y-86546105D01*
X144180866Y-86217514D01*
X144180866Y-85882486D01*
X144246227Y-85553895D01*
X144374437Y-85244369D01*
X144560569Y-84965803D01*
X144797469Y-84728903D01*
X145076035Y-84542771D01*
X145385561Y-84414561D01*
X145714151Y-84349200D01*
X146049181Y-84349200D01*
X146377771Y-84414561D01*
X146377771Y-84414561D01*
G37*
G36*
X217393800Y-85737800D02*
X216692200Y-85737800D01*
X216692200Y-84086200D01*
X217393800Y-84086200D01*
X217393800Y-85737800D01*
X217393800Y-85737800D01*
G37*
G36*
X216123800Y-85737800D02*
X215422200Y-85737800D01*
X215422200Y-84086200D01*
X216123800Y-84086200D01*
X216123800Y-85737800D01*
X216123800Y-85737800D01*
G37*
G36*
X214853800Y-85737800D02*
X214152200Y-85737800D01*
X214152200Y-84086200D01*
X214853800Y-84086200D01*
X214853800Y-85737800D01*
X214853800Y-85737800D01*
G37*
G36*
X213583800Y-85737800D02*
X212882200Y-85737800D01*
X212882200Y-84086200D01*
X213583800Y-84086200D01*
X213583800Y-85737800D01*
X213583800Y-85737800D01*
G37*
G36*
X219946800Y-85604800D02*
X218645200Y-85604800D01*
X218645200Y-84603200D01*
X219946800Y-84603200D01*
X219946800Y-85604800D01*
X219946800Y-85604800D01*
G37*
G36*
X222146800Y-85604800D02*
X220845200Y-85604800D01*
X220845200Y-84603200D01*
X222146800Y-84603200D01*
X222146800Y-85604800D01*
X222146800Y-85604800D01*
G37*
G36*
X202153800Y-85483800D02*
X201452200Y-85483800D01*
X201452200Y-83832200D01*
X202153800Y-83832200D01*
X202153800Y-85483800D01*
X202153800Y-85483800D01*
G37*
G36*
X186151800Y-85483800D02*
X185450200Y-85483800D01*
X185450200Y-83832200D01*
X186151800Y-83832200D01*
X186151800Y-85483800D01*
X186151800Y-85483800D01*
G37*
G36*
X200883800Y-85483800D02*
X200182200Y-85483800D01*
X200182200Y-83832200D01*
X200883800Y-83832200D01*
X200883800Y-85483800D01*
X200883800Y-85483800D01*
G37*
G36*
X203423800Y-85483800D02*
X202722200Y-85483800D01*
X202722200Y-83832200D01*
X203423800Y-83832200D01*
X203423800Y-85483800D01*
X203423800Y-85483800D01*
G37*
G36*
X199613800Y-85483800D02*
X198912200Y-85483800D01*
X198912200Y-83832200D01*
X199613800Y-83832200D01*
X199613800Y-85483800D01*
X199613800Y-85483800D01*
G37*
G36*
X189961800Y-85483800D02*
X189260200Y-85483800D01*
X189260200Y-83832200D01*
X189961800Y-83832200D01*
X189961800Y-85483800D01*
X189961800Y-85483800D01*
G37*
G36*
X188691800Y-85483800D02*
X187990200Y-85483800D01*
X187990200Y-83832200D01*
X188691800Y-83832200D01*
X188691800Y-85483800D01*
X188691800Y-85483800D01*
G37*
G36*
X187421800Y-85483800D02*
X186720200Y-85483800D01*
X186720200Y-83832200D01*
X187421800Y-83832200D01*
X187421800Y-85483800D01*
X187421800Y-85483800D01*
G37*
G36*
X206300800Y-83750800D02*
X205299200Y-83750800D01*
X205299200Y-82449200D01*
X206300800Y-82449200D01*
X206300800Y-83750800D01*
X206300800Y-83750800D01*
G37*
G36*
X192700800Y-83550800D02*
X191699200Y-83550800D01*
X191699200Y-82249200D01*
X192700800Y-82249200D01*
X192700800Y-83550800D01*
X192700800Y-83550800D01*
G37*
G36*
X211100800Y-83550800D02*
X210099200Y-83550800D01*
X210099200Y-82249200D01*
X211100800Y-82249200D01*
X211100800Y-83550800D01*
X211100800Y-83550800D01*
G37*
G36*
X183800800Y-83550800D02*
X182799200Y-83550800D01*
X182799200Y-82249200D01*
X183800800Y-82249200D01*
X183800800Y-83550800D01*
X183800800Y-83550800D01*
G37*
G36*
X197100800Y-83450800D02*
X196099200Y-83450800D01*
X196099200Y-82149200D01*
X197100800Y-82149200D01*
X197100800Y-83450800D01*
X197100800Y-83450800D01*
G37*
G36*
X148088173Y-80929582D02*
X148279406Y-81008793D01*
X148450353Y-81123016D01*
X148451515Y-81123793D01*
X148597873Y-81270151D01*
X148597875Y-81270154D01*
X148712873Y-81442260D01*
X148792084Y-81633493D01*
X148832466Y-81836505D01*
X148832466Y-82043495D01*
X148792084Y-82246507D01*
X148712873Y-82437740D01*
X148598650Y-82608687D01*
X148597873Y-82609849D01*
X148451515Y-82756207D01*
X148451512Y-82756209D01*
X148279406Y-82871207D01*
X148088173Y-82950418D01*
X147885161Y-82990800D01*
X147678171Y-82990800D01*
X147475159Y-82950418D01*
X147283926Y-82871207D01*
X147111820Y-82756209D01*
X147111817Y-82756207D01*
X146965459Y-82609849D01*
X146964682Y-82608687D01*
X146850459Y-82437740D01*
X146771248Y-82246507D01*
X146730866Y-82043495D01*
X146730866Y-81836505D01*
X146771248Y-81633493D01*
X146850459Y-81442260D01*
X146965457Y-81270154D01*
X146965459Y-81270151D01*
X147111817Y-81123793D01*
X147112979Y-81123016D01*
X147283926Y-81008793D01*
X147475159Y-80929582D01*
X147678171Y-80889200D01*
X147885161Y-80889200D01*
X148088173Y-80929582D01*
X148088173Y-80929582D01*
G37*
G36*
X145588173Y-80929582D02*
X145779406Y-81008793D01*
X145950353Y-81123016D01*
X145951515Y-81123793D01*
X146097873Y-81270151D01*
X146097875Y-81270154D01*
X146212873Y-81442260D01*
X146292084Y-81633493D01*
X146332466Y-81836505D01*
X146332466Y-82043495D01*
X146292084Y-82246507D01*
X146212873Y-82437740D01*
X146098650Y-82608687D01*
X146097873Y-82609849D01*
X145951515Y-82756207D01*
X145951512Y-82756209D01*
X145779406Y-82871207D01*
X145588173Y-82950418D01*
X145385161Y-82990800D01*
X145178171Y-82990800D01*
X144975159Y-82950418D01*
X144783926Y-82871207D01*
X144611820Y-82756209D01*
X144611817Y-82756207D01*
X144465459Y-82609849D01*
X144464682Y-82608687D01*
X144350459Y-82437740D01*
X144271248Y-82246507D01*
X144230866Y-82043495D01*
X144230866Y-81836505D01*
X144271248Y-81633493D01*
X144350459Y-81442260D01*
X144465457Y-81270154D01*
X144465459Y-81270151D01*
X144611817Y-81123793D01*
X144612979Y-81123016D01*
X144783926Y-81008793D01*
X144975159Y-80929582D01*
X145178171Y-80889200D01*
X145385161Y-80889200D01*
X145588173Y-80929582D01*
X145588173Y-80929582D01*
G37*
G36*
X136114840Y-80929582D02*
X136306073Y-81008793D01*
X136477020Y-81123016D01*
X136478182Y-81123793D01*
X136624540Y-81270151D01*
X136624542Y-81270154D01*
X136739540Y-81442260D01*
X136818751Y-81633493D01*
X136859133Y-81836505D01*
X136859133Y-82043495D01*
X136818751Y-82246507D01*
X136739540Y-82437740D01*
X136625317Y-82608687D01*
X136624540Y-82609849D01*
X136478182Y-82756207D01*
X136478179Y-82756209D01*
X136306073Y-82871207D01*
X136114840Y-82950418D01*
X135911828Y-82990800D01*
X135704838Y-82990800D01*
X135501826Y-82950418D01*
X135310593Y-82871207D01*
X135138487Y-82756209D01*
X135138484Y-82756207D01*
X134992126Y-82609849D01*
X134991349Y-82608687D01*
X134877126Y-82437740D01*
X134797915Y-82246507D01*
X134757533Y-82043495D01*
X134757533Y-81836505D01*
X134797915Y-81633493D01*
X134877126Y-81442260D01*
X134992124Y-81270154D01*
X134992126Y-81270151D01*
X135138484Y-81123793D01*
X135139646Y-81123016D01*
X135310593Y-81008793D01*
X135501826Y-80929582D01*
X135704838Y-80889200D01*
X135911828Y-80889200D01*
X136114840Y-80929582D01*
X136114840Y-80929582D01*
G37*
G36*
X128484840Y-80929582D02*
X128676073Y-81008793D01*
X128847020Y-81123016D01*
X128848182Y-81123793D01*
X128994540Y-81270151D01*
X128994542Y-81270154D01*
X129109540Y-81442260D01*
X129188751Y-81633493D01*
X129229133Y-81836505D01*
X129229133Y-82043495D01*
X129188751Y-82246507D01*
X129109540Y-82437740D01*
X128995317Y-82608687D01*
X128994540Y-82609849D01*
X128848182Y-82756207D01*
X128848179Y-82756209D01*
X128676073Y-82871207D01*
X128484840Y-82950418D01*
X128281828Y-82990800D01*
X128074838Y-82990800D01*
X127871826Y-82950418D01*
X127680593Y-82871207D01*
X127508487Y-82756209D01*
X127508484Y-82756207D01*
X127362126Y-82609849D01*
X127361349Y-82608687D01*
X127247126Y-82437740D01*
X127167915Y-82246507D01*
X127127533Y-82043495D01*
X127127533Y-81836505D01*
X127167915Y-81633493D01*
X127247126Y-81442260D01*
X127362124Y-81270154D01*
X127362126Y-81270151D01*
X127508484Y-81123793D01*
X127509646Y-81123016D01*
X127680593Y-81008793D01*
X127871826Y-80929582D01*
X128074838Y-80889200D01*
X128281828Y-80889200D01*
X128484840Y-80929582D01*
X128484840Y-80929582D01*
G37*
G36*
X177821507Y-80929582D02*
X178012740Y-81008793D01*
X178183687Y-81123016D01*
X178184849Y-81123793D01*
X178331207Y-81270151D01*
X178331209Y-81270154D01*
X178446207Y-81442260D01*
X178525418Y-81633493D01*
X178565800Y-81836505D01*
X178565800Y-82043495D01*
X178525418Y-82246507D01*
X178446207Y-82437740D01*
X178331984Y-82608687D01*
X178331207Y-82609849D01*
X178184849Y-82756207D01*
X178184846Y-82756209D01*
X178012740Y-82871207D01*
X177821507Y-82950418D01*
X177618495Y-82990800D01*
X177411505Y-82990800D01*
X177208493Y-82950418D01*
X177017260Y-82871207D01*
X176845154Y-82756209D01*
X176845151Y-82756207D01*
X176698793Y-82609849D01*
X176698016Y-82608687D01*
X176583793Y-82437740D01*
X176504582Y-82246507D01*
X176464200Y-82043495D01*
X176464200Y-81836505D01*
X176504582Y-81633493D01*
X176583793Y-81442260D01*
X176698791Y-81270154D01*
X176698793Y-81270151D01*
X176845151Y-81123793D01*
X176846313Y-81123016D01*
X177017260Y-81008793D01*
X177208493Y-80929582D01*
X177411505Y-80889200D01*
X177618495Y-80889200D01*
X177821507Y-80929582D01*
X177821507Y-80929582D01*
G37*
G36*
X106381507Y-80929582D02*
X106572740Y-81008793D01*
X106743687Y-81123016D01*
X106744849Y-81123793D01*
X106891207Y-81270151D01*
X106891209Y-81270154D01*
X107006207Y-81442260D01*
X107085418Y-81633493D01*
X107125800Y-81836505D01*
X107125800Y-82043495D01*
X107085418Y-82246507D01*
X107006207Y-82437740D01*
X106891984Y-82608687D01*
X106891207Y-82609849D01*
X106744849Y-82756207D01*
X106744846Y-82756209D01*
X106572740Y-82871207D01*
X106381507Y-82950418D01*
X106178495Y-82990800D01*
X105971505Y-82990800D01*
X105768493Y-82950418D01*
X105577260Y-82871207D01*
X105405154Y-82756209D01*
X105405151Y-82756207D01*
X105258793Y-82609849D01*
X105258016Y-82608687D01*
X105143793Y-82437740D01*
X105064582Y-82246507D01*
X105024200Y-82043495D01*
X105024200Y-81836505D01*
X105064582Y-81633493D01*
X105143793Y-81442260D01*
X105258791Y-81270154D01*
X105258793Y-81270151D01*
X105405151Y-81123793D01*
X105406313Y-81123016D01*
X105577260Y-81008793D01*
X105768493Y-80929582D01*
X105971505Y-80889200D01*
X106178495Y-80889200D01*
X106381507Y-80929582D01*
X106381507Y-80929582D01*
G37*
G36*
X108881507Y-80929582D02*
X109072740Y-81008793D01*
X109243687Y-81123016D01*
X109244849Y-81123793D01*
X109391207Y-81270151D01*
X109391209Y-81270154D01*
X109506207Y-81442260D01*
X109585418Y-81633493D01*
X109625800Y-81836505D01*
X109625800Y-82043495D01*
X109585418Y-82246507D01*
X109506207Y-82437740D01*
X109391984Y-82608687D01*
X109391207Y-82609849D01*
X109244849Y-82756207D01*
X109244846Y-82756209D01*
X109072740Y-82871207D01*
X108881507Y-82950418D01*
X108678495Y-82990800D01*
X108471505Y-82990800D01*
X108268493Y-82950418D01*
X108077260Y-82871207D01*
X107905154Y-82756209D01*
X107905151Y-82756207D01*
X107758793Y-82609849D01*
X107758016Y-82608687D01*
X107643793Y-82437740D01*
X107564582Y-82246507D01*
X107524200Y-82043495D01*
X107524200Y-81836505D01*
X107564582Y-81633493D01*
X107643793Y-81442260D01*
X107758791Y-81270154D01*
X107758793Y-81270151D01*
X107905151Y-81123793D01*
X107906313Y-81123016D01*
X108077260Y-81008793D01*
X108268493Y-80929582D01*
X108471505Y-80889200D01*
X108678495Y-80889200D01*
X108881507Y-80929582D01*
X108881507Y-80929582D01*
G37*
G36*
X138614840Y-80929582D02*
X138806073Y-81008793D01*
X138977020Y-81123016D01*
X138978182Y-81123793D01*
X139124540Y-81270151D01*
X139124542Y-81270154D01*
X139239540Y-81442260D01*
X139318751Y-81633493D01*
X139359133Y-81836505D01*
X139359133Y-82043495D01*
X139318751Y-82246507D01*
X139239540Y-82437740D01*
X139125317Y-82608687D01*
X139124540Y-82609849D01*
X138978182Y-82756207D01*
X138978179Y-82756209D01*
X138806073Y-82871207D01*
X138614840Y-82950418D01*
X138411828Y-82990800D01*
X138204838Y-82990800D01*
X138001826Y-82950418D01*
X137810593Y-82871207D01*
X137638487Y-82756209D01*
X137638484Y-82756207D01*
X137492126Y-82609849D01*
X137491349Y-82608687D01*
X137377126Y-82437740D01*
X137297915Y-82246507D01*
X137257533Y-82043495D01*
X137257533Y-81836505D01*
X137297915Y-81633493D01*
X137377126Y-81442260D01*
X137492124Y-81270154D01*
X137492126Y-81270151D01*
X137638484Y-81123793D01*
X137639646Y-81123016D01*
X137810593Y-81008793D01*
X138001826Y-80929582D01*
X138204838Y-80889200D01*
X138411828Y-80889200D01*
X138614840Y-80929582D01*
X138614840Y-80929582D01*
G37*
G36*
X158218173Y-80929582D02*
X158409406Y-81008793D01*
X158580353Y-81123016D01*
X158581515Y-81123793D01*
X158727873Y-81270151D01*
X158727875Y-81270154D01*
X158842873Y-81442260D01*
X158922084Y-81633493D01*
X158962466Y-81836505D01*
X158962466Y-82043495D01*
X158922084Y-82246507D01*
X158842873Y-82437740D01*
X158728650Y-82608687D01*
X158727873Y-82609849D01*
X158581515Y-82756207D01*
X158581512Y-82756209D01*
X158409406Y-82871207D01*
X158218173Y-82950418D01*
X158015161Y-82990800D01*
X157808171Y-82990800D01*
X157605159Y-82950418D01*
X157413926Y-82871207D01*
X157241820Y-82756209D01*
X157241817Y-82756207D01*
X157095459Y-82609849D01*
X157094682Y-82608687D01*
X156980459Y-82437740D01*
X156901248Y-82246507D01*
X156860866Y-82043495D01*
X156860866Y-81836505D01*
X156901248Y-81633493D01*
X156980459Y-81442260D01*
X157095457Y-81270154D01*
X157095459Y-81270151D01*
X157241817Y-81123793D01*
X157242979Y-81123016D01*
X157413926Y-81008793D01*
X157605159Y-80929582D01*
X157808171Y-80889200D01*
X158015161Y-80889200D01*
X158218173Y-80929582D01*
X158218173Y-80929582D01*
G37*
G36*
X165191507Y-80929582D02*
X165382740Y-81008793D01*
X165553687Y-81123016D01*
X165554849Y-81123793D01*
X165701207Y-81270151D01*
X165701209Y-81270154D01*
X165816207Y-81442260D01*
X165895418Y-81633493D01*
X165935800Y-81836505D01*
X165935800Y-82043495D01*
X165895418Y-82246507D01*
X165816207Y-82437740D01*
X165701984Y-82608687D01*
X165701207Y-82609849D01*
X165554849Y-82756207D01*
X165554846Y-82756209D01*
X165382740Y-82871207D01*
X165191507Y-82950418D01*
X164988495Y-82990800D01*
X164781505Y-82990800D01*
X164578493Y-82950418D01*
X164387260Y-82871207D01*
X164215154Y-82756209D01*
X164215151Y-82756207D01*
X164068793Y-82609849D01*
X164068016Y-82608687D01*
X163953793Y-82437740D01*
X163874582Y-82246507D01*
X163834200Y-82043495D01*
X163834200Y-81836505D01*
X163874582Y-81633493D01*
X163953793Y-81442260D01*
X164068791Y-81270154D01*
X164068793Y-81270151D01*
X164215151Y-81123793D01*
X164216313Y-81123016D01*
X164387260Y-81008793D01*
X164578493Y-80929582D01*
X164781505Y-80889200D01*
X164988495Y-80889200D01*
X165191507Y-80929582D01*
X165191507Y-80929582D01*
G37*
G36*
X119011507Y-80929582D02*
X119202740Y-81008793D01*
X119373687Y-81123016D01*
X119374849Y-81123793D01*
X119521207Y-81270151D01*
X119521209Y-81270154D01*
X119636207Y-81442260D01*
X119715418Y-81633493D01*
X119755800Y-81836505D01*
X119755800Y-82043495D01*
X119715418Y-82246507D01*
X119636207Y-82437740D01*
X119521984Y-82608687D01*
X119521207Y-82609849D01*
X119374849Y-82756207D01*
X119374846Y-82756209D01*
X119202740Y-82871207D01*
X119011507Y-82950418D01*
X118808495Y-82990800D01*
X118601505Y-82990800D01*
X118398493Y-82950418D01*
X118207260Y-82871207D01*
X118035154Y-82756209D01*
X118035151Y-82756207D01*
X117888793Y-82609849D01*
X117888016Y-82608687D01*
X117773793Y-82437740D01*
X117694582Y-82246507D01*
X117654200Y-82043495D01*
X117654200Y-81836505D01*
X117694582Y-81633493D01*
X117773793Y-81442260D01*
X117888791Y-81270154D01*
X117888793Y-81270151D01*
X118035151Y-81123793D01*
X118036313Y-81123016D01*
X118207260Y-81008793D01*
X118398493Y-80929582D01*
X118601505Y-80889200D01*
X118808495Y-80889200D01*
X119011507Y-80929582D01*
X119011507Y-80929582D01*
G37*
G36*
X116511507Y-80929582D02*
X116702740Y-81008793D01*
X116873687Y-81123016D01*
X116874849Y-81123793D01*
X117021207Y-81270151D01*
X117021209Y-81270154D01*
X117136207Y-81442260D01*
X117215418Y-81633493D01*
X117255800Y-81836505D01*
X117255800Y-82043495D01*
X117215418Y-82246507D01*
X117136207Y-82437740D01*
X117021984Y-82608687D01*
X117021207Y-82609849D01*
X116874849Y-82756207D01*
X116874846Y-82756209D01*
X116702740Y-82871207D01*
X116511507Y-82950418D01*
X116308495Y-82990800D01*
X116101505Y-82990800D01*
X115898493Y-82950418D01*
X115707260Y-82871207D01*
X115535154Y-82756209D01*
X115535151Y-82756207D01*
X115388793Y-82609849D01*
X115388016Y-82608687D01*
X115273793Y-82437740D01*
X115194582Y-82246507D01*
X115154200Y-82043495D01*
X115154200Y-81836505D01*
X115194582Y-81633493D01*
X115273793Y-81442260D01*
X115388791Y-81270154D01*
X115388793Y-81270151D01*
X115535151Y-81123793D01*
X115536313Y-81123016D01*
X115707260Y-81008793D01*
X115898493Y-80929582D01*
X116101505Y-80889200D01*
X116308495Y-80889200D01*
X116511507Y-80929582D01*
X116511507Y-80929582D01*
G37*
G36*
X167691507Y-80929582D02*
X167882740Y-81008793D01*
X168053687Y-81123016D01*
X168054849Y-81123793D01*
X168201207Y-81270151D01*
X168201209Y-81270154D01*
X168316207Y-81442260D01*
X168395418Y-81633493D01*
X168435800Y-81836505D01*
X168435800Y-82043495D01*
X168395418Y-82246507D01*
X168316207Y-82437740D01*
X168201984Y-82608687D01*
X168201207Y-82609849D01*
X168054849Y-82756207D01*
X168054846Y-82756209D01*
X167882740Y-82871207D01*
X167691507Y-82950418D01*
X167488495Y-82990800D01*
X167281505Y-82990800D01*
X167078493Y-82950418D01*
X166887260Y-82871207D01*
X166715154Y-82756209D01*
X166715151Y-82756207D01*
X166568793Y-82609849D01*
X166568016Y-82608687D01*
X166453793Y-82437740D01*
X166374582Y-82246507D01*
X166334200Y-82043495D01*
X166334200Y-81836505D01*
X166374582Y-81633493D01*
X166453793Y-81442260D01*
X166568791Y-81270154D01*
X166568793Y-81270151D01*
X166715151Y-81123793D01*
X166716313Y-81123016D01*
X166887260Y-81008793D01*
X167078493Y-80929582D01*
X167281505Y-80889200D01*
X167488495Y-80889200D01*
X167691507Y-80929582D01*
X167691507Y-80929582D01*
G37*
G36*
X125984840Y-80929582D02*
X126176073Y-81008793D01*
X126347020Y-81123016D01*
X126348182Y-81123793D01*
X126494540Y-81270151D01*
X126494542Y-81270154D01*
X126609540Y-81442260D01*
X126688751Y-81633493D01*
X126729133Y-81836505D01*
X126729133Y-82043495D01*
X126688751Y-82246507D01*
X126609540Y-82437740D01*
X126495317Y-82608687D01*
X126494540Y-82609849D01*
X126348182Y-82756207D01*
X126348179Y-82756209D01*
X126176073Y-82871207D01*
X125984840Y-82950418D01*
X125781828Y-82990800D01*
X125574838Y-82990800D01*
X125371826Y-82950418D01*
X125180593Y-82871207D01*
X125008487Y-82756209D01*
X125008484Y-82756207D01*
X124862126Y-82609849D01*
X124861349Y-82608687D01*
X124747126Y-82437740D01*
X124667915Y-82246507D01*
X124627533Y-82043495D01*
X124627533Y-81836505D01*
X124667915Y-81633493D01*
X124747126Y-81442260D01*
X124862124Y-81270154D01*
X124862126Y-81270151D01*
X125008484Y-81123793D01*
X125009646Y-81123016D01*
X125180593Y-81008793D01*
X125371826Y-80929582D01*
X125574838Y-80889200D01*
X125781828Y-80889200D01*
X125984840Y-80929582D01*
X125984840Y-80929582D01*
G37*
G36*
X175321507Y-80929582D02*
X175512740Y-81008793D01*
X175683687Y-81123016D01*
X175684849Y-81123793D01*
X175831207Y-81270151D01*
X175831209Y-81270154D01*
X175946207Y-81442260D01*
X176025418Y-81633493D01*
X176065800Y-81836505D01*
X176065800Y-82043495D01*
X176025418Y-82246507D01*
X175946207Y-82437740D01*
X175831984Y-82608687D01*
X175831207Y-82609849D01*
X175684849Y-82756207D01*
X175684846Y-82756209D01*
X175512740Y-82871207D01*
X175321507Y-82950418D01*
X175118495Y-82990800D01*
X174911505Y-82990800D01*
X174708493Y-82950418D01*
X174517260Y-82871207D01*
X174345154Y-82756209D01*
X174345151Y-82756207D01*
X174198793Y-82609849D01*
X174198016Y-82608687D01*
X174083793Y-82437740D01*
X174004582Y-82246507D01*
X173964200Y-82043495D01*
X173964200Y-81836505D01*
X174004582Y-81633493D01*
X174083793Y-81442260D01*
X174198791Y-81270154D01*
X174198793Y-81270151D01*
X174345151Y-81123793D01*
X174346313Y-81123016D01*
X174517260Y-81008793D01*
X174708493Y-80929582D01*
X174911505Y-80889200D01*
X175118495Y-80889200D01*
X175321507Y-80929582D01*
X175321507Y-80929582D01*
G37*
G36*
X155718173Y-80929582D02*
X155909406Y-81008793D01*
X156080353Y-81123016D01*
X156081515Y-81123793D01*
X156227873Y-81270151D01*
X156227875Y-81270154D01*
X156342873Y-81442260D01*
X156422084Y-81633493D01*
X156462466Y-81836505D01*
X156462466Y-82043495D01*
X156422084Y-82246507D01*
X156342873Y-82437740D01*
X156228650Y-82608687D01*
X156227873Y-82609849D01*
X156081515Y-82756207D01*
X156081512Y-82756209D01*
X155909406Y-82871207D01*
X155718173Y-82950418D01*
X155515161Y-82990800D01*
X155308171Y-82990800D01*
X155105159Y-82950418D01*
X154913926Y-82871207D01*
X154741820Y-82756209D01*
X154741817Y-82756207D01*
X154595459Y-82609849D01*
X154594682Y-82608687D01*
X154480459Y-82437740D01*
X154401248Y-82246507D01*
X154360866Y-82043495D01*
X154360866Y-81836505D01*
X154401248Y-81633493D01*
X154480459Y-81442260D01*
X154595457Y-81270154D01*
X154595459Y-81270151D01*
X154741817Y-81123793D01*
X154742979Y-81123016D01*
X154913926Y-81008793D01*
X155105159Y-80929582D01*
X155308171Y-80889200D01*
X155515161Y-80889200D01*
X155718173Y-80929582D01*
X155718173Y-80929582D01*
G37*
G36*
X206300800Y-81550800D02*
X205299200Y-81550800D01*
X205299200Y-80249200D01*
X206300800Y-80249200D01*
X206300800Y-81550800D01*
X206300800Y-81550800D01*
G37*
G36*
X183800800Y-81350800D02*
X182799200Y-81350800D01*
X182799200Y-80049200D01*
X183800800Y-80049200D01*
X183800800Y-81350800D01*
X183800800Y-81350800D01*
G37*
G36*
X211100800Y-81350800D02*
X210099200Y-81350800D01*
X210099200Y-80049200D01*
X211100800Y-80049200D01*
X211100800Y-81350800D01*
X211100800Y-81350800D01*
G37*
G36*
X192700800Y-81350800D02*
X191699200Y-81350800D01*
X191699200Y-80049200D01*
X192700800Y-80049200D01*
X192700800Y-81350800D01*
X192700800Y-81350800D01*
G37*
G36*
X197100800Y-81250800D02*
X196099200Y-81250800D01*
X196099200Y-79949200D01*
X197100800Y-79949200D01*
X197100800Y-81250800D01*
X197100800Y-81250800D01*
G37*
G36*
X214853800Y-80337800D02*
X214152200Y-80337800D01*
X214152200Y-78686200D01*
X214853800Y-78686200D01*
X214853800Y-80337800D01*
X214853800Y-80337800D01*
G37*
G36*
X213583800Y-80337800D02*
X212882200Y-80337800D01*
X212882200Y-78686200D01*
X213583800Y-78686200D01*
X213583800Y-80337800D01*
X213583800Y-80337800D01*
G37*
G36*
X216123800Y-80337800D02*
X215422200Y-80337800D01*
X215422200Y-78686200D01*
X216123800Y-78686200D01*
X216123800Y-80337800D01*
X216123800Y-80337800D01*
G37*
G36*
X217393800Y-80337800D02*
X216692200Y-80337800D01*
X216692200Y-78686200D01*
X217393800Y-78686200D01*
X217393800Y-80337800D01*
X217393800Y-80337800D01*
G37*
G36*
X161755800Y-80120800D02*
X160904200Y-80120800D01*
X160904200Y-78819200D01*
X161755800Y-78819200D01*
X161755800Y-80120800D01*
X161755800Y-80120800D01*
G37*
G36*
X189961800Y-80083800D02*
X189260200Y-80083800D01*
X189260200Y-78432200D01*
X189961800Y-78432200D01*
X189961800Y-80083800D01*
X189961800Y-80083800D01*
G37*
G36*
X203423800Y-80083800D02*
X202722200Y-80083800D01*
X202722200Y-78432200D01*
X203423800Y-78432200D01*
X203423800Y-80083800D01*
X203423800Y-80083800D01*
G37*
G36*
X200883800Y-80083800D02*
X200182200Y-80083800D01*
X200182200Y-78432200D01*
X200883800Y-78432200D01*
X200883800Y-80083800D01*
X200883800Y-80083800D01*
G37*
G36*
X199613800Y-80083800D02*
X198912200Y-80083800D01*
X198912200Y-78432200D01*
X199613800Y-78432200D01*
X199613800Y-80083800D01*
X199613800Y-80083800D01*
G37*
G36*
X202153800Y-80083800D02*
X201452200Y-80083800D01*
X201452200Y-78432200D01*
X202153800Y-78432200D01*
X202153800Y-80083800D01*
X202153800Y-80083800D01*
G37*
G36*
X188691800Y-80083800D02*
X187990200Y-80083800D01*
X187990200Y-78432200D01*
X188691800Y-78432200D01*
X188691800Y-80083800D01*
X188691800Y-80083800D01*
G37*
G36*
X187421800Y-80083800D02*
X186720200Y-80083800D01*
X186720200Y-78432200D01*
X187421800Y-78432200D01*
X187421800Y-80083800D01*
X187421800Y-80083800D01*
G37*
G36*
X186151800Y-80083800D02*
X185450200Y-80083800D01*
X185450200Y-78432200D01*
X186151800Y-78432200D01*
X186151800Y-80083800D01*
X186151800Y-80083800D01*
G37*
G36*
X161755800Y-78220800D02*
X160904200Y-78220800D01*
X160904200Y-76919200D01*
X161755800Y-76919200D01*
X161755800Y-78220800D01*
X161755800Y-78220800D01*
G37*
G36*
X214850800Y-77525800D02*
X213549200Y-77525800D01*
X213549200Y-76674200D01*
X214850800Y-76674200D01*
X214850800Y-77525800D01*
X214850800Y-77525800D01*
G37*
G36*
X216750800Y-77525800D02*
X215449200Y-77525800D01*
X215449200Y-76674200D01*
X216750800Y-76674200D01*
X216750800Y-77525800D01*
X216750800Y-77525800D01*
G37*
G36*
X187400800Y-77225800D02*
X186099200Y-77225800D01*
X186099200Y-76374200D01*
X187400800Y-76374200D01*
X187400800Y-77225800D01*
X187400800Y-77225800D01*
G37*
G36*
X189300800Y-77225800D02*
X187999200Y-77225800D01*
X187999200Y-76374200D01*
X189300800Y-76374200D01*
X189300800Y-77225800D01*
X189300800Y-77225800D01*
G37*
G36*
X202900800Y-77025800D02*
X201599200Y-77025800D01*
X201599200Y-76174200D01*
X202900800Y-76174200D01*
X202900800Y-77025800D01*
X202900800Y-77025800D01*
G37*
G36*
X201000800Y-77025800D02*
X199699200Y-77025800D01*
X199699200Y-76174200D01*
X201000800Y-76174200D01*
X201000800Y-77025800D01*
X201000800Y-77025800D01*
G37*
G36*
X169420800Y-76970800D02*
X167619200Y-76970800D01*
X167619200Y-75169200D01*
X169420800Y-75169200D01*
X169420800Y-76970800D01*
X169420800Y-76970800D01*
G37*
G36*
X166068362Y-75173545D02*
X166156588Y-75182234D01*
X166269789Y-75216573D01*
X166326390Y-75233743D01*
X166464980Y-75307822D01*
X166482879Y-75317389D01*
X166518609Y-75346712D01*
X166620044Y-75429956D01*
X166703288Y-75531391D01*
X166732611Y-75567121D01*
X166732612Y-75567123D01*
X166816257Y-75723610D01*
X166816257Y-75723611D01*
X166867766Y-75893412D01*
X166885158Y-76070000D01*
X166867766Y-76246588D01*
X166833427Y-76359789D01*
X166816257Y-76416390D01*
X166742178Y-76554980D01*
X166732611Y-76572879D01*
X166703288Y-76608609D01*
X166620044Y-76710044D01*
X166518609Y-76793288D01*
X166482879Y-76822611D01*
X166482877Y-76822612D01*
X166326390Y-76906257D01*
X166283722Y-76919200D01*
X166156588Y-76957766D01*
X166068362Y-76966455D01*
X166024250Y-76970800D01*
X165935750Y-76970800D01*
X165891638Y-76966455D01*
X165803412Y-76957766D01*
X165676278Y-76919200D01*
X165633610Y-76906257D01*
X165477123Y-76822612D01*
X165477121Y-76822611D01*
X165441391Y-76793288D01*
X165339956Y-76710044D01*
X165256712Y-76608609D01*
X165227389Y-76572879D01*
X165217822Y-76554980D01*
X165143743Y-76416390D01*
X165126573Y-76359789D01*
X165092234Y-76246588D01*
X165074842Y-76070000D01*
X165092234Y-75893412D01*
X165143743Y-75723611D01*
X165143743Y-75723610D01*
X165227388Y-75567123D01*
X165227389Y-75567121D01*
X165256712Y-75531391D01*
X165339956Y-75429956D01*
X165441391Y-75346712D01*
X165477121Y-75317389D01*
X165495020Y-75307822D01*
X165633610Y-75233743D01*
X165690211Y-75216573D01*
X165803412Y-75182234D01*
X165891638Y-75173545D01*
X165935750Y-75169200D01*
X166024250Y-75169200D01*
X166068362Y-75173545D01*
X166068362Y-75173545D01*
G37*
G36*
X161950800Y-76085800D02*
X160649200Y-76085800D01*
X160649200Y-75234200D01*
X161950800Y-75234200D01*
X161950800Y-76085800D01*
X161950800Y-76085800D01*
G37*
G36*
X163850800Y-76085800D02*
X162549200Y-76085800D01*
X162549200Y-75234200D01*
X163850800Y-75234200D01*
X163850800Y-76085800D01*
X163850800Y-76085800D01*
G37*
G36*
X102725800Y-74770800D02*
X101874200Y-74770800D01*
X101874200Y-73469200D01*
X102725800Y-73469200D01*
X102725800Y-74770800D01*
X102725800Y-74770800D01*
G37*
G36*
X107240800Y-74690800D02*
X105139200Y-74690800D01*
X105139200Y-73089200D01*
X107240800Y-73089200D01*
X107240800Y-74690800D01*
X107240800Y-74690800D01*
G37*
G36*
X200284800Y-74607800D02*
X198983200Y-74607800D01*
X198983200Y-73756200D01*
X200284800Y-73756200D01*
X200284800Y-74607800D01*
X200284800Y-74607800D01*
G37*
G36*
X202184800Y-74607800D02*
X200883200Y-74607800D01*
X200883200Y-73756200D01*
X202184800Y-73756200D01*
X202184800Y-74607800D01*
X202184800Y-74607800D01*
G37*
G36*
X121610800Y-74415800D02*
X120309200Y-74415800D01*
X120309200Y-73564200D01*
X121610800Y-73564200D01*
X121610800Y-74415800D01*
X121610800Y-74415800D01*
G37*
G36*
X119710800Y-74415800D02*
X118409200Y-74415800D01*
X118409200Y-73564200D01*
X119710800Y-73564200D01*
X119710800Y-74415800D01*
X119710800Y-74415800D01*
G37*
G36*
X123495800Y-74390800D02*
X122644200Y-74390800D01*
X122644200Y-73089200D01*
X123495800Y-73089200D01*
X123495800Y-74390800D01*
X123495800Y-74390800D01*
G37*
G36*
X206248800Y-74353800D02*
X204947200Y-74353800D01*
X204947200Y-73502200D01*
X206248800Y-73502200D01*
X206248800Y-74353800D01*
X206248800Y-74353800D01*
G37*
G36*
X204348800Y-74353800D02*
X203047200Y-74353800D01*
X203047200Y-73502200D01*
X204348800Y-73502200D01*
X204348800Y-74353800D01*
X204348800Y-74353800D01*
G37*
G36*
X224980800Y-73940800D02*
X222879200Y-73940800D01*
X222879200Y-72339200D01*
X224980800Y-72339200D01*
X224980800Y-73940800D01*
X224980800Y-73940800D01*
G37*
G36*
X161600800Y-73700800D02*
X160299200Y-73700800D01*
X160299200Y-72849200D01*
X161600800Y-72849200D01*
X161600800Y-73700800D01*
X161600800Y-73700800D01*
G37*
G36*
X163500800Y-73700800D02*
X162199200Y-73700800D01*
X162199200Y-72849200D01*
X163500800Y-72849200D01*
X163500800Y-73700800D01*
X163500800Y-73700800D01*
G37*
G36*
X226885800Y-73650800D02*
X226034200Y-73650800D01*
X226034200Y-72349200D01*
X226885800Y-72349200D01*
X226885800Y-73650800D01*
X226885800Y-73650800D01*
G37*
G36*
X113540800Y-73540800D02*
X111439200Y-73540800D01*
X111439200Y-69639200D01*
X113540800Y-69639200D01*
X113540800Y-73540800D01*
X113540800Y-73540800D01*
G37*
G36*
X155870800Y-73010800D02*
X143129200Y-73010800D01*
X143129200Y-71349200D01*
X155870800Y-71349200D01*
X155870800Y-73010800D01*
X155870800Y-73010800D01*
G37*
G36*
X102725800Y-72870800D02*
X101874200Y-72870800D01*
X101874200Y-71569200D01*
X102725800Y-71569200D01*
X102725800Y-72870800D01*
X102725800Y-72870800D01*
G37*
G36*
X214388362Y-70999545D02*
X214476588Y-71008234D01*
X214589789Y-71042573D01*
X214646390Y-71059743D01*
X214784980Y-71133822D01*
X214802879Y-71143389D01*
X214810934Y-71150000D01*
X214940044Y-71255956D01*
X214998007Y-71326586D01*
X215052611Y-71393121D01*
X215052612Y-71393123D01*
X215136257Y-71549610D01*
X215153427Y-71606211D01*
X215187766Y-71719412D01*
X215205158Y-71896000D01*
X215187766Y-72072588D01*
X215182241Y-72090800D01*
X215136257Y-72242390D01*
X215089000Y-72330800D01*
X215052611Y-72398879D01*
X215023288Y-72434609D01*
X214940044Y-72536044D01*
X214838609Y-72619288D01*
X214802879Y-72648611D01*
X214802877Y-72648612D01*
X214646390Y-72732257D01*
X214589789Y-72749427D01*
X214476588Y-72783766D01*
X214405169Y-72790800D01*
X214344250Y-72796800D01*
X214255750Y-72796800D01*
X214194831Y-72790800D01*
X214123412Y-72783766D01*
X214010211Y-72749427D01*
X213953610Y-72732257D01*
X213797123Y-72648612D01*
X213797121Y-72648611D01*
X213761391Y-72619288D01*
X213659956Y-72536044D01*
X213576712Y-72434609D01*
X213547389Y-72398879D01*
X213511000Y-72330800D01*
X213463743Y-72242390D01*
X213417759Y-72090800D01*
X213412234Y-72072588D01*
X213394842Y-71896000D01*
X213412234Y-71719412D01*
X213446573Y-71606211D01*
X213463743Y-71549610D01*
X213547388Y-71393123D01*
X213547389Y-71393121D01*
X213601993Y-71326586D01*
X213659956Y-71255956D01*
X213789066Y-71150000D01*
X213797121Y-71143389D01*
X213815020Y-71133822D01*
X213953610Y-71059743D01*
X214010211Y-71042573D01*
X214123412Y-71008234D01*
X214211638Y-70999545D01*
X214255750Y-70995200D01*
X214344250Y-70995200D01*
X214388362Y-70999545D01*
X214388362Y-70999545D01*
G37*
G36*
X218680800Y-72790800D02*
X216579200Y-72790800D01*
X216579200Y-68889200D01*
X218680800Y-68889200D01*
X218680800Y-72790800D01*
X218680800Y-72790800D01*
G37*
G36*
X123495800Y-72490800D02*
X122644200Y-72490800D01*
X122644200Y-71189200D01*
X123495800Y-71189200D01*
X123495800Y-72490800D01*
X123495800Y-72490800D01*
G37*
G36*
X107240800Y-72390800D02*
X105139200Y-72390800D01*
X105139200Y-70789200D01*
X107240800Y-70789200D01*
X107240800Y-72390800D01*
X107240800Y-72390800D01*
G37*
G36*
X202378800Y-72330800D02*
X189997200Y-72330800D01*
X189997200Y-70729200D01*
X202378800Y-70729200D01*
X202378800Y-72330800D01*
X202378800Y-72330800D01*
G37*
G36*
X183940800Y-72275800D02*
X182639200Y-72275800D01*
X182639200Y-71424200D01*
X183940800Y-71424200D01*
X183940800Y-72275800D01*
X183940800Y-72275800D01*
G37*
G36*
X185840800Y-72275800D02*
X184539200Y-72275800D01*
X184539200Y-71424200D01*
X185840800Y-71424200D01*
X185840800Y-72275800D01*
X185840800Y-72275800D01*
G37*
G36*
X104335800Y-72090800D02*
X103484200Y-72090800D01*
X103484200Y-70789200D01*
X104335800Y-70789200D01*
X104335800Y-72090800D01*
X104335800Y-72090800D01*
G37*
G36*
X119153362Y-70253545D02*
X119241588Y-70262234D01*
X119354789Y-70296573D01*
X119411390Y-70313743D01*
X119549980Y-70387822D01*
X119567879Y-70397389D01*
X119603609Y-70426712D01*
X119705044Y-70509956D01*
X119788288Y-70611391D01*
X119817611Y-70647121D01*
X119817612Y-70647123D01*
X119901257Y-70803610D01*
X119901257Y-70803611D01*
X119952766Y-70973412D01*
X119970158Y-71150000D01*
X119952766Y-71326588D01*
X119923155Y-71424200D01*
X119901257Y-71496390D01*
X119872810Y-71549610D01*
X119817611Y-71652879D01*
X119788288Y-71688609D01*
X119705044Y-71790044D01*
X119603609Y-71873288D01*
X119567879Y-71902611D01*
X119567877Y-71902612D01*
X119411390Y-71986257D01*
X119354789Y-72003427D01*
X119241588Y-72037766D01*
X119153362Y-72046455D01*
X119109250Y-72050800D01*
X119020750Y-72050800D01*
X118976638Y-72046455D01*
X118888412Y-72037766D01*
X118775211Y-72003427D01*
X118718610Y-71986257D01*
X118562123Y-71902612D01*
X118562121Y-71902611D01*
X118526391Y-71873288D01*
X118424956Y-71790044D01*
X118341712Y-71688609D01*
X118312389Y-71652879D01*
X118257190Y-71549610D01*
X118228743Y-71496390D01*
X118206845Y-71424200D01*
X118177234Y-71326588D01*
X118159842Y-71150000D01*
X118177234Y-70973412D01*
X118228743Y-70803611D01*
X118228743Y-70803610D01*
X118312388Y-70647123D01*
X118312389Y-70647121D01*
X118341712Y-70611391D01*
X118424956Y-70509956D01*
X118526391Y-70426712D01*
X118562121Y-70397389D01*
X118580020Y-70387822D01*
X118718610Y-70313743D01*
X118775211Y-70296573D01*
X118888412Y-70262234D01*
X118976638Y-70253545D01*
X119020750Y-70249200D01*
X119109250Y-70249200D01*
X119153362Y-70253545D01*
X119153362Y-70253545D01*
G37*
G36*
X117425800Y-72050800D02*
X115624200Y-72050800D01*
X115624200Y-70249200D01*
X117425800Y-70249200D01*
X117425800Y-72050800D01*
X117425800Y-72050800D01*
G37*
G36*
X131860800Y-71767800D02*
X130559200Y-71767800D01*
X130559200Y-70916200D01*
X131860800Y-70916200D01*
X131860800Y-71767800D01*
X131860800Y-71767800D01*
G37*
G36*
X129960800Y-71767800D02*
X128659200Y-71767800D01*
X128659200Y-70916200D01*
X129960800Y-70916200D01*
X129960800Y-71767800D01*
X129960800Y-71767800D01*
G37*
G36*
X226885800Y-71750800D02*
X226034200Y-71750800D01*
X226034200Y-70449200D01*
X226885800Y-70449200D01*
X226885800Y-71750800D01*
X226885800Y-71750800D01*
G37*
G36*
X224980800Y-71640800D02*
X222879200Y-71640800D01*
X222879200Y-70039200D01*
X224980800Y-70039200D01*
X224980800Y-71640800D01*
X224980800Y-71640800D01*
G37*
G36*
X228775800Y-71290800D02*
X227924200Y-71290800D01*
X227924200Y-69989200D01*
X228775800Y-69989200D01*
X228775800Y-71290800D01*
X228775800Y-71290800D01*
G37*
G36*
X138960800Y-71270800D02*
X137659200Y-71270800D01*
X137659200Y-70269200D01*
X138960800Y-70269200D01*
X138960800Y-71270800D01*
X138960800Y-71270800D01*
G37*
G36*
X136760800Y-71270800D02*
X135459200Y-71270800D01*
X135459200Y-70269200D01*
X136760800Y-70269200D01*
X136760800Y-71270800D01*
X136760800Y-71270800D01*
G37*
G36*
X142650800Y-70870800D02*
X140989200Y-70870800D01*
X140989200Y-58129200D01*
X142650800Y-58129200D01*
X142650800Y-70870800D01*
X142650800Y-70870800D01*
G37*
G36*
X158010800Y-70870800D02*
X156349200Y-70870800D01*
X156349200Y-58129200D01*
X158010800Y-58129200D01*
X158010800Y-70870800D01*
X158010800Y-70870800D01*
G37*
G36*
X215200800Y-70256800D02*
X213399200Y-70256800D01*
X213399200Y-68455200D01*
X215200800Y-68455200D01*
X215200800Y-70256800D01*
X215200800Y-70256800D01*
G37*
G36*
X132214800Y-70214800D02*
X130713200Y-70214800D01*
X130713200Y-68913200D01*
X132214800Y-68913200D01*
X132214800Y-70214800D01*
X132214800Y-70214800D01*
G37*
G36*
X130014800Y-70214800D02*
X128513200Y-70214800D01*
X128513200Y-68913200D01*
X130014800Y-68913200D01*
X130014800Y-70214800D01*
X130014800Y-70214800D01*
G37*
G36*
X104335800Y-70190800D02*
X103484200Y-70190800D01*
X103484200Y-68889200D01*
X104335800Y-68889200D01*
X104335800Y-70190800D01*
X104335800Y-70190800D01*
G37*
G36*
X107240800Y-70090800D02*
X105139200Y-70090800D01*
X105139200Y-68489200D01*
X107240800Y-68489200D01*
X107240800Y-70090800D01*
X107240800Y-70090800D01*
G37*
G36*
X185930800Y-69925800D02*
X184629200Y-69925800D01*
X184629200Y-69074200D01*
X185930800Y-69074200D01*
X185930800Y-69925800D01*
X185930800Y-69925800D01*
G37*
G36*
X184030800Y-69925800D02*
X182729200Y-69925800D01*
X182729200Y-69074200D01*
X184030800Y-69074200D01*
X184030800Y-69925800D01*
X184030800Y-69925800D01*
G37*
G36*
X189088800Y-69820800D02*
X187487200Y-69820800D01*
X187487200Y-57439200D01*
X189088800Y-57439200D01*
X189088800Y-69820800D01*
X189088800Y-69820800D01*
G37*
G36*
X204888800Y-69820800D02*
X203287200Y-69820800D01*
X203287200Y-57439200D01*
X204888800Y-57439200D01*
X204888800Y-69820800D01*
X204888800Y-69820800D01*
G37*
G36*
X154550800Y-69550800D02*
X144449200Y-69550800D01*
X144449200Y-59449200D01*
X154550800Y-59449200D01*
X154550800Y-69550800D01*
X154550800Y-69550800D01*
G37*
G36*
X228775800Y-69390800D02*
X227924200Y-69390800D01*
X227924200Y-68089200D01*
X228775800Y-68089200D01*
X228775800Y-69390800D01*
X228775800Y-69390800D01*
G37*
G36*
X224980800Y-69340800D02*
X222879200Y-69340800D01*
X222879200Y-67739200D01*
X224980800Y-67739200D01*
X224980800Y-69340800D01*
X224980800Y-69340800D01*
G37*
G36*
X130014800Y-68514800D02*
X128513200Y-68514800D01*
X128513200Y-67213200D01*
X130014800Y-67213200D01*
X130014800Y-68514800D01*
X130014800Y-68514800D01*
G37*
G36*
X132214800Y-68514800D02*
X130713200Y-68514800D01*
X130713200Y-67213200D01*
X132214800Y-67213200D01*
X132214800Y-68514800D01*
X132214800Y-68514800D01*
G37*
G36*
X123435800Y-68290800D02*
X122584200Y-68290800D01*
X122584200Y-66989200D01*
X123435800Y-66989200D01*
X123435800Y-68290800D01*
X123435800Y-68290800D01*
G37*
G36*
X163500800Y-67625800D02*
X162199200Y-67625800D01*
X162199200Y-66774200D01*
X163500800Y-66774200D01*
X163500800Y-67625800D01*
X163500800Y-67625800D01*
G37*
G36*
X161600800Y-67625800D02*
X160299200Y-67625800D01*
X160299200Y-66774200D01*
X161600800Y-66774200D01*
X161600800Y-67625800D01*
X161600800Y-67625800D01*
G37*
G36*
X211931800Y-66892800D02*
X211080200Y-66892800D01*
X211080200Y-65591200D01*
X211931800Y-65591200D01*
X211931800Y-66892800D01*
X211931800Y-66892800D01*
G37*
G36*
X214725800Y-66892800D02*
X213874200Y-66892800D01*
X213874200Y-65591200D01*
X214725800Y-65591200D01*
X214725800Y-66892800D01*
X214725800Y-66892800D01*
G37*
G36*
X131728800Y-66687800D02*
X130427200Y-66687800D01*
X130427200Y-65836200D01*
X131728800Y-65836200D01*
X131728800Y-66687800D01*
X131728800Y-66687800D01*
G37*
G36*
X129828800Y-66687800D02*
X128527200Y-66687800D01*
X128527200Y-65836200D01*
X129828800Y-65836200D01*
X129828800Y-66687800D01*
X129828800Y-66687800D01*
G37*
G36*
X123435800Y-66390800D02*
X122584200Y-66390800D01*
X122584200Y-65089200D01*
X123435800Y-65089200D01*
X123435800Y-66390800D01*
X123435800Y-66390800D01*
G37*
G36*
X121360800Y-66015800D02*
X120059200Y-66015800D01*
X120059200Y-65164200D01*
X121360800Y-65164200D01*
X121360800Y-66015800D01*
X121360800Y-66015800D01*
G37*
G36*
X119460800Y-66015800D02*
X118159200Y-66015800D01*
X118159200Y-65164200D01*
X119460800Y-65164200D01*
X119460800Y-66015800D01*
X119460800Y-66015800D01*
G37*
G36*
X106900800Y-65220800D02*
X104799200Y-65220800D01*
X104799200Y-63619200D01*
X106900800Y-63619200D01*
X106900800Y-65220800D01*
X106900800Y-65220800D01*
G37*
G36*
X102475800Y-65220800D02*
X101624200Y-65220800D01*
X101624200Y-63919200D01*
X102475800Y-63919200D01*
X102475800Y-65220800D01*
X102475800Y-65220800D01*
G37*
G36*
X211931800Y-64992800D02*
X211080200Y-64992800D01*
X211080200Y-63691200D01*
X211931800Y-63691200D01*
X211931800Y-64992800D01*
X211931800Y-64992800D01*
G37*
G36*
X214725800Y-64992800D02*
X213874200Y-64992800D01*
X213874200Y-63691200D01*
X214725800Y-63691200D01*
X214725800Y-64992800D01*
X214725800Y-64992800D01*
G37*
G36*
X224794801Y-62870800D02*
X224890588Y-62880234D01*
X225003789Y-62914573D01*
X225060390Y-62931743D01*
X225185843Y-62998800D01*
X225216879Y-63015389D01*
X225252609Y-63044712D01*
X225354044Y-63127956D01*
X225437288Y-63229391D01*
X225466611Y-63265121D01*
X225476178Y-63283020D01*
X225550257Y-63421610D01*
X225550257Y-63421611D01*
X225601766Y-63591412D01*
X225619158Y-63768000D01*
X225601766Y-63944588D01*
X225567427Y-64057789D01*
X225550257Y-64114390D01*
X225476178Y-64252980D01*
X225466611Y-64270879D01*
X225437288Y-64306609D01*
X225354044Y-64408044D01*
X225277574Y-64470800D01*
X225216879Y-64520611D01*
X225216877Y-64520612D01*
X225060390Y-64604257D01*
X225003789Y-64621427D01*
X224890588Y-64655766D01*
X224802362Y-64664455D01*
X224758250Y-64668800D01*
X224669750Y-64668800D01*
X224625638Y-64664455D01*
X224537412Y-64655766D01*
X224424211Y-64621427D01*
X224367610Y-64604257D01*
X224211123Y-64520612D01*
X224211121Y-64520611D01*
X224150426Y-64470800D01*
X224073956Y-64408044D01*
X223990712Y-64306609D01*
X223961389Y-64270879D01*
X223951822Y-64252980D01*
X223877743Y-64114390D01*
X223860573Y-64057789D01*
X223826234Y-63944588D01*
X223808842Y-63768000D01*
X223826234Y-63591412D01*
X223877743Y-63421611D01*
X223877743Y-63421610D01*
X223951822Y-63283020D01*
X223961389Y-63265121D01*
X223990712Y-63229391D01*
X224073956Y-63127956D01*
X224175391Y-63044712D01*
X224211121Y-63015389D01*
X224242157Y-62998800D01*
X224367610Y-62931743D01*
X224424211Y-62914573D01*
X224537412Y-62880234D01*
X224633199Y-62870800D01*
X224669750Y-62867200D01*
X224758250Y-62867200D01*
X224794801Y-62870800D01*
X224794801Y-62870800D01*
G37*
G36*
X116082801Y-62870800D02*
X116178588Y-62880234D01*
X116291789Y-62914573D01*
X116348390Y-62931743D01*
X116473843Y-62998800D01*
X116504879Y-63015389D01*
X116540609Y-63044712D01*
X116642044Y-63127956D01*
X116725288Y-63229391D01*
X116754611Y-63265121D01*
X116764178Y-63283020D01*
X116838257Y-63421610D01*
X116838257Y-63421611D01*
X116889766Y-63591412D01*
X116907158Y-63768000D01*
X116889766Y-63944588D01*
X116855427Y-64057789D01*
X116838257Y-64114390D01*
X116764178Y-64252980D01*
X116754611Y-64270879D01*
X116725288Y-64306609D01*
X116642044Y-64408044D01*
X116565574Y-64470800D01*
X116504879Y-64520611D01*
X116504877Y-64520612D01*
X116348390Y-64604257D01*
X116291789Y-64621427D01*
X116178588Y-64655766D01*
X116090362Y-64664455D01*
X116046250Y-64668800D01*
X115957750Y-64668800D01*
X115913638Y-64664455D01*
X115825412Y-64655766D01*
X115712211Y-64621427D01*
X115655610Y-64604257D01*
X115499123Y-64520612D01*
X115499121Y-64520611D01*
X115438426Y-64470800D01*
X115361956Y-64408044D01*
X115278712Y-64306609D01*
X115249389Y-64270879D01*
X115239822Y-64252980D01*
X115165743Y-64114390D01*
X115148573Y-64057789D01*
X115114234Y-63944588D01*
X115096842Y-63768000D01*
X115114234Y-63591412D01*
X115165743Y-63421611D01*
X115165743Y-63421610D01*
X115239822Y-63283020D01*
X115249389Y-63265121D01*
X115278712Y-63229391D01*
X115361956Y-63127956D01*
X115463391Y-63044712D01*
X115499121Y-63015389D01*
X115530157Y-62998800D01*
X115655610Y-62931743D01*
X115712211Y-62914573D01*
X115825412Y-62880234D01*
X115921199Y-62870800D01*
X115957750Y-62867200D01*
X116046250Y-62867200D01*
X116082801Y-62870800D01*
X116082801Y-62870800D01*
G37*
G36*
X227334801Y-62870800D02*
X227430588Y-62880234D01*
X227543789Y-62914573D01*
X227600390Y-62931743D01*
X227725843Y-62998800D01*
X227756879Y-63015389D01*
X227792609Y-63044712D01*
X227894044Y-63127956D01*
X227977288Y-63229391D01*
X228006611Y-63265121D01*
X228016178Y-63283020D01*
X228090257Y-63421610D01*
X228090257Y-63421611D01*
X228141766Y-63591412D01*
X228159158Y-63768000D01*
X228141766Y-63944588D01*
X228107427Y-64057789D01*
X228090257Y-64114390D01*
X228016178Y-64252980D01*
X228006611Y-64270879D01*
X227977288Y-64306609D01*
X227894044Y-64408044D01*
X227817574Y-64470800D01*
X227756879Y-64520611D01*
X227756877Y-64520612D01*
X227600390Y-64604257D01*
X227543789Y-64621427D01*
X227430588Y-64655766D01*
X227342362Y-64664455D01*
X227298250Y-64668800D01*
X227209750Y-64668800D01*
X227165638Y-64664455D01*
X227077412Y-64655766D01*
X226964211Y-64621427D01*
X226907610Y-64604257D01*
X226751123Y-64520612D01*
X226751121Y-64520611D01*
X226690426Y-64470800D01*
X226613956Y-64408044D01*
X226530712Y-64306609D01*
X226501389Y-64270879D01*
X226491822Y-64252980D01*
X226417743Y-64114390D01*
X226400573Y-64057789D01*
X226366234Y-63944588D01*
X226348842Y-63768000D01*
X226366234Y-63591412D01*
X226417743Y-63421611D01*
X226417743Y-63421610D01*
X226491822Y-63283020D01*
X226501389Y-63265121D01*
X226530712Y-63229391D01*
X226613956Y-63127956D01*
X226715391Y-63044712D01*
X226751121Y-63015389D01*
X226782157Y-62998800D01*
X226907610Y-62931743D01*
X226964211Y-62914573D01*
X227077412Y-62880234D01*
X227173199Y-62870800D01*
X227209750Y-62867200D01*
X227298250Y-62867200D01*
X227334801Y-62870800D01*
X227334801Y-62870800D01*
G37*
G36*
X113200800Y-64070800D02*
X111099200Y-64070800D01*
X111099200Y-60169200D01*
X113200800Y-60169200D01*
X113200800Y-64070800D01*
X113200800Y-64070800D01*
G37*
G36*
X102475800Y-63320800D02*
X101624200Y-63320800D01*
X101624200Y-62019200D01*
X102475800Y-62019200D01*
X102475800Y-63320800D01*
X102475800Y-63320800D01*
G37*
G36*
X129690800Y-62998800D02*
X128389200Y-62998800D01*
X128389200Y-61997200D01*
X129690800Y-61997200D01*
X129690800Y-62998800D01*
X129690800Y-62998800D01*
G37*
G36*
X127490800Y-62998800D02*
X126189200Y-62998800D01*
X126189200Y-61997200D01*
X127490800Y-61997200D01*
X127490800Y-62998800D01*
X127490800Y-62998800D01*
G37*
G36*
X106900800Y-62920800D02*
X104799200Y-62920800D01*
X104799200Y-61319200D01*
X106900800Y-61319200D01*
X106900800Y-62920800D01*
X106900800Y-62920800D01*
G37*
G36*
X104125800Y-62500800D02*
X103274200Y-62500800D01*
X103274200Y-61199200D01*
X104125800Y-61199200D01*
X104125800Y-62500800D01*
X104125800Y-62500800D01*
G37*
G36*
X227342362Y-60331545D02*
X227430588Y-60340234D01*
X227543789Y-60374573D01*
X227600390Y-60391743D01*
X227738980Y-60465822D01*
X227756879Y-60475389D01*
X227792609Y-60504712D01*
X227894044Y-60587956D01*
X227977288Y-60689391D01*
X228006611Y-60725121D01*
X228006612Y-60725123D01*
X228090257Y-60881610D01*
X228090257Y-60881611D01*
X228141766Y-61051412D01*
X228159158Y-61228000D01*
X228141766Y-61404588D01*
X228131266Y-61439200D01*
X228090257Y-61574390D01*
X228038724Y-61670800D01*
X228006611Y-61730879D01*
X227977288Y-61766609D01*
X227894044Y-61868044D01*
X227792609Y-61951288D01*
X227756879Y-61980611D01*
X227756877Y-61980612D01*
X227600390Y-62064257D01*
X227578820Y-62070800D01*
X227430588Y-62115766D01*
X227342362Y-62124455D01*
X227298250Y-62128800D01*
X227209750Y-62128800D01*
X227165638Y-62124455D01*
X227077412Y-62115766D01*
X226929180Y-62070800D01*
X226907610Y-62064257D01*
X226751123Y-61980612D01*
X226751121Y-61980611D01*
X226715391Y-61951288D01*
X226613956Y-61868044D01*
X226530712Y-61766609D01*
X226501389Y-61730879D01*
X226469276Y-61670800D01*
X226417743Y-61574390D01*
X226376734Y-61439200D01*
X226366234Y-61404588D01*
X226348842Y-61228000D01*
X226366234Y-61051412D01*
X226417743Y-60881611D01*
X226417743Y-60881610D01*
X226501388Y-60725123D01*
X226501389Y-60725121D01*
X226530712Y-60689391D01*
X226613956Y-60587956D01*
X226715391Y-60504712D01*
X226751121Y-60475389D01*
X226769020Y-60465822D01*
X226907610Y-60391743D01*
X226964211Y-60374573D01*
X227077412Y-60340234D01*
X227165638Y-60331545D01*
X227209750Y-60327200D01*
X227298250Y-60327200D01*
X227342362Y-60331545D01*
X227342362Y-60331545D01*
G37*
G36*
X224802362Y-60331545D02*
X224890588Y-60340234D01*
X225003789Y-60374573D01*
X225060390Y-60391743D01*
X225198980Y-60465822D01*
X225216879Y-60475389D01*
X225252609Y-60504712D01*
X225354044Y-60587956D01*
X225437288Y-60689391D01*
X225466611Y-60725121D01*
X225466612Y-60725123D01*
X225550257Y-60881610D01*
X225550257Y-60881611D01*
X225601766Y-61051412D01*
X225619158Y-61228000D01*
X225601766Y-61404588D01*
X225591266Y-61439200D01*
X225550257Y-61574390D01*
X225498724Y-61670800D01*
X225466611Y-61730879D01*
X225437288Y-61766609D01*
X225354044Y-61868044D01*
X225252609Y-61951288D01*
X225216879Y-61980611D01*
X225216877Y-61980612D01*
X225060390Y-62064257D01*
X225038820Y-62070800D01*
X224890588Y-62115766D01*
X224802362Y-62124455D01*
X224758250Y-62128800D01*
X224669750Y-62128800D01*
X224625638Y-62124455D01*
X224537412Y-62115766D01*
X224389180Y-62070800D01*
X224367610Y-62064257D01*
X224211123Y-61980612D01*
X224211121Y-61980611D01*
X224175391Y-61951288D01*
X224073956Y-61868044D01*
X223990712Y-61766609D01*
X223961389Y-61730879D01*
X223929276Y-61670800D01*
X223877743Y-61574390D01*
X223836734Y-61439200D01*
X223826234Y-61404588D01*
X223808842Y-61228000D01*
X223826234Y-61051412D01*
X223877743Y-60881611D01*
X223877743Y-60881610D01*
X223961388Y-60725123D01*
X223961389Y-60725121D01*
X223990712Y-60689391D01*
X224073956Y-60587956D01*
X224175391Y-60504712D01*
X224211121Y-60475389D01*
X224229020Y-60465822D01*
X224367610Y-60391743D01*
X224424211Y-60374573D01*
X224537412Y-60340234D01*
X224625638Y-60331545D01*
X224669750Y-60327200D01*
X224758250Y-60327200D01*
X224802362Y-60331545D01*
X224802362Y-60331545D01*
G37*
G36*
X116902800Y-62128800D02*
X115101200Y-62128800D01*
X115101200Y-60327200D01*
X116902800Y-60327200D01*
X116902800Y-62128800D01*
X116902800Y-62128800D01*
G37*
G36*
X127490800Y-61474800D02*
X126189200Y-61474800D01*
X126189200Y-60473200D01*
X127490800Y-60473200D01*
X127490800Y-61474800D01*
X127490800Y-61474800D01*
G37*
G36*
X129690800Y-61474800D02*
X128389200Y-61474800D01*
X128389200Y-60473200D01*
X129690800Y-60473200D01*
X129690800Y-61474800D01*
X129690800Y-61474800D01*
G37*
G36*
X106900800Y-60620800D02*
X104799200Y-60620800D01*
X104799200Y-59019200D01*
X106900800Y-59019200D01*
X106900800Y-60620800D01*
X106900800Y-60620800D01*
G37*
G36*
X104125800Y-60600800D02*
X103274200Y-60600800D01*
X103274200Y-59299200D01*
X104125800Y-59299200D01*
X104125800Y-60600800D01*
X104125800Y-60600800D01*
G37*
G36*
X227342362Y-57791545D02*
X227430588Y-57800234D01*
X227498384Y-57820800D01*
X227600390Y-57851743D01*
X227738980Y-57925822D01*
X227756879Y-57935389D01*
X227792609Y-57964712D01*
X227894044Y-58047956D01*
X227960718Y-58129200D01*
X228006611Y-58185121D01*
X228006612Y-58185123D01*
X228090257Y-58341610D01*
X228090257Y-58341611D01*
X228141766Y-58511412D01*
X228159158Y-58688000D01*
X228141766Y-58864588D01*
X228107427Y-58977789D01*
X228090257Y-59034390D01*
X228016178Y-59172980D01*
X228006611Y-59190879D01*
X227977288Y-59226609D01*
X227894044Y-59328044D01*
X227792609Y-59411288D01*
X227756879Y-59440611D01*
X227756877Y-59440612D01*
X227600390Y-59524257D01*
X227543789Y-59541427D01*
X227430588Y-59575766D01*
X227342362Y-59584455D01*
X227298250Y-59588800D01*
X227209750Y-59588800D01*
X227165638Y-59584455D01*
X227077412Y-59575766D01*
X226964211Y-59541427D01*
X226907610Y-59524257D01*
X226751123Y-59440612D01*
X226751121Y-59440611D01*
X226715391Y-59411288D01*
X226613956Y-59328044D01*
X226530712Y-59226609D01*
X226501389Y-59190879D01*
X226491822Y-59172980D01*
X226417743Y-59034390D01*
X226400573Y-58977789D01*
X226366234Y-58864588D01*
X226348842Y-58688000D01*
X226366234Y-58511412D01*
X226417743Y-58341611D01*
X226417743Y-58341610D01*
X226501388Y-58185123D01*
X226501389Y-58185121D01*
X226547282Y-58129200D01*
X226613956Y-58047956D01*
X226715391Y-57964712D01*
X226751121Y-57935389D01*
X226769020Y-57925822D01*
X226907610Y-57851743D01*
X227009616Y-57820800D01*
X227077412Y-57800234D01*
X227165638Y-57791545D01*
X227209750Y-57787200D01*
X227298250Y-57787200D01*
X227342362Y-57791545D01*
X227342362Y-57791545D01*
G37*
G36*
X224802362Y-57791545D02*
X224890588Y-57800234D01*
X224958384Y-57820800D01*
X225060390Y-57851743D01*
X225198980Y-57925822D01*
X225216879Y-57935389D01*
X225252609Y-57964712D01*
X225354044Y-58047956D01*
X225420718Y-58129200D01*
X225466611Y-58185121D01*
X225466612Y-58185123D01*
X225550257Y-58341610D01*
X225550257Y-58341611D01*
X225601766Y-58511412D01*
X225619158Y-58688000D01*
X225601766Y-58864588D01*
X225567427Y-58977789D01*
X225550257Y-59034390D01*
X225476178Y-59172980D01*
X225466611Y-59190879D01*
X225437288Y-59226609D01*
X225354044Y-59328044D01*
X225252609Y-59411288D01*
X225216879Y-59440611D01*
X225216877Y-59440612D01*
X225060390Y-59524257D01*
X225003789Y-59541427D01*
X224890588Y-59575766D01*
X224802362Y-59584455D01*
X224758250Y-59588800D01*
X224669750Y-59588800D01*
X224625638Y-59584455D01*
X224537412Y-59575766D01*
X224424211Y-59541427D01*
X224367610Y-59524257D01*
X224211123Y-59440612D01*
X224211121Y-59440611D01*
X224175391Y-59411288D01*
X224073956Y-59328044D01*
X223990712Y-59226609D01*
X223961389Y-59190879D01*
X223951822Y-59172980D01*
X223877743Y-59034390D01*
X223860573Y-58977789D01*
X223826234Y-58864588D01*
X223808842Y-58688000D01*
X223826234Y-58511412D01*
X223877743Y-58341611D01*
X223877743Y-58341610D01*
X223961388Y-58185123D01*
X223961389Y-58185121D01*
X224007282Y-58129200D01*
X224073956Y-58047956D01*
X224175391Y-57964712D01*
X224211121Y-57935389D01*
X224229020Y-57925822D01*
X224367610Y-57851743D01*
X224469616Y-57820800D01*
X224537412Y-57800234D01*
X224625638Y-57791545D01*
X224669750Y-57787200D01*
X224758250Y-57787200D01*
X224802362Y-57791545D01*
X224802362Y-57791545D01*
G37*
G36*
X208325800Y-59350800D02*
X207474200Y-59350800D01*
X207474200Y-58049200D01*
X208325800Y-58049200D01*
X208325800Y-59350800D01*
X208325800Y-59350800D01*
G37*
G36*
X211925800Y-59350800D02*
X211074200Y-59350800D01*
X211074200Y-58049200D01*
X211925800Y-58049200D01*
X211925800Y-59350800D01*
X211925800Y-59350800D01*
G37*
G36*
X125840800Y-59248800D02*
X123739200Y-59248800D01*
X123739200Y-57647200D01*
X125840800Y-57647200D01*
X125840800Y-59248800D01*
X125840800Y-59248800D01*
G37*
G36*
X120999800Y-59018800D02*
X120148200Y-59018800D01*
X120148200Y-57717200D01*
X120999800Y-57717200D01*
X120999800Y-59018800D01*
X120999800Y-59018800D01*
G37*
G36*
X132140800Y-58098800D02*
X130039200Y-58098800D01*
X130039200Y-54197200D01*
X132140800Y-54197200D01*
X132140800Y-58098800D01*
X132140800Y-58098800D01*
G37*
G36*
X155870800Y-57650800D02*
X143129200Y-57650800D01*
X143129200Y-55989200D01*
X155870800Y-55989200D01*
X155870800Y-57650800D01*
X155870800Y-57650800D01*
G37*
G36*
X186320800Y-57555800D02*
X185019200Y-57555800D01*
X185019200Y-56704200D01*
X186320800Y-56704200D01*
X186320800Y-57555800D01*
X186320800Y-57555800D01*
G37*
G36*
X184420800Y-57555800D02*
X183119200Y-57555800D01*
X183119200Y-56704200D01*
X184420800Y-56704200D01*
X184420800Y-57555800D01*
X184420800Y-57555800D01*
G37*
G36*
X211925800Y-57450800D02*
X211074200Y-57450800D01*
X211074200Y-56149200D01*
X211925800Y-56149200D01*
X211925800Y-57450800D01*
X211925800Y-57450800D01*
G37*
G36*
X208325800Y-57450800D02*
X207474200Y-57450800D01*
X207474200Y-56149200D01*
X208325800Y-56149200D01*
X208325800Y-57450800D01*
X208325800Y-57450800D01*
G37*
G36*
X120999800Y-57118800D02*
X120148200Y-57118800D01*
X120148200Y-55817200D01*
X120999800Y-55817200D01*
X120999800Y-57118800D01*
X120999800Y-57118800D01*
G37*
G36*
X227342362Y-55251545D02*
X227430588Y-55260234D01*
X227543789Y-55294573D01*
X227600390Y-55311743D01*
X227738980Y-55385822D01*
X227756879Y-55395389D01*
X227792609Y-55424712D01*
X227894044Y-55507956D01*
X227977288Y-55609391D01*
X228006611Y-55645121D01*
X228006612Y-55645123D01*
X228090257Y-55801610D01*
X228090257Y-55801611D01*
X228141766Y-55971412D01*
X228159158Y-56148000D01*
X228141766Y-56324588D01*
X228107427Y-56437789D01*
X228090257Y-56494390D01*
X228070795Y-56530800D01*
X228006611Y-56650879D01*
X227977288Y-56686609D01*
X227894044Y-56788044D01*
X227792609Y-56871288D01*
X227756879Y-56900611D01*
X227756877Y-56900612D01*
X227600390Y-56984257D01*
X227543789Y-57001427D01*
X227430588Y-57035766D01*
X227342362Y-57044455D01*
X227298250Y-57048800D01*
X227209750Y-57048800D01*
X227165638Y-57044455D01*
X227077412Y-57035766D01*
X226964211Y-57001427D01*
X226907610Y-56984257D01*
X226751123Y-56900612D01*
X226751121Y-56900611D01*
X226715391Y-56871288D01*
X226613956Y-56788044D01*
X226530712Y-56686609D01*
X226501389Y-56650879D01*
X226437205Y-56530800D01*
X226417743Y-56494390D01*
X226400573Y-56437789D01*
X226366234Y-56324588D01*
X226348842Y-56148000D01*
X226366234Y-55971412D01*
X226417743Y-55801611D01*
X226417743Y-55801610D01*
X226501388Y-55645123D01*
X226501389Y-55645121D01*
X226530712Y-55609391D01*
X226613956Y-55507956D01*
X226715391Y-55424712D01*
X226751121Y-55395389D01*
X226769020Y-55385822D01*
X226907610Y-55311743D01*
X226964211Y-55294573D01*
X227077412Y-55260234D01*
X227165638Y-55251545D01*
X227209750Y-55247200D01*
X227298250Y-55247200D01*
X227342362Y-55251545D01*
X227342362Y-55251545D01*
G37*
G36*
X225614800Y-57048800D02*
X223813200Y-57048800D01*
X223813200Y-55247200D01*
X225614800Y-55247200D01*
X225614800Y-57048800D01*
X225614800Y-57048800D01*
G37*
G36*
X125840800Y-56948800D02*
X123739200Y-56948800D01*
X123739200Y-55347200D01*
X125840800Y-55347200D01*
X125840800Y-56948800D01*
X125840800Y-56948800D01*
G37*
G36*
X202378800Y-56530800D02*
X189997200Y-56530800D01*
X189997200Y-54929200D01*
X202378800Y-54929200D01*
X202378800Y-56530800D01*
X202378800Y-56530800D01*
G37*
G36*
X122777800Y-56478800D02*
X121926200Y-56478800D01*
X121926200Y-55177200D01*
X122777800Y-55177200D01*
X122777800Y-56478800D01*
X122777800Y-56478800D01*
G37*
G36*
X108190800Y-55490800D02*
X106089200Y-55490800D01*
X106089200Y-53889200D01*
X108190800Y-53889200D01*
X108190800Y-55490800D01*
X108190800Y-55490800D01*
G37*
G36*
X104025800Y-55330800D02*
X103174200Y-55330800D01*
X103174200Y-54029200D01*
X104025800Y-54029200D01*
X104025800Y-55330800D01*
X104025800Y-55330800D01*
G37*
G36*
X125840800Y-54648800D02*
X123739200Y-54648800D01*
X123739200Y-53047200D01*
X125840800Y-53047200D01*
X125840800Y-54648800D01*
X125840800Y-54648800D01*
G37*
G36*
X122777800Y-54578800D02*
X121926200Y-54578800D01*
X121926200Y-53277200D01*
X122777800Y-53277200D01*
X122777800Y-54578800D01*
X122777800Y-54578800D01*
G37*
G36*
X114490800Y-54340800D02*
X112389200Y-54340800D01*
X112389200Y-50439200D01*
X114490800Y-50439200D01*
X114490800Y-54340800D01*
X114490800Y-54340800D01*
G37*
G36*
X118172800Y-53492800D02*
X116371200Y-53492800D01*
X116371200Y-51691200D01*
X118172800Y-51691200D01*
X118172800Y-53492800D01*
X118172800Y-53492800D01*
G37*
G36*
X104025800Y-53430800D02*
X103174200Y-53430800D01*
X103174200Y-52129200D01*
X104025800Y-52129200D01*
X104025800Y-53430800D01*
X104025800Y-53430800D01*
G37*
G36*
X108190800Y-53190800D02*
X106089200Y-53190800D01*
X106089200Y-51589200D01*
X108190800Y-51589200D01*
X108190800Y-53190800D01*
X108190800Y-53190800D01*
G37*
G36*
X165950362Y-51173545D02*
X166038588Y-51182234D01*
X166151789Y-51216573D01*
X166208390Y-51233743D01*
X166292608Y-51278759D01*
X166364879Y-51317389D01*
X166400609Y-51346712D01*
X166502044Y-51429956D01*
X166554438Y-51493800D01*
X166614611Y-51567121D01*
X166614612Y-51567123D01*
X166698257Y-51723610D01*
X166698257Y-51723611D01*
X166749766Y-51893412D01*
X166767158Y-52070000D01*
X166749766Y-52246588D01*
X166736354Y-52290800D01*
X166698257Y-52416390D01*
X166624178Y-52554980D01*
X166614611Y-52572879D01*
X166585288Y-52608609D01*
X166502044Y-52710044D01*
X166400609Y-52793288D01*
X166364879Y-52822611D01*
X166364877Y-52822612D01*
X166208390Y-52906257D01*
X166151789Y-52923427D01*
X166038588Y-52957766D01*
X165950362Y-52966455D01*
X165906250Y-52970800D01*
X165817750Y-52970800D01*
X165773638Y-52966455D01*
X165685412Y-52957766D01*
X165572211Y-52923427D01*
X165515610Y-52906257D01*
X165359123Y-52822612D01*
X165359121Y-52822611D01*
X165323391Y-52793288D01*
X165221956Y-52710044D01*
X165138712Y-52608609D01*
X165109389Y-52572879D01*
X165099822Y-52554980D01*
X165025743Y-52416390D01*
X164987646Y-52290800D01*
X164974234Y-52246588D01*
X164956842Y-52070000D01*
X164974234Y-51893412D01*
X165025743Y-51723611D01*
X165025743Y-51723610D01*
X165109388Y-51567123D01*
X165109389Y-51567121D01*
X165169562Y-51493800D01*
X165221956Y-51429956D01*
X165323391Y-51346712D01*
X165359121Y-51317389D01*
X165431392Y-51278759D01*
X165515610Y-51233743D01*
X165572211Y-51216573D01*
X165685412Y-51182234D01*
X165773638Y-51173545D01*
X165817750Y-51169200D01*
X165906250Y-51169200D01*
X165950362Y-51173545D01*
X165950362Y-51173545D01*
G37*
G36*
X171030362Y-51173545D02*
X171118588Y-51182234D01*
X171231789Y-51216573D01*
X171288390Y-51233743D01*
X171372608Y-51278759D01*
X171444879Y-51317389D01*
X171480609Y-51346712D01*
X171582044Y-51429956D01*
X171634438Y-51493800D01*
X171694611Y-51567121D01*
X171694612Y-51567123D01*
X171778257Y-51723610D01*
X171778257Y-51723611D01*
X171829766Y-51893412D01*
X171847158Y-52070000D01*
X171829766Y-52246588D01*
X171816354Y-52290800D01*
X171778257Y-52416390D01*
X171704178Y-52554980D01*
X171694611Y-52572879D01*
X171665288Y-52608609D01*
X171582044Y-52710044D01*
X171480609Y-52793288D01*
X171444879Y-52822611D01*
X171444877Y-52822612D01*
X171288390Y-52906257D01*
X171231789Y-52923427D01*
X171118588Y-52957766D01*
X171030362Y-52966455D01*
X170986250Y-52970800D01*
X170897750Y-52970800D01*
X170853638Y-52966455D01*
X170765412Y-52957766D01*
X170652211Y-52923427D01*
X170595610Y-52906257D01*
X170439123Y-52822612D01*
X170439121Y-52822611D01*
X170403391Y-52793288D01*
X170301956Y-52710044D01*
X170218712Y-52608609D01*
X170189389Y-52572879D01*
X170179822Y-52554980D01*
X170105743Y-52416390D01*
X170067646Y-52290800D01*
X170054234Y-52246588D01*
X170036842Y-52070000D01*
X170054234Y-51893412D01*
X170105743Y-51723611D01*
X170105743Y-51723610D01*
X170189388Y-51567123D01*
X170189389Y-51567121D01*
X170249562Y-51493800D01*
X170301956Y-51429956D01*
X170403391Y-51346712D01*
X170439121Y-51317389D01*
X170511392Y-51278759D01*
X170595610Y-51233743D01*
X170652211Y-51216573D01*
X170765412Y-51182234D01*
X170853638Y-51173545D01*
X170897750Y-51169200D01*
X170986250Y-51169200D01*
X171030362Y-51173545D01*
X171030362Y-51173545D01*
G37*
G36*
X174382800Y-52970800D02*
X172581200Y-52970800D01*
X172581200Y-51169200D01*
X174382800Y-51169200D01*
X174382800Y-52970800D01*
X174382800Y-52970800D01*
G37*
G36*
X168490362Y-51173545D02*
X168578588Y-51182234D01*
X168691789Y-51216573D01*
X168748390Y-51233743D01*
X168832608Y-51278759D01*
X168904879Y-51317389D01*
X168940609Y-51346712D01*
X169042044Y-51429956D01*
X169094438Y-51493800D01*
X169154611Y-51567121D01*
X169154612Y-51567123D01*
X169238257Y-51723610D01*
X169238257Y-51723611D01*
X169289766Y-51893412D01*
X169307158Y-52070000D01*
X169289766Y-52246588D01*
X169276354Y-52290800D01*
X169238257Y-52416390D01*
X169164178Y-52554980D01*
X169154611Y-52572879D01*
X169125288Y-52608609D01*
X169042044Y-52710044D01*
X168940609Y-52793288D01*
X168904879Y-52822611D01*
X168904877Y-52822612D01*
X168748390Y-52906257D01*
X168691789Y-52923427D01*
X168578588Y-52957766D01*
X168490362Y-52966455D01*
X168446250Y-52970800D01*
X168357750Y-52970800D01*
X168313638Y-52966455D01*
X168225412Y-52957766D01*
X168112211Y-52923427D01*
X168055610Y-52906257D01*
X167899123Y-52822612D01*
X167899121Y-52822611D01*
X167863391Y-52793288D01*
X167761956Y-52710044D01*
X167678712Y-52608609D01*
X167649389Y-52572879D01*
X167639822Y-52554980D01*
X167565743Y-52416390D01*
X167527646Y-52290800D01*
X167514234Y-52246588D01*
X167496842Y-52070000D01*
X167514234Y-51893412D01*
X167565743Y-51723611D01*
X167565743Y-51723610D01*
X167649388Y-51567123D01*
X167649389Y-51567121D01*
X167709562Y-51493800D01*
X167761956Y-51429956D01*
X167863391Y-51346712D01*
X167899121Y-51317389D01*
X167971392Y-51278759D01*
X168055610Y-51233743D01*
X168112211Y-51216573D01*
X168225412Y-51182234D01*
X168313638Y-51173545D01*
X168357750Y-51169200D01*
X168446250Y-51169200D01*
X168490362Y-51173545D01*
X168490362Y-51173545D01*
G37*
G36*
X105485800Y-52840800D02*
X104634200Y-52840800D01*
X104634200Y-51539200D01*
X105485800Y-51539200D01*
X105485800Y-52840800D01*
X105485800Y-52840800D01*
G37*
G36*
X201245800Y-52430800D02*
X200394200Y-52430800D01*
X200394200Y-51129200D01*
X201245800Y-51129200D01*
X201245800Y-52430800D01*
X201245800Y-52430800D01*
G37*
G36*
X195025800Y-52390800D02*
X194174200Y-52390800D01*
X194174200Y-51089200D01*
X195025800Y-51089200D01*
X195025800Y-52390800D01*
X195025800Y-52390800D01*
G37*
G36*
X199560800Y-52290800D02*
X198059200Y-52290800D01*
X198059200Y-50989200D01*
X199560800Y-50989200D01*
X199560800Y-52290800D01*
X199560800Y-52290800D01*
G37*
G36*
X197360800Y-52290800D02*
X195859200Y-52290800D01*
X195859200Y-50989200D01*
X197360800Y-50989200D01*
X197360800Y-52290800D01*
X197360800Y-52290800D01*
G37*
G36*
X227387528Y-48035240D02*
X227387531Y-48035241D01*
X227387530Y-48035241D01*
X227766576Y-48192246D01*
X228086546Y-48406043D01*
X228107711Y-48420185D01*
X228397815Y-48710289D01*
X228397817Y-48710292D01*
X228625754Y-49051424D01*
X228698308Y-49226586D01*
X228782760Y-49430472D01*
X228862800Y-49832861D01*
X228862800Y-50243139D01*
X228782760Y-50645528D01*
X228782759Y-50645530D01*
X228625754Y-51024576D01*
X228529119Y-51169200D01*
X228397815Y-51365711D01*
X228107711Y-51655815D01*
X228107708Y-51655817D01*
X227766576Y-51883754D01*
X227473400Y-52005191D01*
X227387528Y-52040760D01*
X226985139Y-52120800D01*
X226574861Y-52120800D01*
X226172472Y-52040760D01*
X226086600Y-52005191D01*
X225793424Y-51883754D01*
X225452292Y-51655817D01*
X225452289Y-51655815D01*
X225162185Y-51365711D01*
X225030881Y-51169200D01*
X224934246Y-51024576D01*
X224777241Y-50645530D01*
X224777240Y-50645528D01*
X224697200Y-50243139D01*
X224697200Y-49832861D01*
X224777240Y-49430472D01*
X224861692Y-49226586D01*
X224934246Y-49051424D01*
X225162183Y-48710292D01*
X225162185Y-48710289D01*
X225452289Y-48420185D01*
X225473454Y-48406043D01*
X225793424Y-48192246D01*
X226172470Y-48035241D01*
X226172469Y-48035241D01*
X226172472Y-48035240D01*
X226574861Y-47955200D01*
X226985139Y-47955200D01*
X227387528Y-48035240D01*
X227387528Y-48035240D01*
G37*
G36*
X192786800Y-51493800D02*
X191485200Y-51493800D01*
X191485200Y-50642200D01*
X192786800Y-50642200D01*
X192786800Y-51493800D01*
X192786800Y-51493800D01*
G37*
G36*
X190886800Y-51493800D02*
X189585200Y-51493800D01*
X189585200Y-50642200D01*
X190886800Y-50642200D01*
X190886800Y-51493800D01*
X190886800Y-51493800D01*
G37*
G36*
X99921528Y-47273240D02*
X99921531Y-47273241D01*
X99921530Y-47273241D01*
X100300576Y-47430246D01*
X100300577Y-47430247D01*
X100641711Y-47658185D01*
X100931815Y-47948289D01*
X100931817Y-47948292D01*
X101159754Y-48289424D01*
X101254686Y-48518611D01*
X101316760Y-48668472D01*
X101396800Y-49070861D01*
X101396800Y-49481139D01*
X101316760Y-49883528D01*
X101300327Y-49923200D01*
X101159754Y-50262576D01*
X100964445Y-50554877D01*
X100931815Y-50603711D01*
X100641711Y-50893815D01*
X100641708Y-50893817D01*
X100300576Y-51121754D01*
X100186030Y-51169200D01*
X99921528Y-51278760D01*
X99519139Y-51358800D01*
X99108861Y-51358800D01*
X98706472Y-51278760D01*
X98441970Y-51169200D01*
X98327424Y-51121754D01*
X97986292Y-50893817D01*
X97986289Y-50893815D01*
X97696185Y-50603711D01*
X97663555Y-50554877D01*
X97468246Y-50262576D01*
X97327673Y-49923200D01*
X97311240Y-49883528D01*
X97231200Y-49481139D01*
X97231200Y-49070861D01*
X97311240Y-48668472D01*
X97373314Y-48518611D01*
X97468246Y-48289424D01*
X97696183Y-47948292D01*
X97696185Y-47948289D01*
X97986289Y-47658185D01*
X98327423Y-47430247D01*
X98327424Y-47430246D01*
X98706470Y-47273241D01*
X98706469Y-47273241D01*
X98706472Y-47273240D01*
X99108861Y-47193200D01*
X99519139Y-47193200D01*
X99921528Y-47273240D01*
X99921528Y-47273240D01*
G37*
G36*
X180204800Y-51104800D02*
X179203200Y-51104800D01*
X179203200Y-49803200D01*
X180204800Y-49803200D01*
X180204800Y-51104800D01*
X180204800Y-51104800D01*
G37*
G36*
X182592800Y-51090800D02*
X181491200Y-51090800D01*
X181491200Y-49989200D01*
X182592800Y-49989200D01*
X182592800Y-51090800D01*
X182592800Y-51090800D01*
G37*
G36*
X184644800Y-51024800D02*
X183543200Y-51024800D01*
X183543200Y-49923200D01*
X184644800Y-49923200D01*
X184644800Y-51024800D01*
X184644800Y-51024800D01*
G37*
G36*
X187144800Y-51024800D02*
X186043200Y-51024800D01*
X186043200Y-49923200D01*
X187144800Y-49923200D01*
X187144800Y-51024800D01*
X187144800Y-51024800D01*
G37*
G36*
X125354800Y-50985800D02*
X124053200Y-50985800D01*
X124053200Y-50134200D01*
X125354800Y-50134200D01*
X125354800Y-50985800D01*
X125354800Y-50985800D01*
G37*
G36*
X127254800Y-50985800D02*
X125953200Y-50985800D01*
X125953200Y-50134200D01*
X127254800Y-50134200D01*
X127254800Y-50985800D01*
X127254800Y-50985800D01*
G37*
G36*
X117360362Y-49155545D02*
X117448588Y-49164234D01*
X117530889Y-49189200D01*
X117618390Y-49215743D01*
X117755817Y-49289200D01*
X117774879Y-49299389D01*
X117810609Y-49328712D01*
X117912044Y-49411956D01*
X117995288Y-49513391D01*
X118024611Y-49549121D01*
X118024612Y-49549123D01*
X118108257Y-49705610D01*
X118108257Y-49705611D01*
X118159766Y-49875412D01*
X118177158Y-50052000D01*
X118159766Y-50228588D01*
X118149455Y-50262577D01*
X118108257Y-50398390D01*
X118086443Y-50439200D01*
X118024611Y-50554879D01*
X117995288Y-50590609D01*
X117912044Y-50692044D01*
X117810609Y-50775288D01*
X117774879Y-50804611D01*
X117774877Y-50804612D01*
X117618390Y-50888257D01*
X117561789Y-50905427D01*
X117448588Y-50939766D01*
X117360362Y-50948455D01*
X117316250Y-50952800D01*
X117227750Y-50952800D01*
X117183638Y-50948455D01*
X117095412Y-50939766D01*
X116982211Y-50905427D01*
X116925610Y-50888257D01*
X116769123Y-50804612D01*
X116769121Y-50804611D01*
X116733391Y-50775288D01*
X116631956Y-50692044D01*
X116548712Y-50590609D01*
X116519389Y-50554879D01*
X116457557Y-50439200D01*
X116435743Y-50398390D01*
X116394545Y-50262577D01*
X116384234Y-50228588D01*
X116366842Y-50052000D01*
X116384234Y-49875412D01*
X116435743Y-49705611D01*
X116435743Y-49705610D01*
X116519388Y-49549123D01*
X116519389Y-49549121D01*
X116548712Y-49513391D01*
X116631956Y-49411956D01*
X116733391Y-49328712D01*
X116769121Y-49299389D01*
X116788183Y-49289200D01*
X116925610Y-49215743D01*
X117013111Y-49189200D01*
X117095412Y-49164234D01*
X117183638Y-49155545D01*
X117227750Y-49151200D01*
X117316250Y-49151200D01*
X117360362Y-49155545D01*
X117360362Y-49155545D01*
G37*
G36*
X105485800Y-50940800D02*
X104634200Y-50940800D01*
X104634200Y-49639200D01*
X105485800Y-49639200D01*
X105485800Y-50940800D01*
X105485800Y-50940800D01*
G37*
G36*
X108190800Y-50890800D02*
X106089200Y-50890800D01*
X106089200Y-49289200D01*
X108190800Y-49289200D01*
X108190800Y-50890800D01*
X108190800Y-50890800D01*
G37*
G36*
X197360800Y-50590800D02*
X195859200Y-50590800D01*
X195859200Y-49289200D01*
X197360800Y-49289200D01*
X197360800Y-50590800D01*
X197360800Y-50590800D01*
G37*
G36*
X199560800Y-50590800D02*
X198059200Y-50590800D01*
X198059200Y-49289200D01*
X199560800Y-49289200D01*
X199560800Y-50590800D01*
X199560800Y-50590800D01*
G37*
G36*
X201245800Y-50530800D02*
X200394200Y-50530800D01*
X200394200Y-49229200D01*
X201245800Y-49229200D01*
X201245800Y-50530800D01*
X201245800Y-50530800D01*
G37*
G36*
X195025800Y-50490800D02*
X194174200Y-50490800D01*
X194174200Y-49189200D01*
X195025800Y-49189200D01*
X195025800Y-50490800D01*
X195025800Y-50490800D01*
G37*
G36*
X135375800Y-49950800D02*
X133574200Y-49950800D01*
X133574200Y-48149200D01*
X135375800Y-48149200D01*
X135375800Y-49950800D01*
X135375800Y-49950800D01*
G37*
G36*
X137103362Y-48153545D02*
X137191588Y-48162234D01*
X137290523Y-48192246D01*
X137361390Y-48213743D01*
X137464537Y-48268877D01*
X137517879Y-48297389D01*
X137553609Y-48326712D01*
X137655044Y-48409956D01*
X137738288Y-48511391D01*
X137767611Y-48547121D01*
X137767612Y-48547123D01*
X137851257Y-48703610D01*
X137851257Y-48703611D01*
X137902766Y-48873412D01*
X137920158Y-49050000D01*
X137902766Y-49226588D01*
X137880682Y-49299388D01*
X137851257Y-49396390D01*
X137805958Y-49481138D01*
X137767611Y-49552879D01*
X137738288Y-49588609D01*
X137655044Y-49690044D01*
X137553609Y-49773288D01*
X137517879Y-49802611D01*
X137517877Y-49802612D01*
X137361390Y-49886257D01*
X137304789Y-49903427D01*
X137191588Y-49937766D01*
X137103362Y-49946455D01*
X137059250Y-49950800D01*
X136970750Y-49950800D01*
X136926638Y-49946455D01*
X136838412Y-49937766D01*
X136725211Y-49903427D01*
X136668610Y-49886257D01*
X136512123Y-49802612D01*
X136512121Y-49802611D01*
X136476391Y-49773288D01*
X136374956Y-49690044D01*
X136291712Y-49588609D01*
X136262389Y-49552879D01*
X136224042Y-49481138D01*
X136178743Y-49396390D01*
X136149318Y-49299388D01*
X136127234Y-49226588D01*
X136109842Y-49050000D01*
X136127234Y-48873412D01*
X136178743Y-48703611D01*
X136178743Y-48703610D01*
X136262388Y-48547123D01*
X136262389Y-48547121D01*
X136291712Y-48511391D01*
X136374956Y-48409956D01*
X136476391Y-48326712D01*
X136512121Y-48297389D01*
X136565463Y-48268877D01*
X136668610Y-48213743D01*
X136739477Y-48192246D01*
X136838412Y-48162234D01*
X136926638Y-48153545D01*
X136970750Y-48149200D01*
X137059250Y-48149200D01*
X137103362Y-48153545D01*
X137103362Y-48153545D01*
G37*
G36*
X180204800Y-48904800D02*
X179203200Y-48904800D01*
X179203200Y-47603200D01*
X180204800Y-47603200D01*
X180204800Y-48904800D01*
X180204800Y-48904800D01*
G37*
G36*
X129552362Y-46869545D02*
X129640588Y-46878234D01*
X129753789Y-46912573D01*
X129810390Y-46929743D01*
X129948980Y-47003822D01*
X129966879Y-47013389D01*
X130002609Y-47042712D01*
X130104044Y-47125956D01*
X130187288Y-47227391D01*
X130216611Y-47263121D01*
X130216612Y-47263123D01*
X130300257Y-47419610D01*
X130317427Y-47476211D01*
X130351766Y-47589412D01*
X130369158Y-47766000D01*
X130351766Y-47942588D01*
X130347940Y-47955200D01*
X130300257Y-48112390D01*
X130257572Y-48192247D01*
X130216611Y-48268879D01*
X130199751Y-48289423D01*
X130104044Y-48406044D01*
X130002609Y-48489288D01*
X129966879Y-48518611D01*
X129966877Y-48518612D01*
X129810390Y-48602257D01*
X129753789Y-48619427D01*
X129640588Y-48653766D01*
X129552362Y-48662455D01*
X129508250Y-48666800D01*
X129419750Y-48666800D01*
X129375638Y-48662455D01*
X129287412Y-48653766D01*
X129174211Y-48619427D01*
X129117610Y-48602257D01*
X128961123Y-48518612D01*
X128961121Y-48518611D01*
X128925391Y-48489288D01*
X128823956Y-48406044D01*
X128728249Y-48289423D01*
X128711389Y-48268879D01*
X128670428Y-48192247D01*
X128627743Y-48112390D01*
X128580060Y-47955200D01*
X128576234Y-47942588D01*
X128558842Y-47766000D01*
X128576234Y-47589412D01*
X128610573Y-47476211D01*
X128627743Y-47419610D01*
X128711388Y-47263123D01*
X128711389Y-47263121D01*
X128740712Y-47227391D01*
X128823956Y-47125956D01*
X128925391Y-47042712D01*
X128961121Y-47013389D01*
X128979020Y-47003822D01*
X129117610Y-46929743D01*
X129174211Y-46912573D01*
X129287412Y-46878234D01*
X129375638Y-46869545D01*
X129419750Y-46865200D01*
X129508250Y-46865200D01*
X129552362Y-46869545D01*
X129552362Y-46869545D01*
G37*
G36*
X127824800Y-48666800D02*
X126023200Y-48666800D01*
X126023200Y-46865200D01*
X127824800Y-46865200D01*
X127824800Y-48666800D01*
X127824800Y-48666800D01*
G37*
G36*
X182592800Y-48590800D02*
X181491200Y-48590800D01*
X181491200Y-47489200D01*
X182592800Y-47489200D01*
X182592800Y-48590800D01*
X182592800Y-48590800D01*
G37*
M02*
