G04 #@! TF.GenerationSoftware,KiCad,Pcbnew,(5.0.2)-1*
G04 #@! TF.CreationDate,2019-06-08T23:38:06+03:00*
G04 #@! TF.ProjectId,AVB switch with Can gateway,41564220-7377-4697-9463-682077697468,v01*
G04 #@! TF.SameCoordinates,Original*
G04 #@! TF.FileFunction,Copper,L1,Top*
G04 #@! TF.FilePolarity,Positive*
%FSLAX46Y46*%
G04 Gerber Fmt 4.6, Leading zero omitted, Abs format (unit mm)*
G04 Created by KiCad (PCBNEW (5.0.2)-1) date 6/8/2019 11:38:06 PM*
%MOMM*%
%LPD*%
G01*
G04 APERTURE LIST*
G04 #@! TA.AperFunction,SMDPad,CuDef*
%ADD10R,1.000000X1.000000*%
G04 #@! TD*
G04 #@! TA.AperFunction,SMDPad,CuDef*
%ADD11R,0.750000X1.200000*%
G04 #@! TD*
G04 #@! TA.AperFunction,SMDPad,CuDef*
%ADD12R,1.200000X0.750000*%
G04 #@! TD*
G04 #@! TA.AperFunction,SMDPad,CuDef*
%ADD13R,1.400000X1.200000*%
G04 #@! TD*
G04 #@! TA.AperFunction,ComponentPad*
%ADD14O,1.700000X1.700000*%
G04 #@! TD*
G04 #@! TA.AperFunction,ComponentPad*
%ADD15R,1.700000X1.700000*%
G04 #@! TD*
G04 #@! TA.AperFunction,SMDPad,CuDef*
%ADD16R,1.200000X0.900000*%
G04 #@! TD*
G04 #@! TA.AperFunction,SMDPad,CuDef*
%ADD17R,2.000000X1.500000*%
G04 #@! TD*
G04 #@! TA.AperFunction,SMDPad,CuDef*
%ADD18R,2.000000X3.800000*%
G04 #@! TD*
G04 #@! TA.AperFunction,SMDPad,CuDef*
%ADD19R,0.280000X1.500000*%
G04 #@! TD*
G04 #@! TA.AperFunction,SMDPad,CuDef*
%ADD20R,1.500000X0.280000*%
G04 #@! TD*
G04 #@! TA.AperFunction,SMDPad,CuDef*
%ADD21R,0.900000X1.200000*%
G04 #@! TD*
G04 #@! TA.AperFunction,ComponentPad*
%ADD22C,4.064000*%
G04 #@! TD*
G04 #@! TA.AperFunction,ComponentPad*
%ADD23C,3.300000*%
G04 #@! TD*
G04 #@! TA.AperFunction,ComponentPad*
%ADD24C,3.000000*%
G04 #@! TD*
G04 #@! TA.AperFunction,ComponentPad*
%ADD25C,2.000000*%
G04 #@! TD*
G04 #@! TA.AperFunction,ComponentPad*
%ADD26C,1.700000*%
G04 #@! TD*
G04 #@! TA.AperFunction,ComponentPad*
%ADD27R,1.800000X1.800000*%
G04 #@! TD*
G04 #@! TA.AperFunction,SMDPad,CuDef*
%ADD28R,10.000000X10.000000*%
G04 #@! TD*
G04 #@! TA.AperFunction,SMDPad,CuDef*
%ADD29R,0.240000X1.560000*%
G04 #@! TD*
G04 #@! TA.AperFunction,SMDPad,CuDef*
%ADD30R,1.560000X0.240000*%
G04 #@! TD*
G04 #@! TA.AperFunction,SMDPad,CuDef*
%ADD31R,0.600000X1.550000*%
G04 #@! TD*
G04 #@! TA.AperFunction,ViaPad*
%ADD32C,0.450000*%
G04 #@! TD*
G04 #@! TA.AperFunction,ViaPad*
%ADD33C,0.500000*%
G04 #@! TD*
G04 #@! TA.AperFunction,ViaPad*
%ADD34C,0.600000*%
G04 #@! TD*
G04 #@! TA.AperFunction,ViaPad*
%ADD35C,0.800000*%
G04 #@! TD*
G04 #@! TA.AperFunction,Conductor*
%ADD36C,0.250000*%
G04 #@! TD*
G04 #@! TA.AperFunction,Conductor*
%ADD37C,0.200000*%
G04 #@! TD*
G04 #@! TA.AperFunction,Conductor*
%ADD38C,0.150000*%
G04 #@! TD*
G04 #@! TA.AperFunction,Conductor*
%ADD39C,0.700000*%
G04 #@! TD*
G04 #@! TA.AperFunction,Conductor*
%ADD40C,0.151000*%
G04 #@! TD*
G04 #@! TA.AperFunction,Conductor*
%ADD41C,0.089000*%
G04 #@! TD*
G04 #@! TA.AperFunction,Conductor*
%ADD42C,1.300000*%
G04 #@! TD*
G04 APERTURE END LIST*
D10*
G04 #@! TO.P,D4,2*
G04 #@! TO.N,Net-(C4-Pad1)*
X182042000Y-50540000D03*
G04 #@! TO.P,D4,1*
G04 #@! TO.N,+3V3*
X182042000Y-48040000D03*
G04 #@! TD*
G04 #@! TO.P,D5,2*
G04 #@! TO.N,Net-(C4-Pad1)*
X184094000Y-50474000D03*
G04 #@! TO.P,D5,1*
G04 #@! TO.N,/mcu_stm32/RESET_N*
X186594000Y-50474000D03*
G04 #@! TD*
D11*
G04 #@! TO.P,FB6,2*
G04 #@! TO.N,Net-(FB6-Pad2)*
X161330000Y-79470000D03*
G04 #@! TO.P,FB6,1*
G04 #@! TO.N,/switch/AVDDH*
X161330000Y-77570000D03*
G04 #@! TD*
D12*
G04 #@! TO.P,FB5,1*
G04 #@! TO.N,Net-(FB5-Pad1)*
X124704000Y-50560000D03*
G04 #@! TO.P,FB5,2*
G04 #@! TO.N,/switch/VDDLS*
X126604000Y-50560000D03*
G04 #@! TD*
G04 #@! TO.P,FB3,2*
G04 #@! TO.N,/switch/AVDDL*
X120710000Y-65590000D03*
G04 #@! TO.P,FB3,1*
G04 #@! TO.N,Net-(FB3-Pad1)*
X118810000Y-65590000D03*
G04 #@! TD*
D11*
G04 #@! TO.P,FB2,1*
G04 #@! TO.N,Net-(FB2-Pad1)*
X214300000Y-66242000D03*
G04 #@! TO.P,FB2,2*
G04 #@! TO.N,VDD*
X214300000Y-64342000D03*
G04 #@! TD*
G04 #@! TO.P,R1,1*
G04 #@! TO.N,/mcu_stm32/BOOT*
X211506000Y-64342000D03*
G04 #@! TO.P,R1,2*
G04 #@! TO.N,GND*
X211506000Y-66242000D03*
G04 #@! TD*
G04 #@! TO.P,C79,2*
G04 #@! TO.N,GND*
X200820000Y-51780000D03*
G04 #@! TO.P,C79,1*
G04 #@! TO.N,Net-(C79-Pad1)*
X200820000Y-49880000D03*
G04 #@! TD*
G04 #@! TO.P,C80,1*
G04 #@! TO.N,Net-(C80-Pad1)*
X194600000Y-51740000D03*
G04 #@! TO.P,C80,2*
G04 #@! TO.N,GND*
X194600000Y-49840000D03*
G04 #@! TD*
D12*
G04 #@! TO.P,FB4,2*
G04 #@! TO.N,/switch/DVDDL*
X120960000Y-73990000D03*
G04 #@! TO.P,FB4,1*
G04 #@! TO.N,Net-(FB4-Pad1)*
X119060000Y-73990000D03*
G04 #@! TD*
D13*
G04 #@! TO.P,Y2,4*
G04 #@! TO.N,GND*
X196610000Y-49940000D03*
G04 #@! TO.P,Y2,3*
G04 #@! TO.N,Net-(C79-Pad1)*
X198810000Y-49940000D03*
G04 #@! TO.P,Y2,2*
G04 #@! TO.N,GND*
X198810000Y-51640000D03*
G04 #@! TO.P,Y2,1*
G04 #@! TO.N,Net-(C80-Pad1)*
X196610000Y-51640000D03*
G04 #@! TD*
D14*
G04 #@! TO.P,J16,2*
G04 #@! TO.N,Net-(C4-Pad1)*
X129464000Y-47766000D03*
D15*
G04 #@! TO.P,J16,1*
G04 #@! TO.N,GND*
X126924000Y-47766000D03*
G04 #@! TD*
D16*
G04 #@! TO.P,R26,1*
G04 #@! TO.N,/LED5_1*
X129040000Y-62498000D03*
G04 #@! TO.P,R26,2*
G04 #@! TO.N,+3V3*
X126840000Y-62498000D03*
G04 #@! TD*
G04 #@! TO.P,R27,2*
G04 #@! TO.N,+3V3*
X126840000Y-60974000D03*
G04 #@! TO.P,R27,1*
G04 #@! TO.N,/LED5_0*
X129040000Y-60974000D03*
G04 #@! TD*
D15*
G04 #@! TO.P,J10,1*
G04 #@! TO.N,Net-(FB2-Pad1)*
X214300000Y-69356000D03*
D14*
G04 #@! TO.P,J10,2*
G04 #@! TO.N,+3V3*
X214300000Y-71896000D03*
G04 #@! TD*
D11*
G04 #@! TO.P,C6,2*
G04 #@! TO.N,GND*
X105060000Y-50290000D03*
G04 #@! TO.P,C6,1*
G04 #@! TO.N,VDDLS_IN*
X105060000Y-52190000D03*
G04 #@! TD*
G04 #@! TO.P,C78,1*
G04 #@! TO.N,VDDHS_IN*
X122352000Y-55828000D03*
G04 #@! TO.P,C78,2*
G04 #@! TO.N,GND*
X122352000Y-53928000D03*
G04 #@! TD*
G04 #@! TO.P,C77,2*
G04 #@! TO.N,GND*
X120574000Y-56468000D03*
G04 #@! TO.P,C77,1*
G04 #@! TO.N,+5V*
X120574000Y-58368000D03*
G04 #@! TD*
G04 #@! TO.P,C76,1*
G04 #@! TO.N,AVDDL_IN*
X103700000Y-61850000D03*
G04 #@! TO.P,C76,2*
G04 #@! TO.N,GND*
X103700000Y-59950000D03*
G04 #@! TD*
G04 #@! TO.P,C75,2*
G04 #@! TO.N,GND*
X102050000Y-62670000D03*
G04 #@! TO.P,C75,1*
G04 #@! TO.N,+5V*
X102050000Y-64570000D03*
G04 #@! TD*
G04 #@! TO.P,C5,1*
G04 #@! TO.N,+5V*
X102300000Y-74120000D03*
G04 #@! TO.P,C5,2*
G04 #@! TO.N,GND*
X102300000Y-72220000D03*
G04 #@! TD*
G04 #@! TO.P,C72,2*
G04 #@! TO.N,GND*
X228350000Y-70640000D03*
G04 #@! TO.P,C72,1*
G04 #@! TO.N,+5V*
X228350000Y-68740000D03*
G04 #@! TD*
G04 #@! TO.P,C71,1*
G04 #@! TO.N,DVDDL_IN*
X103910000Y-71440000D03*
G04 #@! TO.P,C71,2*
G04 #@! TO.N,GND*
X103910000Y-69540000D03*
G04 #@! TD*
G04 #@! TO.P,C70,2*
G04 #@! TO.N,GND*
X103600000Y-52780000D03*
G04 #@! TO.P,C70,1*
G04 #@! TO.N,+5V*
X103600000Y-54680000D03*
G04 #@! TD*
G04 #@! TO.P,C69,1*
G04 #@! TO.N,+3V3*
X226460000Y-71100000D03*
G04 #@! TO.P,C69,2*
G04 #@! TO.N,GND*
X226460000Y-73000000D03*
G04 #@! TD*
D14*
G04 #@! TO.P,J13,2*
G04 #@! TO.N,Net-(FB5-Pad1)*
X117272000Y-50052000D03*
D15*
G04 #@! TO.P,J13,1*
G04 #@! TO.N,VDDLS_IN*
X117272000Y-52592000D03*
G04 #@! TD*
D14*
G04 #@! TO.P,J11,2*
G04 #@! TO.N,Net-(FB3-Pad1)*
X116002000Y-63768000D03*
D15*
G04 #@! TO.P,J11,1*
G04 #@! TO.N,AVDDL_IN*
X116002000Y-61228000D03*
G04 #@! TD*
G04 #@! TO.P,J14,1*
G04 #@! TO.N,AVDDH_IN*
X168520000Y-76070000D03*
D14*
G04 #@! TO.P,J14,2*
G04 #@! TO.N,Net-(FB6-Pad2)*
X165980000Y-76070000D03*
G04 #@! TD*
G04 #@! TO.P,J15,2*
G04 #@! TO.N,/switch/VDDHS*
X137015000Y-49050000D03*
D15*
G04 #@! TO.P,J15,1*
G04 #@! TO.N,VDDHS_IN*
X134475000Y-49050000D03*
G04 #@! TD*
D14*
G04 #@! TO.P,J12,2*
G04 #@! TO.N,Net-(FB4-Pad1)*
X119065000Y-71150000D03*
D15*
G04 #@! TO.P,J12,1*
G04 #@! TO.N,DVDDL_IN*
X116525000Y-71150000D03*
G04 #@! TD*
D14*
G04 #@! TO.P,J5,4*
G04 #@! TO.N,/switch/Data_out_MISO_SPI*
X165862000Y-52070000D03*
G04 #@! TO.P,J5,3*
G04 #@! TO.N,/switch/Data_in_MOSI_SPI*
X168402000Y-52070000D03*
G04 #@! TO.P,J5,2*
G04 #@! TO.N,/mcu_stm32/SPI_CS*
X170942000Y-52070000D03*
D15*
G04 #@! TO.P,J5,1*
G04 #@! TO.N,/switch/SCL_SPI*
X173482000Y-52070000D03*
G04 #@! TD*
D17*
G04 #@! TO.P,U12,1*
G04 #@! TO.N,GND*
X124790000Y-53848000D03*
G04 #@! TO.P,U12,3*
G04 #@! TO.N,+5V*
X124790000Y-58448000D03*
G04 #@! TO.P,U12,2*
G04 #@! TO.N,VDDHS_IN*
X124790000Y-56148000D03*
D18*
G04 #@! TO.P,U12,4*
X131090000Y-56148000D03*
G04 #@! TD*
G04 #@! TO.P,U10,4*
G04 #@! TO.N,VDDLS_IN*
X113440000Y-52390000D03*
D17*
G04 #@! TO.P,U10,2*
X107140000Y-52390000D03*
G04 #@! TO.P,U10,3*
G04 #@! TO.N,+5V*
X107140000Y-54690000D03*
G04 #@! TO.P,U10,1*
G04 #@! TO.N,GND*
X107140000Y-50090000D03*
G04 #@! TD*
G04 #@! TO.P,U11,1*
G04 #@! TO.N,GND*
X105850000Y-59820000D03*
G04 #@! TO.P,U11,3*
G04 #@! TO.N,+5V*
X105850000Y-64420000D03*
G04 #@! TO.P,U11,2*
G04 #@! TO.N,AVDDL_IN*
X105850000Y-62120000D03*
D18*
G04 #@! TO.P,U11,4*
X112150000Y-62120000D03*
G04 #@! TD*
D19*
G04 #@! TO.P,U4,1*
G04 #@! TO.N,/mcu_stm32/ETH_TXD3*
X202188000Y-55730000D03*
G04 #@! TO.P,U4,2*
G04 #@! TO.N,Net-(U4-Pad2)*
X201688000Y-55730000D03*
G04 #@! TO.P,U4,3*
G04 #@! TO.N,Net-(U4-Pad3)*
X201188000Y-55730000D03*
G04 #@! TO.P,U4,4*
G04 #@! TO.N,Net-(U4-Pad4)*
X200688000Y-55730000D03*
G04 #@! TO.P,U4,5*
G04 #@! TO.N,Net-(U4-Pad5)*
X200188000Y-55730000D03*
G04 #@! TO.P,U4,6*
G04 #@! TO.N,VDD*
X199688000Y-55730000D03*
G04 #@! TO.P,U4,7*
G04 #@! TO.N,Net-(U4-Pad7)*
X199188000Y-55730000D03*
G04 #@! TO.P,U4,8*
G04 #@! TO.N,Net-(U4-Pad8)*
X198688000Y-55730000D03*
G04 #@! TO.P,U4,9*
G04 #@! TO.N,Net-(U4-Pad9)*
X198188000Y-55730000D03*
G04 #@! TO.P,U4,10*
G04 #@! TO.N,GND*
X197688000Y-55730000D03*
G04 #@! TO.P,U4,11*
G04 #@! TO.N,VDD*
X197188000Y-55730000D03*
G04 #@! TO.P,U4,12*
G04 #@! TO.N,Net-(C79-Pad1)*
X196688000Y-55730000D03*
G04 #@! TO.P,U4,13*
G04 #@! TO.N,Net-(C80-Pad1)*
X196188000Y-55730000D03*
G04 #@! TO.P,U4,14*
G04 #@! TO.N,/mcu_stm32/NRESET*
X195688000Y-55730000D03*
G04 #@! TO.P,U4,15*
G04 #@! TO.N,/mcu_stm32/RESET_N*
X195188000Y-55730000D03*
G04 #@! TO.P,U4,16*
G04 #@! TO.N,/mcu_stm32/ETH_MDC*
X194688000Y-55730000D03*
G04 #@! TO.P,U4,17*
G04 #@! TO.N,/mcu_stm32/ETH_TXD2*
X194188000Y-55730000D03*
G04 #@! TO.P,U4,18*
G04 #@! TO.N,/mcu_stm32/ETH_TX_CLK*
X193688000Y-55730000D03*
G04 #@! TO.P,U4,19*
G04 #@! TO.N,GND*
X193188000Y-55730000D03*
G04 #@! TO.P,U4,20*
G04 #@! TO.N,VDD*
X192688000Y-55730000D03*
G04 #@! TO.P,U4,21*
X192188000Y-55730000D03*
G04 #@! TO.P,U4,22*
G04 #@! TO.N,/mcu_stm32/ETH_CRS*
X191688000Y-55730000D03*
G04 #@! TO.P,U4,23*
G04 #@! TO.N,/mcu_stm32/ETH_RX_CLK*
X191188000Y-55730000D03*
G04 #@! TO.P,U4,24*
G04 #@! TO.N,/mcu_stm32/ETH_MDIO*
X190688000Y-55730000D03*
G04 #@! TO.P,U4,25*
G04 #@! TO.N,/mcu_stm32/ETH_COL*
X190188000Y-55730000D03*
D20*
G04 #@! TO.P,U4,26*
G04 #@! TO.N,GND*
X188288000Y-57630000D03*
G04 #@! TO.P,U4,27*
G04 #@! TO.N,VDD*
X188288000Y-58130000D03*
G04 #@! TO.P,U4,28*
G04 #@! TO.N,/mcu_stm32/SPI_CS*
X188288000Y-58630000D03*
G04 #@! TO.P,U4,29*
G04 #@! TO.N,/switch/SCL_SPI*
X188288000Y-59130000D03*
G04 #@! TO.P,U4,30*
G04 #@! TO.N,/switch/Data_out_MISO_SPI*
X188288000Y-59630000D03*
G04 #@! TO.P,U4,31*
G04 #@! TO.N,/mcu_stm32/ETH_RX_DV*
X188288000Y-60130000D03*
G04 #@! TO.P,U4,32*
G04 #@! TO.N,/mcu_stm32/ETH_RXD0*
X188288000Y-60630000D03*
G04 #@! TO.P,U4,33*
G04 #@! TO.N,/mcu_stm32/ETH_RXD1*
X188288000Y-61130000D03*
G04 #@! TO.P,U4,34*
G04 #@! TO.N,/mcu_stm32/ETH_RXD2*
X188288000Y-61630000D03*
G04 #@! TO.P,U4,35*
G04 #@! TO.N,/mcu_stm32/ETH_RXD3*
X188288000Y-62130000D03*
G04 #@! TO.P,U4,36*
G04 #@! TO.N,Net-(U4-Pad36)*
X188288000Y-62630000D03*
G04 #@! TO.P,U4,37*
G04 #@! TO.N,Net-(U4-Pad37)*
X188288000Y-63130000D03*
G04 #@! TO.P,U4,38*
G04 #@! TO.N,Net-(U4-Pad38)*
X188288000Y-63630000D03*
G04 #@! TO.P,U4,39*
G04 #@! TO.N,Net-(U4-Pad39)*
X188288000Y-64130000D03*
G04 #@! TO.P,U4,40*
G04 #@! TO.N,Net-(U4-Pad40)*
X188288000Y-64630000D03*
G04 #@! TO.P,U4,41*
G04 #@! TO.N,Net-(U4-Pad41)*
X188288000Y-65130000D03*
G04 #@! TO.P,U4,42*
G04 #@! TO.N,Net-(U4-Pad42)*
X188288000Y-65630000D03*
G04 #@! TO.P,U4,43*
G04 #@! TO.N,Net-(U4-Pad43)*
X188288000Y-66130000D03*
G04 #@! TO.P,U4,44*
G04 #@! TO.N,Net-(U4-Pad44)*
X188288000Y-66630000D03*
G04 #@! TO.P,U4,45*
G04 #@! TO.N,Net-(U4-Pad45)*
X188288000Y-67130000D03*
G04 #@! TO.P,U4,46*
G04 #@! TO.N,/mcu_stm32/ETH_RX_ER*
X188288000Y-67630000D03*
G04 #@! TO.P,U4,47*
G04 #@! TO.N,/mcu_stm32/ETH_TX_EN*
X188288000Y-68130000D03*
G04 #@! TO.P,U4,48*
G04 #@! TO.N,Net-(C16-Pad2)*
X188288000Y-68630000D03*
G04 #@! TO.P,U4,49*
G04 #@! TO.N,GND*
X188288000Y-69130000D03*
G04 #@! TO.P,U4,50*
G04 #@! TO.N,VDD*
X188288000Y-69630000D03*
D19*
G04 #@! TO.P,U4,51*
G04 #@! TO.N,/mcu_stm32/ETH_TXD0*
X190188000Y-71530000D03*
G04 #@! TO.P,U4,52*
G04 #@! TO.N,/mcu_stm32/ETH_TXD1*
X190688000Y-71530000D03*
G04 #@! TO.P,U4,53*
G04 #@! TO.N,/mcu_stm32/LED_1*
X191188000Y-71530000D03*
G04 #@! TO.P,U4,54*
G04 #@! TO.N,/mcu_stm32/LED_2*
X191688000Y-71530000D03*
G04 #@! TO.P,U4,55*
G04 #@! TO.N,Net-(U4-Pad55)*
X192188000Y-71530000D03*
G04 #@! TO.P,U4,56*
G04 #@! TO.N,Net-(U4-Pad56)*
X192688000Y-71530000D03*
G04 #@! TO.P,U4,57*
G04 #@! TO.N,Net-(U4-Pad57)*
X193188000Y-71530000D03*
G04 #@! TO.P,U4,58*
G04 #@! TO.N,Net-(U4-Pad58)*
X193688000Y-71530000D03*
G04 #@! TO.P,U4,59*
G04 #@! TO.N,Net-(U4-Pad59)*
X194188000Y-71530000D03*
G04 #@! TO.P,U4,60*
G04 #@! TO.N,Net-(U4-Pad60)*
X194688000Y-71530000D03*
G04 #@! TO.P,U4,61*
G04 #@! TO.N,Net-(U4-Pad61)*
X195188000Y-71530000D03*
G04 #@! TO.P,U4,62*
G04 #@! TO.N,Net-(U4-Pad62)*
X195688000Y-71530000D03*
G04 #@! TO.P,U4,63*
G04 #@! TO.N,/mcu_stm32/PWRDN*
X196188000Y-71530000D03*
G04 #@! TO.P,U4,64*
G04 #@! TO.N,Net-(U4-Pad64)*
X196688000Y-71530000D03*
G04 #@! TO.P,U4,65*
G04 #@! TO.N,Net-(U4-Pad65)*
X197188000Y-71530000D03*
G04 #@! TO.P,U4,66*
G04 #@! TO.N,Net-(U4-Pad66)*
X197688000Y-71530000D03*
G04 #@! TO.P,U4,67*
G04 #@! TO.N,/mcu_stm32/CAN3_RX*
X198188000Y-71530000D03*
G04 #@! TO.P,U4,68*
G04 #@! TO.N,Net-(U4-Pad68)*
X198688000Y-71530000D03*
G04 #@! TO.P,U4,69*
G04 #@! TO.N,Net-(U4-Pad69)*
X199188000Y-71530000D03*
G04 #@! TO.P,U4,70*
G04 #@! TO.N,Net-(U4-Pad70)*
X199688000Y-71530000D03*
G04 #@! TO.P,U4,71*
G04 #@! TO.N,Net-(U4-Pad71)*
X200188000Y-71530000D03*
G04 #@! TO.P,U4,72*
G04 #@! TO.N,/mcu_stm32/SYS_JTMSE_SWDIO*
X200688000Y-71530000D03*
G04 #@! TO.P,U4,73*
G04 #@! TO.N,Net-(C18-Pad1)*
X201188000Y-71530000D03*
G04 #@! TO.P,U4,74*
G04 #@! TO.N,GND*
X201688000Y-71530000D03*
G04 #@! TO.P,U4,75*
G04 #@! TO.N,VDD*
X202188000Y-71530000D03*
D20*
G04 #@! TO.P,U4,76*
G04 #@! TO.N,/mcu_stm32/SYS_JTCK_SWCLK*
X204088000Y-69630000D03*
G04 #@! TO.P,U4,77*
G04 #@! TO.N,/mcu_stm32/CAN3_TX*
X204088000Y-69130000D03*
G04 #@! TO.P,U4,78*
G04 #@! TO.N,Net-(U4-Pad78)*
X204088000Y-68630000D03*
G04 #@! TO.P,U4,79*
G04 #@! TO.N,Net-(U4-Pad79)*
X204088000Y-68130000D03*
G04 #@! TO.P,U4,80*
G04 #@! TO.N,Net-(U4-Pad80)*
X204088000Y-67630000D03*
G04 #@! TO.P,U4,81*
G04 #@! TO.N,/mcu_stm32/CAN1_RX*
X204088000Y-67130000D03*
G04 #@! TO.P,U4,82*
G04 #@! TO.N,/mcu_stm32/CAN1_TX*
X204088000Y-66630000D03*
G04 #@! TO.P,U4,83*
G04 #@! TO.N,Net-(U4-Pad83)*
X204088000Y-66130000D03*
G04 #@! TO.P,U4,84*
G04 #@! TO.N,Net-(U4-Pad84)*
X204088000Y-65630000D03*
G04 #@! TO.P,U4,85*
G04 #@! TO.N,Net-(U4-Pad85)*
X204088000Y-65130000D03*
G04 #@! TO.P,U4,86*
G04 #@! TO.N,Net-(U4-Pad86)*
X204088000Y-64630000D03*
G04 #@! TO.P,U4,87*
G04 #@! TO.N,Net-(U4-Pad87)*
X204088000Y-64130000D03*
G04 #@! TO.P,U4,88*
G04 #@! TO.N,/switch/Data_in_MOSI_SPI*
X204088000Y-63630000D03*
G04 #@! TO.P,U4,89*
G04 #@! TO.N,Net-(U4-Pad89)*
X204088000Y-63130000D03*
G04 #@! TO.P,U4,90*
G04 #@! TO.N,Net-(U4-Pad90)*
X204088000Y-62630000D03*
G04 #@! TO.P,U4,91*
G04 #@! TO.N,/mcu_stm32/CAN2_RX*
X204088000Y-62130000D03*
G04 #@! TO.P,U4,92*
G04 #@! TO.N,/mcu_stm32/CAN2_TX*
X204088000Y-61630000D03*
G04 #@! TO.P,U4,93*
G04 #@! TO.N,Net-(U4-Pad93)*
X204088000Y-61130000D03*
G04 #@! TO.P,U4,94*
G04 #@! TO.N,/mcu_stm32/BOOT*
X204088000Y-60630000D03*
G04 #@! TO.P,U4,95*
G04 #@! TO.N,Net-(U4-Pad95)*
X204088000Y-60130000D03*
G04 #@! TO.P,U4,96*
G04 #@! TO.N,Net-(U4-Pad96)*
X204088000Y-59630000D03*
G04 #@! TO.P,U4,97*
G04 #@! TO.N,/mcu_stm32/UART8_RX*
X204088000Y-59130000D03*
G04 #@! TO.P,U4,98*
G04 #@! TO.N,/mcu_stm32/UART8_TX*
X204088000Y-58630000D03*
G04 #@! TO.P,U4,99*
G04 #@! TO.N,GND*
X204088000Y-58130000D03*
G04 #@! TO.P,U4,100*
G04 #@! TO.N,VDD*
X204088000Y-57630000D03*
G04 #@! TD*
D13*
G04 #@! TO.P,Y1,4*
G04 #@! TO.N,GND*
X129264000Y-67864000D03*
G04 #@! TO.P,Y1,3*
G04 #@! TO.N,Net-(C66-Pad1)*
X131464000Y-67864000D03*
G04 #@! TO.P,Y1,2*
G04 #@! TO.N,GND*
X131464000Y-69564000D03*
G04 #@! TO.P,Y1,1*
G04 #@! TO.N,Net-(C67-Pad1)*
X129264000Y-69564000D03*
G04 #@! TD*
D21*
G04 #@! TO.P,R13,2*
G04 #@! TO.N,Net-(C4-Pad1)*
X179704000Y-50454000D03*
G04 #@! TO.P,R13,1*
G04 #@! TO.N,+3V3*
X179704000Y-48254000D03*
G04 #@! TD*
D22*
G04 #@! TO.P,H4,1*
G04 #@! TO.N,N/C*
X226780000Y-50038000D03*
G04 #@! TD*
G04 #@! TO.P,H3,1*
G04 #@! TO.N,N/C*
X226780000Y-95690000D03*
G04 #@! TD*
G04 #@! TO.P,H2,1*
G04 #@! TO.N,N/C*
X99314000Y-49276000D03*
G04 #@! TD*
G04 #@! TO.P,H1,1*
G04 #@! TO.N,N/C*
X98896999Y-96050000D03*
G04 #@! TD*
D23*
G04 #@! TO.P,J8,*
G04 #@! TO.N,*
X165485000Y-86050000D03*
X176915000Y-86050000D03*
D24*
X163325000Y-89940000D03*
X179075000Y-89940000D03*
D25*
G04 #@! TO.P,J8,11*
G04 #@! TO.N,Net-(J8-Pad11)*
X167385000Y-81940000D03*
G04 #@! TO.P,J8,10*
G04 #@! TO.N,/LED4_0*
X175015000Y-81940000D03*
G04 #@! TO.P,J8,12*
G04 #@! TO.N,/LED4_1*
X164885000Y-81940000D03*
G04 #@! TO.P,J8,9*
G04 #@! TO.N,Net-(J8-Pad9)*
X177515000Y-81940000D03*
D26*
G04 #@! TO.P,J8,8*
G04 #@! TO.N,GNDPWR*
X166755000Y-94940000D03*
D27*
G04 #@! TO.P,J8,1*
G04 #@! TO.N,/RX4-*
X175645000Y-92400000D03*
D26*
G04 #@! TO.P,J8,3*
G04 #@! TO.N,/RX4+*
X173105000Y-92400000D03*
G04 #@! TO.P,J8,5*
G04 #@! TO.N,Net-(C13-Pad1)*
X170565000Y-92400000D03*
G04 #@! TO.P,J8,7*
G04 #@! TO.N,N/C*
X168025000Y-92400000D03*
G04 #@! TO.P,J8,6*
G04 #@! TO.N,/TX4+*
X169295000Y-94940000D03*
G04 #@! TO.P,J8,4*
G04 #@! TO.N,/TX4-*
X171835000Y-94940000D03*
G04 #@! TO.P,J8,2*
G04 #@! TO.N,Net-(C14-Pad1)*
X174375000Y-94940000D03*
G04 #@! TD*
D23*
G04 #@! TO.P,J7,*
G04 #@! TO.N,*
X145881666Y-86050000D03*
X157311666Y-86050000D03*
D24*
X143721666Y-89940000D03*
X159471666Y-89940000D03*
D25*
G04 #@! TO.P,J7,11*
G04 #@! TO.N,Net-(J7-Pad11)*
X147781666Y-81940000D03*
G04 #@! TO.P,J7,10*
G04 #@! TO.N,/LED3_0*
X155411666Y-81940000D03*
G04 #@! TO.P,J7,12*
G04 #@! TO.N,/LED3_1*
X145281666Y-81940000D03*
G04 #@! TO.P,J7,9*
G04 #@! TO.N,Net-(J7-Pad9)*
X157911666Y-81940000D03*
D26*
G04 #@! TO.P,J7,8*
G04 #@! TO.N,GNDPWR*
X147151666Y-94940000D03*
D27*
G04 #@! TO.P,J7,1*
G04 #@! TO.N,/RX3-*
X156041666Y-92400000D03*
D26*
G04 #@! TO.P,J7,3*
G04 #@! TO.N,/RX3+*
X153501666Y-92400000D03*
G04 #@! TO.P,J7,5*
G04 #@! TO.N,Net-(C10-Pad1)*
X150961666Y-92400000D03*
G04 #@! TO.P,J7,7*
G04 #@! TO.N,N/C*
X148421666Y-92400000D03*
G04 #@! TO.P,J7,6*
G04 #@! TO.N,/TX3+*
X149691666Y-94940000D03*
G04 #@! TO.P,J7,4*
G04 #@! TO.N,/TX3-*
X152231666Y-94940000D03*
G04 #@! TO.P,J7,2*
G04 #@! TO.N,Net-(C11-Pad1)*
X154771666Y-94940000D03*
G04 #@! TD*
D15*
G04 #@! TO.P,J9,1*
G04 #@! TO.N,/mcu_stm32/SYS_JTCK_SWCLK*
X224714000Y-56148000D03*
D14*
G04 #@! TO.P,J9,2*
G04 #@! TO.N,/mcu_stm32/SYS_JTMSE_SWDIO*
X227254000Y-56148000D03*
G04 #@! TO.P,J9,3*
G04 #@! TO.N,/mcu_stm32/UART8_RX*
X224714000Y-58688000D03*
G04 #@! TO.P,J9,4*
G04 #@! TO.N,/mcu_stm32/UART8_TX*
X227254000Y-58688000D03*
G04 #@! TO.P,J9,5*
G04 #@! TO.N,Net-(J9-Pad5)*
X224714000Y-61228000D03*
G04 #@! TO.P,J9,6*
G04 #@! TO.N,/mcu_stm32/NRESET*
X227254000Y-61228000D03*
G04 #@! TO.P,J9,7*
G04 #@! TO.N,Net-(J9-Pad7)*
X224714000Y-63768000D03*
G04 #@! TO.P,J9,8*
G04 #@! TO.N,GND*
X227254000Y-63768000D03*
G04 #@! TD*
D28*
G04 #@! TO.P,IC1,129*
G04 #@! TO.N,GND*
X149500000Y-64500000D03*
D29*
G04 #@! TO.P,IC1,96*
G04 #@! TO.N,Net-(C4-Pad1)*
X143300000Y-56820000D03*
G04 #@! TO.P,IC1,95*
G04 #@! TO.N,Net-(IC1-Pad95)*
X143700000Y-56820000D03*
G04 #@! TO.P,IC1,94*
G04 #@! TO.N,Net-(IC1-Pad94)*
X144100000Y-56820000D03*
G04 #@! TO.P,IC1,93*
G04 #@! TO.N,Net-(IC1-Pad93)*
X144500000Y-56820000D03*
G04 #@! TO.P,IC1,92*
G04 #@! TO.N,/LED2_1*
X144900000Y-56820000D03*
G04 #@! TO.P,IC1,91*
G04 #@! TO.N,/LED2_0*
X145300000Y-56820000D03*
G04 #@! TO.P,IC1,90*
G04 #@! TO.N,Net-(IC1-Pad90)*
X145700000Y-56820000D03*
G04 #@! TO.P,IC1,89*
G04 #@! TO.N,/LED3_1*
X146100000Y-56820000D03*
G04 #@! TO.P,IC1,88*
G04 #@! TO.N,/LED3_0*
X146500000Y-56820000D03*
G04 #@! TO.P,IC1,87*
G04 #@! TO.N,/switch/DVDDL*
X146900000Y-56820000D03*
G04 #@! TO.P,IC1,86*
G04 #@! TO.N,/LED4_1*
X147300000Y-56820000D03*
G04 #@! TO.P,IC1,85*
G04 #@! TO.N,/LED4_0*
X147700000Y-56820000D03*
G04 #@! TO.P,IC1,84*
G04 #@! TO.N,/switch/VDDLS*
X148100000Y-56820000D03*
G04 #@! TO.P,IC1,83*
G04 #@! TO.N,/switch/VDDHS*
X148500000Y-56820000D03*
G04 #@! TO.P,IC1,82*
G04 #@! TO.N,Net-(IC1-Pad82)*
X148900000Y-56820000D03*
G04 #@! TO.P,IC1,81*
G04 #@! TO.N,Net-(IC1-Pad81)*
X149300000Y-56820000D03*
G04 #@! TO.P,IC1,80*
G04 #@! TO.N,GND*
X149700000Y-56820000D03*
G04 #@! TO.P,IC1,79*
G04 #@! TO.N,Net-(IC1-Pad79)*
X150100000Y-56820000D03*
G04 #@! TO.P,IC1,78*
G04 #@! TO.N,Net-(IC1-Pad78)*
X150500000Y-56820000D03*
G04 #@! TO.P,IC1,77*
G04 #@! TO.N,GND*
X150900000Y-56820000D03*
G04 #@! TO.P,IC1,76*
G04 #@! TO.N,Net-(IC1-Pad76)*
X151300000Y-56820000D03*
G04 #@! TO.P,IC1,75*
G04 #@! TO.N,GND*
X151700000Y-56820000D03*
G04 #@! TO.P,IC1,74*
G04 #@! TO.N,Net-(IC1-Pad74)*
X152100000Y-56820000D03*
G04 #@! TO.P,IC1,73*
G04 #@! TO.N,Net-(IC1-Pad73)*
X152500000Y-56820000D03*
G04 #@! TO.P,IC1,72*
G04 #@! TO.N,/switch/VDDHS*
X152900000Y-56820000D03*
G04 #@! TO.P,IC1,71*
G04 #@! TO.N,/switch/VDDLS*
X153300000Y-56820000D03*
G04 #@! TO.P,IC1,70*
G04 #@! TO.N,/switch/DVDDL*
X153700000Y-56820000D03*
G04 #@! TO.P,IC1,69*
G04 #@! TO.N,GND*
X154100000Y-56820000D03*
G04 #@! TO.P,IC1,68*
G04 #@! TO.N,+3V3*
X154500000Y-56820000D03*
G04 #@! TO.P,IC1,67*
G04 #@! TO.N,Net-(IC1-Pad67)*
X154900000Y-56820000D03*
G04 #@! TO.P,IC1,66*
G04 #@! TO.N,/switch/DVDDL*
X155300000Y-56820000D03*
G04 #@! TO.P,IC1,65*
G04 #@! TO.N,/mcu_stm32/ETH_RXD0*
X155700000Y-56820000D03*
G04 #@! TO.P,IC1,32*
G04 #@! TO.N,Net-(IC1-Pad32)*
X155700000Y-72180000D03*
G04 #@! TO.P,IC1,31*
G04 #@! TO.N,Net-(IC1-Pad31)*
X155300000Y-72180000D03*
G04 #@! TO.P,IC1,30*
G04 #@! TO.N,/switch/AVDDL*
X154900000Y-72180000D03*
G04 #@! TO.P,IC1,29*
G04 #@! TO.N,Net-(IC1-Pad29)*
X154500000Y-72180000D03*
G04 #@! TO.P,IC1,28*
G04 #@! TO.N,Net-(IC1-Pad28)*
X154100000Y-72180000D03*
G04 #@! TO.P,IC1,27*
G04 #@! TO.N,/RX3-*
X153700000Y-72180000D03*
G04 #@! TO.P,IC1,26*
G04 #@! TO.N,/RX3+*
X153300000Y-72180000D03*
G04 #@! TO.P,IC1,25*
G04 #@! TO.N,/TX3-*
X152900000Y-72180000D03*
G04 #@! TO.P,IC1,24*
G04 #@! TO.N,/TX3+*
X152500000Y-72180000D03*
G04 #@! TO.P,IC1,23*
G04 #@! TO.N,/switch/DVDDL*
X152100000Y-72180000D03*
G04 #@! TO.P,IC1,22*
G04 #@! TO.N,/switch/AVDDH*
X151700000Y-72180000D03*
G04 #@! TO.P,IC1,21*
G04 #@! TO.N,Net-(IC1-Pad21)*
X151300000Y-72180000D03*
G04 #@! TO.P,IC1,20*
G04 #@! TO.N,Net-(IC1-Pad20)*
X150900000Y-72180000D03*
G04 #@! TO.P,IC1,19*
G04 #@! TO.N,/switch/AVDDL*
X150500000Y-72180000D03*
G04 #@! TO.P,IC1,18*
G04 #@! TO.N,Net-(IC1-Pad18)*
X150100000Y-72180000D03*
G04 #@! TO.P,IC1,17*
G04 #@! TO.N,Net-(IC1-Pad17)*
X149700000Y-72180000D03*
G04 #@! TO.P,IC1,16*
G04 #@! TO.N,/RX2-*
X149300000Y-72180000D03*
G04 #@! TO.P,IC1,15*
G04 #@! TO.N,/RX2+*
X148900000Y-72180000D03*
G04 #@! TO.P,IC1,14*
G04 #@! TO.N,/switch/AVDDL*
X148500000Y-72180000D03*
G04 #@! TO.P,IC1,13*
G04 #@! TO.N,/TX2-*
X148100000Y-72180000D03*
G04 #@! TO.P,IC1,12*
G04 #@! TO.N,/TX2+*
X147700000Y-72180000D03*
G04 #@! TO.P,IC1,11*
G04 #@! TO.N,/switch/DVDDL*
X147300000Y-72180000D03*
G04 #@! TO.P,IC1,10*
G04 #@! TO.N,/switch/AVDDH*
X146900000Y-72180000D03*
G04 #@! TO.P,IC1,9*
G04 #@! TO.N,Net-(IC1-Pad9)*
X146500000Y-72180000D03*
G04 #@! TO.P,IC1,8*
G04 #@! TO.N,Net-(IC1-Pad8)*
X146100000Y-72180000D03*
G04 #@! TO.P,IC1,7*
G04 #@! TO.N,Net-(IC1-Pad7)*
X145700000Y-72180000D03*
G04 #@! TO.P,IC1,6*
G04 #@! TO.N,Net-(IC1-Pad6)*
X145300000Y-72180000D03*
G04 #@! TO.P,IC1,5*
G04 #@! TO.N,/RX1-*
X144900000Y-72180000D03*
G04 #@! TO.P,IC1,4*
G04 #@! TO.N,/RX1+*
X144500000Y-72180000D03*
G04 #@! TO.P,IC1,3*
G04 #@! TO.N,/switch/AVDDL*
X144100000Y-72180000D03*
G04 #@! TO.P,IC1,2*
G04 #@! TO.N,/TX1-*
X143700000Y-72180000D03*
G04 #@! TO.P,IC1,1*
G04 #@! TO.N,/TX1+*
X143300000Y-72180000D03*
D30*
G04 #@! TO.P,IC1,128*
G04 #@! TO.N,/switch/AVDDH*
X141820000Y-70700000D03*
G04 #@! TO.P,IC1,127*
G04 #@! TO.N,Net-(IC1-Pad127)*
X141820000Y-70300000D03*
G04 #@! TO.P,IC1,126*
G04 #@! TO.N,Net-(C67-Pad1)*
X141820000Y-69900000D03*
G04 #@! TO.P,IC1,125*
G04 #@! TO.N,Net-(C66-Pad1)*
X141820000Y-69500000D03*
G04 #@! TO.P,IC1,124*
G04 #@! TO.N,/switch/AVDDL*
X141820000Y-69100000D03*
G04 #@! TO.P,IC1,123*
G04 #@! TO.N,GND*
X141820000Y-68700000D03*
G04 #@! TO.P,IC1,122*
G04 #@! TO.N,/switch/AVDDH*
X141820000Y-68300000D03*
G04 #@! TO.P,IC1,121*
G04 #@! TO.N,Net-(IC1-Pad121)*
X141820000Y-67900000D03*
G04 #@! TO.P,IC1,120*
G04 #@! TO.N,Net-(IC1-Pad120)*
X141820000Y-67500000D03*
G04 #@! TO.P,IC1,119*
G04 #@! TO.N,/switch/AVDDL*
X141820000Y-67100000D03*
G04 #@! TO.P,IC1,118*
G04 #@! TO.N,Net-(IC1-Pad118)*
X141820000Y-66700000D03*
G04 #@! TO.P,IC1,117*
G04 #@! TO.N,Net-(IC1-Pad117)*
X141820000Y-66300000D03*
G04 #@! TO.P,IC1,116*
G04 #@! TO.N,/RX5-*
X141820000Y-65900000D03*
G04 #@! TO.P,IC1,115*
G04 #@! TO.N,/RX5+*
X141820000Y-65500000D03*
G04 #@! TO.P,IC1,114*
G04 #@! TO.N,/switch/AVDDL*
X141820000Y-65100000D03*
G04 #@! TO.P,IC1,113*
G04 #@! TO.N,/TX5-*
X141820000Y-64700000D03*
G04 #@! TO.P,IC1,112*
G04 #@! TO.N,/TX5+*
X141820000Y-64300000D03*
G04 #@! TO.P,IC1,111*
G04 #@! TO.N,/switch/AVDDH*
X141820000Y-63900000D03*
G04 #@! TO.P,IC1,110*
G04 #@! TO.N,/switch/DVDDL*
X141820000Y-63500000D03*
G04 #@! TO.P,IC1,109*
G04 #@! TO.N,GND*
X141820000Y-63100000D03*
G04 #@! TO.P,IC1,108*
G04 #@! TO.N,Net-(IC1-Pad108)*
X141820000Y-62700000D03*
G04 #@! TO.P,IC1,107*
G04 #@! TO.N,GND*
X141820000Y-62300000D03*
G04 #@! TO.P,IC1,106*
G04 #@! TO.N,/switch/LED1_1*
X141820000Y-61900000D03*
G04 #@! TO.P,IC1,105*
G04 #@! TO.N,/switch/LED1_0*
X141820000Y-61500000D03*
G04 #@! TO.P,IC1,104*
G04 #@! TO.N,/switch/DVDDL*
X141820000Y-61100000D03*
G04 #@! TO.P,IC1,103*
G04 #@! TO.N,/LED5_1*
X141820000Y-60700000D03*
G04 #@! TO.P,IC1,102*
G04 #@! TO.N,/LED5_0*
X141820000Y-60300000D03*
G04 #@! TO.P,IC1,101*
G04 #@! TO.N,/switch/SCL_SPI*
X141820000Y-59900000D03*
G04 #@! TO.P,IC1,100*
G04 #@! TO.N,/mcu_stm32/SPI_CS*
X141820000Y-59500000D03*
G04 #@! TO.P,IC1,99*
G04 #@! TO.N,+3V3*
X141820000Y-59100000D03*
G04 #@! TO.P,IC1,98*
G04 #@! TO.N,/switch/Data_in_MOSI_SPI*
X141820000Y-58700000D03*
G04 #@! TO.P,IC1,97*
G04 #@! TO.N,/switch/Data_out_MISO_SPI*
X141820000Y-58300000D03*
G04 #@! TO.P,IC1,64*
G04 #@! TO.N,/mcu_stm32/ETH_RXD1*
X157180000Y-58300000D03*
G04 #@! TO.P,IC1,63*
G04 #@! TO.N,/mcu_stm32/ETH_RXD2*
X157180000Y-58700000D03*
G04 #@! TO.P,IC1,62*
G04 #@! TO.N,/mcu_stm32/ETH_RXD3*
X157180000Y-59100000D03*
G04 #@! TO.P,IC1,61*
G04 #@! TO.N,+3V3*
X157180000Y-59500000D03*
G04 #@! TO.P,IC1,60*
G04 #@! TO.N,/mcu_stm32/ETH_CRS*
X157180000Y-59900000D03*
G04 #@! TO.P,IC1,59*
G04 #@! TO.N,/mcu_stm32/ETH_RX_ER*
X157180000Y-60300000D03*
G04 #@! TO.P,IC1,58*
G04 #@! TO.N,/mcu_stm32/ETH_RX_DV*
X157180000Y-60700000D03*
G04 #@! TO.P,IC1,57*
G04 #@! TO.N,/mcu_stm32/ETH_RX_CLK*
X157180000Y-61100000D03*
G04 #@! TO.P,IC1,56*
G04 #@! TO.N,/switch/DVDDL*
X157180000Y-61500000D03*
G04 #@! TO.P,IC1,55*
G04 #@! TO.N,/mcu_stm32/ETH_TXD0*
X157180000Y-61900000D03*
G04 #@! TO.P,IC1,54*
G04 #@! TO.N,/mcu_stm32/ETH_TXD1*
X157180000Y-62300000D03*
G04 #@! TO.P,IC1,53*
G04 #@! TO.N,/mcu_stm32/ETH_TXD2*
X157180000Y-62700000D03*
G04 #@! TO.P,IC1,52*
G04 #@! TO.N,/mcu_stm32/ETH_TXD3*
X157180000Y-63100000D03*
G04 #@! TO.P,IC1,51*
G04 #@! TO.N,/mcu_stm32/ETH_COL*
X157180000Y-63500000D03*
G04 #@! TO.P,IC1,50*
G04 #@! TO.N,Net-(IC1-Pad50)*
X157180000Y-63900000D03*
G04 #@! TO.P,IC1,49*
G04 #@! TO.N,/mcu_stm32/ETH_TX_EN*
X157180000Y-64300000D03*
G04 #@! TO.P,IC1,48*
G04 #@! TO.N,/mcu_stm32/ETH_TX_CLK*
X157180000Y-64700000D03*
G04 #@! TO.P,IC1,47*
G04 #@! TO.N,GND*
X157180000Y-65100000D03*
G04 #@! TO.P,IC1,46*
X157180000Y-65500000D03*
G04 #@! TO.P,IC1,45*
G04 #@! TO.N,/switch/DVDDL*
X157180000Y-65900000D03*
G04 #@! TO.P,IC1,44*
G04 #@! TO.N,/switch/AVDDH*
X157180000Y-66300000D03*
G04 #@! TO.P,IC1,43*
G04 #@! TO.N,Net-(IC1-Pad43)*
X157180000Y-66700000D03*
G04 #@! TO.P,IC1,42*
G04 #@! TO.N,Net-(IC1-Pad42)*
X157180000Y-67100000D03*
G04 #@! TO.P,IC1,41*
G04 #@! TO.N,/switch/AVDDL*
X157180000Y-67500000D03*
G04 #@! TO.P,IC1,40*
G04 #@! TO.N,Net-(IC1-Pad40)*
X157180000Y-67900000D03*
G04 #@! TO.P,IC1,39*
G04 #@! TO.N,Net-(IC1-Pad39)*
X157180000Y-68300000D03*
G04 #@! TO.P,IC1,38*
G04 #@! TO.N,/RX4-*
X157180000Y-68700000D03*
G04 #@! TO.P,IC1,37*
G04 #@! TO.N,/RX4+*
X157180000Y-69100000D03*
G04 #@! TO.P,IC1,36*
G04 #@! TO.N,/switch/AVDDL*
X157180000Y-69500000D03*
G04 #@! TO.P,IC1,35*
G04 #@! TO.N,/TX4-*
X157180000Y-69900000D03*
G04 #@! TO.P,IC1,34*
G04 #@! TO.N,/TX4+*
X157180000Y-70300000D03*
G04 #@! TO.P,IC1,33*
G04 #@! TO.N,/switch/AVDDH*
X157180000Y-70700000D03*
G04 #@! TD*
D23*
G04 #@! TO.P,J6,*
G04 #@! TO.N,*
X126278333Y-86050000D03*
X137708333Y-86050000D03*
D24*
X124118333Y-89940000D03*
X139868333Y-89940000D03*
D25*
G04 #@! TO.P,J6,11*
G04 #@! TO.N,Net-(J6-Pad11)*
X128178333Y-81940000D03*
G04 #@! TO.P,J6,10*
G04 #@! TO.N,/LED2_0*
X135808333Y-81940000D03*
G04 #@! TO.P,J6,12*
G04 #@! TO.N,/LED2_1*
X125678333Y-81940000D03*
G04 #@! TO.P,J6,9*
G04 #@! TO.N,Net-(J6-Pad9)*
X138308333Y-81940000D03*
D26*
G04 #@! TO.P,J6,8*
G04 #@! TO.N,GNDPWR*
X127548333Y-94940000D03*
D27*
G04 #@! TO.P,J6,1*
G04 #@! TO.N,/RX2-*
X136438333Y-92400000D03*
D26*
G04 #@! TO.P,J6,3*
G04 #@! TO.N,/RX2+*
X133898333Y-92400000D03*
G04 #@! TO.P,J6,5*
G04 #@! TO.N,Net-(C7-Pad1)*
X131358333Y-92400000D03*
G04 #@! TO.P,J6,7*
G04 #@! TO.N,N/C*
X128818333Y-92400000D03*
G04 #@! TO.P,J6,6*
G04 #@! TO.N,/TX2+*
X130088333Y-94940000D03*
G04 #@! TO.P,J6,4*
G04 #@! TO.N,/TX2-*
X132628333Y-94940000D03*
G04 #@! TO.P,J6,2*
G04 #@! TO.N,Net-(C8-Pad1)*
X135168333Y-94940000D03*
G04 #@! TD*
D23*
G04 #@! TO.P,J4,*
G04 #@! TO.N,*
X106675000Y-86050000D03*
X118105000Y-86050000D03*
D24*
X104515000Y-89940000D03*
X120265000Y-89940000D03*
D25*
G04 #@! TO.P,J4,11*
G04 #@! TO.N,Net-(J4-Pad11)*
X108575000Y-81940000D03*
G04 #@! TO.P,J4,10*
G04 #@! TO.N,/switch/LED1_0*
X116205000Y-81940000D03*
G04 #@! TO.P,J4,12*
G04 #@! TO.N,/switch/LED1_1*
X106075000Y-81940000D03*
G04 #@! TO.P,J4,9*
G04 #@! TO.N,Net-(J4-Pad9)*
X118705000Y-81940000D03*
D26*
G04 #@! TO.P,J4,8*
G04 #@! TO.N,GNDPWR*
X107945000Y-94940000D03*
D27*
G04 #@! TO.P,J4,1*
G04 #@! TO.N,/RX1-*
X116835000Y-92400000D03*
D26*
G04 #@! TO.P,J4,3*
G04 #@! TO.N,/RX1+*
X114295000Y-92400000D03*
G04 #@! TO.P,J4,5*
G04 #@! TO.N,Net-(C1-Pad1)*
X111755000Y-92400000D03*
G04 #@! TO.P,J4,7*
G04 #@! TO.N,N/C*
X109215000Y-92400000D03*
G04 #@! TO.P,J4,6*
G04 #@! TO.N,/TX1+*
X110485000Y-94940000D03*
G04 #@! TO.P,J4,4*
G04 #@! TO.N,/TX1-*
X113025000Y-94940000D03*
G04 #@! TO.P,J4,2*
G04 #@! TO.N,Net-(C2-Pad1)*
X115565000Y-94940000D03*
G04 #@! TD*
D12*
G04 #@! TO.P,C16,1*
G04 #@! TO.N,GND*
X183380000Y-69500000D03*
G04 #@! TO.P,C16,2*
G04 #@! TO.N,Net-(C16-Pad2)*
X185280000Y-69500000D03*
G04 #@! TD*
G04 #@! TO.P,C17,1*
G04 #@! TO.N,/mcu_stm32/NRESET*
X192136000Y-51068000D03*
G04 #@! TO.P,C17,2*
G04 #@! TO.N,GND*
X190236000Y-51068000D03*
G04 #@! TD*
G04 #@! TO.P,C18,1*
G04 #@! TO.N,Net-(C18-Pad1)*
X201534000Y-74182000D03*
G04 #@! TO.P,C18,2*
G04 #@! TO.N,GND*
X199634000Y-74182000D03*
G04 #@! TD*
D11*
G04 #@! TO.P,C19,1*
G04 #@! TO.N,GND*
X211500000Y-58700000D03*
G04 #@! TO.P,C19,2*
G04 #@! TO.N,VDD*
X211500000Y-56800000D03*
G04 #@! TD*
D12*
G04 #@! TO.P,C20,1*
G04 #@! TO.N,GND*
X183290000Y-71850000D03*
G04 #@! TO.P,C20,2*
G04 #@! TO.N,VDD*
X185190000Y-71850000D03*
G04 #@! TD*
G04 #@! TO.P,C21,1*
G04 #@! TO.N,GND*
X183770000Y-57130000D03*
G04 #@! TO.P,C21,2*
G04 #@! TO.N,VDD*
X185670000Y-57130000D03*
G04 #@! TD*
G04 #@! TO.P,C22,2*
G04 #@! TO.N,VDD*
X205598000Y-73928000D03*
G04 #@! TO.P,C22,1*
G04 #@! TO.N,GND*
X203698000Y-73928000D03*
G04 #@! TD*
D11*
G04 #@! TO.P,C25,1*
G04 #@! TO.N,GND*
X207900000Y-58700000D03*
G04 #@! TO.P,C25,2*
G04 #@! TO.N,VDD*
X207900000Y-56800000D03*
G04 #@! TD*
D12*
G04 #@! TO.P,C26,1*
G04 #@! TO.N,+3V3*
X200350000Y-76600000D03*
G04 #@! TO.P,C26,2*
G04 #@! TO.N,GND*
X202250000Y-76600000D03*
G04 #@! TD*
G04 #@! TO.P,C27,1*
G04 #@! TO.N,+3V3*
X214200000Y-77100000D03*
G04 #@! TO.P,C27,2*
G04 #@! TO.N,GND*
X216100000Y-77100000D03*
G04 #@! TD*
G04 #@! TO.P,C28,1*
G04 #@! TO.N,+3V3*
X186750000Y-76800000D03*
G04 #@! TO.P,C28,2*
G04 #@! TO.N,GND*
X188650000Y-76800000D03*
G04 #@! TD*
D11*
G04 #@! TO.P,C32,1*
G04 #@! TO.N,/switch/DVDDL*
X123070000Y-73740000D03*
G04 #@! TO.P,C32,2*
G04 #@! TO.N,GND*
X123070000Y-71840000D03*
G04 #@! TD*
G04 #@! TO.P,C42,1*
G04 #@! TO.N,/switch/AVDDL*
X123010000Y-65740000D03*
G04 #@! TO.P,C42,2*
G04 #@! TO.N,GND*
X123010000Y-67640000D03*
G04 #@! TD*
D12*
G04 #@! TO.P,C52,1*
G04 #@! TO.N,/switch/AVDDH*
X161300000Y-75660000D03*
G04 #@! TO.P,C52,2*
G04 #@! TO.N,GND*
X163200000Y-75660000D03*
G04 #@! TD*
G04 #@! TO.P,C55,1*
G04 #@! TO.N,/switch/AVDDH*
X160950000Y-73275000D03*
G04 #@! TO.P,C55,2*
G04 #@! TO.N,GND*
X162850000Y-73275000D03*
G04 #@! TD*
G04 #@! TO.P,C56,1*
G04 #@! TO.N,/switch/AVDDH*
X160950000Y-67200000D03*
G04 #@! TO.P,C56,2*
G04 #@! TO.N,GND*
X162850000Y-67200000D03*
G04 #@! TD*
G04 #@! TO.P,C66,1*
G04 #@! TO.N,Net-(C66-Pad1)*
X131078000Y-66262000D03*
G04 #@! TO.P,C66,2*
G04 #@! TO.N,GND*
X129178000Y-66262000D03*
G04 #@! TD*
G04 #@! TO.P,C67,1*
G04 #@! TO.N,Net-(C67-Pad1)*
X129310000Y-71342000D03*
G04 #@! TO.P,C67,2*
G04 #@! TO.N,GND*
X131210000Y-71342000D03*
G04 #@! TD*
D25*
G04 #@! TO.P,J1,~*
G04 #@! TO.N,N/C*
X219892000Y-90590000D03*
X210892000Y-90590000D03*
G04 #@! TO.P,J1,1*
G04 #@! TO.N,+5V*
X216892000Y-94530000D03*
G04 #@! TO.P,J1,2*
G04 #@! TO.N,GND*
X213892000Y-94530000D03*
G04 #@! TO.P,J1,3*
G04 #@! TO.N,/CAN1+*
X216892000Y-91530000D03*
G04 #@! TO.P,J1,4*
G04 #@! TO.N,/CAN1-*
X213892000Y-91530000D03*
G04 #@! TD*
G04 #@! TO.P,J2,~*
G04 #@! TO.N,N/C*
X191952000Y-90590000D03*
X182952000Y-90590000D03*
G04 #@! TO.P,J2,1*
G04 #@! TO.N,+5V*
X188952000Y-94530000D03*
G04 #@! TO.P,J2,2*
G04 #@! TO.N,GND*
X185952000Y-94530000D03*
G04 #@! TO.P,J2,3*
G04 #@! TO.N,/CAN2+*
X188952000Y-91530000D03*
G04 #@! TO.P,J2,4*
G04 #@! TO.N,/CAN2-*
X185952000Y-91530000D03*
G04 #@! TD*
G04 #@! TO.P,J3,~*
G04 #@! TO.N,N/C*
X205922000Y-90590000D03*
X196922000Y-90590000D03*
G04 #@! TO.P,J3,1*
G04 #@! TO.N,+5V*
X202922000Y-94530000D03*
G04 #@! TO.P,J3,2*
G04 #@! TO.N,GND*
X199922000Y-94530000D03*
G04 #@! TO.P,J3,3*
G04 #@! TO.N,/CAN3+*
X202922000Y-91530000D03*
G04 #@! TO.P,J3,4*
G04 #@! TO.N,/CAN3-*
X199922000Y-91530000D03*
G04 #@! TD*
D16*
G04 #@! TO.P,R3,1*
G04 #@! TO.N,GND*
X136110000Y-70770000D03*
G04 #@! TO.P,R3,2*
G04 #@! TO.N,Net-(IC1-Pad127)*
X138310000Y-70770000D03*
G04 #@! TD*
D21*
G04 #@! TO.P,R4,1*
G04 #@! TO.N,Net-(R4-Pad1)*
X205800000Y-83100000D03*
G04 #@! TO.P,R4,2*
G04 #@! TO.N,GND*
X205800000Y-80900000D03*
G04 #@! TD*
D16*
G04 #@! TO.P,R5,1*
G04 #@! TO.N,Net-(R5-Pad1)*
X219296000Y-85104000D03*
G04 #@! TO.P,R5,2*
G04 #@! TO.N,GND*
X221496000Y-85104000D03*
G04 #@! TD*
D21*
G04 #@! TO.P,R6,1*
G04 #@! TO.N,Net-(R6-Pad1)*
X192200000Y-82900000D03*
G04 #@! TO.P,R6,2*
G04 #@! TO.N,GND*
X192200000Y-80700000D03*
G04 #@! TD*
G04 #@! TO.P,R7,1*
G04 #@! TO.N,Net-(R7-Pad1)*
X196600000Y-82800000D03*
G04 #@! TO.P,R7,2*
G04 #@! TO.N,+3V3*
X196600000Y-80600000D03*
G04 #@! TD*
G04 #@! TO.P,R8,1*
G04 #@! TO.N,Net-(R8-Pad1)*
X210600000Y-82900000D03*
G04 #@! TO.P,R8,2*
G04 #@! TO.N,+3V3*
X210600000Y-80700000D03*
G04 #@! TD*
G04 #@! TO.P,R9,1*
G04 #@! TO.N,Net-(R9-Pad1)*
X183300000Y-82900000D03*
G04 #@! TO.P,R9,2*
G04 #@! TO.N,+3V3*
X183300000Y-80700000D03*
G04 #@! TD*
D31*
G04 #@! TO.P,U5,1*
G04 #@! TO.N,/mcu_stm32/CAN3_TX*
X203073000Y-79258000D03*
G04 #@! TO.P,U5,2*
G04 #@! TO.N,GND*
X201803000Y-79258000D03*
G04 #@! TO.P,U5,3*
G04 #@! TO.N,+3V3*
X200533000Y-79258000D03*
G04 #@! TO.P,U5,4*
G04 #@! TO.N,/mcu_stm32/CAN3_RX*
X199263000Y-79258000D03*
G04 #@! TO.P,U5,5*
G04 #@! TO.N,Net-(R7-Pad1)*
X199263000Y-84658000D03*
G04 #@! TO.P,U5,6*
G04 #@! TO.N,/CAN3-*
X200533000Y-84658000D03*
G04 #@! TO.P,U5,7*
G04 #@! TO.N,/CAN3+*
X201803000Y-84658000D03*
G04 #@! TO.P,U5,8*
G04 #@! TO.N,Net-(R4-Pad1)*
X203073000Y-84658000D03*
G04 #@! TD*
G04 #@! TO.P,U6,1*
G04 #@! TO.N,/mcu_stm32/CAN1_TX*
X217043000Y-79512000D03*
G04 #@! TO.P,U6,2*
G04 #@! TO.N,GND*
X215773000Y-79512000D03*
G04 #@! TO.P,U6,3*
G04 #@! TO.N,+3V3*
X214503000Y-79512000D03*
G04 #@! TO.P,U6,4*
G04 #@! TO.N,/mcu_stm32/CAN1_RX*
X213233000Y-79512000D03*
G04 #@! TO.P,U6,5*
G04 #@! TO.N,Net-(R8-Pad1)*
X213233000Y-84912000D03*
G04 #@! TO.P,U6,6*
G04 #@! TO.N,/CAN1-*
X214503000Y-84912000D03*
G04 #@! TO.P,U6,7*
G04 #@! TO.N,/CAN1+*
X215773000Y-84912000D03*
G04 #@! TO.P,U6,8*
G04 #@! TO.N,Net-(R5-Pad1)*
X217043000Y-84912000D03*
G04 #@! TD*
G04 #@! TO.P,U7,1*
G04 #@! TO.N,/mcu_stm32/CAN2_TX*
X189611000Y-79258000D03*
G04 #@! TO.P,U7,2*
G04 #@! TO.N,GND*
X188341000Y-79258000D03*
G04 #@! TO.P,U7,3*
G04 #@! TO.N,+3V3*
X187071000Y-79258000D03*
G04 #@! TO.P,U7,4*
G04 #@! TO.N,/mcu_stm32/CAN2_RX*
X185801000Y-79258000D03*
G04 #@! TO.P,U7,5*
G04 #@! TO.N,Net-(R9-Pad1)*
X185801000Y-84658000D03*
G04 #@! TO.P,U7,6*
G04 #@! TO.N,/CAN2-*
X187071000Y-84658000D03*
G04 #@! TO.P,U7,7*
G04 #@! TO.N,/CAN2+*
X188341000Y-84658000D03*
G04 #@! TO.P,U7,8*
G04 #@! TO.N,Net-(R6-Pad1)*
X189611000Y-84658000D03*
G04 #@! TD*
D18*
G04 #@! TO.P,U1,4*
G04 #@! TO.N,+3V3*
X217630000Y-70840000D03*
D17*
G04 #@! TO.P,U1,2*
X223930000Y-70840000D03*
G04 #@! TO.P,U1,3*
G04 #@! TO.N,+5V*
X223930000Y-68540000D03*
G04 #@! TO.P,U1,1*
G04 #@! TO.N,GND*
X223930000Y-73140000D03*
G04 #@! TD*
D18*
G04 #@! TO.P,U2,4*
G04 #@! TO.N,DVDDL_IN*
X112490000Y-71590000D03*
D17*
G04 #@! TO.P,U2,2*
X106190000Y-71590000D03*
G04 #@! TO.P,U2,3*
G04 #@! TO.N,+5V*
X106190000Y-73890000D03*
G04 #@! TO.P,U2,1*
G04 #@! TO.N,GND*
X106190000Y-69290000D03*
G04 #@! TD*
D16*
G04 #@! TO.P,R10,1*
G04 #@! TO.N,/CAN3-*
X200000000Y-87600000D03*
G04 #@! TO.P,R10,2*
G04 #@! TO.N,/CAN3+*
X202200000Y-87600000D03*
G04 #@! TD*
G04 #@! TO.P,R11,1*
G04 #@! TO.N,/CAN1-*
X214100000Y-87700000D03*
G04 #@! TO.P,R11,2*
G04 #@! TO.N,/CAN1+*
X216300000Y-87700000D03*
G04 #@! TD*
G04 #@! TO.P,R12,1*
G04 #@! TO.N,/CAN2-*
X186500000Y-87600000D03*
G04 #@! TO.P,R12,2*
G04 #@! TO.N,/CAN2+*
X188700000Y-87600000D03*
G04 #@! TD*
D32*
G04 #@! TO.N,GND*
X153340000Y-68340000D03*
X150800000Y-68340000D03*
X148260000Y-68340000D03*
X145720000Y-68340000D03*
X145720000Y-67070000D03*
X148260000Y-67070000D03*
X150800000Y-67070000D03*
X153340000Y-67070000D03*
X153340000Y-65800000D03*
X150800000Y-65800000D03*
X148260000Y-65800000D03*
X145720000Y-65800000D03*
X145720000Y-64530000D03*
X148260000Y-64530000D03*
X150800000Y-64530000D03*
X153340000Y-64530000D03*
X153340000Y-63260000D03*
X150800000Y-63260000D03*
X148260000Y-63260000D03*
X145720000Y-63260000D03*
X145720000Y-61990000D03*
X148260000Y-61990000D03*
X150800000Y-61990000D03*
X153340000Y-61990000D03*
X153340000Y-60720000D03*
X150800000Y-60720000D03*
X148260000Y-60720000D03*
X145720000Y-60720000D03*
X165090000Y-73300000D03*
X149700000Y-55470000D03*
X150920000Y-55480000D03*
X151710000Y-55480000D03*
X140470000Y-62310000D03*
X140470000Y-63120000D03*
X193039994Y-60452000D03*
X198882000Y-59690000D03*
X197866000Y-54356000D03*
X193040000Y-54102000D03*
X209296000Y-58674000D03*
X207518000Y-74930000D03*
X182118000Y-56896000D03*
X134366000Y-59665000D03*
X164338000Y-66040000D03*
X143140000Y-68660000D03*
X154224124Y-55354124D03*
X136010000Y-57390000D03*
X132560000Y-85630000D03*
X149530000Y-46750000D03*
X152070000Y-46750000D03*
X154610000Y-46750000D03*
X157150000Y-46750000D03*
X159690000Y-46750000D03*
X211760000Y-46750000D03*
X215570000Y-46750000D03*
X218110000Y-46750000D03*
X221920000Y-46750000D03*
X154610000Y-77230000D03*
X149870000Y-77630000D03*
X158650000Y-77610000D03*
X166360000Y-55860000D03*
X161730000Y-54710000D03*
X170210000Y-56780000D03*
X167510000Y-63310000D03*
X164910000Y-63310000D03*
X172820000Y-56630000D03*
X184650000Y-62820000D03*
X185270000Y-64600000D03*
X182360000Y-67430000D03*
X173400000Y-67550000D03*
X166980000Y-67710000D03*
X165010000Y-67790000D03*
X146990000Y-46750000D03*
X144450000Y-46750000D03*
X141910000Y-46750000D03*
X102060000Y-61440000D03*
X103700000Y-58710000D03*
X103920000Y-68300000D03*
X102320000Y-71010000D03*
X103610000Y-51640000D03*
X105050000Y-49030000D03*
X201860000Y-51780000D03*
X193640000Y-49790000D03*
X124384000Y-71388000D03*
X124130000Y-67832000D03*
X122352000Y-52592000D03*
X120574000Y-55132000D03*
X210490000Y-58688000D03*
X211506000Y-67324000D03*
X188900000Y-50814000D03*
X131242000Y-64530000D03*
X131242000Y-63514000D03*
X131242000Y-72404000D03*
X132766000Y-72912000D03*
X129210000Y-65292000D03*
X123114000Y-70626000D03*
X121844000Y-67578000D03*
X123114000Y-68848000D03*
X110668000Y-86628000D03*
X226492000Y-74436000D03*
X227508000Y-73166000D03*
X228270000Y-71896000D03*
X149032876Y-77748876D03*
X133274000Y-73928000D03*
X164262000Y-74182000D03*
X180264000Y-69610000D03*
X217348000Y-76976000D03*
X222936000Y-85104000D03*
X189484000Y-75438000D03*
X207188000Y-84342000D03*
X193472000Y-84342000D03*
X170490000Y-59392010D03*
X167650000Y-59392010D03*
X199060000Y-75198000D03*
X203885988Y-75960000D03*
X203886000Y-74690000D03*
X182042000Y-69610000D03*
X182042000Y-71642000D03*
X127890000Y-67850000D03*
X132750000Y-69560000D03*
X198770000Y-52580000D03*
X196630000Y-48930000D03*
G04 #@! TO.N,Net-(C4-Pad1)*
X139446000Y-50292000D03*
X141986000Y-56388000D03*
G04 #@! TO.N,/mcu_stm32/NRESET*
X201600000Y-53354000D03*
X210236000Y-52084000D03*
X213792000Y-52084000D03*
X195230000Y-53790000D03*
G04 #@! TO.N,+3V3*
X177984000Y-47824000D03*
X155260000Y-53560000D03*
X161270000Y-59430000D03*
X134620000Y-58674000D03*
X158420000Y-53560000D03*
X139700000Y-58928000D03*
X213040000Y-77090000D03*
X211760000Y-51322000D03*
X211760000Y-50560000D03*
X211760000Y-49798000D03*
X214440000Y-75960000D03*
X200584000Y-82240000D03*
X213890000Y-81040000D03*
X213128000Y-81802000D03*
X207950000Y-82240000D03*
X194234000Y-82240000D03*
X188900000Y-82240000D03*
X187122000Y-82240000D03*
X183566000Y-79262000D03*
X184328000Y-76976000D03*
X199060000Y-76722000D03*
X196774000Y-79516000D03*
X210490000Y-79516000D03*
X183820000Y-47752000D03*
G04 #@! TO.N,/mcu_stm32/UART8_TX*
X212210004Y-60150002D03*
G04 #@! TO.N,/mcu_stm32/UART8_RX*
X212190002Y-60960000D03*
G04 #@! TO.N,/mcu_stm32/SYS_JTMSE_SWDIO*
X200700000Y-68790001D03*
G04 #@! TO.N,/mcu_stm32/SYS_JTCK_SWCLK*
X202190000Y-68600000D03*
G04 #@! TO.N,/switch/Data_in_MOSI_SPI*
X179230002Y-58950000D03*
X191262000Y-63754000D03*
X139700004Y-58166000D03*
G04 #@! TO.N,/mcu_stm32/CAN2_TX*
X210400000Y-67825000D03*
X210482713Y-70038030D03*
X190000000Y-77650000D03*
X210441158Y-76743141D03*
G04 #@! TO.N,/mcu_stm32/CAN2_RX*
X209800000Y-76850000D03*
X209758567Y-67391429D03*
X209825000Y-69600000D03*
X185780000Y-77919994D03*
G04 #@! TO.N,/mcu_stm32/SPI_CS*
X183388000Y-58420000D03*
G04 #@! TO.N,/mcu_stm32/ETH_TX_EN*
X169380000Y-68160000D03*
X186400000Y-68130000D03*
G04 #@! TO.N,/mcu_stm32/ETH_RX_DV*
X170980000Y-60980000D03*
X175242198Y-57105786D03*
G04 #@! TO.N,/mcu_stm32/ETH_COL*
X168678206Y-65911794D03*
X179910002Y-57150000D03*
G04 #@! TO.N,/mcu_stm32/ETH_RX_CLK*
X179324000Y-56642000D03*
X173736000Y-61468000D03*
G04 #@! TO.N,/mcu_stm32/ETH_CRS*
X178730000Y-55880000D03*
X174343934Y-59801952D03*
G04 #@! TO.N,/mcu_stm32/ETH_TX_CLK*
X165100000Y-64770000D03*
X178032000Y-55118000D03*
G04 #@! TO.N,/mcu_stm32/ETH_TXD2*
X160274000Y-62750000D03*
X194056000Y-60452000D03*
G04 #@! TO.N,/mcu_stm32/ETH_TXD3*
X160274000Y-63500000D03*
X200152000Y-61468000D03*
G04 #@! TO.N,/switch/LED1_0*
X143324979Y-61650000D03*
G04 #@! TO.N,/switch/LED1_1*
X140790000Y-73110000D03*
G04 #@! TO.N,/LED4_0*
X159399999Y-74150000D03*
G04 #@! TO.N,/LED4_1*
X158430002Y-74570000D03*
G04 #@! TO.N,/LED3_0*
X147050000Y-58600000D03*
G04 #@! TO.N,/LED3_1*
X146450000Y-58810000D03*
G04 #@! TO.N,/LED2_0*
X145537380Y-58427476D03*
G04 #@! TO.N,/LED2_1*
X144900000Y-58300000D03*
D33*
G04 #@! TO.N,VDD*
X192730000Y-57350000D03*
X197200000Y-57500000D03*
D32*
X206020000Y-56750000D03*
D33*
X189992000Y-57912000D03*
D34*
X187960000Y-71120000D03*
D32*
X199760000Y-57290000D03*
X206172000Y-72404000D03*
G04 #@! TO.N,+5V*
X180860000Y-75670000D03*
G04 #@! TO.N,/switch/VDDHS*
X143530000Y-53610000D03*
X150610000Y-53600000D03*
X148890000Y-53610000D03*
D34*
X136720000Y-53610000D03*
D32*
G04 #@! TO.N,VDDHS_IN*
X133782000Y-56148000D03*
G04 #@! TO.N,/switch/AVDDL*
X154280000Y-70690000D03*
X155800021Y-67510000D03*
X155800021Y-69490000D03*
X144770000Y-70610000D03*
X148480000Y-70610000D03*
X150580000Y-70600000D03*
X139630004Y-66040000D03*
X139690002Y-67520002D03*
X139700000Y-68580000D03*
X124600000Y-65716400D03*
G04 #@! TO.N,/switch/DVDDL*
X159120000Y-61350000D03*
D34*
X159120000Y-65920000D03*
D32*
X147010000Y-74220000D03*
X152045000Y-74220000D03*
X138380000Y-61850000D03*
X138379998Y-63280000D03*
X153700000Y-54600000D03*
X156130000Y-54570000D03*
X145430000Y-52760000D03*
D35*
X125240000Y-72680000D03*
D32*
G04 #@! TO.N,/switch/VDDLS*
X152220000Y-54600000D03*
X147220002Y-54580000D03*
X142000000Y-54590000D03*
D35*
X137520000Y-54630000D03*
D32*
G04 #@! TO.N,/switch/AVDDH*
X161030000Y-74440000D03*
X161030000Y-68110000D03*
X137100000Y-64570000D03*
X137120000Y-71830000D03*
X145940000Y-75550000D03*
X151560000Y-75580000D03*
X137160000Y-68326008D03*
G04 #@! TD*
D36*
G04 #@! TO.N,GND*
X188341000Y-77109000D02*
X188650000Y-76800000D01*
X188341000Y-79258000D02*
X188341000Y-77109000D01*
X201803000Y-77047000D02*
X202250000Y-76600000D01*
X201803000Y-79258000D02*
X201803000Y-77047000D01*
X215773000Y-77427000D02*
X216100000Y-77100000D01*
X215773000Y-79512000D02*
X215773000Y-77427000D01*
D37*
X207325000Y-58700000D02*
X207900000Y-58700000D01*
X206755000Y-58130000D02*
X207325000Y-58700000D01*
X204088000Y-58130000D02*
X206755000Y-58130000D01*
D38*
X162850000Y-73275000D02*
X165065000Y-73275000D01*
X165065000Y-73275000D02*
X165090000Y-73300000D01*
D37*
X205150000Y-80900000D02*
X205800000Y-80900000D01*
X202970000Y-80900000D02*
X205150000Y-80900000D01*
X201803000Y-79733000D02*
X202970000Y-80900000D01*
X201803000Y-79258000D02*
X201803000Y-79733000D01*
X158160000Y-65500000D02*
X158460000Y-65200000D01*
X157180000Y-65500000D02*
X158160000Y-65500000D01*
X158515011Y-65155011D02*
X160580011Y-65155011D01*
X162625000Y-67200000D02*
X162850000Y-67200000D01*
X160580011Y-65155011D02*
X162625000Y-67200000D01*
X157180000Y-65100000D02*
X157180000Y-65500000D01*
X188288000Y-57618000D02*
X188288000Y-57630000D01*
X186930000Y-56260000D02*
X188288000Y-57618000D01*
X184065000Y-56260000D02*
X186930000Y-56260000D01*
X183770000Y-57130000D02*
X183770000Y-56555000D01*
X183770000Y-56555000D02*
X184065000Y-56260000D01*
X183515000Y-71850000D02*
X183290000Y-71850000D01*
X184705000Y-70660000D02*
X183515000Y-71850000D01*
X185808000Y-70660000D02*
X184705000Y-70660000D01*
X188288000Y-69130000D02*
X187338000Y-69130000D01*
X187338000Y-69130000D02*
X185808000Y-70660000D01*
X149700000Y-56820000D02*
X149700000Y-55470000D01*
X150900000Y-56820000D02*
X150900000Y-55500000D01*
X150900000Y-55500000D02*
X150920000Y-55480000D01*
X151700000Y-56820000D02*
X151700000Y-55490000D01*
X151700000Y-55490000D02*
X151710000Y-55480000D01*
X141820000Y-62300000D02*
X140480000Y-62300000D01*
X140480000Y-62300000D02*
X140470000Y-62310000D01*
X141820000Y-63100000D02*
X140490000Y-63100000D01*
X140490000Y-63100000D02*
X140470000Y-63120000D01*
D38*
X193264993Y-56706993D02*
X193264993Y-60227001D01*
X193188000Y-55730000D02*
X193188000Y-56630000D01*
X193188000Y-56630000D02*
X193264993Y-56706993D01*
X193264993Y-60227001D02*
X193039994Y-60452000D01*
X198882000Y-58166000D02*
X198882000Y-59690000D01*
X197688000Y-55730000D02*
X197688000Y-56972000D01*
X197688000Y-56972000D02*
X198882000Y-58166000D01*
X197688000Y-55730000D02*
X197688000Y-54534000D01*
X197688000Y-54534000D02*
X197866000Y-54356000D01*
X193188000Y-55730000D02*
X193188000Y-54250000D01*
X193188000Y-54250000D02*
X193040000Y-54102000D01*
X207900000Y-58700000D02*
X209270000Y-58700000D01*
X209270000Y-58700000D02*
X209296000Y-58674000D01*
X207600000Y-73410000D02*
X207600000Y-74848000D01*
X207600000Y-74848000D02*
X207518000Y-74930000D01*
X188650000Y-76800000D02*
X188650000Y-76272000D01*
D37*
X183770000Y-57130000D02*
X182352000Y-57130000D01*
X182352000Y-57130000D02*
X182118000Y-56896000D01*
X141820000Y-68700000D02*
X143100000Y-68700000D01*
X143100000Y-68700000D02*
X143140000Y-68660000D01*
X154100000Y-56820000D02*
X154100000Y-55478248D01*
X154100000Y-55478248D02*
X154224124Y-55354124D01*
D39*
X106940000Y-50290000D02*
X107140000Y-50090000D01*
X105060000Y-50290000D02*
X106940000Y-50290000D01*
X105720000Y-59950000D02*
X105850000Y-59820000D01*
X103700000Y-59950000D02*
X105720000Y-59950000D01*
X102050000Y-62670000D02*
X102050000Y-61450000D01*
X102050000Y-61450000D02*
X102060000Y-61440000D01*
X103700000Y-59950000D02*
X103700000Y-58710000D01*
X103910000Y-69540000D02*
X103910000Y-68310000D01*
X103910000Y-68310000D02*
X103920000Y-68300000D01*
X102300000Y-72220000D02*
X102300000Y-71030000D01*
X102300000Y-71030000D02*
X102320000Y-71010000D01*
X103600000Y-52780000D02*
X103600000Y-51650000D01*
X103600000Y-51650000D02*
X103610000Y-51640000D01*
X105060000Y-50290000D02*
X105060000Y-49040000D01*
X105060000Y-49040000D02*
X105050000Y-49030000D01*
D38*
X196510000Y-49840000D02*
X196610000Y-49940000D01*
X200680000Y-51640000D02*
X200820000Y-51780000D01*
X200820000Y-51780000D02*
X201860000Y-51780000D01*
X194600000Y-49840000D02*
X193690000Y-49840000D01*
X193690000Y-49840000D02*
X193640000Y-49790000D01*
X123070000Y-71840000D02*
X123932000Y-71840000D01*
X123932000Y-71840000D02*
X124384000Y-71388000D01*
X123010000Y-67640000D02*
X123938000Y-67640000D01*
X123938000Y-67640000D02*
X124130000Y-67832000D01*
D39*
X122432000Y-53848000D02*
X122352000Y-53928000D01*
X124790000Y-53848000D02*
X122432000Y-53848000D01*
D37*
X122352000Y-53928000D02*
X122352000Y-52592000D01*
X120574000Y-56468000D02*
X120574000Y-55132000D01*
D38*
X211500000Y-58700000D02*
X210502000Y-58700000D01*
X210502000Y-58700000D02*
X210490000Y-58688000D01*
X211506000Y-66242000D02*
X211506000Y-67324000D01*
X190236000Y-51068000D02*
X189154000Y-51068000D01*
X189154000Y-51068000D02*
X188900000Y-50814000D01*
D39*
X105940000Y-69540000D02*
X106190000Y-69290000D01*
X103910000Y-69540000D02*
X105940000Y-69540000D01*
D37*
X226460000Y-73000000D02*
X226460000Y-74404000D01*
X226460000Y-74404000D02*
X226492000Y-74436000D01*
X226460000Y-73000000D02*
X227342000Y-73000000D01*
X227342000Y-73000000D02*
X227508000Y-73166000D01*
X228350000Y-70640000D02*
X228350000Y-71816000D01*
X228350000Y-71816000D02*
X228270000Y-71896000D01*
X133274000Y-73456000D02*
X133274000Y-73928000D01*
X136110000Y-70770000D02*
X135960000Y-70770000D01*
X135960000Y-70770000D02*
X133274000Y-73456000D01*
D38*
X131464000Y-71088000D02*
X131210000Y-71342000D01*
X131210000Y-72372000D02*
X131242000Y-72404000D01*
X131210000Y-71342000D02*
X131210000Y-72372000D01*
X129178000Y-65324000D02*
X129210000Y-65292000D01*
X129178000Y-66262000D02*
X129178000Y-65324000D01*
X164262000Y-74823000D02*
X164262000Y-74182000D01*
X163200000Y-75660000D02*
X163425000Y-75660000D01*
X163425000Y-75660000D02*
X164262000Y-74823000D01*
X164420000Y-67200000D02*
X165010000Y-67790000D01*
X162850000Y-67200000D02*
X164420000Y-67200000D01*
D39*
X226320000Y-73140000D02*
X226460000Y-73000000D01*
X223930000Y-73140000D02*
X226320000Y-73140000D01*
D38*
X216100000Y-77100000D02*
X217224000Y-77100000D01*
X217224000Y-77100000D02*
X217348000Y-76976000D01*
X221496000Y-85104000D02*
X222936000Y-85104000D01*
X188650000Y-76272000D02*
X189484000Y-75438000D01*
X207188000Y-83038000D02*
X207188000Y-84342000D01*
X205800000Y-80900000D02*
X205800000Y-81650000D01*
X205800000Y-81650000D02*
X207188000Y-83038000D01*
X193472000Y-82722000D02*
X193472000Y-84342000D01*
X192200000Y-80700000D02*
X192200000Y-81450000D01*
X192200000Y-81450000D02*
X193472000Y-82722000D01*
X199634000Y-74182000D02*
X199634000Y-74624000D01*
X199634000Y-74624000D02*
X199060000Y-75198000D01*
X202250000Y-76600000D02*
X203245988Y-76600000D01*
X203660989Y-76184999D02*
X203885988Y-75960000D01*
X203245988Y-76600000D02*
X203660989Y-76184999D01*
X202948000Y-73928000D02*
X203698000Y-73928000D01*
X201688000Y-72668000D02*
X202948000Y-73928000D01*
X201688000Y-71530000D02*
X201688000Y-72668000D01*
X203698000Y-73928000D02*
X203698000Y-74502000D01*
X203698000Y-74502000D02*
X203886000Y-74690000D01*
X129264000Y-66348000D02*
X129178000Y-66262000D01*
X183380000Y-69500000D02*
X182152000Y-69500000D01*
X182152000Y-69500000D02*
X182042000Y-69610000D01*
X183290000Y-71850000D02*
X182250000Y-71850000D01*
X182250000Y-71850000D02*
X182042000Y-71642000D01*
X129264000Y-67864000D02*
X127904000Y-67864000D01*
X127904000Y-67864000D02*
X127890000Y-67850000D01*
X131464000Y-69564000D02*
X132746000Y-69564000D01*
X132746000Y-69564000D02*
X132750000Y-69560000D01*
X198810000Y-51640000D02*
X198810000Y-52540000D01*
X198810000Y-52540000D02*
X198770000Y-52580000D01*
X196610000Y-49940000D02*
X196610000Y-48950000D01*
X196610000Y-48950000D02*
X196630000Y-48930000D01*
G04 #@! TO.N,Net-(C4-Pad1)*
X182414000Y-50454000D02*
X182424000Y-50464000D01*
X179704000Y-50454000D02*
X182414000Y-50454000D01*
X184514000Y-50464000D02*
X184524000Y-50474000D01*
X182424000Y-50464000D02*
X184514000Y-50464000D01*
X176402000Y-47752000D02*
X141986000Y-47752000D01*
X139670999Y-50067001D02*
X139446000Y-50292000D01*
X179104000Y-50454000D02*
X176402000Y-47752000D01*
X179704000Y-50454000D02*
X179104000Y-50454000D01*
X142868000Y-56388000D02*
X143300000Y-56820000D01*
X141986000Y-56388000D02*
X142868000Y-56388000D01*
X141986000Y-47752000D02*
X140386000Y-49352000D01*
X140386000Y-49352000D02*
X139670999Y-50067001D01*
X129464000Y-47766000D02*
X130480000Y-46750000D01*
X130480000Y-46750000D02*
X137784000Y-46750000D01*
X139446000Y-48412000D02*
X137846000Y-46812000D01*
X139446000Y-50292000D02*
X139446000Y-48412000D01*
X137784000Y-46750000D02*
X137846000Y-46812000D01*
D37*
G04 #@! TO.N,Net-(C10-Pad1)*
X150773332Y-92595000D02*
X150773332Y-92577002D01*
X150323332Y-92595000D02*
X150323332Y-92577002D01*
G04 #@! TO.N,Net-(C13-Pad1)*
X170740000Y-92595000D02*
X170740000Y-92577002D01*
X170290000Y-92595000D02*
X170290000Y-92577002D01*
G04 #@! TO.N,Net-(C16-Pad2)*
X187338000Y-68630000D02*
X188288000Y-68630000D01*
X186950000Y-68630000D02*
X187338000Y-68630000D01*
X186080000Y-69500000D02*
X186950000Y-68630000D01*
X185280000Y-69500000D02*
X186080000Y-69500000D01*
D38*
G04 #@! TO.N,/mcu_stm32/NRESET*
X207447998Y-53354000D02*
X201600000Y-53354000D01*
X207447998Y-53354000D02*
X208204000Y-53354000D01*
X208204000Y-53354000D02*
X209474000Y-52084000D01*
X209474000Y-52084000D02*
X210236000Y-52084000D01*
X229540000Y-58942000D02*
X227254000Y-61228000D01*
X229540000Y-54116000D02*
X229540000Y-58942000D01*
X228524000Y-53100000D02*
X229540000Y-54116000D01*
X222936000Y-53100000D02*
X228524000Y-53100000D01*
X213792000Y-52084000D02*
X221920000Y-52084000D01*
X221920000Y-52084000D02*
X222936000Y-53100000D01*
X192136000Y-51068000D02*
X192361000Y-51068000D01*
X195454999Y-54014999D02*
X195230000Y-53790000D01*
X195083000Y-53790000D02*
X195230000Y-53790000D01*
X192361000Y-51068000D02*
X195083000Y-53790000D01*
X195688000Y-55730000D02*
X195688000Y-54248000D01*
X195688000Y-54248000D02*
X195454999Y-54014999D01*
G04 #@! TO.N,Net-(C18-Pad1)*
X201188000Y-72430000D02*
X201188000Y-71530000D01*
X201188000Y-73311000D02*
X201188000Y-72430000D01*
X201534000Y-73657000D02*
X201188000Y-73311000D01*
X201534000Y-74182000D02*
X201534000Y-73657000D01*
D37*
G04 #@! TO.N,+3V3*
X154480000Y-56840000D02*
X154500000Y-56820000D01*
D38*
X178414000Y-48254000D02*
X177984000Y-47824000D01*
X179704000Y-48254000D02*
X178414000Y-48254000D01*
X157180000Y-59500000D02*
X160580000Y-59500000D01*
X160881802Y-59500000D02*
X160580000Y-59500000D01*
X160951802Y-59430000D02*
X160881802Y-59500000D01*
X161270000Y-59430000D02*
X160951802Y-59430000D01*
D37*
X154810000Y-54010000D02*
X155260000Y-53560000D01*
X154810000Y-55440000D02*
X154810000Y-54010000D01*
X154520000Y-55730000D02*
X154810000Y-55440000D01*
X154500000Y-56820000D02*
X154520000Y-56800000D01*
X154520000Y-56800000D02*
X154520000Y-55730000D01*
D36*
X187071000Y-77121000D02*
X186750000Y-76800000D01*
X187071000Y-79258000D02*
X187071000Y-77121000D01*
X200533000Y-76783000D02*
X200350000Y-76600000D01*
X200533000Y-79258000D02*
X200533000Y-76783000D01*
X214200000Y-79209000D02*
X214503000Y-79512000D01*
X214200000Y-77100000D02*
X214200000Y-79209000D01*
D37*
X214200000Y-77100000D02*
X213050000Y-77100000D01*
X213050000Y-77100000D02*
X213040000Y-77090000D01*
X214503000Y-79987000D02*
X214503000Y-79512000D01*
X213790000Y-80700000D02*
X214503000Y-79987000D01*
X210600000Y-80700000D02*
X213790000Y-80700000D01*
X200533000Y-79733000D02*
X200533000Y-79258000D01*
D38*
X134395001Y-58898999D02*
X134620000Y-58674000D01*
X133336000Y-59958000D02*
X134395001Y-58898999D01*
X127256000Y-59958000D02*
X128194000Y-59958000D01*
X126840000Y-60374000D02*
X127256000Y-59958000D01*
X126840000Y-60974000D02*
X126840000Y-60374000D01*
X128194000Y-59958000D02*
X133336000Y-59958000D01*
X139872000Y-59100000D02*
X139700000Y-58928000D01*
X141820000Y-59100000D02*
X139872000Y-59100000D01*
D39*
X226200000Y-70840000D02*
X226460000Y-71100000D01*
X223930000Y-70840000D02*
X226200000Y-70840000D01*
X216574000Y-71896000D02*
X217630000Y-70840000D01*
X214300000Y-71896000D02*
X216574000Y-71896000D01*
X217630000Y-58337000D02*
X212835000Y-53542000D01*
X217630000Y-70840000D02*
X217630000Y-58337000D01*
X217630000Y-58337000D02*
X217505000Y-58337000D01*
X217505000Y-58337000D02*
X211760000Y-52592000D01*
X211760000Y-52592000D02*
X211760000Y-49798000D01*
D38*
X214200000Y-76200000D02*
X214440000Y-75960000D01*
X214200000Y-77100000D02*
X214200000Y-76200000D01*
X200533000Y-82189000D02*
X200584000Y-82240000D01*
X183300000Y-80700000D02*
X183300000Y-79528000D01*
X183300000Y-79528000D02*
X183566000Y-79262000D01*
X186750000Y-76800000D02*
X184504000Y-76800000D01*
X184504000Y-76800000D02*
X184328000Y-76976000D01*
X200350000Y-76600000D02*
X199182000Y-76600000D01*
X199182000Y-76600000D02*
X199060000Y-76722000D01*
X196600000Y-80600000D02*
X196600000Y-79690000D01*
X196600000Y-79690000D02*
X196774000Y-79516000D01*
X210600000Y-80700000D02*
X210600000Y-79626000D01*
X210600000Y-79626000D02*
X210490000Y-79516000D01*
X126840000Y-61574000D02*
X126840000Y-62498000D01*
X126840000Y-60974000D02*
X126840000Y-61574000D01*
X183532000Y-48040000D02*
X183820000Y-47752000D01*
X182042000Y-48040000D02*
X183532000Y-48040000D01*
G04 #@! TO.N,Net-(C66-Pad1)*
X131078000Y-67478000D02*
X131464000Y-67864000D01*
X134778000Y-69500000D02*
X133142000Y-67864000D01*
X141820000Y-69500000D02*
X134778000Y-69500000D01*
X133142000Y-67864000D02*
X131464000Y-67864000D01*
X131464000Y-66648000D02*
X131078000Y-66262000D01*
X131464000Y-67864000D02*
X131464000Y-66648000D01*
G04 #@! TO.N,Net-(C67-Pad1)*
X134062000Y-69900000D02*
X140890000Y-69900000D01*
X140890000Y-69900000D02*
X141820000Y-69900000D01*
X129264000Y-71296000D02*
X129310000Y-71342000D01*
X129264000Y-69564000D02*
X129264000Y-71296000D01*
X129264000Y-69564000D02*
X129364000Y-69564000D01*
X129364000Y-69564000D02*
X130430000Y-70630000D01*
X133332000Y-70630000D02*
X134062000Y-69900000D01*
X130430000Y-70630000D02*
X133332000Y-70630000D01*
G04 #@! TO.N,/mcu_stm32/UART8_TX*
X204088000Y-58630000D02*
X205924988Y-58630000D01*
X211891806Y-60150002D02*
X212210004Y-60150002D01*
X207444990Y-60150002D02*
X211891806Y-60150002D01*
X205924988Y-58630000D02*
X207444990Y-60150002D01*
G04 #@! TO.N,/mcu_stm32/UART8_RX*
X212176002Y-60974000D02*
X212190002Y-60960000D01*
X209728000Y-60974000D02*
X212176002Y-60974000D01*
X209427989Y-60673989D02*
X209728000Y-60974000D01*
X207263989Y-60673989D02*
X209427989Y-60673989D01*
X204088000Y-59130000D02*
X205720000Y-59130000D01*
X205720000Y-59130000D02*
X207263989Y-60673989D01*
G04 #@! TO.N,/mcu_stm32/SYS_JTMSE_SWDIO*
X200688000Y-68802001D02*
X200700000Y-68790001D01*
X200688000Y-71530000D02*
X200688000Y-68802001D01*
G04 #@! TO.N,/mcu_stm32/SYS_JTCK_SWCLK*
X202190000Y-69010000D02*
X202190000Y-68600000D01*
X204088000Y-69630000D02*
X202810000Y-69630000D01*
X202810000Y-69630000D02*
X202190000Y-69010000D01*
G04 #@! TO.N,/switch/Data_in_MOSI_SPI*
X204098000Y-63620000D02*
X204088000Y-63630000D01*
X204078000Y-63620000D02*
X204088000Y-63630000D01*
D40*
X204088000Y-63630000D02*
X191386000Y-63630000D01*
X191386000Y-63630000D02*
X191262000Y-63754000D01*
D38*
X176470002Y-56190000D02*
X179230002Y-58950000D01*
X175144002Y-54864000D02*
X176470002Y-56190000D01*
X168402000Y-52070000D02*
X171196000Y-54864000D01*
X171196000Y-54864000D02*
X175144002Y-54864000D01*
X141820000Y-58700000D02*
X140234004Y-58700000D01*
X139700004Y-57847802D02*
X139700004Y-58166000D01*
X166370000Y-50038000D02*
X143002000Y-50038000D01*
X168402000Y-52070000D02*
X166370000Y-50038000D01*
X143002000Y-50038000D02*
X139700004Y-53339996D01*
X139925003Y-58390999D02*
X139700004Y-58166000D01*
X140234004Y-58700000D02*
X139925003Y-58390999D01*
X139700004Y-53339996D02*
X139700004Y-57847802D01*
G04 #@! TO.N,Net-(IC1-Pad127)*
X140490000Y-70300000D02*
X141820000Y-70300000D01*
X140020000Y-70770000D02*
X138310000Y-70770000D01*
X140490000Y-70300000D02*
X140020000Y-70770000D01*
D36*
G04 #@! TO.N,Net-(R4-Pad1)*
X203073000Y-84658000D02*
X205058000Y-84658000D01*
D37*
X205800000Y-83916000D02*
X205800000Y-83100000D01*
X205058000Y-84658000D02*
X205800000Y-83916000D01*
D38*
G04 #@! TO.N,Net-(R5-Pad1)*
X219104000Y-84912000D02*
X219296000Y-85104000D01*
X217043000Y-84912000D02*
X219104000Y-84912000D01*
D37*
G04 #@! TO.N,Net-(R6-Pad1)*
X192200000Y-83050000D02*
X192200000Y-82900000D01*
X190592000Y-84658000D02*
X192200000Y-83050000D01*
X189611000Y-84658000D02*
X190592000Y-84658000D01*
D36*
G04 #@! TO.N,Net-(R7-Pad1)*
X196600000Y-82950000D02*
X196600000Y-82800000D01*
X198308000Y-84658000D02*
X196600000Y-82950000D01*
X199263000Y-84658000D02*
X198308000Y-84658000D01*
G04 #@! TO.N,Net-(R8-Pad1)*
X210600000Y-83050000D02*
X210600000Y-82900000D01*
X212462000Y-84912000D02*
X210600000Y-83050000D01*
X213233000Y-84912000D02*
X212462000Y-84912000D01*
G04 #@! TO.N,Net-(R9-Pad1)*
X183300000Y-83050000D02*
X183300000Y-82900000D01*
X184908000Y-84658000D02*
X183300000Y-83050000D01*
X185801000Y-84658000D02*
X184908000Y-84658000D01*
D38*
G04 #@! TO.N,/mcu_stm32/CAN2_TX*
X204088000Y-61630000D02*
X207798198Y-61630000D01*
X210400000Y-67506802D02*
X210400000Y-67825000D01*
X210400000Y-64231802D02*
X210400000Y-67506802D01*
X207798198Y-61630000D02*
X210400000Y-64231802D01*
X189611000Y-78039000D02*
X189775001Y-77874999D01*
X189611000Y-79258000D02*
X189611000Y-78039000D01*
X189775001Y-77874999D02*
X190000000Y-77650000D01*
X210441158Y-76743141D02*
X210441158Y-70079585D01*
X210441158Y-70079585D02*
X210482713Y-70038030D01*
X210441158Y-76743141D02*
X210400000Y-76750000D01*
G04 #@! TO.N,/mcu_stm32/CAN2_RX*
X185801000Y-79258000D02*
X185801000Y-79733000D01*
X209758567Y-67073231D02*
X209758567Y-67391429D01*
X209758567Y-64358567D02*
X209758567Y-67073231D01*
X207530000Y-62130000D02*
X209758567Y-64358567D01*
X204088000Y-62130000D02*
X207530000Y-62130000D01*
X185801000Y-77940994D02*
X185780000Y-77919994D01*
X185801000Y-79258000D02*
X185801000Y-77940994D01*
X209800000Y-76850000D02*
X209800000Y-69625000D01*
X209800000Y-69625000D02*
X209825000Y-69600000D01*
G04 #@! TO.N,/mcu_stm32/CAN1_TX*
X218364000Y-75960000D02*
X218364000Y-78191000D01*
X218364000Y-78191000D02*
X217043000Y-79512000D01*
X208290017Y-66630000D02*
X211440000Y-69779983D01*
X204088000Y-66630000D02*
X208290017Y-66630000D01*
X211440000Y-74170000D02*
X211960000Y-74690000D01*
X211440000Y-69779983D02*
X211440000Y-74170000D01*
X211960000Y-74690000D02*
X217094000Y-74690000D01*
X217094000Y-74690000D02*
X218364000Y-75960000D01*
G04 #@! TO.N,/mcu_stm32/CAN1_RX*
X210982714Y-70278031D02*
X210982714Y-69817687D01*
X204988000Y-67130000D02*
X204088000Y-67130000D01*
X213233000Y-79512000D02*
X212783000Y-79512000D01*
X212783000Y-79512000D02*
X210980326Y-77709326D01*
X208295027Y-67130000D02*
X204988000Y-67130000D01*
X210980326Y-70280419D02*
X210982714Y-70278031D01*
X210982714Y-69817687D02*
X208295027Y-67130000D01*
X210980326Y-77709326D02*
X210980326Y-70280419D01*
G04 #@! TO.N,/mcu_stm32/CAN3_TX*
X203073000Y-78783000D02*
X204500000Y-77356000D01*
X204500000Y-77356000D02*
X204500000Y-77350000D01*
X203073000Y-79258000D02*
X203073000Y-78783000D01*
X207684000Y-77356000D02*
X204500000Y-77356000D01*
X209290000Y-75750000D02*
X207684000Y-77356000D01*
X204088000Y-69130000D02*
X204116000Y-69102000D01*
X204911002Y-69102000D02*
X205419002Y-68594000D01*
X205419002Y-68594000D02*
X207314000Y-68594000D01*
X204116000Y-69102000D02*
X204911002Y-69102000D01*
X207314000Y-68594000D02*
X209290000Y-70570000D01*
X209290000Y-70570000D02*
X209290000Y-75750000D01*
G04 #@! TO.N,/mcu_stm32/CAN3_RX*
X198188000Y-74072000D02*
X198188000Y-71530000D01*
X198044000Y-74216000D02*
X198188000Y-74072000D01*
X198044000Y-77043990D02*
X198044000Y-74216000D01*
X199263000Y-79258000D02*
X199263000Y-78262990D01*
X199263000Y-78262990D02*
X198044000Y-77043990D01*
G04 #@! TO.N,/mcu_stm32/SPI_CS*
X141765001Y-59445001D02*
X141820000Y-59500000D01*
X185464000Y-58630000D02*
X188288000Y-58630000D01*
X183388000Y-58420000D02*
X183598000Y-58630000D01*
X183598000Y-58630000D02*
X185464000Y-58630000D01*
X168148000Y-49276000D02*
X170942000Y-52070000D01*
X161798000Y-49276000D02*
X168148000Y-49276000D01*
X161798000Y-49276000D02*
X162052000Y-49276000D01*
X157734000Y-49276000D02*
X161798000Y-49276000D01*
D40*
X142748000Y-49276000D02*
X157734000Y-49276000D01*
X138684000Y-53340000D02*
X142748000Y-49276000D01*
X138684000Y-58674000D02*
X138684000Y-53340000D01*
X141820000Y-59500000D02*
X139510000Y-59500000D01*
X139510000Y-59500000D02*
X138684000Y-58674000D01*
D38*
G04 #@! TO.N,/mcu_stm32/RESET_N*
X195188000Y-54488000D02*
X195188000Y-55730000D01*
X192930000Y-52230000D02*
X195188000Y-54488000D01*
X188628000Y-52230000D02*
X192930000Y-52230000D01*
X186872000Y-50474000D02*
X188628000Y-52230000D01*
G04 #@! TO.N,/mcu_stm32/ETH_TXD1*
X190688000Y-72430000D02*
X190688000Y-71530000D01*
X189288000Y-73830000D02*
X190688000Y-72430000D01*
X182625722Y-73830000D02*
X189288000Y-73830000D01*
X175514000Y-62484000D02*
X180848000Y-67818000D01*
X160674002Y-62484000D02*
X175514000Y-62484000D01*
X160490001Y-62299999D02*
X160674002Y-62484000D01*
X157234999Y-62354999D02*
X158140001Y-62354999D01*
X160057999Y-62299999D02*
X160490001Y-62299999D01*
X157180000Y-62300000D02*
X157234999Y-62354999D01*
X180848000Y-67818000D02*
X180848000Y-72052278D01*
X158140001Y-62354999D02*
X158185001Y-62399999D01*
X158185001Y-62399999D02*
X158185001Y-62449490D01*
X180848000Y-72052278D02*
X182625722Y-73830000D01*
X158185001Y-62449490D02*
X159908508Y-62449490D01*
X159908508Y-62449490D02*
X160057999Y-62299999D01*
G04 #@! TO.N,/mcu_stm32/ETH_TXD0*
X189898000Y-71530000D02*
X190188000Y-71530000D01*
X188118000Y-73310000D02*
X189898000Y-71530000D01*
X182810000Y-73310000D02*
X188118000Y-73310000D01*
X181356000Y-67730000D02*
X181356000Y-71856000D01*
X181356000Y-71856000D02*
X182810000Y-73310000D01*
X181356000Y-67647722D02*
X181356000Y-67730000D01*
X157234999Y-61954999D02*
X158140001Y-61954999D01*
X157180000Y-61900000D02*
X157234999Y-61954999D01*
X158140001Y-61954999D02*
X158161002Y-61976000D01*
X158161002Y-61976000D02*
X175692000Y-61976000D01*
X175692000Y-61976000D02*
X175692000Y-61983722D01*
X175692000Y-61983722D02*
X181356000Y-67647722D01*
G04 #@! TO.N,/mcu_stm32/ETH_TX_EN*
X188268000Y-68150000D02*
X188288000Y-68130000D01*
X188283000Y-68125000D02*
X188288000Y-68130000D01*
X157180000Y-64300000D02*
X165520000Y-64300000D01*
X165520000Y-64300000D02*
X169155001Y-67935001D01*
X169155001Y-67935001D02*
X169380000Y-68160000D01*
X188288000Y-68130000D02*
X186400000Y-68130000D01*
G04 #@! TO.N,/mcu_stm32/ETH_RX_ER*
X157180000Y-60300000D02*
X157184999Y-60295001D01*
X187388000Y-67630000D02*
X188288000Y-67630000D01*
X182242000Y-62484000D02*
X187388000Y-67630000D01*
X177208279Y-62484000D02*
X182242000Y-62484000D01*
X157180000Y-60300000D02*
X158110000Y-60300000D01*
X158110000Y-60300000D02*
X158189989Y-60220011D01*
X158189989Y-60220011D02*
X160100011Y-60220011D01*
X160100011Y-60220011D02*
X160346000Y-60466000D01*
X160346000Y-60466000D02*
X175190279Y-60466000D01*
X175190279Y-60466000D02*
X177208279Y-62484000D01*
G04 #@! TO.N,/mcu_stm32/ETH_RXD3*
X158110000Y-59100000D02*
X157180000Y-59100000D01*
X188288000Y-62130000D02*
X177445036Y-62130000D01*
X177445036Y-62130000D02*
X174257036Y-58942000D01*
X174257036Y-58942000D02*
X158268000Y-58942000D01*
X158268000Y-58942000D02*
X158110000Y-59100000D01*
G04 #@! TO.N,/mcu_stm32/ETH_RXD2*
X158305711Y-58480011D02*
X158085722Y-58700000D01*
X158085722Y-58700000D02*
X157180000Y-58700000D01*
X177630000Y-61630000D02*
X174480011Y-58480011D01*
X188288000Y-61630000D02*
X177630000Y-61630000D01*
X174480011Y-58480011D02*
X158305711Y-58480011D01*
G04 #@! TO.N,/mcu_stm32/ETH_RXD1*
X187388000Y-61130000D02*
X188288000Y-61130000D01*
X158110000Y-58030000D02*
X174730000Y-58030000D01*
X157840000Y-58300000D02*
X158110000Y-58030000D01*
X157180000Y-58300000D02*
X157840000Y-58300000D01*
X177830000Y-61130000D02*
X187388000Y-61130000D01*
X174730000Y-58030000D02*
X177830000Y-61130000D01*
G04 #@! TO.N,/mcu_stm32/ETH_RXD0*
X155970000Y-56820000D02*
X155700000Y-56820000D01*
X157600306Y-56820000D02*
X155970000Y-56820000D01*
X158198306Y-57418000D02*
X157600306Y-56820000D01*
X188288000Y-60630000D02*
X178130000Y-60630000D01*
X178130000Y-60630000D02*
X174918000Y-57418000D01*
X174918000Y-57418000D02*
X158198306Y-57418000D01*
G04 #@! TO.N,/mcu_stm32/ETH_RX_DV*
X158345721Y-60580001D02*
X160035722Y-60580001D01*
X160035722Y-60580001D02*
X160435722Y-60980000D01*
X170661802Y-60980000D02*
X170980000Y-60980000D01*
X160435722Y-60980000D02*
X170661802Y-60980000D01*
X157180000Y-60700000D02*
X158225722Y-60700000D01*
X158225722Y-60700000D02*
X158345721Y-60580001D01*
X175467197Y-57330785D02*
X175242198Y-57105786D01*
X188288000Y-60130000D02*
X178266412Y-60130000D01*
X178266412Y-60130000D02*
X175467197Y-57330785D01*
G04 #@! TO.N,/switch/Data_out_MISO_SPI*
X188288000Y-59630000D02*
X178950000Y-59630000D01*
X164592000Y-50800000D02*
X165862000Y-52070000D01*
X143256000Y-50800000D02*
X164592000Y-50800000D01*
X141180000Y-52876000D02*
X143256000Y-50800000D01*
X141820000Y-58300000D02*
X141180000Y-57660000D01*
X141180000Y-57660000D02*
X141180000Y-52876000D01*
X165862000Y-52070000D02*
X169418000Y-55626000D01*
X174946000Y-55626000D02*
X178950000Y-59630000D01*
X169418000Y-55626000D02*
X174946000Y-55626000D01*
G04 #@! TO.N,/switch/SCL_SPI*
X169926000Y-48514000D02*
X173482000Y-52070000D01*
X157734000Y-48514000D02*
X169926000Y-48514000D01*
X187388000Y-59130000D02*
X188288000Y-59130000D01*
X180288000Y-59130000D02*
X187388000Y-59130000D01*
X173482000Y-52070000D02*
X173482000Y-52324000D01*
X173482000Y-52324000D02*
X180288000Y-59130000D01*
D40*
X142494000Y-48514000D02*
X157734000Y-48514000D01*
X138176000Y-52832000D02*
X142494000Y-48514000D01*
X138176000Y-58928000D02*
X138176000Y-52832000D01*
X141820000Y-59900000D02*
X139148000Y-59900000D01*
X139148000Y-59900000D02*
X138176000Y-58928000D01*
D38*
G04 #@! TO.N,/mcu_stm32/ETH_COL*
X190118000Y-55800000D02*
X190188000Y-55730000D01*
X157180000Y-63500000D02*
X157180000Y-63495001D01*
X168453207Y-65686795D02*
X168678206Y-65911794D01*
D40*
X157180000Y-63500000D02*
X158496000Y-63500000D01*
X158496000Y-63500000D02*
X158995490Y-63999490D01*
X166765902Y-63999490D02*
X166774412Y-64008000D01*
X158995490Y-63999490D02*
X166765902Y-63999490D01*
D38*
X166774412Y-64008000D02*
X168453207Y-65686795D01*
X181330002Y-55730000D02*
X180135001Y-56925001D01*
X190188000Y-55730000D02*
X181330002Y-55730000D01*
X180135001Y-56925001D02*
X179910002Y-57150000D01*
G04 #@! TO.N,/mcu_stm32/ETH_RX_CLK*
X190448000Y-54090000D02*
X181876000Y-54090000D01*
X191188000Y-55730000D02*
X191188000Y-54830000D01*
X181876000Y-54090000D02*
X179548999Y-56417001D01*
X179548999Y-56417001D02*
X179324000Y-56642000D01*
X191188000Y-54830000D02*
X190448000Y-54090000D01*
X157180000Y-61100000D02*
X158250000Y-61100000D01*
X158250000Y-61100000D02*
X158469989Y-60880011D01*
X159455979Y-60880011D02*
X160043968Y-61468000D01*
X158469989Y-60880011D02*
X159455979Y-60880011D01*
X173417802Y-61468000D02*
X173736000Y-61468000D01*
X160043968Y-61468000D02*
X173417802Y-61468000D01*
G04 #@! TO.N,/mcu_stm32/ETH_CRS*
X191688000Y-55730000D02*
X191688000Y-54830000D01*
X178954999Y-55655001D02*
X178730000Y-55880000D01*
X191688000Y-54830000D02*
X190597990Y-53739990D01*
X180870010Y-53739990D02*
X178954999Y-55655001D01*
X190597990Y-53739990D02*
X180870010Y-53739990D01*
X157180000Y-59900000D02*
X174245886Y-59900000D01*
X174245886Y-59900000D02*
X174343934Y-59801952D01*
G04 #@! TO.N,/mcu_stm32/ETH_TX_CLK*
X165030000Y-64700000D02*
X165100000Y-64770000D01*
X157180000Y-64700000D02*
X165030000Y-64700000D01*
X164781802Y-64770000D02*
X165100000Y-64770000D01*
X178256999Y-54893001D02*
X178032000Y-55118000D01*
X180310000Y-52840000D02*
X178256999Y-54893001D01*
X192794000Y-52840000D02*
X180310000Y-52840000D01*
X193688000Y-55730000D02*
X193688000Y-53734000D01*
X193688000Y-53734000D02*
X192794000Y-52840000D01*
D40*
G04 #@! TO.N,/mcu_stm32/ETH_TXD2*
X157230000Y-62750000D02*
X157180000Y-62700000D01*
X160274000Y-62750000D02*
X157230000Y-62750000D01*
X194188000Y-55730000D02*
X194188000Y-60320000D01*
X194188000Y-60320000D02*
X194056000Y-60452000D01*
G04 #@! TO.N,/mcu_stm32/ETH_TXD3*
X158111000Y-63100000D02*
X157180000Y-63100000D01*
X158604000Y-63100000D02*
X158111000Y-63100000D01*
X159004000Y-63500000D02*
X158604000Y-63100000D01*
X160274000Y-63500000D02*
X159004000Y-63500000D01*
X202188000Y-55730000D02*
X202188000Y-59432000D01*
X200376999Y-61243001D02*
X200152000Y-61468000D01*
X202188000Y-59432000D02*
X200376999Y-61243001D01*
D38*
G04 #@! TO.N,/LED5_0*
X140890000Y-60300000D02*
X141820000Y-60300000D01*
X133418278Y-60300000D02*
X140890000Y-60300000D01*
X132744278Y-60974000D02*
X133252278Y-60466000D01*
X129040000Y-60974000D02*
X132744278Y-60974000D01*
X132998278Y-60720000D02*
X133252278Y-60466000D01*
X133252278Y-60466000D02*
X133418278Y-60300000D01*
G04 #@! TO.N,/LED5_1*
X138628000Y-60700000D02*
X141820000Y-60700000D01*
X129190000Y-62498000D02*
X130298000Y-61390000D01*
X130298000Y-61390000D02*
X130318000Y-61390000D01*
X130318000Y-61390000D02*
X130480000Y-61228000D01*
X130480000Y-61228000D02*
X138100000Y-61228000D01*
X129040000Y-62498000D02*
X129190000Y-62498000D01*
X138100000Y-61228000D02*
X138628000Y-60700000D01*
G04 #@! TO.N,/switch/LED1_0*
X142750000Y-61500000D02*
X141820000Y-61500000D01*
X142856781Y-61500000D02*
X142750000Y-61500000D01*
X143006781Y-61650000D02*
X142856781Y-61500000D01*
X143324979Y-61650000D02*
X143006781Y-61650000D01*
G04 #@! TO.N,/switch/LED1_1*
X141820000Y-61900000D02*
X142750000Y-61900000D01*
X142750000Y-61900000D02*
X143750000Y-62900000D01*
X143750000Y-62900000D02*
X143750000Y-70150000D01*
X143750000Y-70150000D02*
X141014999Y-72885001D01*
X141014999Y-72885001D02*
X140790000Y-73110000D01*
G04 #@! TO.N,/LED4_0*
X147700000Y-56820000D02*
X147700000Y-57750000D01*
X154773194Y-58859989D02*
X155350011Y-59436806D01*
X159175000Y-73925001D02*
X159399999Y-74150000D01*
X155350011Y-70100012D02*
X159175000Y-73925001D01*
X155350011Y-59436806D02*
X155350011Y-70100012D01*
X148809989Y-58859989D02*
X154773194Y-58859989D01*
X147700000Y-57750000D02*
X148809989Y-58859989D01*
G04 #@! TO.N,/LED4_1*
X155050000Y-70224998D02*
X158430002Y-73605000D01*
X147300000Y-56820000D02*
X147300000Y-58030000D01*
X158430002Y-73605000D02*
X158430002Y-74251802D01*
X158430002Y-74251802D02*
X158430002Y-74570000D01*
X155050000Y-59561074D02*
X155050000Y-70224998D01*
X154648926Y-59160000D02*
X155050000Y-59561074D01*
X148430000Y-59160000D02*
X154648926Y-59160000D01*
X147300000Y-58030000D02*
X148430000Y-59160000D01*
G04 #@! TO.N,/LED3_0*
X146500000Y-56820000D02*
X146500000Y-58050000D01*
X146500000Y-58050000D02*
X146825001Y-58375001D01*
X146825001Y-58375001D02*
X147050000Y-58600000D01*
G04 #@! TO.N,/LED3_1*
X146100000Y-58460000D02*
X146225001Y-58585001D01*
X146100000Y-56820000D02*
X146100000Y-58460000D01*
X146225001Y-58585001D02*
X146450000Y-58810000D01*
G04 #@! TO.N,/LED2_0*
X145300000Y-57750000D02*
X145300000Y-56820000D01*
X145300000Y-57871898D02*
X145300000Y-57750000D01*
X145537380Y-58109278D02*
X145300000Y-57871898D01*
X145537380Y-58427476D02*
X145537380Y-58109278D01*
G04 #@! TO.N,/LED2_1*
X144900000Y-58300000D02*
X144900000Y-56820000D01*
D37*
G04 #@! TO.N,/TX1-*
X112980000Y-94895000D02*
X113025000Y-94940000D01*
X112980000Y-91996998D02*
X112980000Y-94895000D01*
X130360000Y-76670000D02*
X116430000Y-76670000D01*
X143700000Y-72180000D02*
X143700000Y-73350001D01*
X111935000Y-91025000D02*
X112008002Y-91025000D01*
X143700000Y-73350001D02*
X143680000Y-73370001D01*
X116430000Y-76670000D02*
X111935000Y-81165000D01*
X143680000Y-73370001D02*
X143680000Y-74814560D01*
X111935000Y-81165000D02*
X111935000Y-91025000D01*
X143680000Y-74814560D02*
X143214560Y-75280000D01*
X143214560Y-75280000D02*
X131750000Y-75280000D01*
X112008002Y-91025000D02*
X112980000Y-91996998D01*
X131750000Y-75280000D02*
X130360000Y-76670000D01*
G04 #@! TO.N,/TX1+*
X143300000Y-73350001D02*
X143300000Y-73160000D01*
X143320000Y-74665440D02*
X143320000Y-73370001D01*
X131380000Y-74920000D02*
X143065440Y-74920000D01*
X143065440Y-74920000D02*
X143320000Y-74665440D01*
X130010000Y-76290000D02*
X131380000Y-74920000D01*
X116320000Y-76290000D02*
X130010000Y-76290000D01*
X111570000Y-81040000D02*
X116320000Y-76290000D01*
X143320000Y-73370001D02*
X143300000Y-73350001D01*
X110510000Y-94915000D02*
X110510000Y-92016998D01*
X110485000Y-94940000D02*
X110510000Y-94915000D01*
X110510000Y-92016998D02*
X111501000Y-91025998D01*
X143300000Y-73160000D02*
X143300000Y-72180000D01*
X111501000Y-91025998D02*
X111575000Y-91025998D01*
X111575000Y-91025998D02*
X111575000Y-81045000D01*
X111575000Y-81045000D02*
X111570000Y-81040000D01*
G04 #@! TO.N,/TX4-*
X158350001Y-69900000D02*
X157180000Y-69900000D01*
X168384560Y-69920000D02*
X158370001Y-69920000D01*
X158370001Y-69920000D02*
X158350001Y-69900000D01*
X171835000Y-94940000D02*
X171835000Y-91885000D01*
X171835000Y-91885000D02*
X170745000Y-90795000D01*
X170745000Y-90795000D02*
X170745000Y-72280440D01*
X170745000Y-72280440D02*
X168384560Y-69920000D01*
G04 #@! TO.N,/TX4+*
X168235440Y-70280000D02*
X158370001Y-70280000D01*
X170385000Y-72429560D02*
X168235440Y-70280000D01*
X170385000Y-90795000D02*
X170385000Y-72429560D01*
X158370001Y-70280000D02*
X158350001Y-70300000D01*
X169295000Y-94940000D02*
X169295000Y-91885000D01*
X169295000Y-91885000D02*
X170385000Y-90795000D01*
X158350001Y-70300000D02*
X157180000Y-70300000D01*
G04 #@! TO.N,/RX4+*
X169595440Y-69080000D02*
X172180000Y-71664560D01*
X158370001Y-69080000D02*
X169595440Y-69080000D01*
X157180000Y-69100000D02*
X158350001Y-69100000D01*
X158350001Y-69100000D02*
X158370001Y-69080000D01*
X172180000Y-71664560D02*
X172180000Y-85324560D01*
X173105000Y-91049999D02*
X173105000Y-92400000D01*
X174195000Y-89959999D02*
X173105000Y-91049999D01*
X172180000Y-85324560D02*
X174195000Y-87339560D01*
X174195000Y-87339560D02*
X174195000Y-89959999D01*
G04 #@! TO.N,/RX4-*
X157180000Y-68700000D02*
X158350001Y-68700000D01*
X158350001Y-68700000D02*
X158370001Y-68720000D01*
X158370001Y-68720000D02*
X169744560Y-68720000D01*
X169744560Y-68720000D02*
X172540000Y-71515440D01*
X172540000Y-71515440D02*
X172540000Y-85175440D01*
X174555000Y-87190440D02*
X174555000Y-89959999D01*
X172540000Y-85175440D02*
X174555000Y-87190440D01*
X174555000Y-89959999D02*
X175645000Y-91049999D01*
X175645000Y-91049999D02*
X175645000Y-92400000D01*
G04 #@! TO.N,/TX3-*
X152900000Y-73160000D02*
X152900000Y-72180000D01*
X152900000Y-87534278D02*
X152900000Y-73160000D01*
X151141666Y-89292612D02*
X152900000Y-87534278D01*
X151141666Y-90731666D02*
X151141666Y-89292612D01*
X152231666Y-94940000D02*
X152231666Y-91821666D01*
X152231666Y-91821666D02*
X151141666Y-90731666D01*
G04 #@! TO.N,/TX3+*
X152500000Y-73350001D02*
X152500000Y-72180000D01*
X149691666Y-91818334D02*
X150781666Y-90728334D01*
X149691666Y-94940000D02*
X149691666Y-91818334D01*
X150781666Y-90728334D02*
X150781666Y-89228334D01*
X150781666Y-89228334D02*
X152520000Y-87490000D01*
X152520000Y-87490000D02*
X152520000Y-73370001D01*
X152520000Y-73370001D02*
X152500000Y-73350001D01*
G04 #@! TO.N,/RX3+*
X153300000Y-73350001D02*
X153300000Y-72180000D01*
X153320000Y-73370001D02*
X153300000Y-73350001D01*
X153501666Y-92400000D02*
X153320000Y-92218334D01*
X154591666Y-89959999D02*
X154591666Y-88936226D01*
X153501666Y-91049999D02*
X154591666Y-89959999D01*
X153501666Y-92400000D02*
X153501666Y-91049999D01*
X153320000Y-87664560D02*
X153320000Y-73370001D01*
X154591666Y-88936226D02*
X153320000Y-87664560D01*
G04 #@! TO.N,/RX3-*
X153700000Y-73350001D02*
X153700000Y-72180000D01*
X153680000Y-73370001D02*
X153700000Y-73350001D01*
X154951666Y-89959999D02*
X154951666Y-88787106D01*
X156041666Y-92400000D02*
X156041666Y-91049999D01*
X156041666Y-91049999D02*
X154951666Y-89959999D01*
X154951666Y-88787106D02*
X153680000Y-87515440D01*
X153680000Y-87515440D02*
X153680000Y-73370001D01*
G04 #@! TO.N,/TX2-*
X148100000Y-73160000D02*
X148100000Y-72180000D01*
X148100000Y-75954560D02*
X148100000Y-73160000D01*
X132628333Y-91878333D02*
X131538333Y-90788333D01*
X132628333Y-94940000D02*
X132628333Y-91878333D01*
X131538333Y-90788333D02*
X131538333Y-81326227D01*
X131538333Y-81326227D02*
X135194549Y-77670011D01*
X135194549Y-77670011D02*
X146384549Y-77670011D01*
X146384549Y-77670011D02*
X148100000Y-75954560D01*
G04 #@! TO.N,/TX2+*
X147700000Y-73350001D02*
X147700000Y-72180000D01*
X147720000Y-75825440D02*
X147720000Y-73370001D01*
X130088333Y-91891667D02*
X131178333Y-90801667D01*
X130088333Y-94940000D02*
X130088333Y-91891667D01*
X147720000Y-73370001D02*
X147700000Y-73350001D01*
X131178333Y-90801667D02*
X131178333Y-81177107D01*
X131178333Y-81177107D02*
X135045429Y-77310011D01*
X135045429Y-77310011D02*
X146235429Y-77310011D01*
X146235429Y-77310011D02*
X147720000Y-75825440D01*
G04 #@! TO.N,/RX2+*
X133898333Y-92400000D02*
X133780000Y-92281667D01*
X148900000Y-73160000D02*
X148900000Y-72180000D01*
X148900000Y-73350001D02*
X148900000Y-73160000D01*
X148920000Y-73370001D02*
X148900000Y-73350001D01*
X148920000Y-76575440D02*
X148920000Y-73370001D01*
X147105440Y-78390000D02*
X148920000Y-76575440D01*
X134988333Y-89959999D02*
X134988333Y-88942893D01*
X135985440Y-78390000D02*
X147105440Y-78390000D01*
X133898333Y-91049999D02*
X134988333Y-89959999D01*
X133898333Y-92400000D02*
X133898333Y-91049999D01*
X134988333Y-88942893D02*
X133780000Y-87734560D01*
X133780000Y-87734560D02*
X133780000Y-80595440D01*
X133780000Y-80595440D02*
X135985440Y-78390000D01*
G04 #@! TO.N,/RX2-*
X135348333Y-88793773D02*
X134160000Y-87605440D01*
X136438333Y-92400000D02*
X136438333Y-91049999D01*
X134160000Y-80724560D02*
X136134560Y-78750000D01*
X134160000Y-87605440D02*
X134160000Y-80724560D01*
X136134560Y-78750000D02*
X147360000Y-78750000D01*
X136438333Y-91049999D02*
X135348333Y-89959999D01*
X147360000Y-78750000D02*
X149300000Y-76810000D01*
X149300000Y-76810000D02*
X149300000Y-73160000D01*
X149300000Y-73160000D02*
X149300000Y-72180000D01*
X135348333Y-89959999D02*
X135348333Y-88793773D01*
D41*
G04 #@! TO.N,/RX1+*
X144500000Y-72875000D02*
X144464501Y-72910499D01*
X144500000Y-72180000D02*
X144500000Y-72875000D01*
D37*
X113445001Y-81380439D02*
X117215440Y-77610000D01*
X113445001Y-87279561D02*
X113445001Y-81380439D01*
X115385000Y-89219560D02*
X113445001Y-87279561D01*
X117215440Y-77610000D02*
X132185440Y-77610000D01*
X115385000Y-89959999D02*
X115385000Y-89219560D01*
X114295000Y-92400000D02*
X114295000Y-91049999D01*
X114295000Y-91049999D02*
X115385000Y-89959999D01*
X144520000Y-75035440D02*
X143425440Y-76130000D01*
X144520000Y-73370001D02*
X144520000Y-75035440D01*
X144500000Y-73350001D02*
X144520000Y-73370001D01*
X144500000Y-72180000D02*
X144500000Y-73350001D01*
X133665440Y-76130000D02*
X132185440Y-77610000D01*
X143425440Y-76130000D02*
X133665440Y-76130000D01*
G04 #@! TO.N,/RX1-*
X115745000Y-89070440D02*
X113850000Y-87175440D01*
X116835000Y-91049999D02*
X115745000Y-89959999D01*
X117364560Y-77970000D02*
X132334560Y-77970000D01*
X116835000Y-92400000D02*
X116835000Y-91049999D01*
X115745000Y-89959999D02*
X115745000Y-89070440D01*
X113850000Y-81484560D02*
X117364560Y-77970000D01*
X113850000Y-87175440D02*
X113850000Y-81484560D01*
X144900000Y-75164560D02*
X143574560Y-76490000D01*
X144900000Y-72180000D02*
X144900000Y-75164560D01*
X143574560Y-76490000D02*
X133814560Y-76490000D01*
X133814560Y-76490000D02*
X132334560Y-77970000D01*
D36*
G04 #@! TO.N,/CAN3+*
X202922000Y-88322000D02*
X202200000Y-87600000D01*
X202922000Y-91530000D02*
X202922000Y-88322000D01*
X201803000Y-87203000D02*
X202200000Y-87600000D01*
X201803000Y-84658000D02*
X201803000Y-87203000D01*
G04 #@! TO.N,/CAN3-*
X199922000Y-87678000D02*
X200000000Y-87600000D01*
X199922000Y-91530000D02*
X199922000Y-87678000D01*
X200000000Y-85191000D02*
X200533000Y-84658000D01*
X200000000Y-87600000D02*
X200000000Y-85191000D01*
G04 #@! TO.N,/CAN1-*
X213892000Y-87908000D02*
X214100000Y-87700000D01*
X213892000Y-91530000D02*
X213892000Y-87908000D01*
X214503000Y-87297000D02*
X214100000Y-87700000D01*
X214503000Y-84912000D02*
X214503000Y-87297000D01*
G04 #@! TO.N,/CAN1+*
X216300000Y-90938000D02*
X216892000Y-91530000D01*
X216300000Y-87700000D02*
X216300000Y-90938000D01*
X215773000Y-87173000D02*
X216300000Y-87700000D01*
X215773000Y-84912000D02*
X215773000Y-87173000D01*
G04 #@! TO.N,/CAN2+*
X188350000Y-84667000D02*
X188341000Y-84658000D01*
X188350000Y-87050000D02*
X188350000Y-84667000D01*
X188700000Y-87400000D02*
X188350000Y-87050000D01*
X188952000Y-91530000D02*
X188700000Y-91278000D01*
X188700000Y-91278000D02*
X188700000Y-87400000D01*
G04 #@! TO.N,/CAN2-*
X187050000Y-84679000D02*
X187071000Y-84658000D01*
X187050000Y-87050000D02*
X187050000Y-84679000D01*
X186500000Y-87600000D02*
X187050000Y-87050000D01*
X185952000Y-91530000D02*
X186500000Y-90982000D01*
X186500000Y-90982000D02*
X186500000Y-87600000D01*
G04 #@! TO.N,VDD*
X197175000Y-55717000D02*
X197188000Y-55730000D01*
X188288000Y-58130000D02*
X186045000Y-58130000D01*
X192688000Y-57308000D02*
X192688000Y-55730000D01*
X192730000Y-57350000D02*
X192688000Y-57308000D01*
X192188000Y-55730000D02*
X192688000Y-55730000D01*
X197200000Y-55742000D02*
X197188000Y-55730000D01*
X197200000Y-57500000D02*
X197200000Y-55742000D01*
D39*
X211500000Y-56800000D02*
X207900000Y-56800000D01*
X207850000Y-56750000D02*
X207900000Y-56800000D01*
X206020000Y-56750000D02*
X207850000Y-56750000D01*
D36*
X185670000Y-57130000D02*
X185670000Y-57755000D01*
X185670000Y-57755000D02*
X186045000Y-58130000D01*
X186040000Y-71850000D02*
X185190000Y-71850000D01*
X186458000Y-71850000D02*
X186040000Y-71850000D01*
X188288000Y-58130000D02*
X189774000Y-58130000D01*
X189774000Y-58130000D02*
X189992000Y-57912000D01*
X186458000Y-71850000D02*
X186722000Y-71850000D01*
X186722000Y-71850000D02*
X187230000Y-71850000D01*
X187230000Y-71850000D02*
X187960000Y-71120000D01*
X188288000Y-70020000D02*
X188288000Y-69630000D01*
X187960000Y-71120000D02*
X188288000Y-70792000D01*
X188288000Y-70792000D02*
X188288000Y-70020000D01*
X202578000Y-71530000D02*
X202188000Y-71530000D01*
D38*
X205140000Y-57630000D02*
X206020000Y-56750000D01*
X204088000Y-57630000D02*
X205140000Y-57630000D01*
D36*
X199688000Y-55730000D02*
X199688000Y-57218000D01*
X199688000Y-57218000D02*
X199760000Y-57290000D01*
D42*
X211500000Y-56575000D02*
X211500000Y-56800000D01*
D39*
X214300000Y-63042000D02*
X214300000Y-64342000D01*
X214300000Y-58525000D02*
X214300000Y-63042000D01*
X212575000Y-56800000D02*
X214300000Y-58525000D01*
X211500000Y-56800000D02*
X212575000Y-56800000D01*
D38*
X205598000Y-73403000D02*
X205598000Y-73928000D01*
X205598000Y-73928000D02*
X205598000Y-72978000D01*
X205598000Y-72978000D02*
X206172000Y-72404000D01*
X202478000Y-71530000D02*
X202188000Y-71530000D01*
X202975000Y-71530000D02*
X202478000Y-71530000D01*
X205373000Y-73928000D02*
X202975000Y-71530000D01*
X205598000Y-73928000D02*
X205373000Y-73928000D01*
D42*
G04 #@! TO.N,+5V*
X188952000Y-95944213D02*
X190607787Y-97600000D01*
X188952000Y-94530000D02*
X188952000Y-95944213D01*
X199852000Y-97600000D02*
X199952000Y-97700000D01*
X190607787Y-97600000D02*
X199852000Y-97600000D01*
X202900000Y-95966213D02*
X202900000Y-97700000D01*
X202922000Y-95944213D02*
X202900000Y-95966213D01*
X202922000Y-94530000D02*
X202922000Y-95944213D01*
X199952000Y-97700000D02*
X202900000Y-97700000D01*
X216900000Y-95952213D02*
X216900000Y-97700000D01*
X216892000Y-95944213D02*
X216900000Y-95952213D01*
X216892000Y-94530000D02*
X216892000Y-95944213D01*
X202900000Y-97700000D02*
X216900000Y-97700000D01*
X99930000Y-89780000D02*
X99930000Y-79820000D01*
X107750000Y-97600000D02*
X99930000Y-89780000D01*
X99940000Y-64340000D02*
X99930000Y-64350000D01*
X99930000Y-79820000D02*
X99930000Y-74550000D01*
X99930000Y-74550000D02*
X99930000Y-64350000D01*
D39*
X101320000Y-54680000D02*
X103600000Y-54680000D01*
X99930000Y-56070000D02*
X101320000Y-54680000D01*
X107130000Y-54680000D02*
X107140000Y-54690000D01*
X103600000Y-54680000D02*
X107130000Y-54680000D01*
X100360000Y-74120000D02*
X102300000Y-74120000D01*
X99930000Y-74550000D02*
X100360000Y-74120000D01*
X105960000Y-74120000D02*
X106190000Y-73890000D01*
X102300000Y-74120000D02*
X105960000Y-74120000D01*
X100150000Y-64570000D02*
X102050000Y-64570000D01*
X99930000Y-64350000D02*
X100150000Y-64570000D01*
X105700000Y-64570000D02*
X105850000Y-64420000D01*
X102050000Y-64570000D02*
X105700000Y-64570000D01*
X228150000Y-68540000D02*
X228350000Y-68740000D01*
X223930000Y-68540000D02*
X228150000Y-68540000D01*
X181075001Y-75885001D02*
X180860000Y-75670000D01*
X181075001Y-97264999D02*
X181075001Y-75885001D01*
X180740000Y-97600000D02*
X181075001Y-97264999D01*
D42*
X180740000Y-97600000D02*
X107750000Y-97600000D01*
X190607787Y-97600000D02*
X180740000Y-97600000D01*
D39*
X124710000Y-58368000D02*
X124790000Y-58448000D01*
X120574000Y-58368000D02*
X124710000Y-58368000D01*
X118295000Y-57164000D02*
X99930000Y-57164000D01*
X119499000Y-58368000D02*
X118295000Y-57164000D01*
X120574000Y-58368000D02*
X119499000Y-58368000D01*
D42*
X99930000Y-64350000D02*
X99930000Y-57164000D01*
X99930000Y-57164000D02*
X99930000Y-56070000D01*
X229082000Y-68740000D02*
X228350000Y-68740000D01*
X230460000Y-70118000D02*
X229082000Y-68740000D01*
X230460000Y-85910000D02*
X230460000Y-70118000D01*
X216900000Y-97700000D02*
X218670000Y-97700000D01*
X218670000Y-97700000D02*
X230460000Y-85910000D01*
D39*
G04 #@! TO.N,Net-(FB2-Pad1)*
X214300000Y-69356000D02*
X214300000Y-66242000D01*
G04 #@! TO.N,Net-(FB6-Pad2)*
X165980000Y-76070000D02*
X165980000Y-78270000D01*
X164780000Y-79470000D02*
X161330000Y-79470000D01*
X165980000Y-78270000D02*
X164780000Y-79470000D01*
G04 #@! TO.N,Net-(FB5-Pad1)*
X124196000Y-50052000D02*
X124704000Y-50560000D01*
X117272000Y-50052000D02*
X124196000Y-50052000D01*
G04 #@! TO.N,Net-(FB4-Pad1)*
X119065000Y-73985000D02*
X119060000Y-73990000D01*
X119065000Y-71150000D02*
X119065000Y-73985000D01*
G04 #@! TO.N,Net-(FB3-Pad1)*
X116621919Y-65590000D02*
X118810000Y-65590000D01*
X116002000Y-63768000D02*
X116002000Y-64970081D01*
X116002000Y-64970081D02*
X116621919Y-65590000D01*
D38*
G04 #@! TO.N,Net-(C79-Pad1)*
X198710000Y-49940000D02*
X198810000Y-49940000D01*
X200760000Y-49940000D02*
X200820000Y-49880000D01*
X198810000Y-49940000D02*
X200760000Y-49940000D01*
X199660000Y-49940000D02*
X199950000Y-50230000D01*
X198810000Y-49940000D02*
X199660000Y-49940000D01*
X199950000Y-50230000D02*
X199950000Y-52450000D01*
X196688000Y-54442000D02*
X196688000Y-55730000D01*
X199950000Y-52450000D02*
X199070000Y-53330000D01*
X199070000Y-53330000D02*
X197800000Y-53330000D01*
X197800000Y-53330000D02*
X196688000Y-54442000D01*
G04 #@! TO.N,Net-(C80-Pad1)*
X196188000Y-54830000D02*
X196188000Y-55730000D01*
X196188000Y-52812000D02*
X196188000Y-54830000D01*
X196610000Y-52390000D02*
X196188000Y-52812000D01*
X196610000Y-51640000D02*
X196610000Y-52390000D01*
X196510000Y-51740000D02*
X196610000Y-51640000D01*
X194600000Y-51740000D02*
X196510000Y-51740000D01*
G04 #@! TO.N,/mcu_stm32/BOOT*
X211506000Y-63592000D02*
X211506000Y-64342000D01*
X209142000Y-61228000D02*
X211506000Y-63592000D01*
X206172000Y-61228000D02*
X209142000Y-61228000D01*
X204088000Y-60630000D02*
X205574000Y-60630000D01*
X205574000Y-60630000D02*
X206172000Y-61228000D01*
D39*
G04 #@! TO.N,VDDLS_IN*
X106940000Y-52190000D02*
X107140000Y-52390000D01*
X105060000Y-52190000D02*
X106940000Y-52190000D01*
X117070000Y-52390000D02*
X117272000Y-52592000D01*
X113440000Y-52390000D02*
X117070000Y-52390000D01*
G04 #@! TO.N,DVDDL_IN*
X106040000Y-71440000D02*
X106190000Y-71590000D01*
X103910000Y-71440000D02*
X106040000Y-71440000D01*
X116085000Y-71590000D02*
X116525000Y-71150000D01*
X112490000Y-71590000D02*
X116085000Y-71590000D01*
G04 #@! TO.N,AVDDL_IN*
X105580000Y-61850000D02*
X105850000Y-62120000D01*
X103700000Y-61850000D02*
X105580000Y-61850000D01*
X113042000Y-61228000D02*
X116002000Y-61228000D01*
X112150000Y-62120000D02*
X113042000Y-61228000D01*
D37*
G04 #@! TO.N,/switch/VDDHS*
X152900000Y-55960000D02*
X152900000Y-56820000D01*
X150610000Y-53600000D02*
X150834999Y-53824999D01*
X150834999Y-53824999D02*
X150834999Y-53894999D01*
X150834999Y-53894999D02*
X152900000Y-55960000D01*
X148500000Y-55840000D02*
X148500000Y-56820000D01*
X148500000Y-54000000D02*
X148500000Y-55840000D01*
X148890000Y-53610000D02*
X148500000Y-54000000D01*
D39*
G04 #@! TO.N,VDDHS_IN*
X124470000Y-55828000D02*
X124790000Y-56148000D01*
X122352000Y-55828000D02*
X124470000Y-55828000D01*
D36*
X131090000Y-56148000D02*
X133782000Y-56148000D01*
D37*
G04 #@! TO.N,/switch/AVDDL*
X148490000Y-72170000D02*
X148500000Y-72180000D01*
X150510000Y-72170000D02*
X150500000Y-72180000D01*
X154900000Y-71310000D02*
X154900000Y-72180000D01*
X154280000Y-70690000D02*
X154900000Y-71310000D01*
X141790000Y-69130000D02*
X141820000Y-69100000D01*
X155810021Y-69500000D02*
X155800021Y-69490000D01*
X157180000Y-69500000D02*
X155810021Y-69500000D01*
X157180000Y-67500000D02*
X155810021Y-67500000D01*
X155810021Y-67500000D02*
X155800021Y-67510000D01*
D38*
X144045001Y-72125001D02*
X144100000Y-72180000D01*
X144045001Y-71334999D02*
X144045001Y-72125001D01*
X144770000Y-70610000D02*
X144045001Y-71334999D01*
X148480000Y-72160000D02*
X148500000Y-72180000D01*
X148480000Y-70610000D02*
X148480000Y-72160000D01*
X150500000Y-71250000D02*
X150500000Y-72180000D01*
X150500000Y-70998198D02*
X150500000Y-71250000D01*
X150580000Y-70918198D02*
X150500000Y-70998198D01*
X150580000Y-70600000D02*
X150580000Y-70918198D01*
D37*
X139855003Y-65815001D02*
X139630004Y-66040000D01*
X141820000Y-65100000D02*
X140570004Y-65100000D01*
X140570004Y-65100000D02*
X139855003Y-65815001D01*
D38*
X140110004Y-67100000D02*
X139690002Y-67520002D01*
X141820000Y-67100000D02*
X140110004Y-67100000D01*
D37*
X139700000Y-68580000D02*
X140220000Y-69100000D01*
X140220000Y-69100000D02*
X141820000Y-69100000D01*
D39*
X123033600Y-65716400D02*
X123010000Y-65740000D01*
X124600000Y-65716400D02*
X123033600Y-65716400D01*
X122860000Y-65590000D02*
X123010000Y-65740000D01*
X120710000Y-65590000D02*
X122860000Y-65590000D01*
D37*
G04 #@! TO.N,/switch/DVDDL*
X157180000Y-65920001D02*
X158695736Y-65920000D01*
X158695736Y-65920000D02*
X159120000Y-65920000D01*
X158160000Y-61500000D02*
X157180000Y-61500000D01*
X159120000Y-61350000D02*
X158970000Y-61500000D01*
X158970000Y-61500000D02*
X158160000Y-61500000D01*
D38*
X147300000Y-73930000D02*
X147300000Y-72180000D01*
X147010000Y-74220000D02*
X147300000Y-73930000D01*
X152045000Y-72235000D02*
X152100000Y-72180000D01*
X152045000Y-74220000D02*
X152045000Y-72235000D01*
D37*
X141820000Y-61100000D02*
X139130000Y-61100000D01*
X138604999Y-61625001D02*
X138380000Y-61850000D01*
X139130000Y-61100000D02*
X138604999Y-61625001D01*
X141820000Y-63500000D02*
X140840000Y-63500000D01*
X138774997Y-63674999D02*
X138604997Y-63504999D01*
X138604997Y-63504999D02*
X138379998Y-63280000D01*
X140665001Y-63674999D02*
X138774997Y-63674999D01*
X140840000Y-63500000D02*
X140665001Y-63674999D01*
X153700000Y-56820000D02*
X153700000Y-54600000D01*
X155905001Y-54794999D02*
X156130000Y-54570000D01*
X155300000Y-55400000D02*
X155905001Y-54794999D01*
X155300000Y-56820000D02*
X155300000Y-55400000D01*
X146900000Y-55364028D02*
X146900000Y-56820000D01*
X145470000Y-53934028D02*
X146900000Y-55364028D01*
X145430000Y-52760000D02*
X145470000Y-52800000D01*
X145470000Y-52800000D02*
X145470000Y-53934028D01*
D36*
X122820000Y-73990000D02*
X123070000Y-73740000D01*
X120960000Y-73990000D02*
X122820000Y-73990000D01*
X124180000Y-73740000D02*
X125240000Y-72680000D01*
X123070000Y-73740000D02*
X124180000Y-73740000D01*
D37*
G04 #@! TO.N,/switch/VDDLS*
X148100000Y-55840000D02*
X148100000Y-56820000D01*
X148100000Y-55778196D02*
X148100000Y-55840000D01*
X147220002Y-54898198D02*
X148100000Y-55778196D01*
X147220002Y-54580000D02*
X147220002Y-54898198D01*
X153300000Y-55680000D02*
X153300000Y-56480000D01*
X152220000Y-54600000D02*
X153300000Y-55680000D01*
X153300000Y-56480000D02*
X153300000Y-56820000D01*
D39*
X136158000Y-51830000D02*
X137520000Y-53192000D01*
X127874000Y-51830000D02*
X136158000Y-51830000D01*
X126604000Y-50560000D02*
X127874000Y-51830000D01*
X137520000Y-53192000D02*
X137520000Y-54630000D01*
D37*
G04 #@! TO.N,/switch/AVDDH*
X157180000Y-71020000D02*
X157180000Y-70700000D01*
X159435000Y-73275000D02*
X157180000Y-71020000D01*
X160950000Y-73275000D02*
X159435000Y-73275000D01*
X160950000Y-73275000D02*
X160950000Y-74360000D01*
X160950000Y-74360000D02*
X161030000Y-74440000D01*
X160950000Y-67200000D02*
X160950000Y-68030000D01*
X160950000Y-68030000D02*
X161030000Y-68110000D01*
D39*
X161300000Y-74710000D02*
X161030000Y-74440000D01*
X161300000Y-75660000D02*
X161300000Y-74710000D01*
D37*
X158160000Y-66300000D02*
X157180000Y-66300000D01*
X158420000Y-66300000D02*
X158160000Y-66300000D01*
X160950000Y-67200000D02*
X159320000Y-67200000D01*
X159320000Y-67200000D02*
X158420000Y-66300000D01*
D38*
X146900000Y-73110000D02*
X146900000Y-72180000D01*
X146164999Y-73845001D02*
X146900000Y-73110000D01*
X146164999Y-75325001D02*
X146164999Y-73845001D01*
X145940000Y-75550000D02*
X146164999Y-75325001D01*
X151700000Y-73110000D02*
X151700000Y-72180000D01*
X151560000Y-73250000D02*
X151700000Y-73110000D01*
X151560000Y-75580000D02*
X151560000Y-73250000D01*
D37*
X137418198Y-64570000D02*
X137100000Y-64570000D01*
X140264988Y-64570000D02*
X137418198Y-64570000D01*
X140934988Y-63900000D02*
X140264988Y-64570000D01*
X141820000Y-63900000D02*
X140934988Y-63900000D01*
X137438198Y-71830000D02*
X137120000Y-71830000D01*
X139710000Y-71830000D02*
X137438198Y-71830000D01*
X140840000Y-70700000D02*
X139710000Y-71830000D01*
X141820000Y-70700000D02*
X140840000Y-70700000D01*
X140521099Y-68101009D02*
X137384999Y-68101009D01*
X140720090Y-68300000D02*
X140521099Y-68101009D01*
X137384999Y-68101009D02*
X137160000Y-68326008D01*
X141820000Y-68300000D02*
X140720090Y-68300000D01*
D39*
X161300000Y-77540000D02*
X161330000Y-77570000D01*
X161300000Y-75660000D02*
X161300000Y-77540000D01*
G04 #@! TD*
M02*
