M48
;DRILL file {KiCad (5.0.2)-1} date 6/8/2019 11:38:08 PM
;FORMAT={-:-/ absolute / inch / decimal}
FMAT,2
INCH,TZ
T1C0.0079
T2C0.0098
T3C0.0118
T4C0.0157
T5C0.0358
T6C0.0394
T7C0.0402
T8C0.0425
T9C0.0433
T10C0.0634
T11C0.1200
T12C0.1283
%
G90
G05
T1
X4.0181Y-2.4189
X4.0283Y-2.7957
X4.0791Y-2.0331
X4.0827Y-2.3114
X4.0913Y-2.689
X4.1358Y-1.9303
X4.357Y-3.4106
X4.747Y-2.1706
X4.797Y-2.6606
X4.817Y-2.0706
X4.847Y-2.7106
X4.847Y-2.7806
X4.887Y-2.6706
X4.897Y-2.8106
X4.9055Y-2.5873
X5.035Y-2.6713
X5.087Y-2.5706
X5.167Y-2.5006
X5.167Y-2.5406
X5.167Y-2.8506
X5.2189Y-3.3713
X5.2264Y-2.7386
X5.227Y-2.8706
X5.247Y-2.9106
X5.267Y-2.2106
X5.29Y-2.349
X5.3Y-2.31
X5.3547Y-2.2594
X5.3976Y-2.5421
X5.3984Y-2.828
X5.4Y-2.69
X5.448Y-2.4913
X5.448Y-2.435
X5.49Y-1.98
X5.4972Y-2.6
X5.4996Y-2.6583
X5.5Y-2.32
X5.5Y-2.7
X5.5Y-2.29
X5.5303Y-2.4531
X5.5303Y-2.485
X5.5429Y-2.8783
X5.587Y-1.8406
X5.59Y-2.22
X5.5906Y-2.1492
X5.6354Y-2.7031
X5.6427Y-2.4272
X5.6508Y-2.1106
X5.687Y-1.8406
X5.6996Y-2.7799
X5.7047Y-2.2953
X5.7256Y-2.0772
X5.7298Y-2.3003
X5.737Y-2.3906
X5.737Y-2.4406
X5.737Y-2.4906
X5.737Y-2.5406
X5.737Y-2.5906
X5.737Y-2.6406
X5.737Y-2.6906
X5.7457Y-2.9744
X5.7657Y-2.3154
X5.787Y-1.8406
X5.7878Y-2.922
X5.7894Y-2.3071
X5.7961Y-2.1488
X5.837Y-2.3906
X5.837Y-2.4406
X5.837Y-2.4906
X5.837Y-2.5406
X5.837Y-2.5906
X5.837Y-2.6406
X5.837Y-2.6906
X5.8457Y-2.7799
X5.8618Y-2.1106
X5.8674Y-3.061
X5.887Y-1.8406
X5.8937Y-2.1839
X5.9004Y-3.0563
X5.9283Y-2.7795
X5.9295Y-2.1102
X5.937Y-2.3906
X5.937Y-2.4406
X5.937Y-2.4906
X5.937Y-2.5406
X5.937Y-2.5906
X5.937Y-2.6406
X5.937Y-2.6906
X5.9417Y-2.1843
X5.9669Y-2.9756
X5.9728Y-2.1843
X5.986Y-2.922
X5.987Y-1.8406
X5.9929Y-2.1496
X6.037Y-2.3906
X6.037Y-2.4406
X6.037Y-2.4906
X6.037Y-2.5406
X6.037Y-2.5906
X6.037Y-2.6406
X6.037Y-2.6906
X6.0512Y-2.1496
X6.0718Y-2.1793
X6.074Y-2.7831
X6.087Y-1.8406
X6.087Y-3.0406
X6.1126Y-2.1087
X6.1339Y-2.6579
X6.1339Y-2.7358
X6.1469Y-2.1484
X6.187Y-1.8406
X6.237Y-2.1087
X6.2374Y-2.9358
X6.2461Y-3.0555
X6.2646Y-2.4154
X6.2756Y-2.9193
X6.287Y-1.8406
X6.31Y-2.4705
X6.31Y-2.5
X6.3398Y-2.6815
X6.3398Y-2.9307
X6.3492Y-2.3398
X6.3673Y-2.1539
X6.467Y-2.9206
X6.47Y-2.6
X6.4925Y-2.4925
X6.4965Y-2.6689
X6.4996Y-2.8858
X6.5Y-2.55
X6.5496Y-2.1992
X6.574Y-2.6657
X6.5949Y-2.4925
X6.6004Y-2.3383
X6.6409Y-2.595
X6.6685Y-2.6835
X6.7012Y-2.2354
X6.7122Y-2.3383
X6.7315Y-2.4008
X6.8039Y-2.2295
X6.8268Y-2.6594
X6.84Y-2.42
X6.8639Y-2.3544
X6.8993Y-2.2483
X7.0072Y-1.8828
X7.0091Y-2.17
X7.0366Y-2.2
X7.0563Y-2.3209
X7.06Y-2.23
X7.0831Y-2.25
X7.097Y-2.7406
X7.1205Y-2.9791
X7.167Y-2.7406
X7.167Y-2.8206
X7.17Y-2.24
X7.1795Y-2.6547
X7.22Y-2.3
X7.227Y-3.1206
X7.237Y-1.88
X7.257Y-3.0306
X7.2697Y-2.4732
X7.2941Y-2.5433
X7.3142Y-3.0677
X7.3386Y-2.6823
X7.367Y-3.2378
X7.437Y-2.0006
X7.437Y-3.2378
X7.46Y-2.97
X7.4803Y-3.0571
X7.53Y-2.51
X7.6Y-2.38
X7.6Y-2.13
X7.617Y-3.3206
X7.6236Y-1.9602
X7.64Y-2.38
X7.647Y-3.2378
X7.6862Y-2.1177
X7.7413Y-1.9264
X7.747Y-3.1306
X7.79Y-2.14
X7.8256Y-2.0701
X7.83Y-2.35
X7.837Y-2.9606
X7.837Y-3.0206
X7.8646Y-2.2555
X7.88Y-2.42
X7.897Y-3.2378
X7.9016Y-2.7083
X7.937Y-2.1006
X7.9472Y-2.0386
X7.9602Y-2.7008
X8.027Y-2.9906
X8.027Y-2.9406
X8.111Y-2.2343
X8.117Y-2.8506
X8.157Y-3.3206
X8.17Y-2.95
X8.187Y-3.2378
X8.24Y-2.31
X8.2582Y-2.6532
X8.2598Y-3.0256
X8.2608Y-2.7402
X8.277Y-2.0506
X8.2835Y-2.6703
X8.2851Y-3.0214
X8.2867Y-2.7574
X8.287Y-2.3106
X8.287Y-3.1306
X8.327Y-2.6506
X8.337Y-1.8406
X8.337Y-1.9606
X8.337Y-1.9906
X8.337Y-2.0206
X8.3539Y-2.4
X8.3547Y-2.3681
X8.3874Y-3.035
X8.3909Y-3.2206
X8.417Y-2.0506
X8.4209Y-3.1906
X8.4425Y-2.9906
X8.487Y-1.8406
X8.557Y-3.0306
X8.587Y-1.8406
X8.737Y-1.8406
X8.777Y-3.3506
X8.917Y-2.9306
X8.957Y-2.8806
X8.987Y-2.8306
T2
X7.48Y-2.28
X7.5878Y-2.2579
X7.7638Y-2.2638
T3
X5.3827Y-2.1106
X6.2646Y-2.5953
X7.4Y-2.8
T4
X4.9307Y-2.8614
X5.4142Y-2.1508
T5
X6.5652Y-3.7378
X6.6152Y-3.6378
X6.6652Y-3.7378
X6.7152Y-3.6378
X6.7652Y-3.7378
X6.8152Y-3.6378
X6.8652Y-3.7378
X6.9152Y-3.6378
X5.7934Y-3.7378
X5.8434Y-3.6378
X5.8934Y-3.7378
X5.9434Y-3.6378
X5.9934Y-3.7378
X6.0434Y-3.6378
X6.0934Y-3.7378
X6.1434Y-3.6378
X4.2498Y-3.7378
X4.2998Y-3.6378
X4.3498Y-3.7378
X4.3998Y-3.6378
X4.4498Y-3.7378
X4.4998Y-3.6378
X4.5498Y-3.7378
X4.5998Y-3.6378
X5.0216Y-3.7378
X5.0716Y-3.6378
X5.1216Y-3.7378
X5.1716Y-3.6378
X5.2216Y-3.7378
X5.2716Y-3.6378
X5.3216Y-3.7378
X5.3716Y-3.6378
T6
X5.2943Y-1.9311
X5.3943Y-1.9311
X4.567Y-2.4106
X4.567Y-2.5106
X6.5346Y-2.9949
X6.6346Y-2.9949
X4.617Y-1.9706
X4.617Y-2.0706
X8.437Y-2.7306
X8.437Y-2.8306
X4.5876Y-2.8012
X4.6876Y-2.8012
X8.847Y-2.2106
X8.847Y-2.3106
X8.847Y-2.4106
X8.847Y-2.5106
X8.947Y-2.2106
X8.947Y-2.3106
X8.947Y-2.4106
X8.947Y-2.5106
X6.53Y-2.05
X6.63Y-2.05
X6.73Y-2.05
X6.83Y-2.05
X4.997Y-1.8806
X5.097Y-1.8806
T7
X8.4209Y-3.6035
X8.4209Y-3.7217
X8.5391Y-3.6035
X8.5391Y-3.7217
X7.8709Y-3.6035
X7.8709Y-3.7217
X7.9891Y-3.6035
X7.9891Y-3.7217
X7.3209Y-3.6035
X7.3209Y-3.7217
X7.4391Y-3.6035
X7.4391Y-3.7217
T8
X8.3028Y-3.5665
X8.6572Y-3.5665
X7.7528Y-3.5665
X8.1072Y-3.5665
X7.2028Y-3.5665
X7.5572Y-3.5665
T9
X6.4915Y-3.226
X6.59Y-3.226
X6.8904Y-3.226
X6.9888Y-3.226
X5.7198Y-3.226
X5.8182Y-3.226
X6.1186Y-3.226
X6.217Y-3.226
X4.1762Y-3.226
X4.2746Y-3.226
X4.575Y-3.226
X4.6734Y-3.226
X4.948Y-3.226
X5.0464Y-3.226
X5.3468Y-3.226
X5.4452Y-3.226
T10
X4.1148Y-3.5409
X4.7348Y-3.5409
X4.8865Y-3.5409
X5.5066Y-3.5409
X6.4301Y-3.5409
X7.0502Y-3.5409
X5.6583Y-3.5409
X6.2784Y-3.5409
T11
X3.91Y-1.94
X8.9283Y-3.7673
X3.8936Y-3.7815
X8.9283Y-1.97
T12
X4.1998Y-3.3878
X4.6498Y-3.3878
X4.9716Y-3.3878
X5.4216Y-3.3878
X6.5152Y-3.3878
X6.9652Y-3.3878
X5.7434Y-3.3878
X6.1934Y-3.3878
T0
M30
